<?xml version="1.0" encoding="UTF-8"?>
<svg id="_图层_1" data-name="图层 1" xmlns="http://www.w3.org/2000/svg" xmlns:xlink="http://www.w3.org/1999/xlink" viewBox="0 0 76 76">
  <defs>
    <style>
      .cls-1 {
        fill: #94b9fd;
      }

      .cls-2 {
        opacity: .6;
      }

      .cls-3 {
        fill: url(#_未命名的渐变_304-2);
      }

      .cls-4 {
        fill: url(#_未命名的渐变_304);
      }

      .cls-5 {
        fill: #4187f7;
      }

      .cls-6 {
        fill: #689aff;
      }
    </style>
    <linearGradient id="_未命名的渐变_304" data-name="未命名的渐变 304" x1="-549.3" y1="-59.7" x2="-541.18" y2="-59.7" gradientTransform="translate(-39.19 574.62) rotate(90)" gradientUnits="userSpaceOnUse">
      <stop offset="0" stop-color="#85b5f8"/>
      <stop offset=".89" stop-color="#4187f7"/>
    </linearGradient>
    <linearGradient id="_未命名的渐变_304-2" data-name="未命名的渐变 304" x1="-539.29" y1="-55.22" x2="-533.63" y2="-55.22" gradientTransform="translate(-30.14 578.87) rotate(90)" xlink:href="#_未命名的渐变_304"/>
  </defs>
  <path class="cls-1" d="M61.26,62.6v-3.05c0-2.11-1.67-3.82-3.72-3.82h-1.6v-1c0-2.11-1.67-3.82-3.72-3.82H24.97c-2.05,0-3.72,1.71-3.72,3.82v1h-1.6c-2.05,0-3.72,1.71-3.72,3.82v3.05H61.26Z"/>
  <g>
    <path class="cls-1" d="M55.86,26.08h0c-.42,.59-1.22,.72-1.79,.29l-12.52-9.39c-.57-.43-.7-1.26-.28-1.84h0c.42-.59,1.22-.72,1.79-.29l12.52,9.39c.57,.43,.7,1.26,.28,1.84Z"/>
    <path class="cls-1" d="M42.52,46.3h0c-.42,.59-1.22,.72-1.79,.29l-12.52-9.39c-.57-.43-.7-1.26-.28-1.84h0c.42-.59,1.22-.72,1.79-.29l12.52,9.39c.57,.43,.7,1.26,.28,1.84Z"/>
    <path class="cls-1" d="M62.07,42.91l-12.5-9.37,3.33-4.69c.49-.7,.34-1.67-.33-2.18l-9.91-7.43c-.68-.51-1.63-.35-2.12,.34l-3.84,5.42-1.86,.33,.2,2-3.88,5.47c-.49,.7-.34,1.67,.33,2.18l4.66,3.49v.1s.05-.06,.05-.06l5.19,3.89c.68,.51,1.63,.35,2.12-.34l3.88-5.47,12.5,9.37c.82,.62,1.97,.43,2.57-.41,.6-.85,.42-2.03-.4-2.65Z"/>
  </g>
  <ellipse class="cls-6" cx="20.58" cy="29.24" rx="5.75" ry="5.91"/>
  <ellipse class="cls-4" cx="20.51" cy="29.38" rx="3.95" ry="4.06"/>
  <path class="cls-5" d="M19.91,31.61l-1.49-1.54c-.37-.38-.37-1,0-1.38l1.49-1.54c.37-.38,.97-.38,1.34,0l1.49,1.54c.37,.38,.37,1,0,1.38l-1.49,1.54c-.37,.38-.97,.38-1.34,0Z"/>
  <g class="cls-2">
    <ellipse class="cls-6" cx="25.13" cy="42.31" rx="4" ry="4.12"/>
    <ellipse class="cls-3" cx="25.08" cy="42.41" rx="2.75" ry="2.83"/>
    <path class="cls-5" d="M24.67,43.97l-1.06-1.09c-.25-.26-.25-.68,0-.94l1.06-1.09c.25-.26,.66-.26,.92,0l1.06,1.09c.25,.26,.25,.68,0,.94l-1.06,1.09c-.25,.26-.66,.26-.92,0Z"/>
  </g>
</svg>