<svg width="160" height="120" viewBox="0 0 160 120" fill="none" xmlns="http://www.w3.org/2000/svg">
<g clip-path="url(#clip0_1269_12767)">
<rect width="160" height="120" fill=""/>
<ellipse opacity="0.3" cx="80.0004" cy="101.905" rx="63.487" ry="12.9477" transform="rotate(0.130017 80.0004 101.905)" fill="url(#paint0_linear_1269_12767)" stroke="#85A2DB" stroke-opacity="0.7" stroke-width="0.2" stroke-miterlimit="10"/>
<ellipse opacity="0.6" cx="80.0007" cy="99.7046" rx="46.7993" ry="9.74588" transform="rotate(0.130017 80.0007 99.7046)" fill="url(#paint1_linear_1269_12767)" stroke="#85A2DB" stroke-opacity="0.7" stroke-width="0.2" stroke-miterlimit="10"/>
<ellipse cx="80.0001" cy="97.9797" rx="30.2424" ry="6.91008" transform="rotate(0.130017 80.0001 97.9797)" fill="url(#paint2_linear_1269_12767)" stroke="#85A2DB" stroke-opacity="0.7" stroke-width="0.2" stroke-miterlimit="10"/>
<path d="M124.627 32.9602C121.328 29.6616 116.354 28.5753 114.176 28.3654C115.066 33.743 115.107 41.3476 114.897 44.4179C118.397 44.9384 122.737 46.9241 124.627 48.0787V32.9602Z" fill="#95BAFF" stroke="#1B3992" stroke-width="0.5" stroke-linejoin="round"/>
<path d="M123.032 39.9559C122.692 39.5534 121.407 39.0533 120.808 38.8535V46.0691C121.179 46.2394 122.445 46.8752 123.032 47.1718V39.9559Z" fill="#E5EEFF"/>
<path d="M120.213 35.7938C120.049 35.5475 118.788 35.1157 118.179 34.9307C118.124 38.3155 118.039 45.0831 118.14 45.0753C118.242 45.0675 119.564 45.5679 120.213 45.819V35.7938Z" fill="#E5EEFF"/>
<path d="M115.366 30.0749V37.3499C115.608 39.0212 115.489 42.7596 115.399 44.4199C115.738 44.4199 117.016 44.7413 117.613 44.902V30.687C117.313 30.1471 115.99 30.054 115.366 30.0749Z" fill="#E5EEFF"/>
<path d="M41.9754 25.4859C59.2755 18.3258 67.1681 8.26519 72.9142 0.0385742C82.5231 10.9422 104.319 21.3159 113.686 24.1997C115.374 33.6019 115.335 49.409 113.406 59.5743C109.371 80.8391 91.0846 95.9466 82.5477 100.797C63.1522 98.0474 48.7496 81.6727 43.6893 61.8211C40.3123 48.5728 40.8759 30.7245 41.9754 25.4859Z" stroke="#1B3992" stroke-width="0.5" stroke-linejoin="round"/>
<path d="M47.7009 30.1734C66.3717 21.306 76.897 8.59226 81.4607 0.293945C91.0696 11.1975 104.262 18.7261 113.474 24.1747C116.197 34.5973 114.609 52.0482 113.474 59.4709C109.439 80.7357 91.3558 95.753 82.8189 100.604C60.1128 92.4962 51.3873 71.1122 48.865 61.2171C46.4018 48.877 46.6014 35.4121 47.7009 30.1734Z" fill="#4585FF" stroke="#1B3992" stroke-width="0.5" stroke-linejoin="round"/>
<g filter="url(#filter0_i_1269_12767)">
<path d="M53.0257 33.9011C67.9239 27.462 77.6455 16.8565 82.8221 9.65967C93.6489 19.7072 101.648 23.6089 110.253 28.1838C111.295 37.0781 110.442 54.6129 109.263 60.397C105.772 77.5255 90.1839 91.9623 82.8221 96.1451C65.6299 87.944 57.3585 71.0257 55.1092 62.102C52.1982 50.5528 53.0257 39.4264 53.0257 33.9011Z" fill="#95BAFF"/>
</g>
<path d="M53.0257 33.9011C67.9239 27.462 77.6455 16.8565 82.8221 9.65967C93.6489 19.7072 101.648 23.6089 110.253 28.1838C111.295 37.0781 110.442 54.6129 109.263 60.397C105.772 77.5255 90.1839 91.9623 82.8221 96.1451C65.6299 87.944 57.3585 71.0257 55.1092 62.102C52.1982 50.5528 53.0257 39.4264 53.0257 33.9011Z" stroke="#1B3992" stroke-width="0.5" stroke-linejoin="round"/>
<path d="M81.3497 0H72.8232C62.7614 15.6051 48.0119 23.4982 41.895 25.4941C35.7653 79.1659 64.4614 98.1818 82.4788 100.693C46.6705 85.9311 45.3922 47.2425 47.7666 29.9897C67.4977 21.0742 78.3766 6.28176 81.3497 0Z" fill="#124AB7" stroke="#1B3992" stroke-width="0.5" stroke-linejoin="round"/>
<rect x="0.249807" y="0.240185" width="28.8905" height="30.376" rx="1.87462" transform="matrix(0.999229 -0.0392598 0 1 67.6027 43.3335)" fill="#124AB7" stroke="#1B3992" stroke-width="0.5"/>
<path d="M98.8708 44.7934L95.9691 42.8372C95.6186 42.6009 95.2022 42.4817 94.7798 42.4968L69.6332 43.3936C67.7776 43.3936 67.7337 45.0865 67.7776 45.7957L67.6059 72.5537C67.6038 72.8842 67.7651 73.1943 68.0368 73.3824L70.7286 75.2456L71.2023 45.7957L98.8708 44.7934Z" fill="#1E5EDA" stroke="#1B3992" stroke-width="0.3" stroke-linejoin="round"/>
<path d="M70.1135 47.4793C70.1135 46.413 70.9991 45.4917 72.0612 45.4531L97.8177 44.5171C98.8275 44.4804 99.6204 45.2582 99.6076 46.2729L99.2914 71.3547C99.2785 72.3777 98.4518 73.2661 97.4328 73.3518L71.9924 75.4918C70.9564 75.579 70.1135 74.8044 70.1135 73.7651V47.4793Z" fill="#87E7FF" stroke="#1B3992" stroke-width="0.5"/>
<path d="M72.417 43.3797L74.1786 44.1294V34.3088C74.9882 27.0521 80.7629 24.8635 83.5491 24.6762C75.6629 24.0165 72.417 30.7116 72.417 34.3088V43.3797Z" fill="#124AB7" stroke="#1B3992" stroke-width="0.3" stroke-linejoin="round"/>
<path d="M89.7988 34.2084C89.1917 29.7181 85.4158 28.4672 83.4434 27.8062C89.1649 27.2207 91.4344 32.2163 91.4344 34.2084V43.5545L89.7988 42.9937V34.2084Z" fill="#124AB7" stroke="#1B3992" stroke-width="0.3" stroke-linejoin="round"/>
<path d="M77.1289 44.1529H74.1719V34.4346C74.916 26.66 81.139 24.7069 84.1575 24.7021C91.9008 24.8742 94.2668 30.9756 94.4818 34.0047V43.5763H91.4168V34.0047C90.8032 29.0988 86.4818 27.7137 84.1575 27.7137C78.6943 28.0579 77.1954 32.5082 77.1289 34.6903V44.1529Z" fill="#87E7FF" stroke="#1B3992" stroke-width="0.3" stroke-linejoin="round"/>
<path d="M85.8732 66.69H83.5119V61.3699C80.2318 60.3065 80.4079 57.2949 80.7008 56.1982C81.7384 52.8694 84.9548 52.6429 86.5042 53.443C91.0645 55.8026 87.7905 60.4154 85.64 61.1532L85.8732 66.69Z" fill="#124AB7" stroke="#1B3992" stroke-width="0.3" stroke-linejoin="round"/>
<path d="M84.6538 66.6921H83.1662L83.4792 61.1553C80.8737 60.0918 80.6876 57.6325 80.9202 56.5357C81.7444 53.2069 84.2103 53.0883 85.3403 53.4451C88.9627 55.8047 85.9052 59.9589 84.197 60.6967L84.6538 66.6921Z" fill="#95BAFF" stroke="#1B3992" stroke-width="0.3" stroke-linejoin="round"/>
<path d="M95.1548 58.3077C95.6785 57.2979 98.0733 58.2235 99.2052 58.8125L99.052 71.1425C99.1694 72.8528 97.9123 73.1593 97.405 73.2493L82.5129 74.5908C82.1529 71.2247 84.7085 71.4491 86.0314 71.9821C86.8496 72.2514 87.8179 72.0943 88.1997 71.9821C89.8689 70.7366 89.1953 69.1349 88.6498 68.4898C88.1588 67.6483 88.4452 67.1293 88.6498 66.975C90.1881 66.0325 90.8181 68.2934 90.9409 69.5417C91.3009 71.494 92.1819 70.3551 92.5774 69.5417C93.3629 67.724 91.5136 65.839 90.4908 65.1237C87.807 62.3635 89.3726 60.6637 90.4908 60.1588C93.862 59.5529 94.132 62.0943 93.8456 63.4407C93.7147 66.6048 96.164 66.0774 97.405 65.4182C99.8925 63.0283 98.4415 61.2527 97.405 60.6637C95.1139 59.4856 94.9503 58.6021 95.1548 58.3077Z" fill="#05A6CE" fill-opacity="0.65"/>
<path d="M92.6143 49.3117C88.7064 48.1949 88.7001 46.8982 89.3747 45.1073L91.7695 44.9898C93.8102 44.9222 95.967 44.853 97.7548 44.749C99.208 44.8299 99.381 45.8679 99.381 46.3639L99.2931 53.3603C97.8962 55.1227 97.5047 53.8942 97.4295 53.0804C97.4295 50.289 94.2194 49.4049 92.6143 49.3117Z" fill="#05A6CE" fill-opacity="0.65"/>
<path d="M79.3583 51.0114C80.4749 47.4479 80.2778 46.0264 78.6745 45.4414C76.2763 45.5888 75.1769 45.5888 72.7809 45.6874C70.5575 45.5223 70.3845 47.1024 70.3845 47.3561C70.4642 50.7706 70.309 52.8136 70.3887 54.784C73.5107 55.907 73.3987 58.6444 72.9147 59.8728C70.8817 65.7687 74.3667 66.7163 76.3634 66.4531C81.1553 64.4176 80.3566 60.1652 79.3583 58.2935C78.1966 55.7667 78.8743 52.3859 79.3583 51.0114Z" fill="#05A6CE" fill-opacity="0.65"/>
<path d="M70.0138 47.4877C70.0138 46.3644 70.9466 45.394 72.0654 45.3533L97.8219 44.4173C98.8855 44.3787 99.7207 45.198 99.7073 46.2668L99.3911 71.3486C99.3775 72.4262 98.5067 73.362 97.4334 73.4523L71.993 75.5922C70.9016 75.684 70.0138 74.8681 70.0138 73.7734V47.4877Z" stroke="#1B3992" stroke-width="0.3"/>
<path d="M57.6827 68.5407C48.3342 68.6774 40.7087 67.119 38.0645 66.3228V82.9556C44.2058 85.5486 53.7022 85.6851 57.6827 85.4292V68.5407Z" fill="#1E5FDB" stroke="#1B3992" stroke-width="0.2" stroke-linejoin="round"/>
<path d="M57.0948 69.1096C47.7463 69.2463 40.1208 67.6879 37.4766 66.8916V83.5244C43.6179 86.1174 53.1143 86.2539 57.0948 85.998V69.1096Z" fill="#E5EEFF" stroke="#1B3992" stroke-width="0.2" stroke-linejoin="round"/>
<path d="M40.0596 77.9418L41.6307 78.4038L43.2942 76.7405L45.7896 78.9586L47.1759 77.9418L49.2091 76.186L51.4271 80.8072L54.3846 77.9418" stroke="#1E5EDA" stroke-width="0.5" stroke-linecap="round" stroke-linejoin="round"/>
<path d="M51.541 74.0601V83.5371" stroke="#1E5EDA" stroke-width="0.5" stroke-linecap="round" stroke-linejoin="round"/>
<path d="M47.2861 73.7417V83.1231" stroke="#1E5EDA" stroke-width="0.5" stroke-linecap="round" stroke-linejoin="round"/>
<path d="M43.2793 73.022V82.3849" stroke="#1E5EDA" stroke-width="0.5" stroke-linecap="round" stroke-linejoin="round"/>
<path d="M39.8594 70.4858V81.5744C42.5036 82.4272 49.2761 83.9965 55.2128 83.4506" stroke="#1E5EDA" stroke-width="0.5" stroke-linecap="round" stroke-linejoin="round"/>
<circle cx="39.8594" cy="70.2383" r="0.479544" fill="#1B3992"/>
<path d="M127.59 62.1289L101.962 67.8893V92.694L127.59 86.9337V62.1289Z" fill="#E5EEFF" stroke="#1B3992" stroke-width="0.2" stroke-linejoin="round"/>
<path d="M121.212 78.3867L117.383 79.1875L117.301 89.2687L121.126 88.3858L121.212 78.3867Z" fill="#95BAFF" stroke="#1B3992" stroke-width="0.2" stroke-linejoin="round"/>
<path d="M117.42 76.2617L113.509 77.1404V90.1049L117.305 89.2197L117.42 76.2617Z" fill="#4585FF" stroke="#1B3992" stroke-width="0.2" stroke-linejoin="round"/>
<path d="M109.932 74.7954L106.022 75.6065L105.917 91.7479L109.826 90.8508L109.932 74.7954Z" fill="#87E7FF" stroke="#1B3992" stroke-width="0.2" stroke-linejoin="round"/>
<path d="M113.508 68.8408L109.968 69.6146L109.828 90.9286L113.508 90.0426V68.8408Z" fill="#95BAFF" stroke="#1B3992" stroke-width="0.2" stroke-linejoin="round"/>
<path d="M124.899 71.251L124.627 87.5473L121.078 88.2744L121.325 72.0449L124.899 71.251Z" fill="#4585FF" stroke="#1B3992" stroke-width="0.2" stroke-linejoin="round"/>
<path d="M40.9283 47.2264C37.3562 54.14 30.3514 57.6271 25.2989 55.0166C25.2178 54.9747 25.1367 54.9328 25.0557 54.8909C26.0878 55.5435 27.0281 55.91 28.0683 56.4475C33.1208 59.0579 40.1256 55.5709 43.6977 48.6572C47.2698 41.7436 46.0609 34.0127 41.0084 31.4023C39.8601 30.809 39.0445 30.2342 37.5905 29.6363C37.3199 29.5306 37.0559 29.4453 36.771 29.4004C37.2655 29.5366 37.7526 29.7201 38.2254 29.9644C43.2984 32.5684 44.5073 40.2992 40.9283 47.2264Z" fill="#4585FF" stroke="#1B3992" stroke-width="0.3" stroke-miterlimit="10"/>
<path d="M25.0564 54.891C25.1375 54.9329 25.2185 54.9748 25.2996 55.0167C30.3521 57.6271 37.357 54.1401 40.929 47.2264C44.5011 40.3128 43.2922 32.5819 38.2397 29.9714C37.7669 29.7271 37.2797 29.5436 36.7853 29.4074C31.9086 28.0467 25.8488 31.4937 22.6033 37.7751C19.0938 44.5677 20.2023 52.1615 25.0564 54.891Z" fill="#06F1C8" stroke="#1B3992" stroke-width="0.3" stroke-miterlimit="10"/>
<path d="M36.3106 32.2131C32.2891 30.1353 26.7235 32.9133 23.8794 38.4179C21.0354 43.9225 21.9899 50.0692 26.0114 52.147C30.0329 54.2248 35.5985 51.4468 38.4426 45.9422C41.2867 40.4376 40.3321 34.2909 36.3106 32.2131Z" fill="" stroke="#124AB7" stroke-width="0.3"/>
<path d="M34.9062 42.7281C35.2108 41.8552 33.8943 41.033 31.8718 40.7204L32.3519 39.3374L34.9521 39.5127L35.9532 36.6342L28.8492 36.1478L27.8481 39.0263L30.4483 39.2016L29.9692 40.5944C27.8515 40.6414 26.0764 41.2496 25.7789 42.107C25.4814 42.9643 26.7631 43.7799 28.7436 44.1013L27.0113 49.0727L28.9229 49.2028L30.648 44.2469C32.7845 44.2179 34.6016 43.6009 34.9062 42.7281ZM30.0451 43.2749C27.8146 43.1198 26.1812 42.4799 26.4039 41.832C26.5936 41.2909 28.0482 40.9197 29.8525 40.9065L29.2709 42.5805C29.8873 42.6769 30.5242 42.717 31.1744 42.7163L31.7631 41.0269C33.514 41.2706 34.6865 41.8295 34.4976 42.3804C34.267 43.034 32.2755 43.43 30.0451 43.2749Z" fill="#4585FF"/>
<path d="M33.5682 57.1326L30.9802 55.5971" stroke="#1B3992" stroke-width="0.3"/>
<path d="M43.7624 33.8064L40.6866 31.9815" stroke="#1B3992" stroke-width="0.3"/>
<path d="M37.8555 55.4628L35.0902 53.7596" stroke="#1B3992" stroke-width="0.3"/>
<path d="M45.6075 42.7899L42.8421 41.0867" stroke="#1B3992" stroke-width="0.3"/>
<path d="M45.5789 38.2789L42.6907 36.5" stroke="#1B3992" stroke-width="0.3"/>
<path d="M41.711 51.9584L38.9456 50.2552" stroke="#1B3992" stroke-width="0.3"/>
<path d="M44.5391 47.1347L41.7738 45.4315" stroke="#1B3992" stroke-width="0.3"/>
<path d="M139.028 11.6453C134.567 7.60469 128.547 6.97657 125.594 10.2367C125.547 10.289 125.5 10.3413 125.452 10.3936C126.023 9.64125 126.605 9.12096 127.213 8.44975C130.166 5.18957 136.185 5.8177 140.646 9.85834C145.107 13.899 146.326 19.8271 143.374 23.0872C142.702 23.8282 142.267 24.4655 141.376 25.2927C141.209 25.4426 141.04 25.5759 140.846 25.6856C141.168 25.453 141.471 25.188 141.747 24.883C144.717 21.6219 143.498 15.6938 139.028 11.6453Z" fill="#4585FF" stroke="#1B3992" stroke-width="0.3" stroke-miterlimit="10"/>
<path d="M125.452 10.3947C125.499 10.3424 125.547 10.2901 125.594 10.2378C128.547 6.97762 134.566 7.60574 139.028 11.6464C143.489 15.687 144.708 21.6151 141.755 24.8753C141.478 25.1804 141.175 25.4453 140.854 25.6779C137.69 27.9851 132.366 27.13 128.313 23.4588C123.93 19.4889 122.675 13.6873 125.452 10.3947Z" fill="#87E7FF" stroke="#1B3992" stroke-width="0.3" stroke-miterlimit="10"/>
<path d="M139.75 23.7731C137.4 26.368 132.615 25.8635 129.063 22.6464C125.512 19.4293 124.538 14.7177 126.888 12.1228C129.238 9.5279 134.023 10.0323 137.575 13.2494C141.127 16.4666 142.101 21.1782 139.75 23.7731Z" fill="" stroke="#1B3992" stroke-width="0.3"/>
<path d="M134.153 21.7326C134.202 21.7825 134.235 21.8158 134.202 21.8821L133.849 22.6616L134.69 23.4927L135.346 22.0665L136.567 23.28L136.92 22.5171L135.699 21.3036L135.918 20.8226L137.138 22.0361L137.475 21.3064L136.254 20.0929L136.506 19.5456C136.674 19.1808 136.949 17.5548 135.671 16.2997C134.978 15.5683 134.141 15.3761 133.657 15.8401C133.657 15.8401 133.523 14.6366 132.689 13.9133C131.855 13.19 131.355 13.5709 131.08 13.7946C130.88 13.9768 130.696 14.2089 130.561 14.4742L129.283 13.2025L128.955 13.8907L130.234 15.1458L129.981 15.7097L128.703 14.438L128.383 15.1512L129.662 16.4228L128.981 17.9072L129.74 18.6552L130.11 17.8426C130.143 17.7596 130.185 17.8012 130.218 17.8344L134.153 21.7326ZM130.732 16.4661L131.127 15.5954C131.195 15.4461 131.654 14.8577 132.306 15.4977C132.678 15.8551 132.882 16.4114 132.788 16.8179C132.771 16.9008 132.754 16.9838 132.72 17.0501L132.283 17.9954L130.732 16.4661ZM133.092 18.7767L133.714 17.4334C133.907 17.0437 134.396 17.0694 134.809 17.485C134.825 17.5016 134.834 17.5099 134.85 17.5265C135.37 18.0335 135.399 18.6809 135.348 18.9629C135.339 19.0044 135.331 19.0459 135.314 19.079L134.725 20.3892L133.092 18.7767Z" fill="#4585FF"/>
<path d="M131.012 6.46335L129.553 8.27694" stroke="#1B3992" stroke-width="0.3"/>
<path d="M134.57 6.51141L133.028 8.4946" stroke="#1B3992" stroke-width="0.3"/>
<path d="M138.313 8.00555L136.772 9.98874" stroke="#1B3992" stroke-width="0.3"/>
<path d="M141.842 10.9849L139.906 12.5853" stroke="#1B3992" stroke-width="0.3"/>
<path d="M144.173 14.7847L142.309 15.7724" stroke="#1B3992" stroke-width="0.3"/>
<path d="M144.969 18.4077L143.227 19.0079" stroke="#1B3992" stroke-width="0.3"/>
<path d="M144.389 21.343L143.231 21.6831" stroke="#1B3992" stroke-width="0.3"/>
<circle cx="39.9255" cy="9.24534" r="2.29954" fill="#266DF5" stroke="#1B3992" stroke-width="0.164202" stroke-miterlimit="10"/>
<circle cx="18.7292" cy="74.55" r="1.94009" fill="#06F1C8" stroke="#1B3992" stroke-width="0.168737" stroke-miterlimit="10"/>
<circle cx="144.969" cy="50.8528" r="3.40799" fill="#06F1C8" stroke="#1B3992" stroke-width="0.2" stroke-miterlimit="10"/>
</g>
<defs>
<filter id="filter0_i_1269_12767" x="52.667" y="9.40967" width="58.3057" height="86.9854" filterUnits="userSpaceOnUse" color-interpolation-filters="sRGB">
<feFlood flood-opacity="0" result="BackgroundImageFix"/>
<feBlend mode="normal" in="SourceGraphic" in2="BackgroundImageFix" result="shape"/>
<feColorMatrix in="SourceAlpha" type="matrix" values="0 0 0 0 0 0 0 0 0 0 0 0 0 0 0 0 0 0 127 0" result="hardAlpha"/>
<feOffset dx="2" dy="2"/>
<feComposite in2="hardAlpha" operator="arithmetic" k2="-1" k3="1"/>
<feColorMatrix type="matrix" values="0 0 0 0 0.825833 0 0 0 0 0.886627 0 0 0 0 1 0 0 0 1 0"/>
<feBlend mode="normal" in2="shape" result="effect1_innerShadow_1269_12767"/>
</filter>
<linearGradient id="paint0_linear_1269_12767" x1="143.487" y1="114.853" x2="129.335" y2="67.1339" gradientUnits="userSpaceOnUse">
<stop stop-color="#1B54C1" stop-opacity="0.5"/>
<stop offset="1" stop-color="#4585FF" stop-opacity="0"/>
</linearGradient>
<linearGradient id="paint1_linear_1269_12767" x1="10.4996" y1="94.419" x2="21.807" y2="116.423" gradientUnits="userSpaceOnUse">
<stop stop-color="#1B54C1" stop-opacity="0.5"/>
<stop offset="1" stop-color="#4585FF" stop-opacity="0"/>
</linearGradient>
<linearGradient id="paint2_linear_1269_12767" x1="147.116" y1="101.349" x2="118.978" y2="56.0043" gradientUnits="userSpaceOnUse">
<stop stop-color="#1B54C1" stop-opacity="0.5"/>
<stop offset="1" stop-color="#4585FF" stop-opacity="0"/>
</linearGradient>
<clipPath id="clip0_1269_12767">
<rect width="160" height="120" fill=""/>
</clipPath>
</defs>
</svg>
