<svg width="161" height="120" viewBox="0 0 161 120" fill="none" xmlns="http://www.w3.org/2000/svg">
<g clip-path="url(#clip0_1269_12627)">
<rect width="160" height="120" transform="translate(0.402344)" fill=""/>
<path d="M55.5051 76.5848L49.511 84.1478C46.9319 81.9316 37.0359 71.8363 36.4074 60.0349C36.2175 56.4695 38.5722 49.599 43.151 43.9565C43.1944 43.9009 43.2373 43.8485 43.2796 43.7991C43.2365 43.8515 43.1937 43.9039 43.151 43.9565C41.5817 45.9688 39.4648 52.0514 44.6962 63.6149C46.0233 66.2936 50.3613 72.7267 55.5051 76.5848Z" fill="#95BAFF" stroke="#4585FF" stroke-width="0.5"/>
<path d="M87.5627 100.633L93.4522 91.9445C71.7769 89.2959 61.4489 82.0235 55.4521 76.4688L49.5 84.1333C61.6821 95.481 79.951 99.8614 87.5627 100.633Z" fill="#95BAFF" stroke="#4585FF" stroke-width="0.5"/>
<path d="M93.2975 91.8257L87.5703 100.637C95.2993 101.249 101.26 99.5191 103.249 98.3006C110.713 94.3354 114.056 86.3465 114.795 82.8477C110.317 91.1046 98.5178 92.2325 93.2975 91.8257Z" fill="#95BAFF" stroke="#4585FF" stroke-width="0.5"/>
<path d="M55.1091 76.8137L69.4977 68.3543C64.1716 63.2851 64.6457 57.4939 66.7551 55.3441L46.3409 40.4004C42.17 44.091 41.4131 47.5095 41.4131 51.4879C41.4131 62.7729 49.2558 72.3341 55.1091 76.8137Z" fill="#4585FF" stroke="#1B3992" stroke-width="0.5"/>
<path d="M93.3941 91.8759L85.902 73.9691C77.599 74.9136 72.1562 70.8672 69.5356 68.3784L55.1094 76.8825C67.8593 88.2317 83.8283 90.7846 93.3941 91.8759Z" fill="#4585FF" stroke="#1B3992" stroke-width="0.5"/>
<g filter="url(#filter0_i_1269_12627)">
<path d="M93.2653 91.8564L85.917 73.9632C89.6567 73.3094 91.6348 71.9423 92.7584 70.6475L114.728 82.8998C110.506 91.0811 97.9926 92.4716 93.2653 91.8564Z" fill="#4585FF"/>
</g>
<path d="M93.2653 91.8564L85.917 73.9632C89.6567 73.3094 91.6348 71.9423 92.7584 70.6475L114.728 82.8998C110.506 91.0811 97.9926 92.4716 93.2653 91.8564Z" stroke="#1B3992" stroke-width="0.5"/>
<path d="M88.376 67.1596L91.2204 63.0506L79.0603 56.5452L79.5934 55.3691C76.2636 52.6036 70.5633 53.0956 68.4649 54.2017C63.8295 56.6458 65.1257 61.6917 66.3196 64.0444C70.3651 59.9147 75.9924 60.1416 81.5282 63.0506L88.376 67.1596Z" fill="#87E7FF" stroke="#1B3992" stroke-width="0.5"/>
<path d="M78.9796 54.8128C72.9813 52.3802 68.326 54.1911 66.7481 55.4007L46.3516 40.3827C56.1608 32.3728 72.8967 35.8102 80.0795 38.5671L78.9796 54.8128Z" fill="#4585FF" stroke="#1B3992" stroke-width="0.5"/>
<path d="M75.6143 47.7598L80.9441 37.501C84.6227 39.9047 85.1581 44.2241 84.9946 46.104L78.9271 56.7728C79.727 52.5841 77.1879 49.2515 75.6143 47.7598Z" fill="#87E7FF" stroke="#1B3992" stroke-width="0.5"/>
<path d="M115.052 75.5658L120.755 64.1663L84.9657 46.001L79.0527 56.6097L115.052 75.5658Z" fill="#1E5FDB" stroke="#1B3992" stroke-width="0.5"/>
<g filter="url(#filter1_i_1269_12627)">
<path d="M90.7568 18.1338L80.9531 37.4768C84.7686 40.0207 85.0013 44.0571 84.913 46L120.824 64.2105C128.201 43.4027 103.475 24.3164 90.7568 18.1338Z" fill="#4585FF"/>
</g>
<path d="M90.7568 18.1338L80.9531 37.4768C84.7686 40.0207 85.0013 44.0571 84.913 46L120.824 64.2105C128.201 43.4027 103.475 24.3164 90.7568 18.1338Z" stroke="#1B3992" stroke-width="0.5"/>
<path d="M122.098 100.112C122.267 100.633 122.511 101.102 122.827 101.52L120.617 98.582C120.3 98.1637 120.057 97.6945 119.888 97.1743L122.098 100.112Z" fill="#F3F3F3"/>
<path d="M134.054 83.1397C131.589 84.3626 129.224 86.0523 127.237 88.0006L125.027 85.0624C127.013 83.1142 129.379 81.4244 131.843 80.2015L134.054 83.1397Z" fill="#F6FAF7"/>
<path d="M141.406 81.1047C140.851 81.1204 140.264 81.1748 139.653 81.2718C137.809 81.567 135.907 82.2177 134.059 83.135L131.849 80.1968C133.697 79.2796 135.604 78.6294 137.443 78.3336C138.057 78.2342 138.641 78.1822 139.196 78.1665L141.406 81.1047Z" fill="#C1C1C1"/>
<path d="M146.514 82.7219C145.374 81.635 143.626 81.0473 141.404 81.1068L139.194 78.1686C141.419 78.1066 143.163 78.6968 144.303 79.7837L146.514 82.7219Z" fill="#ACACAC"/>
<path d="M147.031 83.2974C146.876 83.0929 146.703 82.8976 146.515 82.7177L144.305 79.7795C144.492 79.9594 144.666 80.1547 144.821 80.3592L147.031 83.2974Z" fill="#C1C1C1"/>
<path d="M137.76 96.1679C131.079 101.2 123.406 102.283 120.623 98.5857C117.839 94.8884 120.999 87.8114 127.68 82.7788C134.361 77.7462 142.034 76.6637 144.817 80.361C147.601 84.0583 144.441 91.1353 137.76 96.1679Z" fill="#87E7FF" stroke="#1B3992" stroke-width="0.465767" stroke-miterlimit="10"/>
<path d="M136.711 94.4068C131.19 98.5655 124.933 99.5707 122.735 96.6519C120.538 93.7332 123.232 87.9958 128.753 83.8371C134.274 79.6784 140.531 78.6732 142.729 81.592C144.926 84.5107 142.232 90.2481 136.711 94.4068Z" fill="" stroke="#1B3992" stroke-width="0.465767"/>
<path d="M128.423 90.4515C128.362 90.5159 128.321 90.5588 128.236 90.5187L127.238 90.1L126.218 91.1933L128.044 91.9715L126.553 93.5581L127.53 93.9773L129.021 92.3906L129.637 92.6499L128.146 94.2365L129.081 94.6356L130.571 93.049L131.272 93.3483C131.739 93.5478 133.804 93.8378 135.345 92.1766C136.245 91.2749 136.458 90.21 135.855 89.6146C135.855 89.6146 137.371 89.4024 138.256 88.3226C139.14 87.2428 138.641 86.6241 138.348 86.2842C138.111 86.0376 137.811 85.8133 137.471 85.6529L139.033 83.9912L138.151 83.6015L136.61 85.2627L135.888 84.9638L137.45 83.3021L136.538 82.9236L134.976 84.5853L133.075 83.7773L132.156 84.7634L133.197 85.2021C133.303 85.2417 133.252 85.2953 133.211 85.3382L128.423 90.4515ZM134.959 85.9397L136.074 86.4082C136.265 86.488 137.025 87.0484 136.239 87.8951C135.801 88.3772 135.105 88.6551 134.588 88.5511C134.482 88.5325 134.377 88.5138 134.292 88.4737L133.081 87.9548L134.959 85.9397ZM132.122 89.0048L133.842 89.7433C134.342 89.9736 134.327 90.5932 133.816 91.1294C133.796 91.1509 133.786 91.1616 133.765 91.183C133.143 91.8582 132.326 91.9183 131.967 91.8633C131.914 91.854 131.862 91.8446 131.819 91.8246L130.142 91.1271L132.122 89.0048Z" fill="#4585FF"/>
<path d="M122.83 101.517C123.453 102.347 124.352 102.968 125.492 103.333L123.282 100.395C122.144 100.03 121.246 99.4111 120.623 98.5837L122.83 101.517Z" fill="#4585FF"/>
<path d="M130.212 103.541C128.367 103.836 126.776 103.744 125.493 103.331L123.283 100.393C124.568 100.809 126.157 100.898 128.001 100.603C128.612 100.506 129.232 100.367 129.856 100.192L132.066 103.131C131.443 103.305 130.826 103.441 130.212 103.541Z" fill="#4585FF"/>
<path d="M132.071 103.129C134.566 102.433 137.099 101.159 139.393 99.5232C141.686 97.8881 143.739 95.8892 145.275 93.7463L145.274 93.745C146.042 92.671 146.678 91.5651 147.152 90.4462C147.626 89.3264 147.904 88.2774 147.998 87.3092L145.787 84.371C145.691 85.3361 145.416 86.3882 144.942 87.5081C144.467 88.6279 143.827 89.7372 143.061 90.8095L143.062 90.8108C141.526 92.9538 139.473 94.9527 137.179 96.5876C134.886 98.222 132.352 99.4981 129.86 100.191L132.071 103.129Z" fill="#4585FF"/>
<path d="M148.001 87.3093C148.161 85.7008 147.81 84.3336 147.027 83.2933L144.818 80.3566C145.6 81.3967 145.948 82.7658 145.791 84.3711L148.001 87.3093Z" fill="#4585FF"/>
<path d="M122.83 101.517C123.453 102.347 124.352 102.968 125.492 103.333L123.282 100.395C122.144 100.03 121.246 99.4111 120.623 98.5837L122.83 101.517Z" stroke="#1B3992" stroke-width="0.465767" stroke-miterlimit="10" stroke-linejoin="round"/>
<path d="M130.212 103.541C128.367 103.836 126.776 103.744 125.493 103.331L123.283 100.393C124.568 100.809 126.157 100.898 128.001 100.603C128.612 100.506 129.232 100.367 129.856 100.192L132.066 103.131C131.443 103.305 130.826 103.441 130.212 103.541Z" stroke="#1B3992" stroke-width="0.465767" stroke-miterlimit="10" stroke-linejoin="round"/>
<path d="M132.071 103.129C134.566 102.433 137.099 101.159 139.393 99.5232C141.686 97.8881 143.739 95.8892 145.275 93.7463L145.274 93.745C146.042 92.671 146.678 91.5651 147.152 90.4462C147.626 89.3264 147.904 88.2774 147.998 87.3092L145.787 84.371C145.691 85.3361 145.416 86.3882 144.942 87.5081C144.467 88.6279 143.827 89.7372 143.061 90.8095L143.062 90.8108C141.526 92.9538 139.473 94.9527 137.179 96.5876C134.886 98.222 132.352 99.4981 129.86 100.191L132.071 103.129Z" stroke="#1B3992" stroke-width="0.465767" stroke-miterlimit="10" stroke-linejoin="round"/>
<path d="M148.001 87.3093C148.161 85.7008 147.81 84.3336 147.027 83.2933L144.818 80.3566C145.6 81.3967 145.948 82.7658 145.791 84.3711L148.001 87.3093Z" stroke="#1B3992" stroke-width="0.465767" stroke-miterlimit="10" stroke-linejoin="round"/>
<path fill-rule="evenodd" clip-rule="evenodd" d="M148.007 87.3058C148.167 85.6973 147.815 84.3301 147.033 83.2897L144.823 80.353C145.605 81.3932 145.953 82.7623 145.796 84.3676L148.007 87.3058ZM145.283 93.7416C146.051 92.6677 146.687 91.5617 147.16 90.4426C147.634 89.3235 147.911 88.2786 148.004 87.3109L145.793 84.3692C145.698 85.3339 145.423 86.3854 144.95 87.5044C144.477 88.6235 143.837 89.732 143.073 90.8034L145.283 93.7416ZM145.281 93.7393C143.744 95.8833 141.69 97.8831 139.395 99.5188L137.185 96.5806C139.479 94.945 141.534 92.9451 143.07 90.8011L145.281 93.7393Z" fill="#4585FF"/>
<path d="M147.033 83.2897L146.846 83.4298L146.846 83.4298L147.033 83.2897ZM148.007 87.3058L148.238 87.3288L148.179 87.9226L147.821 87.4458L148.007 87.3058ZM144.823 80.353L144.637 80.493L145.009 80.213L144.823 80.353ZM145.796 84.3676L145.61 84.5076L145.556 84.4351L145.565 84.3449L145.796 84.3676ZM147.16 90.4426L146.946 90.3519L146.946 90.3519L147.16 90.4426ZM145.283 93.7416L145.473 93.877L145.288 94.1354L145.097 93.8816L145.283 93.7416ZM148.004 87.3109L148.19 87.171L148.244 87.2432L148.236 87.3332L148.004 87.3109ZM145.793 84.3692L145.561 84.3463L145.62 83.7516L145.979 84.2293L145.793 84.3692ZM144.95 87.5044L145.164 87.5952L144.95 87.5044ZM143.073 90.8034L142.887 90.9434L142.784 90.8071L142.883 90.6682L143.073 90.8034ZM139.395 99.5188L139.531 99.7084L139.346 99.8402L139.209 99.6588L139.395 99.5188ZM145.281 93.7393L145.467 93.5993L145.57 93.7359L145.47 93.8749L145.281 93.7393ZM137.185 96.5806L136.999 96.7206L136.855 96.5297L137.05 96.391L137.185 96.5806ZM143.07 90.8011L142.881 90.6654L143.066 90.4077L143.256 90.6611L143.07 90.8011ZM147.219 83.1497C148.043 84.2448 148.403 85.673 148.238 87.3288L147.775 87.2827C147.93 85.7215 147.588 84.4153 146.846 83.4298L147.219 83.1497ZM145.009 80.213L147.219 83.1497L146.846 83.4298L144.637 80.493L145.009 80.213ZM145.565 84.3449C145.717 82.7862 145.378 81.4781 144.637 80.493L145.009 80.2131C145.833 81.3082 146.19 82.7384 146.028 84.3902L145.565 84.3449ZM147.821 87.4458L145.61 84.5076L145.982 84.2276L148.193 87.1658L147.821 87.4458ZM147.375 90.5333C146.894 91.6704 146.249 92.7913 145.473 93.877L145.094 93.6062C145.853 92.5441 146.48 91.453 146.946 90.3519L147.375 90.5333ZM148.236 87.3332C148.14 88.3287 147.855 89.3967 147.375 90.5333L146.946 90.3519C147.412 89.2503 147.682 88.2285 147.772 87.2886L148.236 87.3332ZM145.979 84.2293L148.19 87.171L147.818 87.4508L145.607 84.5092L145.979 84.2293ZM144.735 87.4137C145.201 86.3128 145.469 85.2841 145.561 84.3463L146.025 84.3922C145.927 85.3836 145.645 86.4579 145.164 87.5952L144.735 87.4137ZM142.883 90.6682C143.64 89.6083 144.27 88.5147 144.735 87.4137L145.164 87.5952C144.684 88.7324 144.035 89.8557 143.263 90.9387L142.883 90.6682ZM145.097 93.8816L142.887 90.9434L143.259 90.6634L145.47 93.6016L145.097 93.8816ZM139.26 99.3292C141.536 97.7067 143.571 95.7246 145.091 93.6036L145.47 93.8749C143.917 96.042 141.844 98.0596 139.531 99.7084L139.26 99.3292ZM137.371 96.4406L139.582 99.3788L139.209 99.6588L136.999 96.7206L137.371 96.4406ZM143.26 90.9368C141.707 93.1039 139.633 95.1214 137.32 96.7702L137.05 96.391C139.326 94.7685 141.361 92.7864 142.881 90.6654L143.26 90.9368ZM145.095 93.8793L142.884 90.9411L143.256 90.6611L145.467 93.5993L145.095 93.8793Z" fill="#1B3992"/>
<path d="M67.3733 24.0619C72.911 20.3504 75.1989 14.0499 72.4866 10.003C72.4431 9.93804 72.3996 9.87312 72.3561 9.80819C73.0116 10.6233 73.4149 11.388 73.9733 12.2212C76.6856 16.2681 74.3977 22.5687 68.86 26.2801C63.3224 29.9915 56.6251 29.7131 53.9128 25.6662C53.2963 24.7464 52.728 24.108 52.078 22.9285C51.9617 22.7085 51.8635 22.4921 51.7976 22.254C51.9615 22.6616 52.165 23.0584 52.4188 23.4371C55.1276 27.5021 61.8249 27.7805 67.3733 24.0619Z" fill="#4585FF" stroke="#1B3992" stroke-width="0.4" stroke-miterlimit="10"/>
<path d="M72.3558 9.80914C72.3993 9.87406 72.4428 9.93899 72.4863 10.0039C75.1986 14.0508 72.9107 20.3514 67.3731 24.0628C61.8354 27.7743 55.1381 27.4958 52.4258 23.4489C52.1719 23.0701 51.9685 22.6734 51.8046 22.2657C50.1729 18.2472 52.5185 12.7548 57.5498 9.38275C62.9905 5.73629 69.5614 5.94264 72.3558 9.80914Z" fill="#87E7FF" stroke="#1B3992" stroke-width="0.4" stroke-miterlimit="10"/>
<path d="M54.147 21.5899C51.9881 18.3688 53.8122 13.3621 58.2213 10.407C62.6303 7.45202 67.9547 7.66773 70.1135 10.8888C72.2724 14.11 70.4482 19.1167 66.0392 22.0717C61.6301 25.0268 56.3058 24.8111 54.147 21.5899Z" fill="" stroke="#1B3992" stroke-width="0.4"/>
<path d="M64.4124 18.8362L67.3144 11.9371L59.8712 12.7232L60.9662 16.653L64.4124 18.8362Z" fill="#4585FF"/>
<path d="M59.527 13.1374L56.6251 20.0365L64.0683 19.2504L60.3869 17.2419L59.527 13.1374Z" fill="#4585FF"/>
<path d="M75.0905 16.8373L73.5324 14.7836" stroke="#1B3992" stroke-width="0.4"/>
<path d="M73.9617 20.6549L72.3683 18.4603" stroke="#1B3992" stroke-width="0.4"/>
<path d="M71.1812 24.4158L69.7591 22.0806" stroke="#1B3992" stroke-width="0.4"/>
<path d="M67.4536 27.1987L66.0054 24.8231" stroke="#1B3992" stroke-width="0.4"/>
<path d="M62.9674 28.6849L61.8379 26.4079" stroke="#1B3992" stroke-width="0.4"/>
<path d="M59.4982 28.7856L58.6557 26.6061" stroke="#1B3992" stroke-width="0.4"/>
<path d="M56.3584 27.8403L55.3378 25.9072" stroke="#1B3992" stroke-width="0.4"/>
<path d="M42.8416 101.963C42.7096 102.535 42.4939 103.06 42.1946 103.537L44.2808 100.186C44.5801 99.7093 44.7957 99.1846 44.9277 98.6123L42.8416 101.963Z" fill="#F3F3F3"/>
<path d="M28.4551 84.9413C31.2055 86.0164 33.8949 87.5998 36.2028 89.4956L38.2889 86.1449C35.9811 84.2492 33.2916 82.6657 30.5412 81.5907L28.4551 84.9413Z" fill="#F6FAF7"/>
<path d="M20.4003 83.4591C20.9951 83.4234 21.6278 83.4262 22.2901 83.4722C24.2902 83.6137 26.3853 84.13 28.4482 84.9363L30.5343 81.5857C28.4715 80.7794 26.3704 80.2643 24.3762 80.1216C23.7102 80.0733 23.0813 80.0728 22.4864 80.1084L20.4003 83.4591Z" fill="#C1C1C1"/>
<path d="M15.0916 85.6707C16.2079 84.4009 18.0208 83.6074 20.4025 83.4612L22.4887 80.1106C20.1033 80.2544 18.2941 81.0502 17.1778 82.3201L15.0916 85.6707Z" fill="#ACACAC"/>
<path d="M14.5918 86.3353C14.7381 86.102 14.9052 85.8768 15.0885 85.6667L17.1747 82.3161C16.9913 82.5261 16.8243 82.7514 16.678 82.9846L14.5918 86.3353Z" fill="#C1C1C1"/>
<path d="M25.7217 99.2231C33.3413 103.974 41.6482 104.407 44.2755 100.19C46.9028 95.9737 42.8557 88.7044 35.2361 83.9538C27.6164 79.2032 19.3096 78.7702 16.6823 82.9867C14.0549 87.2032 18.102 94.4725 25.7217 99.2231Z" fill="#06F1C8" stroke="#1B3992" stroke-width="0.5" stroke-miterlimit="10"/>
<path d="M26.677 97.2412C32.9735 101.167 39.7592 101.651 41.8333 98.3222C43.9074 94.9936 40.4844 89.1128 34.1879 85.1872C27.8914 81.2615 21.1057 80.7775 19.0316 84.1061C16.9576 87.4347 20.3805 93.3155 26.677 97.2412Z" fill="" stroke="#1B3992" stroke-width="0.5"/>
<path d="M42.192 103.533C41.6038 104.479 40.7009 105.228 39.5167 105.726L41.6028 102.376C42.7849 101.878 43.6867 101.131 44.275 100.188L42.192 103.533Z" fill="#4585FF"/>
<path d="M34.4893 106.394C36.4894 106.535 38.1822 106.287 39.5151 105.724L41.6013 102.374C40.2661 102.94 38.5756 103.185 36.5755 103.043C35.9132 102.997 35.2368 102.908 34.5538 102.78L32.4676 106.131C33.1507 106.259 33.8233 106.346 34.4893 106.394Z" fill="#4585FF"/>
<path d="M32.4624 106.13C29.728 105.621 26.8998 104.497 24.2919 102.965C21.6855 101.433 19.3015 99.4893 17.4569 97.3429L17.4578 97.3414C16.5353 96.2655 15.7501 95.143 15.1378 93.9913C14.525 92.8386 14.129 91.7431 13.9372 90.7166L16.0234 87.366C16.2173 88.3889 16.6111 89.488 17.224 90.6407C17.8368 91.7934 18.6264 92.9191 19.5463 93.9935L19.5454 93.995C21.3906 96.1415 23.7753 98.085 26.3822 99.6167C28.989 101.148 31.8193 102.273 34.5486 102.779L32.4624 106.13Z" fill="#4585FF"/>
<path d="M13.9334 90.717C13.6102 89.0121 13.8569 87.517 14.5959 86.3306L16.681 82.9816C15.9428 84.1677 15.7002 85.6646 16.0196 87.3664L13.9334 90.717Z" fill="#4585FF"/>
<path d="M42.192 103.533C41.6038 104.479 40.7009 105.228 39.5167 105.726L41.6028 102.376C42.7849 101.878 43.6867 101.131 44.275 100.188L42.192 103.533Z" stroke="#1B3992" stroke-width="0.5" stroke-miterlimit="10" stroke-linejoin="round"/>
<path d="M34.4893 106.394C36.4894 106.535 38.1822 106.287 39.5151 105.724L41.6013 102.374C40.2661 102.94 38.5756 103.185 36.5755 103.043C35.9132 102.997 35.2368 102.908 34.5538 102.78L32.4676 106.131C33.1507 106.259 33.8233 106.346 34.4893 106.394Z" stroke="#1B3992" stroke-width="0.5" stroke-miterlimit="10" stroke-linejoin="round"/>
<path d="M32.4624 106.13C29.728 105.621 26.8998 104.497 24.2919 102.965C21.6855 101.433 19.3015 99.4893 17.4569 97.3429L17.4578 97.3414C16.5353 96.2655 15.7501 95.143 15.1378 93.9913C14.525 92.8386 14.129 91.7431 13.9372 90.7166L16.0234 87.366C16.2173 88.3889 16.6111 89.488 17.224 90.6407C17.8368 91.7934 18.6264 92.9191 19.5463 93.9935L19.5454 93.995C21.3906 96.1415 23.7753 98.085 26.3822 99.6167C28.989 101.148 31.8193 102.273 34.5486 102.779L32.4624 106.13Z" stroke="#1B3992" stroke-width="0.5" stroke-miterlimit="10" stroke-linejoin="round"/>
<path d="M13.9334 90.717C13.6102 89.0121 13.8569 87.517 14.5959 86.3306L16.681 82.9816C15.9428 84.1677 15.7002 85.6646 16.0196 87.3664L13.9334 90.717Z" stroke="#1B3992" stroke-width="0.5" stroke-miterlimit="10" stroke-linejoin="round"/>
<path fill-rule="evenodd" clip-rule="evenodd" d="M13.9272 90.7149C13.604 89.01 13.8507 87.5149 14.5897 86.3285L16.6748 82.9795C15.9366 84.1656 15.694 85.6625 16.0134 87.3643L13.9272 90.7149ZM17.4471 97.3398C16.5249 96.2639 15.7402 95.1413 15.1285 93.9893C14.5168 92.8373 14.1215 91.7461 13.9305 90.7201L16.0168 87.3657C16.2101 88.3882 16.6029 89.4867 17.2146 90.6387C17.8264 91.7907 18.6147 92.9156 19.5332 93.9891L17.4471 97.3398ZM17.4497 97.337C19.2953 99.4846 21.6809 101.429 24.2889 102.962L26.375 99.6109C23.7671 98.0785 21.3815 96.134 19.5359 93.9864L17.4497 97.337Z" fill="#4585FF"/>
<path d="M14.5897 86.3285L14.8019 86.4606L14.8019 86.4606L14.5897 86.3285ZM13.9272 90.7149L13.6816 90.7615L13.8009 91.3908L14.1394 90.8471L13.9272 90.7149ZM16.6748 82.9795L16.8871 83.1116L16.4626 82.8474L16.6748 82.9795ZM16.0134 87.3643L16.2256 87.4964L16.277 87.4138L16.2591 87.3182L16.0134 87.3643ZM15.1285 93.9893L14.9077 94.1065L15.1285 93.9893ZM17.4471 97.3398L17.2573 97.5025L17.4791 97.7613L17.6593 97.4719L17.4471 97.3398ZM13.9305 90.7201L13.7182 90.5881L13.667 90.6704L13.6848 90.7658L13.9305 90.7201ZM16.0168 87.3657L16.2625 87.3193L16.1434 86.6889L15.8046 87.2337L16.0168 87.3657ZM17.2146 90.6387L16.9938 90.7559L17.2146 90.6387ZM19.5332 93.9891L19.7455 94.1213L19.8423 93.9658L19.7232 93.8266L19.5332 93.9891ZM24.2889 102.962L24.1622 103.177L24.3723 103.3L24.5011 103.094L24.2889 102.962ZM17.4497 97.337L17.2375 97.2049L17.1404 97.3607L17.2601 97.5L17.4497 97.337ZM26.375 99.6109L26.5873 99.743L26.7228 99.5253L26.5017 99.3953L26.375 99.6109ZM19.5359 93.9864L19.7255 93.8234L19.5036 93.5653L19.3236 93.8543L19.5359 93.9864ZM14.3775 86.1963C13.5996 87.4451 13.3489 89.0065 13.6816 90.7615L14.1728 90.6684C13.8591 89.0136 14.1018 87.5846 14.8019 86.4606L14.3775 86.1963ZM16.4626 82.8474L14.3774 86.1963L14.8019 86.4606L16.887 83.1116L16.4626 82.8474ZM16.2591 87.3182C15.949 85.6658 16.1879 84.235 16.8871 83.1116L16.4626 82.8474C15.6853 84.0963 15.439 85.6593 15.7677 87.4104L16.2591 87.3182ZM14.1394 90.8471L16.2256 87.4964L15.8011 87.2322L13.715 90.5828L14.1394 90.8471ZM14.9077 94.1065C15.5292 95.2771 16.3249 96.4148 17.2573 97.5025L17.6369 97.1771C16.7248 96.113 15.9511 95.0055 15.3493 93.872L14.9077 94.1065ZM13.6848 90.7658C13.8813 91.8213 14.2864 92.9365 14.9077 94.1065L15.3493 93.872C14.7471 92.738 14.3618 91.6709 14.1763 90.6743L13.6848 90.7658ZM15.8046 87.2337L13.7182 90.5881L14.1428 90.8521L16.2291 87.4977L15.8046 87.2337ZM17.4355 90.5214C16.8336 89.3881 16.4504 88.3134 16.2625 87.3193L15.7712 87.4121C15.9698 88.463 16.3722 89.5852 16.9938 90.7559L17.4355 90.5214ZM19.7232 93.8266C18.8146 92.7646 18.0372 91.6547 17.4355 90.5214L16.9938 90.7559C17.6155 91.9266 18.4149 93.0666 19.3433 94.1517L19.7232 93.8266ZM17.6593 97.4719L19.7455 94.1213L19.321 93.857L17.2348 97.2076L17.6593 97.4719ZM24.4155 102.746C21.8286 101.226 19.465 99.2985 17.6393 97.1741L17.2601 97.5C19.1256 99.6707 21.5332 101.632 24.1622 103.177L24.4155 102.746ZM26.1628 99.4787L24.0767 102.829L24.5011 103.094L26.5873 99.743L26.1628 99.4787ZM19.3463 94.1493C21.2117 96.32 23.6193 98.2816 26.2484 99.8264L26.5017 99.3953C23.9148 97.8753 21.5512 95.9479 19.7255 93.8234L19.3463 94.1493ZM17.6619 97.4692L19.7481 94.1185L19.3236 93.8543L17.2375 97.2049L17.6619 97.4692Z" fill="#1B3992"/>
<path fill-rule="evenodd" clip-rule="evenodd" d="M27.0307 94.3624L35.2127 94.6965C35.5769 94.7113 35.7458 94.4406 35.5844 94.1009C35.5306 93.9876 35.4458 93.8842 35.3542 93.7916L34.6698 93.1529L28.1212 87.0111L28.1158 86.9998C27.581 86.5005 26.8719 86.1606 26.2285 86.1343C25.5487 86.1066 25.1261 86.4446 25.0876 86.965L24.3687 91.8662C24.336 92.0981 24.3802 92.3664 24.5201 92.6608C24.9128 93.4875 25.9087 94.2056 26.8068 94.3422C26.8068 94.3422 26.9093 94.3575 27.0307 94.3624Z" fill="#4585FF"/>
<path fill-rule="evenodd" clip-rule="evenodd" d="M30.6762 88.7025C29.8194 87.9013 29.6373 86.9166 30.265 86.5092C30.8875 86.0904 32.0848 86.4058 32.9295 87.2065L38.5122 92.4427C39.369 93.2439 39.5511 94.2286 38.9234 94.636C38.3009 95.0548 37.1036 94.7394 36.2589 93.9387L30.6762 88.7025Z" fill="#4585FF"/>
<circle cx="145.668" cy="34.707" r="1.67574" fill="#266DF5" stroke="#1B3992" stroke-width="0.257805" stroke-miterlimit="10"/>
<circle cx="22.2623" cy="40.1315" r="2.63048" fill="#06F1C8" stroke="#1B3992" stroke-width="0.224514" stroke-miterlimit="10"/>
<circle cx="135.089" cy="60" r="2.36968" fill="#06F1C8" stroke="#1B3992" stroke-width="0.224514" stroke-miterlimit="10"/>
</g>
<defs>
<filter id="filter0_i_1269_12627" x="85.5674" y="70.3301" width="29.4941" height="21.9043" filterUnits="userSpaceOnUse" color-interpolation-filters="sRGB">
<feFlood flood-opacity="0" result="BackgroundImageFix"/>
<feBlend mode="normal" in="SourceGraphic" in2="BackgroundImageFix" result="shape"/>
<feColorMatrix in="SourceAlpha" type="matrix" values="0 0 0 0 0 0 0 0 0 0 0 0 0 0 0 0 0 0 127 0" result="hardAlpha"/>
<feOffset dx="-4"/>
<feComposite in2="hardAlpha" operator="arithmetic" k2="-1" k3="1"/>
<feColorMatrix type="matrix" values="0 0 0 0 0.584314 0 0 0 0 0.729412 0 0 0 0 1 0 0 0 1 0"/>
<feBlend mode="normal" in2="shape" result="effect1_innerShadow_1269_12627"/>
</filter>
<filter id="filter1_i_1269_12627" x="80.6299" y="17.8013" width="41.792" height="46.7607" filterUnits="userSpaceOnUse" color-interpolation-filters="sRGB">
<feFlood flood-opacity="0" result="BackgroundImageFix"/>
<feBlend mode="normal" in="SourceGraphic" in2="BackgroundImageFix" result="shape"/>
<feColorMatrix in="SourceAlpha" type="matrix" values="0 0 0 0 0 0 0 0 0 0 0 0 0 0 0 0 0 0 127 0" result="hardAlpha"/>
<feOffset dx="1" dy="3"/>
<feComposite in2="hardAlpha" operator="arithmetic" k2="-1" k3="1"/>
<feColorMatrix type="matrix" values="0 0 0 0 0.584314 0 0 0 0 0.729412 0 0 0 0 1 0 0 0 1 0"/>
<feBlend mode="normal" in2="shape" result="effect1_innerShadow_1269_12627"/>
</filter>
<clipPath id="clip0_1269_12627">
<rect width="160" height="120" fill="" transform="translate(0.402344)"/>
</clipPath>
</defs>
</svg>
