<svg width="161" height="120" viewBox="0 0 161 120" fill="none" xmlns="http://www.w3.org/2000/svg">
<g clip-path="url(#clip0_1269_12907)">
<rect width="160" height="120" transform="translate(0.5)" fill=""/>
<path d="M80.2204 75.7441L21.2832 96.1334L80.2204 117.001L139.717 96.1334L80.2204 75.7441Z" stroke="#1B3992" stroke-width="0.5" stroke-linejoin="round"/>
<path d="M80.2204 65.9434L21.2832 86.3326L80.2204 107.2L139.717 86.3326L80.2204 65.9434Z" fill="#95BAFF" stroke="#1B3992" stroke-width="0.5" stroke-linejoin="round"/>
<path d="M80.26 65.5698L29.6475 83.0792L80.26 100.999L131.353 83.0792L80.26 65.5698Z" stroke="#1B3992" stroke-width="0.5" stroke-linejoin="round"/>
<path d="M80.26 54.9365L29.6475 74.1787L80.26 92.0986L131.353 74.1787L80.26 54.9365Z" fill="#95BAFF" stroke="#1B3992" stroke-width="0.5" stroke-linejoin="round"/>
<path d="M80.3014 55.9795L38.4658 70.4524L80.3014 85.2647L122.534 70.4524L80.3014 55.9795Z" stroke="#1B3992" stroke-width="0.5" stroke-linejoin="round"/>
<g filter="url(#filter0_i_1269_12907)">
<path d="M80.3014 46.459L38.4658 60.9319L80.3014 75.7442L122.534 60.9319L80.3014 46.459Z" fill="#95BAFF"/>
</g>
<path d="M80.3014 46.459L38.4658 60.9319L80.3014 75.7442L122.534 60.9319L80.3014 46.459Z" stroke="#1B3992" stroke-width="0.5" stroke-linejoin="round"/>
<path d="M80.4284 55.9795L65.2969 61.2142L80.4284 66.5717L95.7035 61.2142L80.4284 55.9795Z" fill="#1652C6" stroke="#1B3992" stroke-width="0.5" stroke-linejoin="round"/>
<path d="M80.4234 62.5898L74.2285 64.2919L80.4234 66.5711L86.0518 64.6139L80.4234 62.5898Z" fill="#06F1C8" stroke="#1B3992" stroke-width="0.5" stroke-linejoin="round"/>
<path d="M38.4258 70.4542V60.9473L80.345 75.8188L122.551 61.0228V70.3902L80.345 85.2472L38.4258 70.4542Z" fill="#4585FF" stroke="#1B3992" stroke-width="0.5" stroke-linejoin="round"/>
<mask id="mask0_1269_12907" style="mask-type:alpha" maskUnits="userSpaceOnUse" x="38" y="60" width="85" height="26">
<path d="M38.4258 70.4542V60.9473L80.345 75.8188L122.551 61.0228V70.3902L80.345 85.2472L38.4258 70.4542Z" fill="#4585FF" stroke="#1B3992" stroke-width="0.5" stroke-linejoin="round"/>
</mask>
<g mask="url(#mask0_1269_12907)">
<path d="M38.6924 70.2894V61.3125L80.3447 76.096V84.9875L38.6924 70.2894Z" fill="#3772E3"/>
</g>
<path d="M29.6543 83.0389V74.1981L80.288 92.1064L131.353 74.1845V83.0806L80.299 101L29.6543 83.0389Z" fill="#4585FF" stroke="#1B3992" stroke-width="0.5" stroke-linejoin="round"/>
<mask id="mask1_1269_12907" style="mask-type:alpha" maskUnits="userSpaceOnUse" x="29" y="73" width="103" height="29">
<path d="M29.6543 83.0389V74.1981L80.288 92.1064L131.353 74.1845V83.0806L80.299 101L29.6543 83.0389Z" fill="#4585FF" stroke="#1B3992" stroke-width="0.5" stroke-linejoin="round"/>
</mask>
<g mask="url(#mask1_1269_12907)">
<path d="M29.9131 82.8677V74.5591L80.2982 92.378L80.3318 100.751L29.9131 82.8677Z" fill="#3772E3"/>
</g>
<path d="M21.2891 96.1165V86.3381L80.242 107.178L139.718 86.3428V96.1187L80.2351 116.996L21.2891 96.1165Z" fill="#4585FF" stroke="#1B3992" stroke-width="0.5" stroke-linejoin="round"/>
<path d="M80.4543 62.6361V55.9785L65.4346 61.1887L74.8993 64.5415L80.4543 62.6361Z" fill="#0C3E9E" stroke="#1B3992" stroke-width="0.5" stroke-linejoin="round"/>
<ellipse cx="79.2161" cy="22.6762" rx="15.6924" ry="17.0001" transform="rotate(75.7865 79.2161 22.6762)" fill="#87E7FF" stroke="#1B3992" stroke-width="0.523075" stroke-miterlimit="10"/>
<path d="M95.6918 61.1289L85.5441 32.3938C80.1891 34.8869 77.0534 32.358 74.4177 31.5038L64.9456 61.1289L80.4673 66.9237L95.6918 61.1289Z" fill="url(#paint0_linear_1269_12907)"/>
<mask id="mask2_1269_12907" style="mask-type:alpha" maskUnits="userSpaceOnUse" x="62" y="6" width="35" height="33">
<ellipse cx="79.2161" cy="22.6767" rx="15.6924" ry="17.0001" transform="rotate(75.7865 79.2161 22.6767)" fill="#06F1C8" stroke="#1B3992" stroke-width="0.523075" stroke-miterlimit="10"/>
</mask>
<g mask="url(#mask2_1269_12907)">
<g style="mix-blend-mode:darken" opacity="0.8">
<path d="M86.6215 26.5994C93.9667 21.1149 90.399 8.54514 82.0424 7.01044C82.5723 6.4241 89.6267 7.51173 93.1072 9.95994C97.4579 13.0202 97.9593 18.4114 98.5517 22.5769C99.1442 26.7425 94.8912 34.6629 90.918 39.0598C86.9447 43.4566 75.6676 43.7221 69.7152 40.6667C63.7628 37.6112 64.6972 34.9702 60.7041 25.4075C67.684 35.2005 77.53 33.3877 86.6215 26.5994Z" fill="#3FB9D8"/>
</g>
<path d="M73.7209 15.1144C73.154 18.5503 74.7938 22.8992 75.6845 24.6441C71.4033 26.7101 64.4646 32.059 70.9599 36.9268C67.2154 36.0474 65.2097 35.4089 63.3298 32.3796C61.8258 29.9561 62.2459 26.8887 62.5518 25.4211C65.9913 18.8473 71.3852 16.5288 73.7209 15.1144Z" stroke="#1B3992"/>
<path d="M88.7576 19.5387C89.6911 11.6401 84.6532 7.95699 82.0176 7.10276C83.197 6.67375 86.214 6.02799 88.846 6.87703C92.1361 7.93833 94.6318 10.9366 97.0172 16.1729C98.9255 20.3619 96.7417 24.8757 95.4113 26.6089C95.6124 23.2656 91.2428 21.0795 88.7576 19.5387Z" stroke="#1B3992"/>
<ellipse cx="79.1407" cy="30.771" rx="6.87969" ry="11.5136" transform="rotate(87.2394 79.1407 30.771)" fill="" stroke="#1B3992" stroke-width="0.523075"/>
<ellipse cx="79.9442" cy="31.8731" rx="3.54193" ry="5.92765" transform="rotate(87.2394 79.9442 31.8731)" fill="#06F1C8" stroke="#1B3992" stroke-width="0.523075"/>
<circle cx="90.7874" cy="18.0594" r="0.605193" transform="rotate(42.1032 90.7874 18.0594)" stroke="#1B3992" stroke-width="0.523075"/>
<circle cx="72.6263" cy="23.1424" r="0.605193" transform="rotate(42.1032 72.6263 23.1424)" stroke="#1B3992" stroke-width="0.523075"/>
</g>
<g filter="url(#filter1_i_1269_12907)">
<circle cx="146.828" cy="102.813" r="7.10878" fill="#95BAFF"/>
</g>
<circle cx="146.828" cy="102.813" r="7.10878" stroke="#1B3992" stroke-width="0.5" stroke-miterlimit="10"/>
<path d="M141.985 104.796V100.746H142.841V102.532H142.895L144.352 100.746H145.379L143.876 102.56L145.396 104.796H144.372L143.262 103.131L142.841 103.645V104.796H141.985ZM145.825 104.796V100.746H147.423C147.729 100.746 147.99 100.801 148.206 100.91C148.423 101.018 148.589 101.172 148.702 101.371C148.817 101.569 148.874 101.801 148.874 102.069C148.874 102.338 148.816 102.569 148.7 102.763C148.584 102.956 148.416 103.103 148.196 103.206C147.977 103.309 147.712 103.361 147.401 103.361H146.331V102.672H147.262C147.426 102.672 147.562 102.65 147.67 102.605C147.778 102.56 147.858 102.493 147.911 102.403C147.965 102.314 147.992 102.202 147.992 102.069C147.992 101.935 147.965 101.821 147.911 101.729C147.858 101.637 147.777 101.567 147.668 101.519C147.56 101.471 147.423 101.446 147.258 101.446H146.681V104.796H145.825ZM148.012 102.953L149.019 104.796H148.073L147.088 102.953H148.012Z" fill="#DAE7FF"/>
<g filter="url(#filter2_i_1269_12907)">
<circle cx="69.1753" cy="95.7051" r="5.96335" fill="#87E7FF"/>
</g>
<circle cx="69.1753" cy="95.7051" r="5.96335" stroke="#1B3992" stroke-width="0.5" stroke-miterlimit="10"/>
<path d="M65.1947 97.7051V93.8919H66.6991C66.9871 93.8919 67.2328 93.9434 67.4364 94.0465C67.6412 94.1483 67.797 94.2929 67.9037 94.4803C68.0117 94.6665 68.0657 94.8856 68.0657 95.1375C68.0657 95.3908 68.0111 95.6086 67.9019 95.7911C67.7927 95.9723 67.6344 96.1113 67.4271 96.2081C67.2211 96.3049 66.9716 96.3533 66.6786 96.3533H65.6713V95.7054H66.5483C66.7022 95.7054 66.8301 95.6843 66.9318 95.6421C67.0336 95.5999 67.1093 95.5366 67.159 95.4522C67.2099 95.3678 67.2353 95.2629 67.2353 95.1375C67.2353 95.0109 67.2099 94.9042 67.159 94.8173C67.1093 94.7304 67.033 94.6646 66.93 94.6199C66.8282 94.574 66.6997 94.551 66.5446 94.551H66.0009V97.7051H65.1947ZM67.2539 95.9698L68.2016 97.7051H67.3117L66.3844 95.9698H67.2539ZM70.9908 93.8919H71.7969V96.3682C71.7969 96.6463 71.7305 96.8896 71.5977 97.0981C71.4662 97.3066 71.2818 97.4692 71.0447 97.5859C70.8077 97.7014 70.5315 97.7591 70.2162 97.7591C69.8997 97.7591 69.6229 97.7014 69.3858 97.5859C69.1487 97.4692 68.9644 97.3066 68.8328 97.0981C68.7013 96.8896 68.6355 96.6463 68.6355 96.3682V93.8919H69.4417V96.2994C69.4417 96.4446 69.4733 96.5737 69.5366 96.6866C69.6012 96.7996 69.6918 96.8883 69.8085 96.9529C69.9251 97.0174 70.061 97.0497 70.2162 97.0497C70.3726 97.0497 70.5085 97.0174 70.624 96.9529C70.7406 96.8883 70.8306 96.7996 70.8939 96.6866C70.9585 96.5737 70.9908 96.4446 70.9908 96.2994V93.8919Z" fill="#E4EDFF"/>
<g filter="url(#filter3_i_1269_12907)">
<circle cx="55.4233" cy="57.4048" r="5.96335" fill="#4585FF"/>
</g>
<circle cx="55.4233" cy="57.4048" r="5.96335" stroke="#1B3992" stroke-width="0.468417" stroke-miterlimit="10"/>
<path d="M53.2439 55.3343H54.0408V57.9931C54.0408 58.2389 53.9856 58.4524 53.8751 58.6336C53.7659 58.8148 53.6138 58.9544 53.4189 59.0525C53.224 59.1506 52.9975 59.1996 52.7393 59.1996C52.5097 59.1996 52.3012 59.1593 52.1137 59.0786C51.9276 58.9966 51.7798 58.8725 51.6706 58.7062C51.5614 58.5386 51.5074 58.3282 51.5086 58.075H52.3111C52.3136 58.1756 52.3341 58.2618 52.3725 58.3338C52.4123 58.4046 52.4663 58.4592 52.5345 58.4977C52.604 58.5349 52.686 58.5535 52.7803 58.5535C52.8796 58.5535 52.9634 58.5324 53.0317 58.4902C53.1012 58.4468 53.1539 58.3835 53.1899 58.3003C53.2259 58.2171 53.2439 58.1147 53.2439 57.9931V55.3343ZM54.7073 59.1475V55.3343H56.2118C56.501 55.3343 56.7474 55.3896 56.9509 55.5C57.1545 55.6093 57.3096 55.7613 57.4164 55.9562C57.5244 56.1498 57.5784 56.3732 57.5784 56.6265C57.5784 56.8797 57.5238 57.1031 57.4145 57.2967C57.3053 57.4904 57.147 57.6412 56.9398 57.7492C56.7337 57.8572 56.4842 57.9112 56.1913 57.9112H55.2324V57.2651H56.0609C56.2161 57.2651 56.3439 57.2384 56.4445 57.185C56.5463 57.1304 56.622 57.0553 56.6716 56.9597C56.7225 56.8629 56.748 56.7518 56.748 56.6265C56.748 56.4999 56.7225 56.3894 56.6716 56.295C56.622 56.1995 56.5463 56.1256 56.4445 56.0735C56.3427 56.0201 56.2136 55.9934 56.0572 55.9934H55.5135V59.1475H54.7073Z" fill="#83ADFF"/>
<g filter="url(#filter4_i_1269_12907)">
<circle cx="23.2815" cy="107.2" r="6.36544" fill="#06F1C8"/>
</g>
<circle cx="23.2815" cy="107.2" r="6.36544" stroke="#1B3992" stroke-width="0.5" stroke-miterlimit="10"/>
<path d="M18.7152 108.998V104.949H21.4438V105.655H19.5714V106.619H21.3034V107.325H19.5714V108.292H21.4517V108.998H18.7152ZM25.5115 104.949V108.998H24.772L23.0103 106.449H22.9806V108.998H22.1245V104.949H22.8758L24.6237 107.495H24.6593V104.949H25.5115Z" fill="#B0FFF1"/>
<g filter="url(#filter5_i_1269_12907)">
<circle cx="109.266" cy="74.7961" r="5.61492" fill="#06F1C8"/>
</g>
<circle cx="109.266" cy="74.7961" r="5.61492" stroke="#1B3992" stroke-width="0.441048" stroke-miterlimit="10"/>
<path d="M105.706 73.0551L106.503 75.563H106.534L107.333 73.0551H108.107L106.969 76.356H106.07L104.93 73.0551H105.706ZM111.265 73.0551V76.356H110.663L109.226 74.2784H109.202V76.356H108.504V73.0551H109.117L110.542 75.131H110.571V73.0551H111.265Z" fill="#8CFFEB"/>
</g>
<defs>
<filter id="filter0_i_1269_12907" x="38.2158" y="46.209" width="84.5684" height="29.7852" filterUnits="userSpaceOnUse" color-interpolation-filters="sRGB">
<feFlood flood-opacity="0" result="BackgroundImageFix"/>
<feBlend mode="normal" in="SourceGraphic" in2="BackgroundImageFix" result="shape"/>
<feColorMatrix in="SourceAlpha" type="matrix" values="0 0 0 0 0 0 0 0 0 0 0 0 0 0 0 0 0 0 127 0" result="hardAlpha"/>
<feOffset dx="-4"/>
<feComposite in2="hardAlpha" operator="arithmetic" k2="-1" k3="1"/>
<feColorMatrix type="matrix" values="0 0 0 0 0.842656 0 0 0 0 0.897578 0 0 0 0 1 0 0 0 1 0"/>
<feBlend mode="normal" in2="shape" result="effect1_innerShadow_1269_12907"/>
</filter>
<filter id="filter1_i_1269_12907" x="139.469" y="95.4546" width="14.7178" height="14.7178" filterUnits="userSpaceOnUse" color-interpolation-filters="sRGB">
<feFlood flood-opacity="0" result="BackgroundImageFix"/>
<feBlend mode="normal" in="SourceGraphic" in2="BackgroundImageFix" result="shape"/>
<feColorMatrix in="SourceAlpha" type="matrix" values="0 0 0 0 0 0 0 0 0 0 0 0 0 0 0 0 0 0 127 0" result="hardAlpha"/>
<feOffset dx="-3.20692" dy="-1.28277"/>
<feComposite in2="hardAlpha" operator="arithmetic" k2="-1" k3="1"/>
<feColorMatrix type="matrix" values="0 0 0 0 0.155885 0 0 0 0 0.416226 0 0 0 0 0.9125 0 0 0 0.51 0"/>
<feBlend mode="normal" in2="shape" result="effect1_innerShadow_1269_12907"/>
</filter>
<filter id="filter2_i_1269_12907" x="62.9619" y="89.4917" width="12.4268" height="12.4268" filterUnits="userSpaceOnUse" color-interpolation-filters="sRGB">
<feFlood flood-opacity="0" result="BackgroundImageFix"/>
<feBlend mode="normal" in="SourceGraphic" in2="BackgroundImageFix" result="shape"/>
<feColorMatrix in="SourceAlpha" type="matrix" values="0 0 0 0 0 0 0 0 0 0 0 0 0 0 0 0 0 0 127 0" result="hardAlpha"/>
<feOffset dx="-2.21" dy="-1.28277"/>
<feComposite in2="hardAlpha" operator="arithmetic" k2="-1" k3="1"/>
<feColorMatrix type="matrix" values="0 0 0 0 0.301961 0 0 0 0 0.760784 0 0 0 0 0.878431 0 0 0 1 0"/>
<feBlend mode="normal" in2="shape" result="effect1_innerShadow_1269_12907"/>
</filter>
<filter id="filter3_i_1269_12907" x="49.2256" y="51.207" width="12.3955" height="12.3955" filterUnits="userSpaceOnUse" color-interpolation-filters="sRGB">
<feFlood flood-opacity="0" result="BackgroundImageFix"/>
<feBlend mode="normal" in="SourceGraphic" in2="BackgroundImageFix" result="shape"/>
<feColorMatrix in="SourceAlpha" type="matrix" values="0 0 0 0 0 0 0 0 0 0 0 0 0 0 0 0 0 0 127 0" result="hardAlpha"/>
<feOffset dx="-2.6902" dy="-1.07608"/>
<feComposite in2="hardAlpha" operator="arithmetic" k2="-1" k3="1"/>
<feColorMatrix type="matrix" values="0 0 0 0 0.0745098 0 0 0 0 0.290196 0 0 0 0 0.701961 0 0 0 0.58 0"/>
<feBlend mode="normal" in2="shape" result="effect1_innerShadow_1269_12907"/>
</filter>
<filter id="filter4_i_1269_12907" x="16.666" y="100.585" width="13.2305" height="13.231" filterUnits="userSpaceOnUse" color-interpolation-filters="sRGB">
<feFlood flood-opacity="0" result="BackgroundImageFix"/>
<feBlend mode="normal" in="SourceGraphic" in2="BackgroundImageFix" result="shape"/>
<feColorMatrix in="SourceAlpha" type="matrix" values="0 0 0 0 0 0 0 0 0 0 0 0 0 0 0 0 0 0 127 0" result="hardAlpha"/>
<feOffset dx="-2.87158" dy="-1.14863"/>
<feComposite in2="hardAlpha" operator="arithmetic" k2="-1" k3="1"/>
<feColorMatrix type="matrix" values="0 0 0 0 0 0 0 0 0 0.675 0 0 0 0 0.557234 0 0 0 0.57 0"/>
<feBlend mode="normal" in2="shape" result="effect1_innerShadow_1269_12907"/>
</filter>
<filter id="filter5_i_1269_12907" x="103.431" y="68.9604" width="11.6709" height="11.6709" filterUnits="userSpaceOnUse" color-interpolation-filters="sRGB">
<feFlood flood-opacity="0" result="BackgroundImageFix"/>
<feBlend mode="normal" in="SourceGraphic" in2="BackgroundImageFix" result="shape"/>
<feColorMatrix in="SourceAlpha" type="matrix" values="0 0 0 0 0 0 0 0 0 0 0 0 0 0 0 0 0 0 127 0" result="hardAlpha"/>
<feOffset dx="-2.53301" dy="-1.0132"/>
<feComposite in2="hardAlpha" operator="arithmetic" k2="-1" k3="1"/>
<feColorMatrix type="matrix" values="0 0 0 0 0 0 0 0 0 0.675 0 0 0 0 0.557234 0 0 0 0.57 0"/>
<feBlend mode="normal" in2="shape" result="effect1_innerShadow_1269_12907"/>
</filter>
<linearGradient id="paint0_linear_1269_12907" x1="78.0861" y1="17.3401" x2="80.4236" y2="65.066" gradientUnits="userSpaceOnUse">
<stop stop-color="#07FFD4"/>
<stop offset="1" stop-color="white" stop-opacity="0.17"/>
</linearGradient>
<clipPath id="clip0_1269_12907">
<rect width="160" height="120" fill="" transform="translate(0.5)"/>
</clipPath>
</defs>
</svg>
