<?xml version="1.0" encoding="UTF-8" standalone="no"?>
<!DOCTYPE svg PUBLIC "-//W3C//DTD SVG 1.1//EN" "http://www.w3.org/Graphics/SVG/1.1/DTD/svg11.dtd">
<svg xmlns="http://www.w3.org/2000/svg" version="1.1" viewBox="0.00 0.00 381.00 218.00">
<g stroke-width="2.00" fill="none" stroke-linecap="butt">
<path stroke="#e694b6" stroke-opacity="0.996" vector-effect="non-scaling-stroke" d="
  M 316.00 217.25
  Q 309.04 177.55 302.43 138.00
  C 301.65 133.32 299.76 126.00 296.16 122.67"
/>
<path stroke="#dcdbe5" vector-effect="non-scaling-stroke" d="
  M 296.16 122.67
  L 295.54 121.62"
/>
<path stroke="#e694b6" stroke-opacity="0.996" vector-effect="non-scaling-stroke" d="
  M 295.54 121.62
  Q 295.68 121.64 295.81 121.66"
/>
<path stroke="#e6e3ed" vector-effect="non-scaling-stroke" d="
  M 296.31 119.41
  Q 294.16 115.74 290.02 112.49
  Q 287.34 110.38 284.47 109.46
  C 280.68 108.24 276.97 106.81 273.19 105.56
  C 272.36 105.28 271.30 105.29 270.37 104.72
  Q 269.96 104.46 269.47 104.41
  C 263.34 103.84 257.67 104.87 251.65 105.27
  Q 247.92 105.52 244.49 106.30"
/>
<path stroke="#77aaed" vector-effect="non-scaling-stroke" d="
  M 244.49 106.30
  L 193.33 113.35"
/>
<path stroke="#697280" vector-effect="non-scaling-stroke" d="
  M 193.33 113.35
  C 189.31 105.07 181.17 102.25 172.73 101.05
  C 165.23 99.99 161.32 99.17 157.22 93.48"
/>
<path stroke="#dcdbe5" vector-effect="non-scaling-stroke" d="
  M 157.22 93.48
  Q 157.75 93.11 157.79 92.78"
/>
<path stroke="#e694b6" stroke-opacity="0.996" vector-effect="non-scaling-stroke" d="
  M 157.79 92.78
  C 160.94 93.26 162.77 91.12 161.66 88.14"
/>
<path stroke="#dcdbe5" vector-effect="non-scaling-stroke" d="
  M 161.66 88.14
  Q 163.53 87.45 164.64 86.10
  A 1.35 1.32 63.9 0 0 164.94 85.20
  L 164.76 81.06
  Q 164.73 80.53 164.41 80.11
  Q 162.73 77.93 160.52 77.12
  Q 158.74 76.46 158.29 78.16
  Q 158.16 78.65 157.65 78.61
  L 156.70 78.54"
/>
<path stroke="#697280" vector-effect="non-scaling-stroke" d="
  M 156.70 78.54
  C 150.85 62.49 132.45 54.82 117.89 65.21
  C 111.38 69.86 108.85 76.33 107.20 84.08"
/>
<path stroke="#dcdbe5" vector-effect="non-scaling-stroke" d="
  M 107.20 84.08
  Q 99.04 84.57 100.18 92.22"
/>
<path stroke="#77aaed" vector-effect="non-scaling-stroke" d="
  M 100.18 92.22
  L 32.13 92.27
  Q 31.69 92.28 31.34 92.54
  L 30.89 92.87
  Q 30.58 93.09 30.96 93.09
  L 100.84 92.89"
/>
<path stroke="#dcdbe5" vector-effect="non-scaling-stroke" d="
  M 100.84 92.89
  Q 102.37 95.43 104.45 94.09
  Q 104.85 93.82 105.33 93.86
  Q 105.70 93.88 105.70 94.03"
/>
<path stroke="#e694b6" stroke-opacity="0.996" vector-effect="non-scaling-stroke" d="
  M 105.70 94.03
  C 104.50 96.60 106.05 98.76 108.36 99.54"
/>
<path stroke="#697280" vector-effect="non-scaling-stroke" d="
  M 108.36 99.54
  L 112.38 112.82"
/>
<path stroke="#77aaed" vector-effect="non-scaling-stroke" d="
  M 112.38 112.82
  L 106.73 113.26"
/>
<path stroke="#e6e3ed" vector-effect="non-scaling-stroke" d="
  M 106.73 113.26
  Q 104.79 113.73 103.88 112.88
  Q 103.59 112.61 103.20 112.47
  L 100.28 111.41
  Q 99.74 111.21 99.20 111.37
  Q 93.74 112.89 92.67 118.20"
/>
<path stroke="#77aaed" vector-effect="non-scaling-stroke" d="
  M 92.67 118.20
  L 90.38 120.27"
/>
<path stroke="#7e8694" vector-effect="non-scaling-stroke" d="
  M 90.38 120.27
  Q 89.83 120.47 89.40 121.28"
/>
<path stroke="#a8ccff" vector-effect="non-scaling-stroke" d="
  M 89.40 121.28
  C 88.01 120.61 86.55 118.84 84.93 119.90
  Q 82.57 121.43 83.21 124.25"
/>
<path stroke="#e6e3ed" vector-effect="non-scaling-stroke" d="
  M 83.21 124.25
  C 82.07 125.18 80.86 124.71 79.89 125.67
  Q 78.74 126.79 78.73 129.02"
/>
<path stroke="#a8ccff" vector-effect="non-scaling-stroke" d="
  M 78.73 129.02
  Q 73.27 130.61 78.84 136.26"
/>
<path stroke="#77aaed" vector-effect="non-scaling-stroke" d="
  M 78.84 136.26
  L 61.61 217.49"
/>
<path stroke="#e6e3ed" vector-effect="non-scaling-stroke" d="
  M 223.28 72.66
  Q 218.68 71.15 216.46 74.84
  C 213.80 79.25 217.09 83.46 222.07 82.86
  A 2.30 2.30 0.0 0 1 224.39 84.09
  L 228.60 92.26"
/>
<path stroke="#77aaed" vector-effect="non-scaling-stroke" d="
  M 228.60 92.26
  L 162.23 92.28
  Q 161.95 92.28 161.95 92.56
  L 161.95 92.81
  A 0.08 0.07 -90.0 0 0 162.02 92.89
  Q 193.01 92.89 224.00 92.97
  Q 226.53 92.98 229.41 92.53"
/>
<path stroke="#e6e3ed" vector-effect="non-scaling-stroke" d="
  M 229.41 92.53
  Q 230.31 93.39 231.28 94.55
  C 233.96 97.75 239.00 100.15 242.75 100.78
  Q 254.70 102.80 264.31 95.05
  C 265.07 94.43 265.38 93.62 266.02 92.89"
/>
<path stroke="#77aaed" vector-effect="non-scaling-stroke" d="
  M 266.02 92.89
  L 356.70 92.82
  Q 356.75 92.82 356.75 92.77
  L 356.75 92.47
  Q 356.75 92.27 356.55 92.27
  L 267.40 91.97"
/>
<path stroke="#e6e3ed" vector-effect="non-scaling-stroke" d="
  M 267.40 91.97
  L 271.53 83.96
  A 1.09 1.09 0.0 0 1 272.77 83.41
  C 281.73 85.70 283.61 70.71 272.50 73.33"
/>
<path stroke="#7e8694" vector-effect="non-scaling-stroke" d="
  M 272.50 73.33
  Q 270.76 67.09 267.28 61.76
  Q 267.22 61.67 267.10 61.68
  Q 266.96 61.69 266.84 61.66
  Q 266.70 61.63 266.56 61.45
  Q 260.55 53.62 250.98 52.73
  C 236.57 51.39 227.63 59.55 223.28 72.66"
/>
<path stroke="#928682" vector-effect="non-scaling-stroke" d="
  M 272.50 73.33
  Q 272.15 74.62 270.47 74.91
  Q 269.95 75.01 269.63 74.59
  C 267.68 72.10 266.69 70.87 263.25 71.13
  C 257.50 71.56 250.17 72.59 244.97 70.08
  C 242.16 68.72 240.57 65.90 237.73 64.64
  C 230.72 61.53 228.41 68.80 226.57 73.83
  A 1.13 1.13 0.0 0 1 225.09 74.49
  Q 223.43 73.83 223.28 72.66"
/>
<path stroke="#8baadb" vector-effect="non-scaling-stroke" d="
  M 267.40 91.97
  Q 266.59 92.21 266.02 92.89"
/>
<path stroke="#8baadb" vector-effect="non-scaling-stroke" d="
  M 229.41 92.53
  L 228.60 92.26"
/>
<path stroke="#77aaed" vector-effect="non-scaling-stroke" d="
  M 319.62 60.71
  Q 319.24 61.29 317.50 61.29
  Q 292.79 61.28 268.06 61.31
  Q 267.81 61.31 267.81 61.56
  L 267.81 61.81
  Q 267.81 61.88 267.88 61.88
  L 321.69 61.76"
/>
<path stroke="#e694b6" stroke-opacity="0.996" vector-effect="non-scaling-stroke" d="
  M 321.69 61.76
  L 324.04 64.82
  Q 324.37 65.26 324.74 64.85
  L 327.38 61.95"
/>
<path stroke="#77aaed" vector-effect="non-scaling-stroke" d="
  M 327.38 61.95
  L 356.57 61.77
  Q 356.81 61.76 356.81 61.52
  L 356.81 61.51
  A 0.24 0.24 0.0 0 0 356.57 61.27
  L 329.51 61.15"
/>
<path stroke="#e694b6" stroke-opacity="0.996" vector-effect="non-scaling-stroke" d="
  M 329.51 61.15
  L 324.64 55.78
  Q 324.34 55.44 324.04 55.78
  L 319.62 60.71"
/>
<path stroke="#8a5aa4" stroke-opacity="0.996" vector-effect="non-scaling-stroke" d="
  M 329.51 61.15
  L 319.62 60.71"
/>
<path stroke="#8a5aa4" stroke-opacity="0.996" vector-effect="non-scaling-stroke" d="
  M 327.38 61.95
  L 321.69 61.76"
/>
<path stroke="#77aaed" vector-effect="non-scaling-stroke" d="
  M 122.80 61.53
  L 123.38 61.37
  A 0.03 0.03 0.0 0 0 123.37 61.31
  L 31.40 61.26
  Q 31.26 61.26 31.26 61.41
  L 31.26 61.66
  Q 31.26 61.79 31.39 61.79
  L 119.47 61.97
  Q 121.16 61.97 122.80 61.53"
/>
<path stroke="#77aaed" vector-effect="non-scaling-stroke" d="
  M 227.5799 61.4955
  A 0.27 0.27 0.0 0 0 227.3094 61.2260
  L 142.5095 61.3740
  A 0.27 0.27 0.0 0 0 142.2400 61.6445
  L 142.2401 61.7045
  A 0.27 0.27 0.0 0 0 142.5106 61.9740
  L 227.3105 61.8260
  A 0.27 0.27 0.0 0 0 227.5800 61.5555
  L 227.5799 61.4955"
/>
<path stroke="#77aaed" vector-effect="non-scaling-stroke" d="
  M 43.32 77.59
  A 4.36 4.36 0.0 0 0 38.96 73.23
  A 4.36 4.36 0.0 0 0 34.60 77.59
  A 4.36 4.36 0.0 0 0 38.96 81.95
  A 4.36 4.36 0.0 0 0 43.32 77.59"
/>
<path stroke="#77aaed" vector-effect="non-scaling-stroke" d="
  M 58.35 77.58
  A 4.38 4.38 0.0 0 0 53.97 73.20
  A 4.38 4.38 0.0 0 0 49.59 77.58
  A 4.38 4.38 0.0 0 0 53.97 81.96
  A 4.38 4.38 0.0 0 0 58.35 77.58"
/>
<path stroke="#77aaed" vector-effect="non-scaling-stroke" d="
  M 74.35 77.59
  A 4.37 4.37 0.0 0 0 69.98 73.22
  A 4.37 4.37 0.0 0 0 65.61 77.59
  A 4.37 4.37 0.0 0 0 69.98 81.96
  A 4.37 4.37 0.0 0 0 74.35 77.59"
/>
<path stroke="#dcdbe5" vector-effect="non-scaling-stroke" d="
  M 315.56 107.25
  L 314.43 107.90
  A 0.44 0.44 0.0 0 0 314.54 108.71
  Q 315.32 108.91 315.98 108.49
  Q 316.49 108.17 317.00 108.48
  Q 317.72 108.92 318.52 108.69
  A 0.31 0.31 0.0 0 0 318.58 108.12
  Q 318.05 107.85 317.45 107.88
  Q 316.93 107.91 316.88 107.38
  Q 316.84 106.95 316.78 106.54
  Q 316.64 105.59 316.20 106.45
  L 316.06 106.72
  Q 315.89 107.06 315.56 107.25"
/>
<path stroke="#dcdbe5" vector-effect="non-scaling-stroke" d="
  M 316.29 109.24
  L 315.63 110.50
  Q 315.50 110.75 315.69 110.94
  L 315.87 111.12
  Q 316.14 111.39 316.36 111.08
  Q 316.94 110.30 316.88 109.36
  A 0.32 0.31 -32.9 0 0 316.29 109.24"
/>
<path stroke="#a8ccff" vector-effect="non-scaling-stroke" d="
  M 344.9510 165.4845
  A 7.03 6.48 100.4 0 0 352.5935 159.7398
  A 7.03 6.48 100.4 0 0 347.4890 151.6555
  A 7.03 6.48 100.4 0 0 339.8465 157.4002
  A 7.03 6.48 100.4 0 0 344.9510 165.4845"
/>
<path stroke="#9be1e9" vector-effect="non-scaling-stroke" d="
  M 28.85 178.18
  C 30.91 180.16 33.63 182.59 35.25 185.49
  Q 35.51 185.95 35.87 185.56
  Q 37.09 184.20 38.15 182.69
  C 39.90 180.20 42.14 178.62 44.48 176.87
  Q 45.13 176.39 44.36 176.12
  L 43.83 175.93
  Q 43.36 175.77 43.01 175.44
  Q 40.81 173.40 38.66 171.30
  C 37.50 170.16 37.20 168.61 35.71 167.52
  Q 35.30 167.22 35.16 167.71
  C 34.56 169.78 30.60 173.05 29.01 174.80
  Q 27.30 176.67 28.85 178.18"
/>
<path stroke="#736966" vector-effect="non-scaling-stroke" d="
  M 156.70 78.54
  Q 155.66 80.39 154.21 80.27
  A 0.81 0.81 0.0 0 1 153.55 79.84
  Q 152.67 78.24 151.30 77.08
  A 1.13 1.12 -29.0 0 0 150.37 76.82
  Q 139.09 78.79 129.96 72.04
  Q 129.57 71.76 129.40 72.20
  C 126.51 79.56 120.61 80.43 113.98 82.60
  C 112.11 83.21 111.24 84.22 110.22 85.76
  Q 109.94 86.19 109.43 86.10
  Q 106.82 85.65 107.20 84.08"
/>
<path stroke="#7d726e" vector-effect="non-scaling-stroke" d="
  M 253.34 85.92
  C 250.44 91.39 242.74 89.84 241.76 83.74
  A 0.86 0.81 20.1 0 0 241.54 83.30
  Q 241.17 82.91 240.68 82.94
  A 0.71 0.70 89.6 0 0 240.03 83.61
  Q 239.93 85.37 240.84 86.91
  C 245.42 94.65 255.68 91.25 256.04 82.71
  Q 256.08 81.82 255.22 81.57
  L 254.93 81.49
  A 0.60 0.60 0.0 0 0 254.16 81.99
  C 253.99 83.33 253.98 84.71 253.34 85.92"
/>
<path stroke="#f08b9c" stroke-opacity="0.996" vector-effect="non-scaling-stroke" d="
  M 161.66 88.14
  C 158.02 82.80 152.81 91.52 157.79 92.78"
/>
<path stroke="#736966" vector-effect="non-scaling-stroke" d="
  M 157.22 93.48
  Q 156.95 93.10 156.63 92.96
  A 0.43 0.43 0.0 0 0 156.05 93.21
  C 149.24 113.44 122.57 116.30 111.27 98.42"
/>
<path stroke="#f08b9c" stroke-opacity="0.996" vector-effect="non-scaling-stroke" d="
  M 111.27 98.42
  Q 112.13 90.52 105.70 94.03"
/>
<path stroke="#81a1d3" vector-effect="non-scaling-stroke" d="
  M 100.84 92.89
  L 100.18 92.22"
/>
<path stroke="#f3e9e5" vector-effect="non-scaling-stroke" d="
  M 141.74 89.18
  L 124.71 93.84
  A 0.24 0.24 0.0 0 0 124.54 94.13
  L 124.58 94.27
  A 9.12 9.06 74.7 0 0 135.72 100.67
  L 135.74 100.67
  A 9.12 9.06 74.7 0 0 142.08 89.48
  L 142.04 89.35
  A 0.24 0.24 0.0 0 0 141.74 89.18"
/>
<path stroke="#77aaed" vector-effect="non-scaling-stroke" d="
  M 42.58 77.63
  A 3.64 3.64 0.0 0 0 38.94 73.99
  A 3.64 3.64 0.0 0 0 35.30 77.63
  A 3.64 3.64 0.0 0 0 38.94 81.27
  A 3.64 3.64 0.0 0 0 42.58 77.63"
/>
<path stroke="#77aaed" vector-effect="non-scaling-stroke" d="
  M 57.56 77.63
  A 3.61 3.61 0.0 0 0 53.95 74.02
  A 3.61 3.61 0.0 0 0 50.34 77.63
  A 3.61 3.61 0.0 0 0 53.95 81.24
  A 3.61 3.61 0.0 0 0 57.56 77.63"
/>
<path stroke="#77aaed" vector-effect="non-scaling-stroke" d="
  M 73.57 77.63
  A 3.63 3.63 0.0 0 0 69.94 74.00
  A 3.63 3.63 0.0 0 0 66.31 77.63
  A 3.63 3.63 0.0 0 0 69.94 81.26
  A 3.63 3.63 0.0 0 0 73.57 77.63"
/>
<path stroke="#7d2236" stroke-opacity="0.996" vector-effect="non-scaling-stroke" d="
  M 111.27 98.42
  Q 110.05 98.29 108.36 99.54"
/>
<path stroke="#0e386e" vector-effect="non-scaling-stroke" d="
  M 193.33 113.35
  L 146.50 113.15"
/>
<path stroke="#736966" vector-effect="non-scaling-stroke" d="
  M 146.50 113.15
  L 120.32 112.63"
/>
<path stroke="#0e386e" vector-effect="non-scaling-stroke" d="
  M 120.32 112.63
  L 112.38 112.82"
/>
<path stroke="#fa94a4" stroke-opacity="0.996" vector-effect="non-scaling-stroke" d="
  M 295.26 120.73
  L 294.84 120.81
  Q 294.33 120.91 294.13 121.39
  Q 290.30 130.19 286.95 139.20
  Q 285.33 143.54 283.00 147.18
  Q 273.42 162.07 263.52 176.75
  Q 262.46 178.32 260.99 179.50
  Q 247.74 190.17 234.46 201.05
  Q 234.27 201.21 234.11 201.01
  L 233.94 200.80
  A 0.35 0.35 0.0 0 1 233.99 200.30
  L 260.56 178.68
  A 9.96 9.88 -3.1 0 0 262.62 176.40
  Q 271.46 162.90 280.17 149.94
  Q 283.68 144.72 285.89 139.57
  Q 289.31 131.59 292.28 123.42
  C 292.64 122.45 293.39 121.38 293.84 120.29
  A 0.78 0.77 29.3 0 0 293.58 119.37
  L 285.14 113.20"
/>
<path stroke="#7d726e" vector-effect="non-scaling-stroke" d="
  M 285.14 113.20
  Q 278.78 108.23 269.27 105.75
  A 0.33 0.33 0.0 0 0 268.94 106.29
  Q 269.13 106.50 269.53 106.67
  Q 275.61 109.15 281.79 111.50
  Q 283.50 112.15 283.39 115.05"
/>
<path stroke="#fa94a4" stroke-opacity="0.996" vector-effect="non-scaling-stroke" d="
  M 283.39 115.05
  Q 283.11 116.58 281.39 116.60
  C 279.11 116.64 274.60 114.42 272.19 113.65"
/>
<path stroke="#7d726e" vector-effect="non-scaling-stroke" d="
  M 272.19 113.65
  L 270.75 113.10"
/>
<path stroke="#fa94a4" stroke-opacity="0.996" vector-effect="non-scaling-stroke" d="
  M 270.75 113.10
  Q 268.06 111.90 266.85 112.80"
/>
<path stroke="#fdf1ed" vector-effect="non-scaling-stroke" d="
  M 266.85 112.80
  L 266.31 112.42
  Q 265.88 112.11 265.41 112.39
  Q 258.24 116.58 250.34 114.02"
/>
<path stroke="#8baadb" vector-effect="non-scaling-stroke" d="
  M 250.34 114.02
  C 246.28 112.75 243.67 111.81 244.49 106.30"
/>
<path stroke="#7d2236" stroke-opacity="0.996" vector-effect="non-scaling-stroke" d="
  M 285.14 113.20
  Q 284.68 115.59 283.39 115.05"
/>
<path stroke="#8db8ed" vector-effect="non-scaling-stroke" d="
  M 250.34 114.02
  Q 249.60 114.75 248.91 115.04
  Q 248.45 115.24 247.99 115.04
  C 244.92 113.70 241.76 111.75 238.31 112.16
  Q 234.01 112.68 229.53 113.52"
/>
<path stroke="#8a5aa4" stroke-opacity="0.996" vector-effect="non-scaling-stroke" d="
  M 229.53 113.52
  Q 227.58 113.58 227.02 114.39"
/>
<path stroke="#0e386e" vector-effect="non-scaling-stroke" d="
  M 227.02 114.39
  L 226.00 114.35"
/>
<path stroke="#8a5aa4" stroke-opacity="0.996" vector-effect="non-scaling-stroke" d="
  M 226.00 114.35
  Q 219.01 116.27 213.47 120.96
  Q 205.95 127.32 186.22 144.35
  Q 182.53 147.53 179.88 148.62
  C 174.32 150.91 167.16 150.59 161.23 150.45"
/>
<path stroke="#0e386e" vector-effect="non-scaling-stroke" d="
  M 161.23 150.45
  L 153.36 150.07
  Q 152.82 150.05 152.75 150.59
  L 151.66 158.87"
/>
<path stroke="#8a5aa4" stroke-opacity="0.996" vector-effect="non-scaling-stroke" d="
  M 151.66 158.87
  L 149.49 172.22"
/>
<path stroke="#77aaed" vector-effect="non-scaling-stroke" d="
  M 149.49 172.22
  L 147.58 185.22
  Q 147.52 185.63 147.38 186.02
  L 147.05 186.91
  Q 146.86 187.41 147.32 187.67
  L 160.01 195.17"
/>
<path stroke="#0e386e" vector-effect="non-scaling-stroke" d="
  M 160.01 195.17
  L 147.72 217.22"
/>
<path stroke="#0e386e" vector-effect="non-scaling-stroke" d="
  M 125.08 217.22
  Q 115.56 211.94 106.23 206.66
  C 100.19 203.24 95.76 199.97 94.02 193.75
  Q 89.44 177.36 84.95 160.87
  Q 84.88 160.64 84.71 160.80
  L 84.36 161.12
  A 0.17 0.17 0.0 0 0 84.30 161.30
  Q 87.73 177.38 91.26 193.38
  C 92.80 200.35 94.47 204.69 99.34 209.15
  Q 104.57 213.93 110.09 217.50"
/>
<path stroke="#4c93ed" vector-effect="non-scaling-stroke" d="
  M 78.84 136.26
  C 81.10 136.51 81.64 136.92 83.46 135.10"
/>
<path stroke="#224d82" vector-effect="non-scaling-stroke" d="
  M 83.46 135.10
  Q 83.89 137.39 85.30 132.97"
/>
<path stroke="#8baadb" vector-effect="non-scaling-stroke" d="
  M 85.30 132.97
  Q 86.43 133.00 87.70 131.81"
/>
<path stroke="#224d82" vector-effect="non-scaling-stroke" d="
  M 87.70 131.81
  Q 89.68 131.38 89.68 128.51"
/>
<path stroke="#4c93ed" vector-effect="non-scaling-stroke" d="
  M 89.68 128.51
  Q 91.30 127.75 92.39 126.48"
/>
<path stroke="#224d82" vector-effect="non-scaling-stroke" d="
  M 92.39 126.48
  Q 94.28 126.19 93.57 124.02
  C 93.05 122.44 91.49 121.56 90.38 120.27"
/>
<path stroke="#8baadb" vector-effect="non-scaling-stroke" d="
  M 92.67 118.20
  Q 94.06 120.48 96.76 120.62"
/>
<path stroke="#0e386e" vector-effect="non-scaling-stroke" d="
  M 96.76 120.62
  Q 98.02 120.65 99.10 119.60
  Q 101.40 117.35 101.81 114.21"
/>
<path stroke="#8baadb" vector-effect="non-scaling-stroke" d="
  M 101.81 114.21
  L 106.73 113.26"
/>
<path stroke="#81a1d3" vector-effect="non-scaling-stroke" d="
  M 120.32 112.63
  Q 120.70 122.28 120.32 131.50
  Q 120.30 131.98 120.94 132.79"
/>
<path stroke="#0e386e" vector-effect="non-scaling-stroke" d="
  M 120.94 132.79
  Q 120.56 132.52 120.37 132.79
  Q 120.26 132.93 120.28 133.23
  Q 120.61 138.47 120.46 142.90
  Q 120.38 145.08 119.77 142.98
  L 115.37 127.73
  A 0.59 0.57 -10.3 0 0 114.76 127.32
  L 114.43 127.34
  A 0.30 0.30 0.0 0 0 114.17 127.72
  L 128.10 175.49
  A 3.31 3.04 9.0 0 0 129.55 177.32
  L 137.80 182.21
  A 0.56 0.56 0.0 0 0 138.64 181.79
  L 143.95 134.65"
/>
<path stroke="#81a1d3" vector-effect="non-scaling-stroke" d="
  M 143.95 134.65
  L 146.50 113.15"
/>
<path stroke="#2b8ab2" vector-effect="non-scaling-stroke" d="
  M 143.02 203.09
  Q 144.02 203.77 145.22 204.01
  A 1.02 1.02 0.0 0 0 146.41 202.76
  Q 145.76 200.18 147.65 198.44
  Q 149.72 196.53 147.00 196.32
  Q 144.20 196.11 143.32 193.44
  A 1.15 1.15 0.0 0 0 141.14 193.41
  Q 140.32 195.70 138.01 196.22
  Q 134.73 196.96 137.03 198.74
  Q 138.78 200.09 138.25 202.25
  Q 137.40 205.71 140.47 203.66
  Q 141.18 203.19 142.04 202.94
  Q 142.57 202.78 143.02 203.09"
/>
<path stroke="#7d726e" vector-effect="non-scaling-stroke" d="
  M 101.81 114.21
  L 96.76 120.62"
/>
<path stroke="#fda2b6" stroke-opacity="0.996" vector-effect="non-scaling-stroke" d="
  M 266.85 112.80
  L 264.92 130.39"
/>
<path stroke="#808080" vector-effect="non-scaling-stroke" d="
  M 264.92 130.39
  L 256.96 143.53
  Q 256.71 143.95 256.28 144.18
  L 255.67 144.51"
/>
<path stroke="#b2efe9" vector-effect="non-scaling-stroke" d="
  M 255.67 144.51
  Q 255.66 145.08 255.35 145.41
  Q 254.93 145.88 254.53 145.39
  Q 254.20 144.98 253.73 144.76
  Q 253.05 144.45 253.65 144.00
  Q 254.39 143.43 255.32 143.29
  A 1.46 1.46 0.0 0 0 256.50 141.47
  Q 254.68 134.56 252.77 127.68
  C 252.19 125.60 252.57 123.52 253.74 121.97
  Q 254.65 120.74 253.48 119.75
  L 249.78 116.63
  Q 248.64 115.66 247.79 116.90
  L 244.83 121.25
  Q 244.44 121.82 244.87 122.35
  L 247.67 125.79
  A 1.49 1.49 0.0 0 1 248.01 126.71
  Q 248.13 139.86 248.28 153.00
  Q 248.30 154.70 248.85 156.34"
/>
<path stroke="#808080" vector-effect="non-scaling-stroke" d="
  M 248.85 156.34
  Q 248.55 157.17 247.92 157.96"
/>
<path stroke="#fda2b6" stroke-opacity="0.996" vector-effect="non-scaling-stroke" d="
  M 247.92 157.96
  L 229.53 113.52"
/>
<path stroke="#7d2236" stroke-opacity="0.996" vector-effect="non-scaling-stroke" d="
  M 270.75 113.10
  Q 270.89 115.35 272.23 117.36
  A 1.39 1.38 -45.9 0 1 272.25 118.88
  L 264.92 130.39"
/>
<path stroke="#736966" vector-effect="non-scaling-stroke" d="
  M 143.95 134.65
  Q 131.44 139.25 120.94 132.79"
/>
<path stroke="#7d2236" stroke-opacity="0.996" vector-effect="non-scaling-stroke" d="
  M 272.19 113.65
  L 273.64 117.88
  A 1.85 1.82 51.9 0 1 273.46 119.48
  Q 259.39 141.90 245.34 164.33
  Q 244.55 165.58 243.48 166.45
  C 236.81 171.83 229.72 176.74 222.87 181.89
  Q 221.86 182.65 220.85 182.53
  Q 220.13 182.44 220.71 182.01
  L 240.65 167.43
  A 0.74 0.73 -39.5 0 0 240.76 166.34
  Q 234.54 159.54 228.43 152.27
  C 226.08 149.47 227.92 147.00 229.24 144.43
  A 0.88 0.87 -59.9 0 0 228.94 143.29
  C 227.48 142.36 223.62 140.28 223.80 138.25
  Q 224.89 126.41 226.00 114.35"
/>
<path stroke="#7d2236" stroke-opacity="0.996" vector-effect="non-scaling-stroke" d="
  M 227.02 114.39
  L 225.02 137.69
  A 1.47 1.47 0.0 0 0 225.77 139.10
  L 230.94 141.97
  A 0.70 0.69 -63.3 0 1 231.23 142.87
  L 228.84 148.02
  Q 228.27 149.26 229.18 150.28
  L 242.44 165.07
  Q 243.05 165.75 243.54 164.97
  L 247.92 157.96"
/>
<path stroke="#326f6a" vector-effect="non-scaling-stroke" d="
  M 248.85 156.34
  Q 252.51 151.09 255.60 145.63
  Q 255.89 145.11 255.67 144.51"
/>
<path stroke="#f08b9c" stroke-opacity="0.996" vector-effect="non-scaling-stroke" d="
  M 295.54 121.62
  Q 291.74 131.49 287.60 141.13
  Q 285.36 146.36 282.01 151.38
  Q 272.69 165.37 263.81 178.86
  A 12.29 12.23 87.1 0 1 261.27 181.68
  L 229.61 207.55"
/>
<path stroke="#fda2b6" stroke-opacity="0.996" vector-effect="non-scaling-stroke" d="
  M 229.61 207.55
  Q 227.86 209.12 225.06 209.65
  A 0.48 0.48 0.0 0 1 224.57 209.45
  L 210.94 190.24"
/>
<path stroke="#7d2236" stroke-opacity="0.996" vector-effect="non-scaling-stroke" d="
  M 210.94 190.24
  Q 211.91 189.08 211.53 188.81"
/>
<path stroke="#e694b6" stroke-opacity="0.996" vector-effect="non-scaling-stroke" d="
  M 211.53 188.81
  L 219.62 182.98
  Q 220.03 182.68 220.03 182.17
  C 220.06 180.04 220.13 177.86 219.32 175.85
  C 218.71 174.34 219.04 172.44 218.75 171.12
  C 218.15 168.44 218.15 165.71 217.25 163.13"
/>
<path stroke="#7d2236" stroke-opacity="0.996" vector-effect="non-scaling-stroke" d="
  M 217.25 163.13
  Q 217.84 162.84 217.80 162.00
  Q 217.67 159.33 216.73 155.97
  Q 216.67 155.75 216.45 155.78
  L 216.13 155.81
  A 0.38 0.37 82.2 0 0 215.80 156.25
  L 216.80 162.46"
/>
<path stroke="#e694b6" stroke-opacity="0.996" vector-effect="non-scaling-stroke" d="
  M 216.80 162.46
  Q 208.34 168.67 200.12 174.62
  Q 191.81 180.62 182.75 181.21
  C 171.43 181.94 160.19 176.20 149.49 172.22"
/>
<path stroke="#7d2236" stroke-opacity="0.996" vector-effect="non-scaling-stroke" d="
  M 151.66 158.87
  Q 154.49 151.91 161.23 150.45"
/>
<path stroke="#536f94" vector-effect="non-scaling-stroke" d="
  M 89.40 121.28
  Q 93.71 122.88 92.39 126.48"
/>
<path stroke="#536f94" vector-effect="non-scaling-stroke" d="
  M 89.68 128.51
  Q 88.74 127.72 87.81 127.65"
/>
<path stroke="#bccced" vector-effect="non-scaling-stroke" d="
  M 87.81 127.65
  L 83.21 124.25"
/>
<path stroke="#f08b9c" stroke-opacity="0.996" vector-effect="non-scaling-stroke" d="
  M 296.16 122.67
  Q 295.71 122.71 295.66 123.54
  Q 295.62 124.09 295.47 124.44
  C 291.81 133.12 288.74 142.85 283.59 150.73
  Q 274.37 164.81 265.04 178.81
  C 263.80 180.67 262.27 181.99 260.60 183.35
  Q 247.69 193.82 234.88 204.40
  Q 232.95 206.00 230.78 207.30
  Q 230.20 207.65 230.53 208.05"
/>
<path stroke="#f3e9e5" vector-effect="non-scaling-stroke" d="
  M 230.53 208.05
  L 229.61 207.55"
/>
<path stroke="#7d2236" stroke-opacity="0.996" vector-effect="non-scaling-stroke" d="
  M 260.60 217.24
  Q 261.01 215.18 260.18 213.32
  A 0.86 0.84 -33.9 0 1 260.38 212.35
  Q 266.34 206.74 272.25 201.25
  Q 274.68 199.00 275.80 196.51
  Q 283.10 180.36 290.77 164.43
  Q 290.95 164.06 290.59 163.87
  L 290.36 163.75
  Q 290.31 163.72 290.26 163.80
  L 272.08 194.00
  A 7.92 7.89 -2.4 0 1 269.95 196.31
  L 240.87 217.24"
/>
<path stroke="#fda2b6" stroke-opacity="0.996" vector-effect="non-scaling-stroke" d="
  M 229.77 217.21
  L 227.66 213.90
  A 0.64 0.63 -35.8 0 1 227.80 213.06
  L 234.81 207.38
  Q 235.06 207.17 234.98 206.85
  L 234.90 206.52
  Q 234.83 206.24 234.60 206.40
  Q 232.68 207.70 230.53 208.05"
/>
<path stroke="#7d2236" stroke-opacity="0.996" vector-effect="non-scaling-stroke" d="
  M 281.61 194.13
  L 281.61 194.93
  A 0.17 0.17 0.0 0 0 281.78 195.10
  L 281.91 195.10
  A 19.72 0.49 -0.4 0 0 301.63 194.47
  L 301.63 194.31
  A 19.72 0.49 -0.4 0 0 281.91 193.96
  L 281.78 193.96
  A 0.17 0.17 0.0 0 0 281.61 194.13"
/>
<path stroke="#928682" vector-effect="non-scaling-stroke" d="
  M 87.81 127.65
  Q 89.21 129.44 87.70 131.81"
/>
<path stroke="#928682" vector-effect="non-scaling-stroke" d="
  M 85.30 132.97
  L 84.40 132.60"
/>
<path stroke="#bccced" vector-effect="non-scaling-stroke" d="
  M 84.40 132.60
  Q 81.31 131.51 78.73 129.02"
/>
<path stroke="#536f94" vector-effect="non-scaling-stroke" d="
  M 84.40 132.60
  Q 83.84 133.09 83.46 135.10"
/>
<path stroke="#697280" vector-effect="non-scaling-stroke" d="
  M 217.25 163.13
  Q 216.38 163.05 216.80 162.46"
/>
<path stroke="#697280" vector-effect="non-scaling-stroke" d="
  M 211.53 188.81
  Q 206.37 191.25 201.65 195.33"
/>
<path stroke="#a8ccff" vector-effect="non-scaling-stroke" d="
  M 201.65 195.33
  Q 198.90 197.37 195.56 199.30
  Q 193.91 200.25 191.72 200.43
  Q 189.69 200.60 187.66 200.92
  Q 187.14 201.00 186.95 200.50
  Q 186.89 200.33 186.69 200.28
  Q 186.27 200.19 186.15 200.59
  Q 185.95 201.27 185.56 201.10"
/>
<path stroke="#dcdbe5" vector-effect="non-scaling-stroke" d="
  M 185.56 201.10
  Q 185.67 200.98 185.76 200.87
  Q 186.06 200.49 185.75 200.12
  C 183.29 197.11 180.67 196.15 176.64 196.70
  Q 169.62 197.66 167.50 197.74
  Q 165.21 197.82 162.40 196.43"
/>
<path stroke="#697280" vector-effect="non-scaling-stroke" d="
  M 162.40 196.43
  Q 161.70 195.04 160.01 195.17"
/>
<path stroke="#7d2236" stroke-opacity="0.996" vector-effect="non-scaling-stroke" d="
  M 259.96 217.18
  Q 259.13 216.58 259.37 214.61
  Q 259.56 213.01 258.39 214.11
  L 255.07 217.21"
/>
<path stroke="#808080" vector-effect="non-scaling-stroke" d="
  M 210.94 190.24
  L 203.58 195.12
  A 0.66 0.66 0.0 0 0 203.39 196.04
  L 217.43 217.21"
/>
<path stroke="#3f5b80" vector-effect="non-scaling-stroke" d="
  M 215.03 217.23
  L 201.65 195.33"
/>
<path stroke="#b2efe9" vector-effect="non-scaling-stroke" d="
  M 223.70 217.19
  C 227.85 211.23 216.28 211.09 220.04 217.19"
/>
<path stroke="#736966" vector-effect="non-scaling-stroke" d="
  M 162.40 196.43
  L 149.21 217.22"
/>
<path stroke="#b2c4e5" vector-effect="non-scaling-stroke" d="
  M 192.12 217.21
  Q 185.94 209.81 178.16 204.92
  A 1.31 1.30 -43.6 0 1 178.22 202.67
  Q 181.45 200.89 185.56 201.10"
/>
</g>
<path fill="#d2e3ff" d="
  M 381.00 11.85
  L 381.00 207.74
  C 379.79 212.17 376.13 217.40 371.00 217.38
  Q 343.49 217.25 316.00 217.25
  Q 309.04 177.55 302.43 138.00
  C 301.65 133.32 299.76 126.00 296.16 122.67
  L 295.54 121.62
  Q 295.68 121.64 295.81 121.66
  Q 296.74 120.03 297.64 118.32
  C 297.68 118.24 297.68 118.11 297.67 118.03
  Q 297.63 117.74 297.51 118.05
  Q 297.04 119.18 296.31 119.41
  Q 294.16 115.74 290.02 112.49
  Q 287.34 110.38 284.47 109.46
  C 280.68 108.24 276.97 106.81 273.19 105.56
  C 272.36 105.28 271.30 105.29 270.37 104.72
  Q 269.96 104.46 269.47 104.41
  C 263.34 103.84 257.67 104.87 251.65 105.27
  Q 247.92 105.52 244.49 106.30
  L 193.33 113.35
  C 189.31 105.07 181.17 102.25 172.73 101.05
  C 165.23 99.99 161.32 99.17 157.22 93.48
  Q 157.75 93.11 157.79 92.78
  C 160.94 93.26 162.77 91.12 161.66 88.14
  Q 163.53 87.45 164.64 86.10
  A 1.35 1.32 63.9 0 0 164.94 85.20
  L 164.76 81.06
  Q 164.73 80.53 164.41 80.11
  Q 162.73 77.93 160.52 77.12
  Q 158.74 76.46 158.29 78.16
  Q 158.16 78.65 157.65 78.61
  L 156.70 78.54
  C 150.85 62.49 132.45 54.82 117.89 65.21
  C 111.38 69.86 108.85 76.33 107.20 84.08
  Q 99.04 84.57 100.18 92.22
  L 32.13 92.27
  Q 31.69 92.28 31.34 92.54
  L 30.89 92.87
  Q 30.58 93.09 30.96 93.09
  L 100.84 92.89
  Q 102.37 95.43 104.45 94.09
  Q 104.85 93.82 105.33 93.86
  Q 105.70 93.88 105.70 94.03
  C 104.50 96.60 106.05 98.76 108.36 99.54
  L 112.38 112.82
  L 106.73 113.26
  Q 104.79 113.73 103.88 112.88
  Q 103.59 112.61 103.20 112.47
  L 100.28 111.41
  Q 99.74 111.21 99.20 111.37
  Q 93.74 112.89 92.67 118.20
  L 90.38 120.27
  Q 89.83 120.47 89.40 121.28
  C 88.01 120.61 86.55 118.84 84.93 119.90
  Q 82.57 121.43 83.21 124.25
  C 82.07 125.18 80.86 124.71 79.89 125.67
  Q 78.74 126.79 78.73 129.02
  Q 73.27 130.61 78.84 136.26
  L 61.61 217.49
  Q 37.40 217.21 12.75 217.38
  C 10.32 217.40 8.03 217.23 6.04 215.70
  Q 1.02 211.85 1.02 205.25
  Q 0.98 110.38 1.16 15.50
  Q 1.16 13.91 1.21 12.33
  C 1.38 7.07 5.35 2.30 10.24 1.29
  Q 12.13 0.89 19.50 0.90
  Q 193.00 0.99 366.50 1.01
  Q 378.70 1.01 381.00 11.85
  Z
  M 223.28 72.66
  Q 218.68 71.15 216.46 74.84
  C 213.80 79.25 217.09 83.46 222.07 82.86
  A 2.30 2.30 0.0 0 1 224.39 84.09
  L 228.60 92.26
  L 162.23 92.28
  Q 161.95 92.28 161.95 92.56
  L 161.95 92.81
  A 0.08 0.07 -90.0 0 0 162.02 92.89
  Q 193.01 92.89 224.00 92.97
  Q 226.53 92.98 229.41 92.53
  Q 230.31 93.39 231.28 94.55
  C 233.96 97.75 239.00 100.15 242.75 100.78
  Q 254.70 102.80 264.31 95.05
  C 265.07 94.43 265.38 93.62 266.02 92.89
  L 356.70 92.82
  Q 356.75 92.82 356.75 92.77
  L 356.75 92.47
  Q 356.75 92.27 356.55 92.27
  L 267.40 91.97
  L 271.53 83.96
  A 1.09 1.09 0.0 0 1 272.77 83.41
  C 281.73 85.70 283.61 70.71 272.50 73.33
  Q 270.76 67.09 267.28 61.76
  Q 267.22 61.67 267.10 61.68
  Q 266.96 61.69 266.84 61.66
  Q 266.70 61.63 266.56 61.45
  Q 260.55 53.62 250.98 52.73
  C 236.57 51.39 227.63 59.55 223.28 72.66
  Z
  M 319.62 60.71
  Q 319.24 61.29 317.50 61.29
  Q 292.79 61.28 268.06 61.31
  Q 267.81 61.31 267.81 61.56
  L 267.81 61.81
  Q 267.81 61.88 267.88 61.88
  L 321.69 61.76
  L 324.04 64.82
  Q 324.37 65.26 324.74 64.85
  L 327.38 61.95
  L 356.57 61.77
  Q 356.81 61.76 356.81 61.52
  L 356.81 61.51
  A 0.24 0.24 0.0 0 0 356.57 61.27
  L 329.51 61.15
  L 324.64 55.78
  Q 324.34 55.44 324.04 55.78
  L 319.62 60.71
  Z
  M 122.80 61.53
  L 123.38 61.37
  A 0.03 0.03 0.0 0 0 123.37 61.31
  L 31.40 61.26
  Q 31.26 61.26 31.26 61.41
  L 31.26 61.66
  Q 31.26 61.79 31.39 61.79
  L 119.47 61.97
  Q 121.16 61.97 122.80 61.53
  Z
  M 227.5799 61.4955
  A 0.27 0.27 0.0 0 0 227.3094 61.2260
  L 142.5095 61.3740
  A 0.27 0.27 0.0 0 0 142.2400 61.6445
  L 142.2401 61.7045
  A 0.27 0.27 0.0 0 0 142.5106 61.9740
  L 227.3105 61.8260
  A 0.27 0.27 0.0 0 0 227.5800 61.5555
  L 227.5799 61.4955
  Z
  M 43.32 77.59
  A 4.36 4.36 0.0 0 0 38.96 73.23
  A 4.36 4.36 0.0 0 0 34.60 77.59
  A 4.36 4.36 0.0 0 0 38.96 81.95
  A 4.36 4.36 0.0 0 0 43.32 77.59
  Z
  M 58.35 77.58
  A 4.38 4.38 0.0 0 0 53.97 73.20
  A 4.38 4.38 0.0 0 0 49.59 77.58
  A 4.38 4.38 0.0 0 0 53.97 81.96
  A 4.38 4.38 0.0 0 0 58.35 77.58
  Z
  M 74.35 77.59
  A 4.37 4.37 0.0 0 0 69.98 73.22
  A 4.37 4.37 0.0 0 0 65.61 77.59
  A 4.37 4.37 0.0 0 0 69.98 81.96
  A 4.37 4.37 0.0 0 0 74.35 77.59
  Z
  M 315.56 107.25
  L 314.43 107.90
  A 0.44 0.44 0.0 0 0 314.54 108.71
  Q 315.32 108.91 315.98 108.49
  Q 316.49 108.17 317.00 108.48
  Q 317.72 108.92 318.52 108.69
  A 0.31 0.31 0.0 0 0 318.58 108.12
  Q 318.05 107.85 317.45 107.88
  Q 316.93 107.91 316.88 107.38
  Q 316.84 106.95 316.78 106.54
  Q 316.64 105.59 316.20 106.45
  L 316.06 106.72
  Q 315.89 107.06 315.56 107.25
  Z
  M 316.29 109.24
  L 315.63 110.50
  Q 315.50 110.75 315.69 110.94
  L 315.87 111.12
  Q 316.14 111.39 316.36 111.08
  Q 316.94 110.30 316.88 109.36
  A 0.32 0.31 -32.9 0 0 316.29 109.24
  Z
  M 344.9510 165.4845
  A 7.03 6.48 100.4 0 0 352.5935 159.7398
  A 7.03 6.48 100.4 0 0 347.4890 151.6555
  A 7.03 6.48 100.4 0 0 339.8465 157.4002
  A 7.03 6.48 100.4 0 0 344.9510 165.4845
  Z
  M 28.85 178.18
  C 30.91 180.16 33.63 182.59 35.25 185.49
  Q 35.51 185.95 35.87 185.56
  Q 37.09 184.20 38.15 182.69
  C 39.90 180.20 42.14 178.62 44.48 176.87
  Q 45.13 176.39 44.36 176.12
  L 43.83 175.93
  Q 43.36 175.77 43.01 175.44
  Q 40.81 173.40 38.66 171.30
  C 37.50 170.16 37.20 168.61 35.71 167.52
  Q 35.30 167.22 35.16 167.71
  C 34.56 169.78 30.60 173.05 29.01 174.80
  Q 27.30 176.67 28.85 178.18
  Z"
/>
<path fill="#292929" d="
  M 272.50 73.33
  Q 272.15 74.62 270.47 74.91
  Q 269.95 75.01 269.63 74.59
  C 267.68 72.10 266.69 70.87 263.25 71.13
  C 257.50 71.56 250.17 72.59 244.97 70.08
  C 242.16 68.72 240.57 65.90 237.73 64.64
  C 230.72 61.53 228.41 68.80 226.57 73.83
  A 1.13 1.13 0.0 0 1 225.09 74.49
  Q 223.43 73.83 223.28 72.66
  C 227.63 59.55 236.57 51.39 250.98 52.73
  Q 260.55 53.62 266.56 61.45
  Q 266.70 61.63 266.84 61.66
  Q 266.96 61.69 267.10 61.68
  Q 267.22 61.67 267.28 61.76
  Q 270.76 67.09 272.50 73.33
  Z"
/>
<path fill="#fa446d" fill-opacity="0.992" d="
  M 329.51 61.15
  L 319.62 60.71
  L 324.04 55.78
  Q 324.34 55.44 324.64 55.78
  L 329.51 61.15
  Z"
/>
<path fill="#1b70db" d="
  M 319.62 60.71
  L 329.51 61.15
  L 356.57 61.27
  A 0.24 0.24 0.0 0 1 356.81 61.51
  L 356.81 61.52
  Q 356.81 61.76 356.57 61.77
  L 327.38 61.95
  L 321.69 61.76
  L 267.88 61.88
  Q 267.81 61.88 267.81 61.81
  L 267.81 61.56
  Q 267.81 61.31 268.06 61.31
  Q 292.79 61.28 317.50 61.29
  Q 319.24 61.29 319.62 60.71
  Z"
/>
<path fill="#000000" d="
  M 156.70 78.54
  Q 155.66 80.39 154.21 80.27
  A 0.81 0.81 0.0 0 1 153.55 79.84
  Q 152.67 78.24 151.30 77.08
  A 1.13 1.12 -29.0 0 0 150.37 76.82
  Q 139.09 78.79 129.96 72.04
  Q 129.57 71.76 129.40 72.20
  C 126.51 79.56 120.61 80.43 113.98 82.60
  C 112.11 83.21 111.24 84.22 110.22 85.76
  Q 109.94 86.19 109.43 86.10
  Q 106.82 85.65 107.20 84.08
  C 108.85 76.33 111.38 69.86 117.89 65.21
  C 132.45 54.82 150.85 62.49 156.70 78.54
  Z"
/>
<path fill="#1b70db" d="
  M 122.80 61.53
  Q 121.16 61.97 119.47 61.97
  L 31.39 61.79
  Q 31.26 61.79 31.26 61.66
  L 31.26 61.41
  Q 31.26 61.26 31.40 61.26
  L 123.37 61.31
  A 0.03 0.03 0.0 0 1 123.38 61.37
  L 122.80 61.53
  Z"
/>
<rect fill="#1b70db" x="-42.67" y="-0.30" transform="translate(184.91,61.60) rotate(-0.1)" width="85.34" height="0.60" rx="0.27"/>
<path fill="#fa446d" fill-opacity="0.992" d="
  M 321.69 61.76
  L 327.38 61.95
  L 324.74 64.85
  Q 324.37 65.26 324.04 64.82
  L 321.69 61.76
  Z"
/>
<path fill="#fae3db" d="
  M 272.50 73.33
  C 283.61 70.71 281.73 85.70 272.77 83.41
  A 1.09 1.09 0.0 0 0 271.53 83.96
  L 267.40 91.97
  Q 266.59 92.21 266.02 92.89
  C 265.38 93.62 265.07 94.43 264.31 95.05
  Q 254.70 102.80 242.75 100.78
  C 239.00 100.15 233.96 97.75 231.28 94.55
  Q 230.31 93.39 229.41 92.53
  L 228.60 92.26
  L 224.39 84.09
  A 2.30 2.30 0.0 0 0 222.07 82.86
  C 217.09 83.46 213.80 79.25 216.46 74.84
  Q 218.68 71.15 223.28 72.66
  Q 223.43 73.83 225.09 74.49
  A 1.13 1.13 0.0 0 0 226.57 73.83
  C 228.41 68.80 230.72 61.53 237.73 64.64
  C 240.57 65.90 242.16 68.72 244.97 70.08
  C 250.17 72.59 257.50 71.56 263.25 71.13
  C 266.69 70.87 267.68 72.10 269.63 74.59
  Q 269.95 75.01 270.47 74.91
  Q 272.15 74.62 272.50 73.33
  Z
  M 253.34 85.92
  C 250.44 91.39 242.74 89.84 241.76 83.74
  A 0.86 0.81 20.1 0 0 241.54 83.30
  Q 241.17 82.91 240.68 82.94
  A 0.71 0.70 89.6 0 0 240.03 83.61
  Q 239.93 85.37 240.84 86.91
  C 245.42 94.65 255.68 91.25 256.04 82.71
  Q 256.08 81.82 255.22 81.57
  L 254.93 81.49
  A 0.60 0.60 0.0 0 0 254.16 81.99
  C 253.99 83.33 253.98 84.71 253.34 85.92
  Z"
/>
<path fill="#e6d2cb" d="
  M 156.70 78.54
  L 157.65 78.61
  Q 158.16 78.65 158.29 78.16
  Q 158.74 76.46 160.52 77.12
  Q 162.73 77.93 164.41 80.11
  Q 164.73 80.53 164.76 81.06
  L 164.94 85.20
  A 1.35 1.32 63.9 0 1 164.64 86.10
  Q 163.53 87.45 161.66 88.14
  C 158.02 82.80 152.81 91.52 157.79 92.78
  Q 157.75 93.11 157.22 93.48
  Q 156.95 93.10 156.63 92.96
  A 0.43 0.43 0.0 0 0 156.05 93.21
  C 149.24 113.44 122.57 116.30 111.27 98.42
  Q 112.13 90.52 105.70 94.03
  Q 105.70 93.88 105.33 93.86
  Q 104.85 93.82 104.45 94.09
  Q 102.37 95.43 100.84 92.89
  L 100.18 92.22
  Q 99.04 84.57 107.20 84.08
  Q 106.82 85.65 109.43 86.10
  Q 109.94 86.19 110.22 85.76
  C 111.24 84.22 112.11 83.21 113.98 82.60
  C 120.61 80.43 126.51 79.56 129.40 72.20
  Q 129.57 71.76 129.96 72.04
  Q 139.09 78.79 150.37 76.82
  A 1.13 1.12 -29.0 0 1 151.30 77.08
  Q 152.67 78.24 153.55 79.84
  A 0.81 0.81 0.0 0 0 154.21 80.27
  Q 155.66 80.39 156.70 78.54
  Z
  M 141.74 89.18
  L 124.71 93.84
  A 0.24 0.24 0.0 0 0 124.54 94.13
  L 124.58 94.27
  A 9.12 9.06 74.7 0 0 135.72 100.67
  L 135.74 100.67
  A 9.12 9.06 74.7 0 0 142.08 89.48
  L 142.04 89.35
  A 0.24 0.24 0.0 0 0 141.74 89.18
  Z"
/>
<path fill="#1b70db" d="
  M 43.32 77.59
  A 4.36 4.36 0.0 0 1 38.96 81.95
  A 4.36 4.36 0.0 0 1 34.60 77.59
  A 4.36 4.36 0.0 0 1 38.96 73.23
  A 4.36 4.36 0.0 0 1 43.32 77.59
  Z
  M 42.58 77.63
  A 3.64 3.64 0.0 0 0 38.94 73.99
  A 3.64 3.64 0.0 0 0 35.30 77.63
  A 3.64 3.64 0.0 0 0 38.94 81.27
  A 3.64 3.64 0.0 0 0 42.58 77.63
  Z"
/>
<path fill="#1b70db" d="
  M 58.35 77.58
  A 4.38 4.38 0.0 0 1 53.97 81.96
  A 4.38 4.38 0.0 0 1 49.59 77.58
  A 4.38 4.38 0.0 0 1 53.97 73.20
  A 4.38 4.38 0.0 0 1 58.35 77.58
  Z
  M 57.56 77.63
  A 3.61 3.61 0.0 0 0 53.95 74.02
  A 3.61 3.61 0.0 0 0 50.34 77.63
  A 3.61 3.61 0.0 0 0 53.95 81.24
  A 3.61 3.61 0.0 0 0 57.56 77.63
  Z"
/>
<path fill="#1b70db" d="
  M 74.35 77.59
  A 4.37 4.37 0.0 0 1 69.98 81.96
  A 4.37 4.37 0.0 0 1 65.61 77.59
  A 4.37 4.37 0.0 0 1 69.98 73.22
  A 4.37 4.37 0.0 0 1 74.35 77.59
  Z
  M 73.57 77.63
  A 3.63 3.63 0.0 0 0 69.94 74.00
  A 3.63 3.63 0.0 0 0 66.31 77.63
  A 3.63 3.63 0.0 0 0 69.94 81.26
  A 3.63 3.63 0.0 0 0 73.57 77.63
  Z"
/>
<circle fill="#d2e3ff" cx="38.94" cy="77.63" r="3.64"/>
<circle fill="#d2e3ff" cx="53.95" cy="77.63" r="3.61"/>
<circle fill="#d2e3ff" cx="69.94" cy="77.63" r="3.63"/>
<path fill="#000000" d="
  M 241.76 83.74
  C 242.74 89.84 250.44 91.39 253.34 85.92
  C 253.98 84.71 253.99 83.33 254.16 81.99
  A 0.60 0.60 0.0 0 1 254.93 81.49
  L 255.22 81.57
  Q 256.08 81.82 256.04 82.71
  C 255.68 91.25 245.42 94.65 240.84 86.91
  Q 239.93 85.37 240.03 83.61
  A 0.71 0.70 89.6 0 1 240.68 82.94
  Q 241.17 82.91 241.54 83.30
  A 0.86 0.81 20.1 0 1 241.76 83.74
  Z"
/>
<path fill="#fa446d" fill-opacity="0.992" d="
  M 161.66 88.14
  C 162.77 91.12 160.94 93.26 157.79 92.78
  C 152.81 91.52 158.02 82.80 161.66 88.14
  Z"
/>
<path fill="#ffffff" d="
  M 141.74 89.18
  A 0.24 0.24 0.0 0 1 142.04 89.35
  L 142.08 89.48
  A 9.12 9.06 74.7 0 1 135.74 100.67
  L 135.72 100.67
  A 9.12 9.06 74.7 0 1 124.58 94.27
  L 124.54 94.13
  A 0.24 0.24 0.0 0 1 124.71 93.84
  L 141.74 89.18
  Z"
/>
<path fill="#1b70db" d="
  M 100.18 92.22
  L 100.84 92.89
  L 30.96 93.09
  Q 30.58 93.09 30.89 92.87
  L 31.34 92.54
  Q 31.69 92.28 32.13 92.27
  L 100.18 92.22
  Z"
/>
<path fill="#1b70db" d="
  M 267.40 91.97
  L 356.55 92.27
  Q 356.75 92.27 356.75 92.47
  L 356.75 92.77
  Q 356.75 92.82 356.70 92.82
  L 266.02 92.89
  Q 266.59 92.21 267.40 91.97
  Z"
/>
<path fill="#1b70db" d="
  M 228.60 92.26
  L 229.41 92.53
  Q 226.53 92.98 224.00 92.97
  Q 193.01 92.89 162.02 92.89
  A 0.08 0.07 90.0 0 1 161.95 92.81
  L 161.95 92.56
  Q 161.95 92.28 162.23 92.28
  L 228.60 92.26
  Z"
/>
<path fill="#fa446d" fill-opacity="0.992" d="
  M 111.27 98.42
  Q 110.05 98.29 108.36 99.54
  C 106.05 98.76 104.50 96.60 105.70 94.03
  Q 112.13 90.52 111.27 98.42
  Z"
/>
<path fill="#000000" d="
  M 157.22 93.48
  C 161.32 99.17 165.23 99.99 172.73 101.05
  C 181.17 102.25 189.31 105.07 193.33 113.35
  L 146.50 113.15
  L 120.32 112.63
  L 112.38 112.82
  L 108.36 99.54
  Q 110.05 98.29 111.27 98.42
  C 122.57 116.30 149.24 113.44 156.05 93.21
  A 0.43 0.43 0.0 0 1 156.63 92.96
  Q 156.95 93.10 157.22 93.48
  Z"
/>
<path fill="#fae3db" d="
  M 296.31 119.41
  Q 295.88 120.28 295.26 120.73
  L 294.84 120.81
  Q 294.33 120.91 294.13 121.39
  Q 290.30 130.19 286.95 139.20
  Q 285.33 143.54 283.00 147.18
  Q 273.42 162.07 263.52 176.75
  Q 262.46 178.32 260.99 179.50
  Q 247.74 190.17 234.46 201.05
  Q 234.27 201.21 234.11 201.01
  L 233.94 200.80
  A 0.35 0.35 0.0 0 1 233.99 200.30
  L 260.56 178.68
  A 9.96 9.88 -3.1 0 0 262.62 176.40
  Q 271.46 162.90 280.17 149.94
  Q 283.68 144.72 285.89 139.57
  Q 289.31 131.59 292.28 123.42
  C 292.64 122.45 293.39 121.38 293.84 120.29
  A 0.78 0.77 29.3 0 0 293.58 119.37
  L 285.14 113.20
  Q 278.78 108.23 269.27 105.75
  A 0.33 0.33 0.0 0 0 268.94 106.29
  Q 269.13 106.50 269.53 106.67
  Q 275.61 109.15 281.79 111.50
  Q 283.50 112.15 283.39 115.05
  Q 283.11 116.58 281.39 116.60
  C 279.11 116.64 274.60 114.42 272.19 113.65
  L 270.75 113.10
  Q 268.06 111.90 266.85 112.80
  L 266.31 112.42
  Q 265.88 112.11 265.41 112.39
  Q 258.24 116.58 250.34 114.02
  C 246.28 112.75 243.67 111.81 244.49 106.30
  Q 247.92 105.52 251.65 105.27
  C 257.67 104.87 263.34 103.84 269.47 104.41
  Q 269.96 104.46 270.37 104.72
  C 271.30 105.29 272.36 105.28 273.19 105.56
  C 276.97 106.81 280.68 108.24 284.47 109.46
  Q 287.34 110.38 290.02 112.49
  Q 294.16 115.74 296.31 119.41
  Z"
/>
<path fill="#000000" d="
  M 285.14 113.20
  Q 284.68 115.59 283.39 115.05
  Q 283.50 112.15 281.79 111.50
  Q 275.61 109.15 269.53 106.67
  Q 269.13 106.50 268.94 106.29
  A 0.33 0.33 0.0 0 1 269.27 105.75
  Q 278.78 108.23 285.14 113.20
  Z"
/>
<path fill="#e6d2cb" d="
  M 316.06 106.72
  L 316.20 106.45
  Q 316.64 105.59 316.78 106.54
  Q 316.84 106.95 316.88 107.38
  Q 316.93 107.91 317.45 107.88
  Q 318.05 107.85 318.58 108.12
  A 0.31 0.31 0.0 0 1 318.52 108.69
  Q 317.72 108.92 317.00 108.48
  Q 316.49 108.17 315.98 108.49
  Q 315.32 108.91 314.54 108.71
  A 0.44 0.44 0.0 0 1 314.43 107.90
  L 315.56 107.25
  Q 315.89 107.06 316.06 106.72
  Z"
/>
<path fill="#1b70db" d="
  M 244.49 106.30
  C 243.67 111.81 246.28 112.75 250.34 114.02
  Q 249.60 114.75 248.91 115.04
  Q 248.45 115.24 247.99 115.04
  C 244.92 113.70 241.76 111.75 238.31 112.16
  Q 234.01 112.68 229.53 113.52
  Q 227.58 113.58 227.02 114.39
  L 226.00 114.35
  Q 219.01 116.27 213.47 120.96
  Q 205.95 127.32 186.22 144.35
  Q 182.53 147.53 179.88 148.62
  C 174.32 150.91 167.16 150.59 161.23 150.45
  L 153.36 150.07
  Q 152.82 150.05 152.75 150.59
  L 151.66 158.87
  L 149.49 172.22
  L 147.58 185.22
  Q 147.52 185.63 147.38 186.02
  L 147.05 186.91
  Q 146.86 187.41 147.32 187.67
  L 160.01 195.17
  L 147.72 217.22
  L 125.08 217.22
  Q 115.56 211.94 106.23 206.66
  C 100.19 203.24 95.76 199.97 94.02 193.75
  Q 89.44 177.36 84.95 160.87
  Q 84.88 160.64 84.71 160.80
  L 84.36 161.12
  A 0.17 0.17 0.0 0 0 84.30 161.30
  Q 87.73 177.38 91.26 193.38
  C 92.80 200.35 94.47 204.69 99.34 209.15
  Q 104.57 213.93 110.09 217.50
  L 61.61 217.49
  L 78.84 136.26
  C 81.10 136.51 81.64 136.92 83.46 135.10
  Q 83.89 137.39 85.30 132.97
  Q 86.43 133.00 87.70 131.81
  Q 89.68 131.38 89.68 128.51
  Q 91.30 127.75 92.39 126.48
  Q 94.28 126.19 93.57 124.02
  C 93.05 122.44 91.49 121.56 90.38 120.27
  L 92.67 118.20
  Q 94.06 120.48 96.76 120.62
  Q 98.02 120.65 99.10 119.60
  Q 101.40 117.35 101.81 114.21
  L 106.73 113.26
  L 112.38 112.82
  L 120.32 112.63
  Q 120.70 122.28 120.32 131.50
  Q 120.30 131.98 120.94 132.79
  Q 120.56 132.52 120.37 132.79
  Q 120.26 132.93 120.28 133.23
  Q 120.61 138.47 120.46 142.90
  Q 120.38 145.08 119.77 142.98
  L 115.37 127.73
  A 0.59 0.57 -10.3 0 0 114.76 127.32
  L 114.43 127.34
  A 0.30 0.30 0.0 0 0 114.17 127.72
  L 128.10 175.49
  A 3.31 3.04 9.0 0 0 129.55 177.32
  L 137.80 182.21
  A 0.56 0.56 0.0 0 0 138.64 181.79
  L 143.95 134.65
  L 146.50 113.15
  L 193.33 113.35
  L 244.49 106.30
  Z
  M 143.02 203.09
  Q 144.02 203.77 145.22 204.01
  A 1.02 1.02 0.0 0 0 146.41 202.76
  Q 145.76 200.18 147.65 198.44
  Q 149.72 196.53 147.00 196.32
  Q 144.20 196.11 143.32 193.44
  A 1.15 1.15 0.0 0 0 141.14 193.41
  Q 140.32 195.70 138.01 196.22
  Q 134.73 196.96 137.03 198.74
  Q 138.78 200.09 138.25 202.25
  Q 137.40 205.71 140.47 203.66
  Q 141.18 203.19 142.04 202.94
  Q 142.57 202.78 143.02 203.09
  Z"
/>
<path fill="#e6d2cb" d="
  M 316.29 109.24
  A 0.32 0.31 -32.9 0 1 316.88 109.36
  Q 316.94 110.30 316.36 111.08
  Q 316.14 111.39 315.87 111.12
  L 315.69 110.94
  Q 315.50 110.75 315.63 110.50
  L 316.29 109.24
  Z"
/>
<path fill="#fae3db" d="
  M 106.73 113.26
  L 101.81 114.21
  L 96.76 120.62
  Q 94.06 120.48 92.67 118.20
  Q 93.74 112.89 99.20 111.37
  Q 99.74 111.21 100.28 111.41
  L 103.20 112.47
  Q 103.59 112.61 103.88 112.88
  Q 104.79 113.73 106.73 113.26
  Z"
/>
<path fill="#ffffff" d="
  M 250.34 114.02
  Q 258.24 116.58 265.41 112.39
  Q 265.88 112.11 266.31 112.42
  L 266.85 112.80
  L 264.92 130.39
  L 256.96 143.53
  Q 256.71 143.95 256.28 144.18
  L 255.67 144.51
  Q 255.66 145.08 255.35 145.41
  Q 254.93 145.88 254.53 145.39
  Q 254.20 144.98 253.73 144.76
  Q 253.05 144.45 253.65 144.00
  Q 254.39 143.43 255.32 143.29
  A 1.46 1.46 0.0 0 0 256.50 141.47
  Q 254.68 134.56 252.77 127.68
  C 252.19 125.60 252.57 123.52 253.74 121.97
  Q 254.65 120.74 253.48 119.75
  L 249.78 116.63
  Q 248.64 115.66 247.79 116.90
  L 244.83 121.25
  Q 244.44 121.82 244.87 122.35
  L 247.67 125.79
  A 1.49 1.49 0.0 0 1 248.01 126.71
  Q 248.13 139.86 248.28 153.00
  Q 248.30 154.70 248.85 156.34
  Q 248.55 157.17 247.92 157.96
  L 229.53 113.52
  Q 234.01 112.68 238.31 112.16
  C 241.76 111.75 244.92 113.70 247.99 115.04
  Q 248.45 115.24 248.91 115.04
  Q 249.60 114.75 250.34 114.02
  Z"
/>
<path fill="#fa446d" fill-opacity="0.992" d="
  M 270.75 113.10
  Q 270.89 115.35 272.23 117.36
  A 1.39 1.38 -45.9 0 1 272.25 118.88
  L 264.92 130.39
  L 266.85 112.80
  Q 268.06 111.90 270.75 113.10
  Z"
/>
<path fill="#e6d2cb" d="
  M 120.32 112.63
  L 146.50 113.15
  L 143.95 134.65
  Q 131.44 139.25 120.94 132.79
  Q 120.30 131.98 120.32 131.50
  Q 120.70 122.28 120.32 112.63
  Z"
/>
<path fill="#000000" d="
  M 270.75 113.10
  L 272.19 113.65
  L 273.64 117.88
  A 1.85 1.82 51.9 0 1 273.46 119.48
  Q 259.39 141.90 245.34 164.33
  Q 244.55 165.58 243.48 166.45
  C 236.81 171.83 229.72 176.74 222.87 181.89
  Q 221.86 182.65 220.85 182.53
  Q 220.13 182.44 220.71 182.01
  L 240.65 167.43
  A 0.74 0.73 -39.5 0 0 240.76 166.34
  Q 234.54 159.54 228.43 152.27
  C 226.08 149.47 227.92 147.00 229.24 144.43
  A 0.88 0.87 -59.9 0 0 228.94 143.29
  C 227.48 142.36 223.62 140.28 223.80 138.25
  Q 224.89 126.41 226.00 114.35
  L 227.02 114.39
  L 225.02 137.69
  A 1.47 1.47 0.0 0 0 225.77 139.10
  L 230.94 141.97
  A 0.70 0.69 -63.3 0 1 231.23 142.87
  L 228.84 148.02
  Q 228.27 149.26 229.18 150.28
  L 242.44 165.07
  Q 243.05 165.75 243.54 164.97
  L 247.92 157.96
  Q 248.55 157.17 248.85 156.34
  Q 252.51 151.09 255.60 145.63
  Q 255.89 145.11 255.67 144.51
  L 256.28 144.18
  Q 256.71 143.95 256.96 143.53
  L 264.92 130.39
  L 272.25 118.88
  A 1.39 1.38 -45.9 0 0 272.23 117.36
  Q 270.89 115.35 270.75 113.10
  Z"
/>
<path fill="#fa446d" fill-opacity="0.992" d="
  M 229.53 113.52
  L 247.92 157.96
  L 243.54 164.97
  Q 243.05 165.75 242.44 165.07
  L 229.18 150.28
  Q 228.27 149.26 228.84 148.02
  L 231.23 142.87
  A 0.70 0.69 -63.3 0 0 230.94 141.97
  L 225.77 139.10
  A 1.47 1.47 0.0 0 1 225.02 137.69
  L 227.02 114.39
  Q 227.58 113.58 229.53 113.52
  Z"
/>
<path fill="#fa446d" fill-opacity="0.992" d="
  M 272.19 113.65
  C 274.60 114.42 279.11 116.64 281.39 116.60
  Q 283.11 116.58 283.39 115.05
  Q 284.68 115.59 285.14 113.20
  L 293.58 119.37
  A 0.78 0.77 29.3 0 1 293.84 120.29
  C 293.39 121.38 292.64 122.45 292.28 123.42
  Q 289.31 131.59 285.89 139.57
  Q 283.68 144.72 280.17 149.94
  Q 271.46 162.90 262.62 176.40
  A 9.96 9.88 -3.1 0 1 260.56 178.68
  L 233.99 200.30
  A 0.35 0.35 0.0 0 0 233.94 200.80
  L 234.11 201.01
  Q 234.27 201.21 234.46 201.05
  Q 247.74 190.17 260.99 179.50
  Q 262.46 178.32 263.52 176.75
  Q 273.42 162.07 283.00 147.18
  Q 285.33 143.54 286.95 139.20
  Q 290.30 130.19 294.13 121.39
  Q 294.33 120.91 294.84 120.81
  L 295.26 120.73
  Q 295.10 121.72 295.81 121.66
  Q 295.68 121.64 295.54 121.62
  Q 291.74 131.49 287.60 141.13
  Q 285.36 146.36 282.01 151.38
  Q 272.69 165.37 263.81 178.86
  A 12.29 12.23 87.1 0 1 261.27 181.68
  L 229.61 207.55
  Q 227.86 209.12 225.06 209.65
  A 0.48 0.48 0.0 0 1 224.57 209.45
  L 210.94 190.24
  Q 211.91 189.08 211.53 188.81
  L 219.62 182.98
  Q 220.03 182.68 220.03 182.17
  C 220.06 180.04 220.13 177.86 219.32 175.85
  C 218.71 174.34 219.04 172.44 218.75 171.12
  C 218.15 168.44 218.15 165.71 217.25 163.13
  Q 217.84 162.84 217.80 162.00
  Q 217.67 159.33 216.73 155.97
  Q 216.67 155.75 216.45 155.78
  L 216.13 155.81
  A 0.38 0.37 82.2 0 0 215.80 156.25
  L 216.80 162.46
  Q 208.34 168.67 200.12 174.62
  Q 191.81 180.62 182.75 181.21
  C 171.43 181.94 160.19 176.20 149.49 172.22
  L 151.66 158.87
  Q 154.49 151.91 161.23 150.45
  C 167.16 150.59 174.32 150.91 179.88 148.62
  Q 182.53 147.53 186.22 144.35
  Q 205.95 127.32 213.47 120.96
  Q 219.01 116.27 226.00 114.35
  Q 224.89 126.41 223.80 138.25
  C 223.62 140.28 227.48 142.36 228.94 143.29
  A 0.88 0.87 -59.9 0 1 229.24 144.43
  C 227.92 147.00 226.08 149.47 228.43 152.27
  Q 234.54 159.54 240.76 166.34
  A 0.74 0.73 -39.5 0 1 240.65 167.43
  L 220.71 182.01
  Q 220.13 182.44 220.85 182.53
  Q 221.86 182.65 222.87 181.89
  C 229.72 176.74 236.81 171.83 243.48 166.45
  Q 244.55 165.58 245.34 164.33
  Q 259.39 141.90 273.46 119.48
  A 1.85 1.82 51.9 0 0 273.64 117.88
  L 272.19 113.65
  Z"
/>
<path fill="#000000" d="
  M 101.81 114.21
  Q 101.40 117.35 99.10 119.60
  Q 98.02 120.65 96.76 120.62
  L 101.81 114.21
  Z"
/>
<path fill="#64ded3" d="
  M 255.67 144.51
  Q 255.89 145.11 255.60 145.63
  Q 252.51 151.09 248.85 156.34
  Q 248.30 154.70 248.28 153.00
  Q 248.13 139.86 248.01 126.71
  A 1.49 1.49 0.0 0 0 247.67 125.79
  L 244.87 122.35
  Q 244.44 121.82 244.83 121.25
  L 247.79 116.90
  Q 248.64 115.66 249.78 116.63
  L 253.48 119.75
  Q 254.65 120.74 253.74 121.97
  C 252.57 123.52 252.19 125.60 252.77 127.68
  Q 254.68 134.56 256.50 141.47
  A 1.46 1.46 0.0 0 1 255.32 143.29
  Q 254.39 143.43 253.65 144.00
  Q 253.05 144.45 253.73 144.76
  Q 254.20 144.98 254.53 145.39
  Q 254.93 145.88 255.35 145.41
  Q 255.66 145.08 255.67 144.51
  Z"
/>
<path fill="#7db5ff" d="
  M 89.40 121.28
  Q 93.71 122.88 92.39 126.48
  Q 91.30 127.75 89.68 128.51
  Q 88.74 127.72 87.81 127.65
  L 83.21 124.25
  Q 82.57 121.43 84.93 119.90
  C 86.55 118.84 88.01 120.61 89.40 121.28
  Z"
/>
<path fill="#292929" d="
  M 90.38 120.27
  C 91.49 121.56 93.05 122.44 93.57 124.02
  Q 94.28 126.19 92.39 126.48
  Q 93.71 122.88 89.40 121.28
  Q 89.83 120.47 90.38 120.27
  Z"
/>
<path fill="#e6d2cb" d="
  M 295.54 121.62
  L 296.16 122.67
  Q 295.71 122.71 295.66 123.54
  Q 295.62 124.09 295.47 124.44
  C 291.81 133.12 288.74 142.85 283.59 150.73
  Q 274.37 164.81 265.04 178.81
  C 263.80 180.67 262.27 181.99 260.60 183.35
  Q 247.69 193.82 234.88 204.40
  Q 232.95 206.00 230.78 207.30
  Q 230.20 207.65 230.53 208.05
  L 229.61 207.55
  L 261.27 181.68
  A 12.29 12.23 87.1 0 0 263.81 178.86
  Q 272.69 165.37 282.01 151.38
  Q 285.36 146.36 287.60 141.13
  Q 291.74 131.49 295.54 121.62
  Z"
/>
<path fill="#fa446d" fill-opacity="0.992" d="
  M 296.16 122.67
  C 299.76 126.00 301.65 133.32 302.43 138.00
  Q 309.04 177.55 316.00 217.25
  L 260.60 217.24
  Q 261.01 215.18 260.18 213.32
  A 0.86 0.84 -33.9 0 1 260.38 212.35
  Q 266.34 206.74 272.25 201.25
  Q 274.68 199.00 275.80 196.51
  Q 283.10 180.36 290.77 164.43
  Q 290.95 164.06 290.59 163.87
  L 290.36 163.75
  Q 290.31 163.72 290.26 163.80
  L 272.08 194.00
  A 7.92 7.89 -2.4 0 1 269.95 196.31
  L 240.87 217.24
  L 229.77 217.21
  L 227.66 213.90
  A 0.64 0.63 -35.8 0 1 227.80 213.06
  L 234.81 207.38
  Q 235.06 207.17 234.98 206.85
  L 234.90 206.52
  Q 234.83 206.24 234.60 206.40
  Q 232.68 207.70 230.53 208.05
  Q 230.20 207.65 230.78 207.30
  Q 232.95 206.00 234.88 204.40
  Q 247.69 193.82 260.60 183.35
  C 262.27 181.99 263.80 180.67 265.04 178.81
  Q 274.37 164.81 283.59 150.73
  C 288.74 142.85 291.81 133.12 295.47 124.44
  Q 295.62 124.09 295.66 123.54
  Q 295.71 122.71 296.16 122.67
  Z
  M 281.61 194.13
  L 281.61 194.93
  A 0.17 0.17 0.0 0 0 281.78 195.10
  L 281.91 195.10
  A 19.72 0.49 -0.4 0 0 301.63 194.47
  L 301.63 194.31
  A 19.72 0.49 -0.4 0 0 281.91 193.96
  L 281.78 193.96
  A 0.17 0.17 0.0 0 0 281.61 194.13
  Z"
/>
<path fill="#fae3db" d="
  M 83.21 124.25
  L 87.81 127.65
  Q 89.21 129.44 87.70 131.81
  Q 86.43 133.00 85.30 132.97
  L 84.40 132.60
  Q 81.31 131.51 78.73 129.02
  Q 78.74 126.79 79.89 125.67
  C 80.86 124.71 82.07 125.18 83.21 124.25
  Z"
/>
<path fill="#000000" d="
  M 120.94 132.79
  Q 131.44 139.25 143.95 134.65
  L 138.64 181.79
  A 0.56 0.56 0.0 0 1 137.80 182.21
  L 129.55 177.32
  A 3.31 3.04 9.0 0 1 128.10 175.49
  L 114.17 127.72
  A 0.30 0.30 0.0 0 1 114.43 127.34
  L 114.76 127.32
  A 0.59 0.57 -10.3 0 1 115.37 127.73
  L 119.77 142.98
  Q 120.38 145.08 120.46 142.90
  Q 120.61 138.47 120.28 133.23
  Q 120.26 132.93 120.37 132.79
  Q 120.56 132.52 120.94 132.79
  Z"
/>
<path fill="#292929" d="
  M 89.68 128.51
  Q 89.68 131.38 87.70 131.81
  Q 89.21 129.44 87.81 127.65
  Q 88.74 127.72 89.68 128.51
  Z"
/>
<path fill="#7db5ff" d="
  M 78.73 129.02
  Q 81.31 131.51 84.40 132.60
  Q 83.84 133.09 83.46 135.10
  C 81.64 136.92 81.10 136.51 78.84 136.26
  Q 73.27 130.61 78.73 129.02
  Z"
/>
<path fill="#292929" d="
  M 84.40 132.60
  L 85.30 132.97
  Q 83.89 137.39 83.46 135.10
  Q 83.84 133.09 84.40 132.60
  Z"
/>
<path fill="#000000" d="
  M 161.23 150.45
  Q 154.49 151.91 151.66 158.87
  L 152.75 150.59
  Q 152.82 150.05 153.36 150.07
  L 161.23 150.45
  Z"
/>
<ellipse fill="#7db5ff" cx="0.00" cy="0.00" transform="translate(346.22,158.57) rotate(100.4)" rx="7.03" ry="6.48"/>
<path fill="#000000" d="
  M 217.25 163.13
  Q 216.38 163.05 216.80 162.46
  L 215.80 156.25
  A 0.38 0.37 82.2 0 1 216.13 155.81
  L 216.45 155.78
  Q 216.67 155.75 216.73 155.97
  Q 217.67 159.33 217.80 162.00
  Q 217.84 162.84 217.25 163.13
  Z"
/>
<path fill="#000000" d="
  M 125.08 217.22
  L 110.09 217.50
  Q 104.57 213.93 99.34 209.15
  C 94.47 204.69 92.80 200.35 91.26 193.38
  Q 87.73 177.38 84.30 161.30
  A 0.17 0.17 0.0 0 1 84.36 161.12
  L 84.71 160.80
  Q 84.88 160.64 84.95 160.87
  Q 89.44 177.36 94.02 193.75
  C 95.76 199.97 100.19 203.24 106.23 206.66
  Q 115.56 211.94 125.08 217.22
  Z"
/>
<path fill="#d2e3ff" d="
  M 216.80 162.46
  Q 216.38 163.05 217.25 163.13
  C 218.15 165.71 218.15 168.44 218.75 171.12
  C 219.04 172.44 218.71 174.34 219.32 175.85
  C 220.13 177.86 220.06 180.04 220.03 182.17
  Q 220.03 182.68 219.62 182.98
  L 211.53 188.81
  Q 206.37 191.25 201.65 195.33
  Q 198.90 197.37 195.56 199.30
  Q 193.91 200.25 191.72 200.43
  Q 189.69 200.60 187.66 200.92
  Q 187.14 201.00 186.95 200.50
  Q 186.89 200.33 186.69 200.28
  Q 186.27 200.19 186.15 200.59
  Q 185.95 201.27 185.56 201.10
  Q 185.67 200.98 185.76 200.87
  Q 186.06 200.49 185.75 200.12
  C 183.29 197.11 180.67 196.15 176.64 196.70
  Q 169.62 197.66 167.50 197.74
  Q 165.21 197.82 162.40 196.43
  Q 161.70 195.04 160.01 195.17
  L 147.32 187.67
  Q 146.86 187.41 147.05 186.91
  L 147.38 186.02
  Q 147.52 185.63 147.58 185.22
  L 149.49 172.22
  C 160.19 176.20 171.43 181.94 182.75 181.21
  Q 191.81 180.62 200.12 174.62
  Q 208.34 168.67 216.80 162.46
  Z"
/>
<path fill="#000000" d="
  M 260.60 217.24
  Q 260.18 217.26 259.96 217.18
  Q 259.13 216.58 259.37 214.61
  Q 259.56 213.01 258.39 214.11
  L 255.07 217.21
  L 240.87 217.24
  L 269.95 196.31
  A 7.92 7.89 -2.4 0 0 272.08 194.00
  L 290.26 163.80
  Q 290.31 163.72 290.36 163.75
  L 290.59 163.87
  Q 290.95 164.06 290.77 164.43
  Q 283.10 180.36 275.80 196.51
  Q 274.68 199.00 272.25 201.25
  Q 266.34 206.74 260.38 212.35
  A 0.86 0.84 -33.9 0 0 260.18 213.32
  Q 261.01 215.18 260.60 217.24
  Z"
/>
<path fill="#64ded3" d="
  M 35.25 185.49
  C 33.63 182.59 30.91 180.16 28.85 178.18
  Q 27.30 176.67 29.01 174.80
  C 30.60 173.05 34.56 169.78 35.16 167.71
  Q 35.30 167.22 35.71 167.52
  C 37.20 168.61 37.50 170.16 38.66 171.30
  Q 40.81 173.40 43.01 175.44
  Q 43.36 175.77 43.83 175.93
  L 44.36 176.12
  Q 45.13 176.39 44.48 176.87
  C 42.14 178.62 39.90 180.20 38.15 182.69
  Q 37.09 184.20 35.87 185.56
  Q 35.51 185.95 35.25 185.49
  Z"
/>
<path fill="#000000" d="
  M 211.53 188.81
  Q 211.91 189.08 210.94 190.24
  L 203.58 195.12
  A 0.66 0.66 0.0 0 0 203.39 196.04
  L 217.43 217.21
  L 215.03 217.23
  L 201.65 195.33
  Q 206.37 191.25 211.53 188.81
  Z"
/>
<path fill="#ffffff" d="
  M 210.94 190.24
  L 224.57 209.45
  A 0.48 0.48 0.0 0 0 225.06 209.65
  Q 227.86 209.12 229.61 207.55
  L 230.53 208.05
  Q 232.68 207.70 234.60 206.40
  Q 234.83 206.24 234.90 206.52
  L 234.98 206.85
  Q 235.06 207.17 234.81 207.38
  L 227.80 213.06
  A 0.64 0.63 -35.8 0 0 227.66 213.90
  L 229.77 217.21
  L 223.70 217.19
  C 227.85 211.23 216.28 211.09 220.04 217.19
  L 217.43 217.21
  L 203.39 196.04
  A 0.66 0.66 0.0 0 1 203.58 195.12
  L 210.94 190.24
  Z"
/>
<path fill="#3aa488" d="
  M 142.04 202.94
  Q 141.18 203.19 140.47 203.66
  Q 137.40 205.71 138.25 202.25
  Q 138.78 200.09 137.03 198.74
  Q 134.73 196.96 138.01 196.22
  Q 140.32 195.70 141.14 193.41
  A 1.15 1.15 0.0 0 1 143.32 193.44
  Q 144.20 196.11 147.00 196.32
  Q 149.72 196.53 147.65 198.44
  Q 145.76 200.18 146.41 202.76
  A 1.02 1.02 0.0 0 1 145.22 204.01
  Q 144.02 203.77 143.02 203.09
  Q 142.57 202.78 142.04 202.94
  Z"
/>
<path fill="#000000" d="
  M 281.61 194.13
  A 0.17 0.17 0.0 0 1 281.78 193.96
  L 281.91 193.96
  A 19.72 0.49 -0.4 0 1 301.63 194.31
  L 301.63 194.47
  A 19.72 0.49 -0.4 0 1 281.91 195.10
  L 281.78 195.10
  A 0.17 0.17 0.0 0 1 281.61 194.93
  L 281.61 194.13
  Z"
/>
<path fill="#000000" d="
  M 160.01 195.17
  Q 161.70 195.04 162.40 196.43
  L 149.21 217.22
  L 147.72 217.22
  L 160.01 195.17
  Z"
/>
<path fill="#7db5ff" d="
  M 201.65 195.33
  L 215.03 217.23
  L 192.12 217.21
  Q 185.94 209.81 178.16 204.92
  A 1.31 1.30 -43.6 0 1 178.22 202.67
  Q 181.45 200.89 185.56 201.10
  Q 185.95 201.27 186.15 200.59
  Q 186.27 200.19 186.69 200.28
  Q 186.89 200.33 186.95 200.50
  Q 187.14 201.00 187.66 200.92
  Q 189.69 200.60 191.72 200.43
  Q 193.91 200.25 195.56 199.30
  Q 198.90 197.37 201.65 195.33
  Z"
/>
<path fill="#e6d2cb" d="
  M 162.40 196.43
  Q 165.21 197.82 167.50 197.74
  Q 169.62 197.66 176.64 196.70
  C 180.67 196.15 183.29 197.11 185.75 200.12
  Q 186.06 200.49 185.76 200.87
  Q 185.67 200.98 185.56 201.10
  Q 181.45 200.89 178.22 202.67
  A 1.31 1.30 -43.6 0 0 178.16 204.92
  Q 185.94 209.81 192.12 217.21
  L 149.21 217.22
  L 162.40 196.43
  Z"
/>
<path fill="#64ded3" d="
  M 223.70 217.19
  L 220.04 217.19
  C 216.28 211.09 227.85 211.23 223.70 217.19
  Z"
/>
<path fill="#fa446d" fill-opacity="0.992" d="
  M 259.96 217.18
  L 255.07 217.21
  L 258.39 214.11
  Q 259.56 213.01 259.37 214.61
  Q 259.13 216.58 259.96 217.18
  Z"
/>
</svg>
