<?xml version="1.0" encoding="UTF-8" standalone="no"?>
<!DOCTYPE svg PUBLIC "-//W3C//DTD SVG 1.1//EN" "http://www.w3.org/Graphics/SVG/1.1/DTD/svg11.dtd">
<svg xmlns="http://www.w3.org/2000/svg" version="1.1" viewBox="0.00 0.00 381.00 218.00">
<g stroke-width="2.00" fill="none" stroke-linecap="butt">
<path stroke="#4a5d7f" vector-effect="non-scaling-stroke" d="
  M 359.18 217.62
  L 343.50 193.20"
/>
<path stroke="#7a91b8" vector-effect="non-scaling-stroke" d="
  M 343.50 193.20
  Q 332.62 172.50 321.85 151.50
  Q 321.69 151.18 321.80 150.99
  Q 321.93 150.78 322.28 150.59"
/>
<path stroke="#4a5d7f" vector-effect="non-scaling-stroke" d="
  M 322.28 150.59
  C 331.02 151.77 342.19 149.77 343.75 139.77
  C 344.92 132.31 342.09 128.50 336.10 125.13
  Q 333.27 123.54 331.07 121.88"
/>
<path stroke="#c4dcfa" vector-effect="non-scaling-stroke" d="
  M 331.07 121.88
  Q 329.94 118.09 326.77 115.16"
/>
<path stroke="#4a5d7f" vector-effect="non-scaling-stroke" d="
  M 326.77 115.16
  Q 326.49 111.19 326.13 107.51
  C 324.77 93.37 313.97 85.53 302.57 79.68
  C 297.23 76.94 293.21 70.50 289.64 65.12
  Q 288.91 64.01 286.63 61.95"
/>
<path stroke="#596d91" vector-effect="non-scaling-stroke" d="
  M 286.63 61.95
  C 276.35 53.22 262.31 53.96 253.00 63.51"
/>
<path stroke="#c7ceed" vector-effect="non-scaling-stroke" d="
  M 253.00 63.51
  Q 252.13 64.24 251.21 65.71
  C 244.23 76.76 245.93 89.72 256.01 97.86
  Q 265.06 105.15 278.49 101.76"
/>
<path stroke="#596d91" vector-effect="non-scaling-stroke" d="
  M 278.49 101.76
  L 279.75 108.03"
/>
<path stroke="#8399c1" vector-effect="non-scaling-stroke" d="
  M 279.75 108.03
  Q 279.59 108.43 278.97 108.52
  Q 269.16 109.96 263.61 116.83
  Q 260.51 120.67 257.26 131.33
  Q 254.88 139.14 252.75 146.91"
/>
<path stroke="#7a91b8" vector-effect="non-scaling-stroke" d="
  M 252.75 146.91
  L 246.31 168.91
  A 0.77 0.77 0.0 0 1 245.36 169.44
  L 207.52 158.54"
/>
<path stroke="#c7ceed" vector-effect="non-scaling-stroke" d="
  M 207.52 158.54
  Q 207.36 157.91 206.73 157.60
  Q 190.74 149.90 174.00 148.53
  C 171.31 148.31 161.45 147.86 160.31 151.10
  A 2.93 2.93 0.0 0 0 162.53 154.95
  Q 165.07 155.44 166.68 154.40"
/>
<path stroke="#596d91" vector-effect="non-scaling-stroke" d="
  M 166.68 154.40
  L 175.90 155.29"
/>
<path stroke="#c7ceed" vector-effect="non-scaling-stroke" d="
  M 175.90 155.29
  Q 172.00 155.79 168.50 158.79
  Q 159.99 166.10 164.57 175.25"
/>
<path stroke="#596d91" vector-effect="non-scaling-stroke" d="
  M 164.57 175.25
  Q 164.66 174.44 165.86 175.88"
/>
<path stroke="#c7ceed" vector-effect="non-scaling-stroke" d="
  M 165.86 175.88
  Q 166.25 177.88 168.24 178.27"
/>
<path stroke="#596d91" vector-effect="non-scaling-stroke" d="
  M 168.24 178.27
  Q 168.74 179.09 169.43 179.32"
/>
<path stroke="#c7ceed" vector-effect="non-scaling-stroke" d="
  M 169.43 179.32
  C 169.77 182.35 172.20 186.33 175.74 186.29
  A 2.56 2.56 0.0 0 0 178.11 182.84
  L 176.60 178.75
  A 2.82 2.82 0.0 0 1 177.46 175.60
  L 178.61 174.65
  Q 180.09 173.44 180.78 175.22
  C 183.54 182.33 187.48 183.50 193.30 187.10"
/>
<path stroke="#7eaafe" vector-effect="non-scaling-stroke" d="
  M 193.30 187.10
  C 185.69 187.77 178.12 187.08 170.50 187.23
  Q 154.50 187.53 138.72 187.53
  A 0.68 0.68 0.0 0 1 138.05 186.97
  L 126.50 126.29
  Q 125.92 123.26 123.46 125.12
  L 122.72 125.68
  Q 120.04 127.70 120.72 131.00
  Q 126.46 158.74 132.36 186.58
  Q 133.17 190.39 134.74 191.92
  C 137.52 194.61 140.44 194.03 144.03 193.97
  Q 174.54 193.39 205.06 193.48
  C 206.44 193.49 207.41 193.89 208.72 194.08"
/>
<path stroke="#748bb2" vector-effect="non-scaling-stroke" d="
  M 208.72 194.08
  Q 210.04 195.58 210.71 194.75"
/>
<path stroke="#596d91" vector-effect="non-scaling-stroke" d="
  M 210.71 194.75
  L 212.05 196.79"
/>
<path stroke="#748bb2" vector-effect="non-scaling-stroke" d="
  M 212.05 196.79
  L 212.02 211.71
  Q 212.02 212.01 212.32 212.01
  L 243.22 212.01"
/>
<path stroke="#596d91" vector-effect="non-scaling-stroke" d="
  M 243.22 212.01
  L 257.98 212.69"
/>
<path stroke="#748bb2" vector-effect="non-scaling-stroke" d="
  M 257.98 212.69
  Q 264.25 214.61 270.48 210.30
  Q 270.92 209.99 271.35 210.31
  L 272.03 210.81"
/>
<path stroke="#4a5d7f" vector-effect="non-scaling-stroke" d="
  M 272.03 210.81
  Q 272.32 214.63 273.82 217.67"
/>
<path stroke="#ba6ab3" vector-effect="non-scaling-stroke" d="
  M 136.07 60.10
  A 3.61 3.61 0.0 0 0 132.46 56.49
  A 3.61 3.61 0.0 0 0 128.85 60.10
  A 3.61 3.61 0.0 0 0 132.46 63.71
  A 3.61 3.61 0.0 0 0 136.07 60.10"
/>
<path stroke="#60759a" vector-effect="non-scaling-stroke" d="
  M 116.99 60.22
  L 39.26 60.29
  A 0.69 0.69 0.0 0 0 38.57 61.00
  Q 38.76 70.25 38.58 79.50
  Q 38.57 79.84 39.02 79.68"
/>
<path stroke="#5fd4e4" vector-effect="non-scaling-stroke" d="
  M 39.02 79.68
  L 39.31 81.02"
/>
<path stroke="#4a5d7f" vector-effect="non-scaling-stroke" d="
  M 39.31 81.02
  Q 38.70 81.27 38.70 81.77
  Q 38.79 96.51 38.63 111.46
  Q 38.63 111.98 39.14 111.98
  L 79.79 111.97"
/>
<path stroke="#7eaafe" vector-effect="non-scaling-stroke" d="
  M 79.79 111.97
  L 79.88 165.07
  A 0.88 0.88 0.0 0 0 80.77 165.95
  L 126.71 165.48
  Q 127.41 165.48 127.22 164.80
  L 127.04 164.15
  Q 126.85 163.46 126.14 163.46
  L 83.03 163.36
  Q 82.27 163.36 82.27 162.60
  L 82.27 111.96"
/>
<path stroke="#4a5d7f" vector-effect="non-scaling-stroke" d="
  M 82.27 111.96
  L 124.48 111.96
  Q 125.00 111.96 124.98 111.43
  L 124.95 110.50"
/>
<path stroke="#60759a" vector-effect="non-scaling-stroke" d="
  M 124.95 110.50
  L 124.96 90.17"
/>
<path stroke="#5fd4e4" vector-effect="non-scaling-stroke" d="
  M 124.96 90.17
  C 128.76 89.11 132.24 89.61 135.60 86.85
  Q 141.90 81.67 145.06 73.64
  Q 145.21 73.24 144.89 73.51
  L 144.29 74.00
  Q 143.99 74.25 143.82 74.60
  C 140.23 82.27 134.31 89.27 125.07 88.68"
/>
<path stroke="#60759a" vector-effect="non-scaling-stroke" d="
  M 125.07 88.68
  L 125.01 60.72"
/>
<path stroke="#5fd4e4" vector-effect="non-scaling-stroke" d="
  M 125.01 60.72
  Q 126.36 60.26 128.08 60.35
  Q 128.82 60.39 128.47 59.74
  Q 128.23 59.31 127.49 59.36
  Q 122.20 59.76 116.99 60.22"
/>
<path stroke="#2b8f81" vector-effect="non-scaling-stroke" d="
  M 125.01 60.72
  C 115.22 61.66 110.98 63.19 105.03 71.18
  A 0.33 0.32 37.4 0 0 105.10 71.63
  C 111.94 76.81 116.36 86.83 125.07 88.68"
/>
<path stroke="#2b8f81" vector-effect="non-scaling-stroke" d="
  M 124.96 90.17
  C 114.62 88.34 112.12 77.75 104.13 72.83"
/>
<path stroke="#5fd4e4" vector-effect="non-scaling-stroke" d="
  M 104.13 72.83
  Q 103.17 72.79 102.57 72.24"
/>
<path stroke="#2b8f81" vector-effect="non-scaling-stroke" d="
  M 102.57 72.24
  Q 102.42 72.02 101.87 71.91
  C 93.04 70.18 86.91 77.30 82.47 83.70"
/>
<path stroke="#5fd4e4" vector-effect="non-scaling-stroke" d="
  M 82.47 83.70
  Q 82.25 84.05 81.75 84.44"
/>
<path stroke="#2b8f81" vector-effect="non-scaling-stroke" d="
  M 81.75 84.44
  C 76.00 90.19 68.67 94.72 60.85 89.41"
/>
<path stroke="#5fd4e4" vector-effect="non-scaling-stroke" d="
  M 60.85 89.41
  L 59.47 88.38"
/>
<path stroke="#2b8f81" vector-effect="non-scaling-stroke" d="
  M 59.47 88.38
  C 56.42 85.13 52.05 80.67 48.03 79.74"
/>
<path stroke="#157766" vector-effect="non-scaling-stroke" d="
  M 48.03 79.74
  Q 43.53 78.81 39.31 81.02"
/>
<path stroke="#2b8f81" vector-effect="non-scaling-stroke" d="
  M 39.02 79.68
  Q 39.39 79.18 40.12 78.87
  C 48.86 75.18 53.90 80.69 59.49 86.45
  Q 60.26 87.23 60.70 86.23
  C 64.40 77.79 74.11 74.19 80.58 82.25
  A 0.68 0.67 -46.4 0 0 81.65 82.22
  C 86.87 75.04 93.33 67.85 103.32 70.67
  Q 103.81 70.81 104.07 70.37
  Q 108.53 62.74 116.99 60.22"
/>
<path stroke="#60759a" vector-effect="non-scaling-stroke" d="
  M 102.57 72.24
  C 97.74 79.43 92.38 87.59 82.47 83.70"
/>
<path stroke="#60759a" vector-effect="non-scaling-stroke" d="
  M 59.47 88.38
  L 47.60 110.23"
/>
<path stroke="#16181b" vector-effect="non-scaling-stroke" d="
  M 48.03 79.74
  L 48.21 79.97
  A 0.41 0.41 0.0 0 1 47.81 80.63
  Q 43.66 79.84 40.08 81.93
  A 1.11 1.11 0.0 0 0 39.53 82.89
  L 39.67 110.05
  Q 39.67 110.56 40.18 110.64
  Q 43.73 111.16 47.60 110.23"
/>
<path stroke="#4a5d7f" vector-effect="non-scaling-stroke" d="
  M 47.60 110.23
  Q 47.50 111.95 49.63 109.91"
/>
<path stroke="#16181b" vector-effect="non-scaling-stroke" d="
  M 49.63 109.91
  Q 54.21 111.52 59.85 110.49"
/>
<path stroke="#393d42" vector-effect="non-scaling-stroke" d="
  M 59.85 110.49
  Q 60.38 110.94 61.18 110.63"
/>
<path stroke="#344d80" vector-effect="non-scaling-stroke" d="
  M 80.09 111.30
  Q 80.14 111.62 79.79 111.97"
/>
<path stroke="#60759a" vector-effect="non-scaling-stroke" d="
  M 104.13 72.83
  Q 103.20 73.58 103.49 74.21"
/>
<path stroke="#8399c1" vector-effect="non-scaling-stroke" d="
  M 103.49 74.21
  Q 103.08 74.23 103.33 74.47"
/>
<path stroke="#60759a" vector-effect="non-scaling-stroke" d="
  M 103.33 74.47
  Q 103.12 74.37 102.92 74.42
  Q 102.77 74.46 102.62 74.66
  C 97.85 81.05 91.24 90.81 81.75 84.44"
/>
<path stroke="#16181b" vector-effect="non-scaling-stroke" d="
  M 102.97 110.66
  L 82.00 110.73"
/>
<path stroke="#464c55" vector-effect="non-scaling-stroke" d="
  M 82.00 110.73
  Q 81.76 98.88 81.98 87.00
  Q 81.99 86.45 81.34 86.04
  Q 81.01 85.83 80.82 86.18
  Q 80.13 87.48 80.11 88.25
  Q 79.95 93.96 80.11 110.49"
/>
<path stroke="#4a659b" vector-effect="non-scaling-stroke" d="
  M 80.11 110.49
  Q 80.38 110.55 80.09 111.30"
/>
<path stroke="#16181b" vector-effect="non-scaling-stroke" d="
  M 80.09 111.30
  Q 80.13 111.08 80.11 110.90
  Q 80.08 110.45 79.63 110.46
  L 61.18 110.63"
/>
<path stroke="#4e555d" vector-effect="non-scaling-stroke" d="
  M 61.18 110.63
  Q 61.32 101.08 60.94 91.74
  Q 60.93 91.47 60.80 91.30
  Q 60.65 91.12 60.45 90.95"
/>
<path stroke="#60759a" vector-effect="non-scaling-stroke" d="
  M 60.45 90.95
  Q 60.21 89.79 60.85 89.41"
/>
<path stroke="#8399c1" vector-effect="non-scaling-stroke" d="
  M 60.45 90.95
  Q 59.48 91.30 59.78 90.86"
/>
<path stroke="#60759a" vector-effect="non-scaling-stroke" d="
  M 59.78 90.86
  L 49.63 109.91"
/>
<path stroke="#16181b" vector-effect="non-scaling-stroke" d="
  M 124.95 110.50
  L 104.37 110.57"
/>
<path stroke="#4e555d" vector-effect="non-scaling-stroke" d="
  M 104.37 110.57
  Q 104.22 93.65 104.42 77.00
  Q 104.44 75.04 103.49 74.21"
/>
<path stroke="#4e555d" vector-effect="non-scaling-stroke" d="
  M 59.85 110.49
  C 59.85 104.87 59.48 98.75 60.12 93.14
  Q 60.27 91.83 59.78 90.86"
/>
<path stroke="#393d42" vector-effect="non-scaling-stroke" d="
  M 104.37 110.57
  Q 103.98 110.96 102.97 110.66"
/>
<path stroke="#4e555d" vector-effect="non-scaling-stroke" d="
  M 102.97 110.66
  Q 103.11 94.20 102.85 78.02
  C 102.83 76.86 103.35 75.71 103.33 74.47"
/>
<path stroke="#6481b9" vector-effect="non-scaling-stroke" d="
  M 82.00 110.73
  Q 81.04 110.19 80.11 110.49"
/>
<path stroke="#344d80" vector-effect="non-scaling-stroke" d="
  M 82.27 111.96
  Q 82.50 111.80 82.00 110.73"
/>
<path stroke="#5ed1d4" vector-effect="non-scaling-stroke" d="
  M 172.07 111.26
  L 177.90 116.01"
/>
<path stroke="#5bcabe" vector-effect="non-scaling-stroke" d="
  M 177.90 116.01
  Q 191.58 121.38 200.54 113.08
  C 208.62 105.61 209.46 94.62 203.34 85.52"
/>
<path stroke="#5ed1d4" vector-effect="non-scaling-stroke" d="
  M 203.34 85.52
  Q 199.73 80.72 193.94 78.82"
/>
<path stroke="#5fd4e4" vector-effect="non-scaling-stroke" d="
  M 193.94 78.82
  C 174.15 71.87 159.41 95.35 172.07 111.26"
/>
<path stroke="#29ecbb" vector-effect="non-scaling-stroke" d="
  M 193.94 78.82
  Q 195.12 79.85 196.25 80.19
  Q 197.49 80.56 196.23 80.88
  Q 195.39 81.10 194.61 80.91
  Q 194.05 80.79 193.73 81.25
  Q 193.35 81.78 192.70 81.88
  Q 192.23 81.96 191.93 82.34
  Q 190.25 84.46 187.89 85.93
  Q 187.86 85.95 187.86 85.99
  Q 187.87 86.16 187.86 86.31
  Q 187.85 86.64 187.53 86.70
  Q 185.87 87.05 185.18 88.62
  Q 185.00 89.03 184.57 89.16
  C 181.62 90.02 180.48 92.81 178.49 94.78
  Q 178.19 95.07 177.78 95.13
  Q 174.69 95.59 175.00 98.81
  Q 175.05 99.32 174.56 99.49
  Q 173.35 99.91 173.13 101.26
  Q 173.04 101.83 172.48 101.95
  C 168.68 102.79 170.83 107.89 172.58 109.66
  C 173.11 110.20 173.10 110.56 173.38 111.23
  Q 173.51 111.55 173.21 111.37
  Q 172.59 111.01 172.07 111.26"
/>
<path stroke="#24e295" vector-effect="non-scaling-stroke" d="
  M 203.34 85.52
  Q 203.23 86.31 203.95 87.07
  Q 204.36 87.52 203.90 87.93
  C 203.02 88.70 201.99 88.93 201.21 89.74
  Q 199.31 91.70 197.42 93.75
  Q 197.03 94.17 196.46 94.22
  L 193.28 94.49
  Q 192.85 94.53 192.63 94.89
  Q 191.92 96.02 190.76 96.68
  Q 190.28 96.95 189.99 96.48
  Q 188.26 93.66 186.79 90.87
  Q 186.57 90.45 186.25 90.35
  Q 185.71 90.17 185.44 90.75"
/>
<path stroke="#8df4d1" vector-effect="non-scaling-stroke" d="
  M 185.44 90.75
  Q 184.52 89.24 183.47 90.74
  Q 181.59 93.44 179.34 95.87
  Q 178.98 96.26 178.45 96.26
  L 177.23 96.26
  Q 176.65 96.26 176.46 96.82
  Q 175.82 98.76 177.32 99.64"
/>
<path stroke="#24e295" vector-effect="non-scaling-stroke" d="
  M 177.32 99.64
  L 185.83 108.07
  Q 186.16 108.40 185.92 108.80
  L 183.94 112.07
  Q 183.67 112.51 183.20 112.68
  Q 181.77 113.19 181.73 114.72
  A 0.91 0.90 -68.7 0 1 180.23 115.38
  Q 179.75 114.95 179.22 114.82
  Q 178.84 114.72 178.56 115.00
  Q 178.19 115.36 177.90 116.01"
/>
<path stroke="#8aedbb" vector-effect="non-scaling-stroke" d="
  M 177.32 99.64
  L 180.34 99.47
  A 1.08 1.08 0.0 0 0 181.14 99.04
  L 183.60 95.77
  A 0.42 0.42 0.0 0 1 184.30 95.82
  L 189.09 104.49
  Q 189.86 105.88 190.83 104.62
  Q 192.69 102.21 194.80 99.54
  Q 195.44 98.74 196.91 99.30
  A 0.58 0.57 10.1 0 0 197.69 98.76
  L 197.66 97.09
  Q 197.65 96.28 196.84 96.26
  L 193.75 96.16
  A 0.82 0.81 18.0 0 0 193.06 96.51
  L 190.92 99.51
  A 0.54 0.53 49.3 0 1 190.01 99.44
  L 185.44 90.75"
/>
<path stroke="#0f1013" vector-effect="non-scaling-stroke" d="
  M 286.63 61.95
  L 285.96 61.93
  A 0.35 0.35 0.0 0 0 285.71 62.54
  Q 289.61 66.23 292.20 70.99
  C 293.00 72.47 294.43 73.54 295.31 75.22
  Q 295.56 75.69 295.98 76.02
  C 299.29 78.59 301.32 80.87 305.82 82.79
  C 307.43 83.47 308.65 84.58 310.16 85.46
  C 316.70 89.31 322.79 96.46 324.26 104.03
  Q 324.73 106.49 325.28 109.09
  Q 325.91 112.04 323.41 110.36
  Q 322.37 109.66 320.34 109.58
  C 317.79 109.48 316.04 111.29 315.78 113.69
  C 315.22 118.81 324.56 121.64 328.23 122.61
  Q 331.28 123.43 333.46 124.73
  C 336.02 126.26 339.22 127.71 341.03 130.23
  C 342.59 132.39 342.26 136.07 342.65 138.73
  Q 342.97 140.98 341.56 143.35
  Q 340.51 145.13 338.36 146.58
  C 333.61 149.79 328.47 149.51 323.43 149.65
  A 1.95 1.94 -13.9 0 1 321.64 148.57
  Q 318.20 141.55 314.62 134.49
  Q 308.88 123.19 307.10 120.72
  Q 300.15 111.07 288.83 108.64"
/>
<path stroke="#474d55" vector-effect="non-scaling-stroke" d="
  M 288.83 108.64
  L 279.75 108.03"
/>
<path stroke="#8c8281" vector-effect="non-scaling-stroke" d="
  M 278.49 101.76
  L 278.03 91.60
  A 1.36 1.36 0.0 0 1 279.19 90.19
  C 280.48 89.99 281.77 89.74 282.83 88.96
  C 286.07 86.56 285.61 81.08 281.70 79.73
  Q 280.52 79.33 277.55 79.58
  C 272.39 80.02 267.29 80.15 265.06 74.46
  C 263.62 70.76 262.89 69.51 258.84 68.59
  Q 254.78 67.68 253.00 63.51"
/>
<path stroke="#2b8f81" vector-effect="non-scaling-stroke" d="
  M 62.21 88.74
  Q 66.16 90.48 68.83 90.05
  Q 75.42 89.00 79.91 84.03
  Q 80.27 83.63 79.88 83.26
  C 73.04 76.65 65.21 78.89 61.65 87.34
  A 1.08 1.07 23.4 0 0 62.21 88.74"
/>
<path stroke="#7a807c" vector-effect="non-scaling-stroke" d="
  M 326.77 115.16
  C 324.87 113.01 320.38 109.20 318.17 111.46
  C 312.35 117.39 327.65 121.24 331.07 121.88"
/>
<path stroke="#30343a" vector-effect="non-scaling-stroke" d="
  M 322.28 150.59
  Q 321.13 150.20 320.43 148.85"
/>
<path stroke="#393d42" vector-effect="non-scaling-stroke" d="
  M 320.43 148.85
  Q 311.44 130.24 308.11 124.39
  Q 301.90 113.47 288.83 108.64"
/>
<path stroke="#69717c" vector-effect="non-scaling-stroke" d="
  M 320.43 148.85
  Q 320.32 149.65 318.83 148.24
  Q 318.53 147.95 318.24 148.24
  L 317.99 148.49
  Q 317.62 148.86 317.40 148.39
  Q 317.16 147.88 316.62 148.12
  Q 315.26 148.73 314.08 148.54
  Q 313.60 148.46 313.14 148.59
  C 308.55 149.84 301.06 149.22 296.61 149.04
  A 2.73 2.72 -80.5 0 0 293.90 150.98
  L 291.46 158.99
  A 0.39 0.38 -80.0 0 1 291.08 159.26
  Q 290.71 159.24 290.49 158.97
  Q 290.36 158.81 290.45 158.63
  Q 290.66 158.19 290.37 157.92"
/>
<path stroke="#393d42" vector-effect="non-scaling-stroke" d="
  M 290.37 157.92
  L 292.99 149.46
  Q 293.18 148.86 292.57 148.70
  L 292.18 148.60
  A 0.37 0.37 0.0 0 0 291.73 148.86
  L 288.30 160.76"
/>
<path stroke="#69717c" vector-effect="non-scaling-stroke" d="
  M 288.30 160.76
  Q 287.07 161.10 287.15 159.33
  Q 287.18 158.70 287.51 157.72
  Q 288.75 153.90 289.85 150.20
  A 1.35 1.34 -4.2 0 0 287.99 148.60
  L 287.11 149.02
  A 1.40 1.25 29.7 0 1 286.55 149.14
  Q 272.38 149.01 258.19 149.24
  C 256.89 149.27 255.81 149.57 254.48 149.76
  Q 253.91 149.84 253.92 149.27
  Q 253.97 146.01 252.75 146.91"
/>
<path stroke="#7a807c" vector-effect="non-scaling-stroke" d="
  M 319.32 112.21
  L 318.12 114.03
  A 0.80 0.80 0.0 0 0 318.34 115.13
  L 318.45 115.21
  A 10.96 1.84 33.7 0 0 328.59 119.76
  L 328.65 119.68
  A 10.96 1.84 33.7 0 0 320.55 112.07
  L 320.43 111.99
  A 0.80 0.80 0.0 0 0 319.32 112.21"
/>
<path stroke="#b1bfee" vector-effect="non-scaling-stroke" d="
  M 193.30 187.10
  Q 194.50 187.44 194.56 186.81"
/>
<path stroke="#344d80" vector-effect="non-scaling-stroke" d="
  M 194.56 186.81
  Q 195.21 188.09 197.03 187.14"
/>
<path stroke="#5e7bb3" vector-effect="non-scaling-stroke" d="
  M 197.03 187.14
  Q 203.07 190.26 209.30 193.19
  Q 209.89 193.47 209.76 193.71
  Q 209.63 193.96 208.72 194.08"
/>
<path stroke="#30343a" vector-effect="non-scaling-stroke" d="
  M 288.30 160.76
  L 285.40 172.21"
/>
<path stroke="#5a626d" vector-effect="non-scaling-stroke" d="
  M 285.40 172.21
  Q 284.05 172.20 284.14 173.97
  Q 284.17 174.46 283.98 174.91
  C 283.57 175.91 283.02 176.50 282.78 177.57
  Q 282.12 180.47 281.24 183.45
  Q 281.01 184.23 280.27 183.92
  Q 279.68 183.68 279.89 182.14
  A 0.57 0.57 0.0 0 0 279.55 181.54
  Q 279.26 181.41 279.18 181.61
  Q 279.01 182.05 278.54 182.06
  Q 277.23 182.10 274.49 181.50
  Q 272.27 181.02 266.85 181.15
  Q 261.44 181.28 259.21 181.26
  Q 236.88 181.05 214.55 181.18
  C 212.32 181.20 209.11 181.62 206.33 181.38
  Q 206.09 181.36 205.93 181.26
  Q 205.71 181.13 205.52 180.94
  Q 205.15 180.57 204.66 180.75
  Q 203.93 181.01 203.18 180.61
  Q 202.74 180.38 202.32 180.63
  Q 201.70 180.99 201.25 180.66
  Q 200.94 180.43 201.02 180.04
  Q 201.08 179.80 201.01 179.55
  C 200.73 178.59 200.84 177.83 201.51 177.08
  Q 201.57 177.02 201.54 176.93
  Q 201.50 176.81 201.45 176.68
  Q 201.31 176.33 201.19 176.69
  Q 199.47 181.55 197.69 186.40
  Q 197.48 186.95 196.81 186.70"
/>
<path stroke="#30343a" vector-effect="non-scaling-stroke" d="
  M 196.81 186.70
  C 198.84 180.80 200.70 174.37 203.35 168.74
  Q 204.09 167.15 203.05 166.60"
/>
<path stroke="#ada6a8" vector-effect="non-scaling-stroke" d="
  M 203.05 166.60
  L 207.52 158.54"
/>
<path stroke="#30343a" vector-effect="non-scaling-stroke" d="
  M 343.50 193.20
  Q 342.64 193.81 342.26 193.84
  Q 335.51 194.43 328.75 194.68
  Q 304.99 195.55 281.25 196.77
  Q 280.25 196.83 279.22 196.64
  Q 279.09 196.62 279.10 196.49
  L 279.14 196.22
  A 0.27 0.27 0.0 0 1 279.38 195.98
  L 282.22 195.72
  Q 282.86 195.66 282.98 195.03
  L 290.37 157.92"
/>
<path stroke="#7d726e" vector-effect="non-scaling-stroke" d="
  M 203.05 166.60
  L 194.56 186.81"
/>
<path stroke="#8c8281" vector-effect="non-scaling-stroke" d="
  M 169.43 179.32
  Q 169.61 177.86 169.63 176.43
  C 169.70 170.06 174.32 166.02 180.37 165.07
  A 0.49 0.48 78.9 0 0 180.76 164.48
  L 180.69 164.20
  Q 180.56 163.68 180.02 163.79
  Q 167.97 166.41 168.24 178.27"
/>
<path stroke="#8c8281" vector-effect="non-scaling-stroke" d="
  M 165.86 175.88
  Q 166.16 175.19 166.24 172.74
  C 166.48 165.39 172.74 160.98 179.49 159.71
  Q 180.31 159.55 180.24 159.00
  A 0.57 0.57 0.0 0 0 179.59 158.50
  Q 165.81 160.55 164.57 175.25"
/>
<path stroke="#8c8281" vector-effect="non-scaling-stroke" d="
  M 175.90 155.29
  Q 177.76 155.36 178.67 154.75
  A 0.62 0.62 0.0 0 0 178.47 153.63
  Q 171.97 152.04 166.68 154.40"
/>
<path stroke="#2a2e33" vector-effect="non-scaling-stroke" d="
  M 272.03 210.81
  L 272.10 209.90
  Q 272.14 209.40 272.47 209.02
  C 275.61 205.46 276.60 202.54 278.01 197.51
  C 278.27 196.56 278.26 195.47 278.76 194.39
  Q 279.66 192.46 279.72 192.26
  Q 282.88 182.38 285.40 172.21"
/>
<path stroke="#2a2e33" vector-effect="non-scaling-stroke" d="
  M 196.81 186.70
  Q 196.94 186.60 197.03 187.14"
/>
<path stroke="#393e46" vector-effect="non-scaling-stroke" d="
  M 257.98 212.69
  Q 251.92 210.65 246.36 209.69
  C 243.88 209.26 241.91 207.03 239.45 206.06
  Q 225.10 200.41 210.71 194.75"
/>
<path stroke="#393e46" vector-effect="non-scaling-stroke" d="
  M 243.22 212.01
  Q 241.63 207.82 236.55 206.11
  C 228.34 203.35 220.24 199.91 212.05 196.79"
/>
</g>
<path fill="#94b9fd" d="
  M 359.18 217.62
  L 343.50 193.20
  Q 332.62 172.50 321.85 151.50
  Q 321.69 151.18 321.80 150.99
  Q 321.93 150.78 322.28 150.59
  C 331.02 151.77 342.19 149.77 343.75 139.77
  C 344.92 132.31 342.09 128.50 336.10 125.13
  Q 333.27 123.54 331.07 121.88
  Q 329.94 118.09 326.77 115.16
  Q 326.49 111.19 326.13 107.51
  C 324.77 93.37 313.97 85.53 302.57 79.68
  C 297.23 76.94 293.21 70.50 289.64 65.12
  Q 288.91 64.01 286.63 61.95
  C 276.35 53.22 262.31 53.96 253.00 63.51
  Q 252.13 64.24 251.21 65.71
  C 244.23 76.76 245.93 89.72 256.01 97.86
  Q 265.06 105.15 278.49 101.76
  L 279.75 108.03
  Q 279.59 108.43 278.97 108.52
  Q 269.16 109.96 263.61 116.83
  Q 260.51 120.67 257.26 131.33
  Q 254.88 139.14 252.75 146.91
  L 246.31 168.91
  A 0.77 0.77 0.0 0 1 245.36 169.44
  L 207.52 158.54
  Q 207.36 157.91 206.73 157.60
  Q 190.74 149.90 174.00 148.53
  C 171.31 148.31 161.45 147.86 160.31 151.10
  A 2.93 2.93 0.0 0 0 162.53 154.95
  Q 165.07 155.44 166.68 154.40
  L 175.90 155.29
  Q 172.00 155.79 168.50 158.79
  Q 159.99 166.10 164.57 175.25
  Q 164.66 174.44 165.86 175.88
  Q 166.25 177.88 168.24 178.27
  Q 168.74 179.09 169.43 179.32
  C 169.77 182.35 172.20 186.33 175.74 186.29
  A 2.56 2.56 0.0 0 0 178.11 182.84
  L 176.60 178.75
  A 2.82 2.82 0.0 0 1 177.46 175.60
  L 178.61 174.65
  Q 180.09 173.44 180.78 175.22
  C 183.54 182.33 187.48 183.50 193.30 187.10
  C 185.69 187.77 178.12 187.08 170.50 187.23
  Q 154.50 187.53 138.72 187.53
  A 0.68 0.68 0.0 0 1 138.05 186.97
  L 126.50 126.29
  Q 125.92 123.26 123.46 125.12
  L 122.72 125.68
  Q 120.04 127.70 120.72 131.00
  Q 126.46 158.74 132.36 186.58
  Q 133.17 190.39 134.74 191.92
  C 137.52 194.61 140.44 194.03 144.03 193.97
  Q 174.54 193.39 205.06 193.48
  C 206.44 193.49 207.41 193.89 208.72 194.08
  Q 210.04 195.58 210.71 194.75
  L 212.05 196.79
  L 212.02 211.71
  Q 212.02 212.01 212.32 212.01
  L 243.22 212.01
  L 257.98 212.69
  Q 264.25 214.61 270.48 210.30
  Q 270.92 209.99 271.35 210.31
  L 272.03 210.81
  Q 272.32 214.63 273.82 217.67
  Q 272.88 217.41 272.50 217.41
  Q 141.44 217.40 10.37 217.41
  C 4.51 217.41 0.84 212.21 0.00 206.86
  L 0.00 12.76
  Q 1.62 0.94 13.50 0.95
  Q 189.75 1.00 366.00 1.00
  Q 375.22 1.00 378.45 7.50
  Q 380.02 10.67 380.01 19.24
  Q 379.98 110.59 380.01 201.93
  C 380.01 208.23 379.59 212.13 374.84 215.69
  Q 373.10 217.00 370.28 217.17
  Q 365.19 217.47 359.18 217.62
  Z
  M 136.07 60.10
  A 3.61 3.61 0.0 0 0 132.46 56.49
  A 3.61 3.61 0.0 0 0 128.85 60.10
  A 3.61 3.61 0.0 0 0 132.46 63.71
  A 3.61 3.61 0.0 0 0 136.07 60.10
  Z
  M 116.99 60.22
  L 39.26 60.29
  A 0.69 0.69 0.0 0 0 38.57 61.00
  Q 38.76 70.25 38.58 79.50
  Q 38.57 79.84 39.02 79.68
  L 39.31 81.02
  Q 38.70 81.27 38.70 81.77
  Q 38.79 96.51 38.63 111.46
  Q 38.63 111.98 39.14 111.98
  L 79.79 111.97
  L 79.88 165.07
  A 0.88 0.88 0.0 0 0 80.77 165.95
  L 126.71 165.48
  Q 127.41 165.48 127.22 164.80
  L 127.04 164.15
  Q 126.85 163.46 126.14 163.46
  L 83.03 163.36
  Q 82.27 163.36 82.27 162.60
  L 82.27 111.96
  L 124.48 111.96
  Q 125.00 111.96 124.98 111.43
  L 124.95 110.50
  L 124.96 90.17
  C 128.76 89.11 132.24 89.61 135.60 86.85
  Q 141.90 81.67 145.06 73.64
  Q 145.21 73.24 144.89 73.51
  L 144.29 74.00
  Q 143.99 74.25 143.82 74.60
  C 140.23 82.27 134.31 89.27 125.07 88.68
  L 125.01 60.72
  Q 126.36 60.26 128.08 60.35
  Q 128.82 60.39 128.47 59.74
  Q 128.23 59.31 127.49 59.36
  Q 122.20 59.76 116.99 60.22
  Z
  M 172.07 111.26
  L 177.90 116.01
  Q 191.58 121.38 200.54 113.08
  C 208.62 105.61 209.46 94.62 203.34 85.52
  Q 199.73 80.72 193.94 78.82
  C 174.15 71.87 159.41 95.35 172.07 111.26
  Z"
/>
<path fill="#1d2025" d="
  M 286.63 61.95
  L 285.96 61.93
  A 0.35 0.35 0.0 0 0 285.71 62.54
  Q 289.61 66.23 292.20 70.99
  C 293.00 72.47 294.43 73.54 295.31 75.22
  Q 295.56 75.69 295.98 76.02
  C 299.29 78.59 301.32 80.87 305.82 82.79
  C 307.43 83.47 308.65 84.58 310.16 85.46
  C 316.70 89.31 322.79 96.46 324.26 104.03
  Q 324.73 106.49 325.28 109.09
  Q 325.91 112.04 323.41 110.36
  Q 322.37 109.66 320.34 109.58
  C 317.79 109.48 316.04 111.29 315.78 113.69
  C 315.22 118.81 324.56 121.64 328.23 122.61
  Q 331.28 123.43 333.46 124.73
  C 336.02 126.26 339.22 127.71 341.03 130.23
  C 342.59 132.39 342.26 136.07 342.65 138.73
  Q 342.97 140.98 341.56 143.35
  Q 340.51 145.13 338.36 146.58
  C 333.61 149.79 328.47 149.51 323.43 149.65
  A 1.95 1.94 -13.9 0 1 321.64 148.57
  Q 318.20 141.55 314.62 134.49
  Q 308.88 123.19 307.10 120.72
  Q 300.15 111.07 288.83 108.64
  L 279.75 108.03
  L 278.49 101.76
  L 278.03 91.60
  A 1.36 1.36 0.0 0 1 279.19 90.19
  C 280.48 89.99 281.77 89.74 282.83 88.96
  C 286.07 86.56 285.61 81.08 281.70 79.73
  Q 280.52 79.33 277.55 79.58
  C 272.39 80.02 267.29 80.15 265.06 74.46
  C 263.62 70.76 262.89 69.51 258.84 68.59
  Q 254.78 67.68 253.00 63.51
  C 262.31 53.96 276.35 53.22 286.63 61.95
  Z"
/>
<circle fill="#e01a68" cx="132.46" cy="60.10" r="3.61"/>
<path fill="#2aeecb" d="
  M 125.01 60.72
  C 115.22 61.66 110.98 63.19 105.03 71.18
  A 0.33 0.32 37.4 0 0 105.10 71.63
  C 111.94 76.81 116.36 86.83 125.07 88.68
  C 134.31 89.27 140.23 82.27 143.82 74.60
  Q 143.99 74.25 144.29 74.00
  L 144.89 73.51
  Q 145.21 73.24 145.06 73.64
  Q 141.90 81.67 135.60 86.85
  C 132.24 89.61 128.76 89.11 124.96 90.17
  C 114.62 88.34 112.12 77.75 104.13 72.83
  Q 103.17 72.79 102.57 72.24
  Q 102.42 72.02 101.87 71.91
  C 93.04 70.18 86.91 77.30 82.47 83.70
  Q 82.25 84.05 81.75 84.44
  C 76.00 90.19 68.67 94.72 60.85 89.41
  L 59.47 88.38
  C 56.42 85.13 52.05 80.67 48.03 79.74
  Q 43.53 78.81 39.31 81.02
  L 39.02 79.68
  Q 39.39 79.18 40.12 78.87
  C 48.86 75.18 53.90 80.69 59.49 86.45
  Q 60.26 87.23 60.70 86.23
  C 64.40 77.79 74.11 74.19 80.58 82.25
  A 0.68 0.67 -46.4 0 0 81.65 82.22
  C 86.87 75.04 93.33 67.85 103.32 70.67
  Q 103.81 70.81 104.07 70.37
  Q 108.53 62.74 116.99 60.22
  Q 122.20 59.76 127.49 59.36
  Q 128.23 59.31 128.47 59.74
  Q 128.82 60.39 128.08 60.35
  Q 126.36 60.26 125.01 60.72
  Z
  M 62.21 88.74
  Q 66.16 90.48 68.83 90.05
  Q 75.42 89.00 79.91 84.03
  Q 80.27 83.63 79.88 83.26
  C 73.04 76.65 65.21 78.89 61.65 87.34
  A 1.08 1.07 23.4 0 0 62.21 88.74
  Z"
/>
<path fill="#2b3036" d="
  M 116.99 60.22
  Q 108.53 62.74 104.07 70.37
  Q 103.81 70.81 103.32 70.67
  C 93.33 67.85 86.87 75.04 81.65 82.22
  A 0.68 0.67 -46.4 0 1 80.58 82.25
  C 74.11 74.19 64.40 77.79 60.70 86.23
  Q 60.26 87.23 59.49 86.45
  C 53.90 80.69 48.86 75.18 40.12 78.87
  Q 39.39 79.18 39.02 79.68
  Q 38.57 79.84 38.58 79.50
  Q 38.76 70.25 38.57 61.00
  A 0.69 0.69 0.0 0 1 39.26 60.29
  L 116.99 60.22
  Z"
/>
<path fill="#2b3036" d="
  M 125.01 60.72
  L 125.07 88.68
  C 116.36 86.83 111.94 76.81 105.10 71.63
  A 0.33 0.32 37.4 0 1 105.03 71.18
  C 110.98 63.19 115.22 61.66 125.01 60.72
  Z"
/>
<path fill="#000000" d="
  M 286.63 61.95
  Q 288.91 64.01 289.64 65.12
  C 293.21 70.50 297.23 76.94 302.57 79.68
  C 313.97 85.53 324.77 93.37 326.13 107.51
  Q 326.49 111.19 326.77 115.16
  C 324.87 113.01 320.38 109.20 318.17 111.46
  C 312.35 117.39 327.65 121.24 331.07 121.88
  Q 333.27 123.54 336.10 125.13
  C 342.09 128.50 344.92 132.31 343.75 139.77
  C 342.19 149.77 331.02 151.77 322.28 150.59
  Q 321.13 150.20 320.43 148.85
  Q 311.44 130.24 308.11 124.39
  Q 301.90 113.47 288.83 108.64
  Q 300.15 111.07 307.10 120.72
  Q 308.88 123.19 314.62 134.49
  Q 318.20 141.55 321.64 148.57
  A 1.95 1.94 -13.9 0 0 323.43 149.65
  C 328.47 149.51 333.61 149.79 338.36 146.58
  Q 340.51 145.13 341.56 143.35
  Q 342.97 140.98 342.65 138.73
  C 342.26 136.07 342.59 132.39 341.03 130.23
  C 339.22 127.71 336.02 126.26 333.46 124.73
  Q 331.28 123.43 328.23 122.61
  C 324.56 121.64 315.22 118.81 315.78 113.69
  C 316.04 111.29 317.79 109.48 320.34 109.58
  Q 322.37 109.66 323.41 110.36
  Q 325.91 112.04 325.28 109.09
  Q 324.73 106.49 324.26 104.03
  C 322.79 96.46 316.70 89.31 310.16 85.46
  C 308.65 84.58 307.43 83.47 305.82 82.79
  C 301.32 80.87 299.29 78.59 295.98 76.02
  Q 295.56 75.69 295.31 75.22
  C 294.43 73.54 293.00 72.47 292.20 70.99
  Q 289.61 66.23 285.71 62.54
  A 0.35 0.35 0.0 0 1 285.96 61.93
  L 286.63 61.95
  Z"
/>
<path fill="#fae3dc" d="
  M 253.00 63.51
  Q 254.78 67.68 258.84 68.59
  C 262.89 69.51 263.62 70.76 265.06 74.46
  C 267.29 80.15 272.39 80.02 277.55 79.58
  Q 280.52 79.33 281.70 79.73
  C 285.61 81.08 286.07 86.56 282.83 88.96
  C 281.77 89.74 280.48 89.99 279.19 90.19
  A 1.36 1.36 0.0 0 0 278.03 91.60
  L 278.49 101.76
  Q 265.06 105.15 256.01 97.86
  C 245.93 89.72 244.23 76.76 251.21 65.71
  Q 252.13 64.24 253.00 63.51
  Z"
/>
<path fill="#2b3036" d="
  M 102.57 72.24
  C 97.74 79.43 92.38 87.59 82.47 83.70
  C 86.91 77.30 93.04 70.18 101.87 71.91
  Q 102.42 72.02 102.57 72.24
  Z"
/>
<path fill="#94b9fd" d="
  M 102.57 72.24
  Q 103.17 72.79 104.13 72.83
  Q 103.20 73.58 103.49 74.21
  Q 103.08 74.23 103.33 74.47
  Q 103.12 74.37 102.92 74.42
  Q 102.77 74.46 102.62 74.66
  C 97.85 81.05 91.24 90.81 81.75 84.44
  Q 82.25 84.05 82.47 83.70
  C 92.38 87.59 97.74 79.43 102.57 72.24
  Z"
/>
<path fill="#2b3036" d="
  M 104.13 72.83
  C 112.12 77.75 114.62 88.34 124.96 90.17
  L 124.95 110.50
  L 104.37 110.57
  Q 104.22 93.65 104.42 77.00
  Q 104.44 75.04 103.49 74.21
  Q 103.20 73.58 104.13 72.83
  Z"
/>
<path fill="#717984" d="
  M 103.49 74.21
  Q 104.44 75.04 104.42 77.00
  Q 104.22 93.65 104.37 110.57
  Q 103.98 110.96 102.97 110.66
  Q 103.11 94.20 102.85 78.02
  C 102.83 76.86 103.35 75.71 103.33 74.47
  Q 103.08 74.23 103.49 74.21
  Z"
/>
<path fill="#2b3036" d="
  M 103.33 74.47
  C 103.35 75.71 102.83 76.86 102.85 78.02
  Q 103.11 94.20 102.97 110.66
  L 82.00 110.73
  Q 81.76 98.88 81.98 87.00
  Q 81.99 86.45 81.34 86.04
  Q 81.01 85.83 80.82 86.18
  Q 80.13 87.48 80.11 88.25
  Q 79.95 93.96 80.11 110.49
  Q 80.38 110.55 80.09 111.30
  Q 80.13 111.08 80.11 110.90
  Q 80.08 110.45 79.63 110.46
  L 61.18 110.63
  Q 61.32 101.08 60.94 91.74
  Q 60.93 91.47 60.80 91.30
  Q 60.65 91.12 60.45 90.95
  Q 60.21 89.79 60.85 89.41
  C 68.67 94.72 76.00 90.19 81.75 84.44
  C 91.24 90.81 97.85 81.05 102.62 74.66
  Q 102.77 74.46 102.92 74.42
  Q 103.12 74.37 103.33 74.47
  Z"
/>
<path fill="#2aeecb" d="
  M 193.94 78.82
  Q 195.12 79.85 196.25 80.19
  Q 197.49 80.56 196.23 80.88
  Q 195.39 81.10 194.61 80.91
  Q 194.05 80.79 193.73 81.25
  Q 193.35 81.78 192.70 81.88
  Q 192.23 81.96 191.93 82.34
  Q 190.25 84.46 187.89 85.93
  Q 187.86 85.95 187.86 85.99
  Q 187.87 86.16 187.86 86.31
  Q 187.85 86.64 187.53 86.70
  Q 185.87 87.05 185.18 88.62
  Q 185.00 89.03 184.57 89.16
  C 181.62 90.02 180.48 92.81 178.49 94.78
  Q 178.19 95.07 177.78 95.13
  Q 174.69 95.59 175.00 98.81
  Q 175.05 99.32 174.56 99.49
  Q 173.35 99.91 173.13 101.26
  Q 173.04 101.83 172.48 101.95
  C 168.68 102.79 170.83 107.89 172.58 109.66
  C 173.11 110.20 173.10 110.56 173.38 111.23
  Q 173.51 111.55 173.21 111.37
  Q 172.59 111.01 172.07 111.26
  C 159.41 95.35 174.15 71.87 193.94 78.82
  Z"
/>
<path fill="#27e9ab" d="
  M 193.94 78.82
  Q 199.73 80.72 203.34 85.52
  Q 203.23 86.31 203.95 87.07
  Q 204.36 87.52 203.90 87.93
  C 203.02 88.70 201.99 88.93 201.21 89.74
  Q 199.31 91.70 197.42 93.75
  Q 197.03 94.17 196.46 94.22
  L 193.28 94.49
  Q 192.85 94.53 192.63 94.89
  Q 191.92 96.02 190.76 96.68
  Q 190.28 96.95 189.99 96.48
  Q 188.26 93.66 186.79 90.87
  Q 186.57 90.45 186.25 90.35
  Q 185.71 90.17 185.44 90.75
  Q 184.52 89.24 183.47 90.74
  Q 181.59 93.44 179.34 95.87
  Q 178.98 96.26 178.45 96.26
  L 177.23 96.26
  Q 176.65 96.26 176.46 96.82
  Q 175.82 98.76 177.32 99.64
  L 185.83 108.07
  Q 186.16 108.40 185.92 108.80
  L 183.94 112.07
  Q 183.67 112.51 183.20 112.68
  Q 181.77 113.19 181.73 114.72
  A 0.91 0.90 -68.7 0 1 180.23 115.38
  Q 179.75 114.95 179.22 114.82
  Q 178.84 114.72 178.56 115.00
  Q 178.19 115.36 177.90 116.01
  L 172.07 111.26
  Q 172.59 111.01 173.21 111.37
  Q 173.51 111.55 173.38 111.23
  C 173.10 110.56 173.11 110.20 172.58 109.66
  C 170.83 107.89 168.68 102.79 172.48 101.95
  Q 173.04 101.83 173.13 101.26
  Q 173.35 99.91 174.56 99.49
  Q 175.05 99.32 175.00 98.81
  Q 174.69 95.59 177.78 95.13
  Q 178.19 95.07 178.49 94.78
  C 180.48 92.81 181.62 90.02 184.57 89.16
  Q 185.00 89.03 185.18 88.62
  Q 185.87 87.05 187.53 86.70
  Q 187.85 86.64 187.86 86.31
  Q 187.87 86.16 187.86 85.99
  Q 187.86 85.95 187.89 85.93
  Q 190.25 84.46 191.93 82.34
  Q 192.23 81.96 192.70 81.88
  Q 193.35 81.78 193.73 81.25
  Q 194.05 80.79 194.61 80.91
  Q 195.39 81.10 196.23 80.88
  Q 197.49 80.56 196.25 80.19
  Q 195.12 79.85 193.94 78.82
  Z"
/>
<path fill="#2b3036" d="
  M 62.21 88.74
  A 1.08 1.07 23.4 0 1 61.65 87.34
  C 65.21 78.89 73.04 76.65 79.88 83.26
  Q 80.27 83.63 79.91 84.03
  Q 75.42 89.00 68.83 90.05
  Q 66.16 90.48 62.21 88.74
  Z"
/>
<path fill="#000000" d="
  M 48.03 79.74
  L 48.21 79.97
  A 0.41 0.41 0.0 0 1 47.81 80.63
  Q 43.66 79.84 40.08 81.93
  A 1.11 1.11 0.0 0 0 39.53 82.89
  L 39.67 110.05
  Q 39.67 110.56 40.18 110.64
  Q 43.73 111.16 47.60 110.23
  Q 47.50 111.95 49.63 109.91
  Q 54.21 111.52 59.85 110.49
  Q 60.38 110.94 61.18 110.63
  L 79.63 110.46
  Q 80.08 110.45 80.11 110.90
  Q 80.13 111.08 80.09 111.30
  Q 80.14 111.62 79.79 111.97
  L 39.14 111.98
  Q 38.63 111.98 38.63 111.46
  Q 38.79 96.51 38.70 81.77
  Q 38.70 81.27 39.31 81.02
  Q 43.53 78.81 48.03 79.74
  Z"
/>
<path fill="#2b3036" d="
  M 48.03 79.74
  C 52.05 80.67 56.42 85.13 59.47 88.38
  L 47.60 110.23
  Q 43.73 111.16 40.18 110.64
  Q 39.67 110.56 39.67 110.05
  L 39.53 82.89
  A 1.11 1.11 0.0 0 1 40.08 81.93
  Q 43.66 79.84 47.81 80.63
  A 0.41 0.41 0.0 0 0 48.21 79.97
  L 48.03 79.74
  Z"
/>
<path fill="#21db7f" d="
  M 203.34 85.52
  C 209.46 94.62 208.62 105.61 200.54 113.08
  Q 191.58 121.38 177.90 116.01
  Q 178.19 115.36 178.56 115.00
  Q 178.84 114.72 179.22 114.82
  Q 179.75 114.95 180.23 115.38
  A 0.91 0.90 -68.7 0 0 181.73 114.72
  Q 181.77 113.19 183.20 112.68
  Q 183.67 112.51 183.94 112.07
  L 185.92 108.80
  Q 186.16 108.40 185.83 108.07
  L 177.32 99.64
  L 180.34 99.47
  A 1.08 1.08 0.0 0 0 181.14 99.04
  L 183.60 95.77
  A 0.42 0.42 0.0 0 1 184.30 95.82
  L 189.09 104.49
  Q 189.86 105.88 190.83 104.62
  Q 192.69 102.21 194.80 99.54
  Q 195.44 98.74 196.91 99.30
  A 0.58 0.57 10.1 0 0 197.69 98.76
  L 197.66 97.09
  Q 197.65 96.28 196.84 96.26
  L 193.75 96.16
  A 0.82 0.81 18.0 0 0 193.06 96.51
  L 190.92 99.51
  A 0.54 0.53 49.3 0 1 190.01 99.44
  L 185.44 90.75
  Q 185.71 90.17 186.25 90.35
  Q 186.57 90.45 186.79 90.87
  Q 188.26 93.66 189.99 96.48
  Q 190.28 96.95 190.76 96.68
  Q 191.92 96.02 192.63 94.89
  Q 192.85 94.53 193.28 94.49
  L 196.46 94.22
  Q 197.03 94.17 197.42 93.75
  Q 199.31 91.70 201.21 89.74
  C 201.99 88.93 203.02 88.70 203.90 87.93
  Q 204.36 87.52 203.95 87.07
  Q 203.23 86.31 203.34 85.52
  Z"
/>
<path fill="#606873" d="
  M 82.00 110.73
  Q 81.04 110.19 80.11 110.49
  Q 79.95 93.96 80.11 88.25
  Q 80.13 87.48 80.82 86.18
  Q 81.01 85.83 81.34 86.04
  Q 81.99 86.45 81.98 87.00
  Q 81.76 98.88 82.00 110.73
  Z"
/>
<path fill="#94b9fd" d="
  M 59.47 88.38
  L 60.85 89.41
  Q 60.21 89.79 60.45 90.95
  Q 59.48 91.30 59.78 90.86
  L 49.63 109.91
  Q 47.50 111.95 47.60 110.23
  L 59.47 88.38
  Z"
/>
<path fill="#f3fff7" d="
  M 185.44 90.75
  L 190.01 99.44
  A 0.54 0.53 49.3 0 0 190.92 99.51
  L 193.06 96.51
  A 0.82 0.81 18.0 0 1 193.75 96.16
  L 196.84 96.26
  Q 197.65 96.28 197.66 97.09
  L 197.69 98.76
  A 0.58 0.57 10.1 0 1 196.91 99.30
  Q 195.44 98.74 194.80 99.54
  Q 192.69 102.21 190.83 104.62
  Q 189.86 105.88 189.09 104.49
  L 184.30 95.82
  A 0.42 0.42 0.0 0 0 183.60 95.77
  L 181.14 99.04
  A 1.08 1.08 0.0 0 1 180.34 99.47
  L 177.32 99.64
  Q 175.82 98.76 176.46 96.82
  Q 176.65 96.26 177.23 96.26
  L 178.45 96.26
  Q 178.98 96.26 179.34 95.87
  Q 181.59 93.44 183.47 90.74
  Q 184.52 89.24 185.44 90.75
  Z"
/>
<path fill="#717984" d="
  M 60.45 90.95
  Q 60.65 91.12 60.80 91.30
  Q 60.93 91.47 60.94 91.74
  Q 61.32 101.08 61.18 110.63
  Q 60.38 110.94 59.85 110.49
  C 59.85 104.87 59.48 98.75 60.12 93.14
  Q 60.27 91.83 59.78 90.86
  Q 59.48 91.30 60.45 90.95
  Z"
/>
<path fill="#2b3036" d="
  M 59.78 90.86
  Q 60.27 91.83 60.12 93.14
  C 59.48 98.75 59.85 104.87 59.85 110.49
  Q 54.21 111.52 49.63 109.91
  L 59.78 90.86
  Z"
/>
<path fill="#717984" d="
  M 279.75 108.03
  L 288.83 108.64
  Q 301.90 113.47 308.11 124.39
  Q 311.44 130.24 320.43 148.85
  Q 320.32 149.65 318.83 148.24
  Q 318.53 147.95 318.24 148.24
  L 317.99 148.49
  Q 317.62 148.86 317.40 148.39
  Q 317.16 147.88 316.62 148.12
  Q 315.26 148.73 314.08 148.54
  Q 313.60 148.46 313.14 148.59
  C 308.55 149.84 301.06 149.22 296.61 149.04
  A 2.73 2.72 -80.5 0 0 293.90 150.98
  L 291.46 158.99
  A 0.39 0.38 -80.0 0 1 291.08 159.26
  Q 290.71 159.24 290.49 158.97
  Q 290.36 158.81 290.45 158.63
  Q 290.66 158.19 290.37 157.92
  L 292.99 149.46
  Q 293.18 148.86 292.57 148.70
  L 292.18 148.60
  A 0.37 0.37 0.0 0 0 291.73 148.86
  L 288.30 160.76
  Q 287.07 161.10 287.15 159.33
  Q 287.18 158.70 287.51 157.72
  Q 288.75 153.90 289.85 150.20
  A 1.35 1.34 -4.2 0 0 287.99 148.60
  L 287.11 149.02
  A 1.40 1.25 29.7 0 1 286.55 149.14
  Q 272.38 149.01 258.19 149.24
  C 256.89 149.27 255.81 149.57 254.48 149.76
  Q 253.91 149.84 253.92 149.27
  Q 253.97 146.01 252.75 146.91
  Q 254.88 139.14 257.26 131.33
  Q 260.51 120.67 263.61 116.83
  Q 269.16 109.96 278.97 108.52
  Q 279.59 108.43 279.75 108.03
  Z"
/>
<path fill="#000000" d="
  M 124.95 110.50
  L 124.98 111.43
  Q 125.00 111.96 124.48 111.96
  L 82.27 111.96
  Q 82.50 111.80 82.00 110.73
  L 102.97 110.66
  Q 103.98 110.96 104.37 110.57
  L 124.95 110.50
  Z"
/>
<path fill="#689aff" d="
  M 80.11 110.49
  Q 81.04 110.19 82.00 110.73
  Q 82.50 111.80 82.27 111.96
  L 82.27 162.60
  Q 82.27 163.36 83.03 163.36
  L 126.14 163.46
  Q 126.85 163.46 127.04 164.15
  L 127.22 164.80
  Q 127.41 165.48 126.71 165.48
  L 80.77 165.95
  A 0.88 0.88 0.0 0 1 79.88 165.07
  L 79.79 111.97
  Q 80.14 111.62 80.09 111.30
  Q 80.38 110.55 80.11 110.49
  Z"
/>
<path fill="#f3fff7" d="
  M 326.77 115.16
  Q 329.94 118.09 331.07 121.88
  C 327.65 121.24 312.35 117.39 318.17 111.46
  C 320.38 109.20 324.87 113.01 326.77 115.16
  Z
  M 319.32 112.21
  L 318.12 114.03
  A 0.80 0.80 0.0 0 0 318.34 115.13
  L 318.45 115.21
  A 10.96 1.84 33.7 0 0 328.59 119.76
  L 328.65 119.68
  A 10.96 1.84 33.7 0 0 320.55 112.07
  L 320.43 111.99
  A 0.80 0.80 0.0 0 0 319.32 112.21
  Z"
/>
<path fill="#000000" d="
  M 319.32 112.21
  A 0.80 0.80 0.0 0 1 320.43 111.99
  L 320.55 112.07
  A 10.96 1.84 33.7 0 1 328.65 119.68
  L 328.59 119.76
  A 10.96 1.84 33.7 0 1 318.45 115.21
  L 318.34 115.13
  A 0.80 0.80 0.0 0 1 318.12 114.03
  L 319.32 112.21
  Z"
/>
<path fill="#689aff" d="
  M 193.30 187.10
  Q 194.50 187.44 194.56 186.81
  Q 195.21 188.09 197.03 187.14
  Q 203.07 190.26 209.30 193.19
  Q 209.89 193.47 209.76 193.71
  Q 209.63 193.96 208.72 194.08
  C 207.41 193.89 206.44 193.49 205.06 193.48
  Q 174.54 193.39 144.03 193.97
  C 140.44 194.03 137.52 194.61 134.74 191.92
  Q 133.17 190.39 132.36 186.58
  Q 126.46 158.74 120.72 131.00
  Q 120.04 127.70 122.72 125.68
  L 123.46 125.12
  Q 125.92 123.26 126.50 126.29
  L 138.05 186.97
  A 0.68 0.68 0.0 0 0 138.72 187.53
  Q 154.50 187.53 170.50 187.23
  C 178.12 187.08 185.69 187.77 193.30 187.10
  Z"
/>
<path fill="#606873" d="
  M 288.30 160.76
  L 285.40 172.21
  Q 284.05 172.20 284.14 173.97
  Q 284.17 174.46 283.98 174.91
  C 283.57 175.91 283.02 176.50 282.78 177.57
  Q 282.12 180.47 281.24 183.45
  Q 281.01 184.23 280.27 183.92
  Q 279.68 183.68 279.89 182.14
  A 0.57 0.57 0.0 0 0 279.55 181.54
  Q 279.26 181.41 279.18 181.61
  Q 279.01 182.05 278.54 182.06
  Q 277.23 182.10 274.49 181.50
  Q 272.27 181.02 266.85 181.15
  Q 261.44 181.28 259.21 181.26
  Q 236.88 181.05 214.55 181.18
  C 212.32 181.20 209.11 181.62 206.33 181.38
  Q 206.09 181.36 205.93 181.26
  Q 205.71 181.13 205.52 180.94
  Q 205.15 180.57 204.66 180.75
  Q 203.93 181.01 203.18 180.61
  Q 202.74 180.38 202.32 180.63
  Q 201.70 180.99 201.25 180.66
  Q 200.94 180.43 201.02 180.04
  Q 201.08 179.80 201.01 179.55
  C 200.73 178.59 200.84 177.83 201.51 177.08
  Q 201.57 177.02 201.54 176.93
  Q 201.50 176.81 201.45 176.68
  Q 201.31 176.33 201.19 176.69
  Q 199.47 181.55 197.69 186.40
  Q 197.48 186.95 196.81 186.70
  C 198.84 180.80 200.70 174.37 203.35 168.74
  Q 204.09 167.15 203.05 166.60
  L 207.52 158.54
  L 245.36 169.44
  A 0.77 0.77 0.0 0 0 246.31 168.91
  L 252.75 146.91
  Q 253.97 146.01 253.92 149.27
  Q 253.91 149.84 254.48 149.76
  C 255.81 149.57 256.89 149.27 258.19 149.24
  Q 272.38 149.01 286.55 149.14
  A 1.40 1.25 29.7 0 0 287.11 149.02
  L 287.99 148.60
  A 1.35 1.34 -4.2 0 1 289.85 150.20
  Q 288.75 153.90 287.51 157.72
  Q 287.18 158.70 287.15 159.33
  Q 287.07 161.10 288.30 160.76
  Z"
/>
<path fill="#606873" d="
  M 320.43 148.85
  Q 321.13 150.20 322.28 150.59
  Q 321.93 150.78 321.80 150.99
  Q 321.69 151.18 321.85 151.50
  Q 332.62 172.50 343.50 193.20
  Q 342.64 193.81 342.26 193.84
  Q 335.51 194.43 328.75 194.68
  Q 304.99 195.55 281.25 196.77
  Q 280.25 196.83 279.22 196.64
  Q 279.09 196.62 279.10 196.49
  L 279.14 196.22
  A 0.27 0.27 0.0 0 1 279.38 195.98
  L 282.22 195.72
  Q 282.86 195.66 282.98 195.03
  L 290.37 157.92
  Q 290.66 158.19 290.45 158.63
  Q 290.36 158.81 290.49 158.97
  Q 290.71 159.24 291.08 159.26
  A 0.39 0.38 -80.0 0 0 291.46 158.99
  L 293.90 150.98
  A 2.73 2.72 -80.5 0 1 296.61 149.04
  C 301.06 149.22 308.55 149.84 313.14 148.59
  Q 313.60 148.46 314.08 148.54
  Q 315.26 148.73 316.62 148.12
  Q 317.16 147.88 317.40 148.39
  Q 317.62 148.86 317.99 148.49
  L 318.24 148.24
  Q 318.53 147.95 318.83 148.24
  Q 320.32 149.65 320.43 148.85
  Z"
/>
<path fill="#fae3dc" d="
  M 207.52 158.54
  L 203.05 166.60
  L 194.56 186.81
  Q 194.50 187.44 193.30 187.10
  C 187.48 183.50 183.54 182.33 180.78 175.22
  Q 180.09 173.44 178.61 174.65
  L 177.46 175.60
  A 2.82 2.82 0.0 0 0 176.60 178.75
  L 178.11 182.84
  A 2.56 2.56 0.0 0 1 175.74 186.29
  C 172.20 186.33 169.77 182.35 169.43 179.32
  Q 169.61 177.86 169.63 176.43
  C 169.70 170.06 174.32 166.02 180.37 165.07
  A 0.49 0.48 78.9 0 0 180.76 164.48
  L 180.69 164.20
  Q 180.56 163.68 180.02 163.79
  Q 167.97 166.41 168.24 178.27
  Q 166.25 177.88 165.86 175.88
  Q 166.16 175.19 166.24 172.74
  C 166.48 165.39 172.74 160.98 179.49 159.71
  Q 180.31 159.55 180.24 159.00
  A 0.57 0.57 0.0 0 0 179.59 158.50
  Q 165.81 160.55 164.57 175.25
  Q 159.99 166.10 168.50 158.79
  Q 172.00 155.79 175.90 155.29
  Q 177.76 155.36 178.67 154.75
  A 0.62 0.62 0.0 0 0 178.47 153.63
  Q 171.97 152.04 166.68 154.40
  Q 165.07 155.44 162.53 154.95
  A 2.93 2.93 0.0 0 1 160.31 151.10
  C 161.45 147.86 171.31 148.31 174.00 148.53
  Q 190.74 149.90 206.73 157.60
  Q 207.36 157.91 207.52 158.54
  Z"
/>
<path fill="#000000" d="
  M 290.37 157.92
  L 282.98 195.03
  Q 282.86 195.66 282.22 195.72
  L 279.38 195.98
  A 0.27 0.27 0.0 0 0 279.14 196.22
  L 279.10 196.49
  Q 279.09 196.62 279.22 196.64
  Q 280.25 196.83 281.25 196.77
  Q 304.99 195.55 328.75 194.68
  Q 335.51 194.43 342.26 193.84
  Q 342.64 193.81 343.50 193.20
  L 359.18 217.62
  L 273.82 217.67
  Q 272.32 214.63 272.03 210.81
  L 272.10 209.90
  Q 272.14 209.40 272.47 209.02
  C 275.61 205.46 276.60 202.54 278.01 197.51
  C 278.27 196.56 278.26 195.47 278.76 194.39
  Q 279.66 192.46 279.72 192.26
  Q 282.88 182.38 285.40 172.21
  L 288.30 160.76
  L 291.73 148.86
  A 0.37 0.37 0.0 0 1 292.18 148.60
  L 292.57 148.70
  Q 293.18 148.86 292.99 149.46
  L 290.37 157.92
  Z"
/>
<path fill="#1d2025" d="
  M 175.90 155.29
  L 166.68 154.40
  Q 171.97 152.04 178.47 153.63
  A 0.62 0.62 0.0 0 1 178.67 154.75
  Q 177.76 155.36 175.90 155.29
  Z"
/>
<path fill="#1d2025" d="
  M 165.86 175.88
  Q 164.66 174.44 164.57 175.25
  Q 165.81 160.55 179.59 158.50
  A 0.57 0.57 0.0 0 1 180.24 159.00
  Q 180.31 159.55 179.49 159.71
  C 172.74 160.98 166.48 165.39 166.24 172.74
  Q 166.16 175.19 165.86 175.88
  Z"
/>
<path fill="#1d2025" d="
  M 169.43 179.32
  Q 168.74 179.09 168.24 178.27
  Q 167.97 166.41 180.02 163.79
  Q 180.56 163.68 180.69 164.20
  L 180.76 164.48
  A 0.49 0.48 78.9 0 1 180.37 165.07
  C 174.32 166.02 169.70 170.06 169.63 176.43
  Q 169.61 177.86 169.43 179.32
  Z"
/>
<path fill="#000000" d="
  M 203.05 166.60
  Q 204.09 167.15 203.35 168.74
  C 200.70 174.37 198.84 180.80 196.81 186.70
  Q 196.94 186.60 197.03 187.14
  Q 195.21 188.09 194.56 186.81
  L 203.05 166.60
  Z"
/>
<path fill="#545c66" d="
  M 285.40 172.21
  Q 282.88 182.38 279.72 192.26
  Q 279.66 192.46 278.76 194.39
  C 278.26 195.47 278.27 196.56 278.01 197.51
  C 276.60 202.54 275.61 205.46 272.47 209.02
  Q 272.14 209.40 272.10 209.90
  L 272.03 210.81
  L 271.35 210.31
  Q 270.92 209.99 270.48 210.30
  Q 264.25 214.61 257.98 212.69
  Q 251.92 210.65 246.36 209.69
  C 243.88 209.26 241.91 207.03 239.45 206.06
  Q 225.10 200.41 210.71 194.75
  Q 210.04 195.58 208.72 194.08
  Q 209.63 193.96 209.76 193.71
  Q 209.89 193.47 209.30 193.19
  Q 203.07 190.26 197.03 187.14
  Q 196.94 186.60 196.81 186.70
  Q 197.48 186.95 197.69 186.40
  Q 199.47 181.55 201.19 176.69
  Q 201.31 176.33 201.45 176.68
  Q 201.50 176.81 201.54 176.93
  Q 201.57 177.02 201.51 177.08
  C 200.84 177.83 200.73 178.59 201.01 179.55
  Q 201.08 179.80 201.02 180.04
  Q 200.94 180.43 201.25 180.66
  Q 201.70 180.99 202.32 180.63
  Q 202.74 180.38 203.18 180.61
  Q 203.93 181.01 204.66 180.75
  Q 205.15 180.57 205.52 180.94
  Q 205.71 181.13 205.93 181.26
  Q 206.09 181.36 206.33 181.38
  C 209.11 181.62 212.32 181.20 214.55 181.18
  Q 236.88 181.05 259.21 181.26
  Q 261.44 181.28 266.85 181.15
  Q 272.27 181.02 274.49 181.50
  Q 277.23 182.10 278.54 182.06
  Q 279.01 182.05 279.18 181.61
  Q 279.26 181.41 279.55 181.54
  A 0.57 0.57 0.0 0 1 279.89 182.14
  Q 279.68 183.68 280.27 183.92
  Q 281.01 184.23 281.24 183.45
  Q 282.12 180.47 282.78 177.57
  C 283.02 176.50 283.57 175.91 283.98 174.91
  Q 284.17 174.46 284.14 173.97
  Q 284.05 172.20 285.40 172.21
  Z"
/>
<path fill="#1d2025" d="
  M 257.98 212.69
  L 243.22 212.01
  Q 241.63 207.82 236.55 206.11
  C 228.34 203.35 220.24 199.91 212.05 196.79
  L 210.71 194.75
  Q 225.10 200.41 239.45 206.06
  C 241.91 207.03 243.88 209.26 246.36 209.69
  Q 251.92 210.65 257.98 212.69
  Z"
/>
<path fill="#545c66" d="
  M 212.05 196.79
  C 220.24 199.91 228.34 203.35 236.55 206.11
  Q 241.63 207.82 243.22 212.01
  L 212.32 212.01
  Q 212.02 212.01 212.02 211.71
  L 212.05 196.79
  Z"
/>
</svg>
