<svg xmlns="http://www.w3.org/2000/svg" version="1.1" xmlns:xlink="http://www.w3.org/1999/xlink" xmlns:svgjs="http://svgjs.dev/svgjs" width="1440" height="250" preserveAspectRatio="none" viewBox="0 0 1440 250"><g mask="url(&quot;#SvgjsMask1003&quot;)" fill="none"><path d="M48 250L298 0L427 0L177 250z" fill="url(&quot;#SvgjsLinearGradient1004&quot;)"></path><path d="M277.6 250L527.6 0L622.1 0L372.1 250z" fill="url(&quot;#SvgjsLinearGradient1004&quot;)"></path><path d="M505.20000000000005 250L755.2 0L866.2 0L616.2 250z" fill="url(&quot;#SvgjsLinearGradient1004&quot;)"></path><path d="M747.8000000000001 250L997.8000000000001 0L1291.8000000000002 0L1041.8000000000002 250z" fill="url(&quot;#SvgjsLinearGradient1004&quot;)"></path><path d="M1396 250L1146 0L802.5 0L1052.5 250z" fill="url(&quot;#SvgjsLinearGradient1005&quot;)"></path><path d="M1192.4 250L942.4000000000001 0L802.9000000000001 0L1052.9 250z" fill="url(&quot;#SvgjsLinearGradient1005&quot;)"></path><path d="M948.8 250L698.8 0L377.79999999999995 0L627.8 250z" fill="url(&quot;#SvgjsLinearGradient1005&quot;)"></path><path d="M724.1999999999999 250L474.19999999999993 0L207.19999999999993 0L457.19999999999993 250z" fill="url(&quot;#SvgjsLinearGradient1005&quot;)"></path><path d="M1309.4741622022927 250L1440 119.47416220229272L1440 250z" fill="url(&quot;#SvgjsLinearGradient1004&quot;)"></path><path d="M0 250L130.52583779770728 250L 0 119.47416220229272z" fill="url(&quot;#SvgjsLinearGradient1005&quot;)"></path></g><defs><mask id="SvgjsMask1003"><rect width="1440" height="250" fill="#ffffff"></rect></mask><linearGradient x1="0%" y1="100%" x2="100%" y2="0%" id="SvgjsLinearGradient1004"><stop stop-color="rgba(15, 70, 185, 0.2)" offset="0"></stop><stop stop-opacity="0" stop-color="rgba(15, 70, 185, 0.2)" offset="0.66"></stop></linearGradient><linearGradient x1="100%" y1="100%" x2="0%" y2="0%" id="SvgjsLinearGradient1005"><stop stop-color="rgba(15, 70, 185, 0.2)" offset="0"></stop><stop stop-opacity="0" stop-color="rgba(15, 70, 185, 0.2)" offset="0.66"></stop></linearGradient></defs></svg>