<?xml version="1.0" encoding="UTF-8" standalone="no"?>
<!DOCTYPE svg PUBLIC "-//W3C//DTD SVG 1.1//EN" "http://www.w3.org/Graphics/SVG/1.1/DTD/svg11.dtd">
<svg xmlns="http://www.w3.org/2000/svg" version="1.1" viewBox="0.00 0.00 162.00 170.00">
  <path stroke="#689AFF" d="
    M 123.26 138.93
    Q 123.44 119.68 123.53 100.25
    Q 123.57 88.93 123.78 77.62
    Q 123.79 77.18 123.29 77.27
    Q 123.11 77.30 123.03 77.46
    Q 122.59 78.39 123.21 77.56"
  />
  <path fill="#689AFF" d="
    M 3.13 2.13
    C 25.04 18.07 46.73 34.32 68.72 50.15
    A 1.22 1.22 0.0 0 1 68.77 52.08
    L 38.09 77.07
    A 0.68 0.68 0.0 0 1 37.23 77.07
    L 2.48 49.11
    A 3.47 3.45 19.5 0 1 1.19 46.42
    L 1.12 2.61
    A 0.99 0.97 -28.2 0 1 1.29 2.06
    Q 1.97 1.06 2.62 1.66
    Q 3.09 2.10 3.13 2.13
    Z"
  />
  <path fill="#689AFF" d="
    M 123.26 138.93
    Q 123.44 119.68 123.53 100.25
    Q 123.57 88.93 123.78 77.62
    Q 123.79 77.18 123.29 77.27
    Q 123.11 77.30 123.03 77.46
    Q 122.59 78.39 123.21 77.56
    L 82.64 107.59
    Q 82.19 107.92 81.74 107.60
    L 50.56 84.73
    A 0.73 0.73 0.0 0 1 50.56 83.56
    L 159.77 1.85
    A 0.43 0.43 0.0 0 1 160.45 2.14
    Q 160.92 6.17 160.91 10.25
    C 160.83 62.40 160.95 114.54 160.77 166.69
    A 0.60 0.60 0.0 0 1 159.80 167.16
    L 123.26 138.93
    Z"
  />
  <path fill="#689AFF" d="
    M 2.77 170.00
    L 1.89 170.00
    L 1.14 68.56
    A 0.58 0.58 0.0 0 1 2.07 68.10
    L 69.33 119.16
    A 0.39 0.38 44.9 0 1 69.34 119.77
    L 2.77 170.00
    Z"
  />
  <path fill="#689AFF" fill-opacity="0.996" d="
    M 123.26 138.93
    L 123.21 77.56
    Q 122.59 78.39 123.03 77.46
    Q 123.11 77.30 123.29 77.27
    Q 123.79 77.18 123.78 77.62
    Q 123.57 88.93 123.53 100.25
    Q 123.44 119.68 123.26 138.93
    Z"
  />
</svg>
