<?xml version="1.0" standalone="no"?><!DOCTYPE svg PUBLIC "-//W3C//DTD SVG 1.1//EN" "http://www.w3.org/Graphics/SVG/1.1/DTD/svg11.dtd"><svg t="1700908754919" class="icon" viewBox="0 0 1024 1024" version="1.1" xmlns="http://www.w3.org/2000/svg" p-id="1645" xmlns:xlink="http://www.w3.org/1999/xlink" width="48" height="48"><path d="M339.724315 4.592091a34.099379 34.099379 0 0 1 34.192462 0l291.597781 169.007567c10.549398 6.143473 17.096231 17.468563 17.096231 29.724481v338.015134c0 12.255919-6.515805 23.581008-17.096231 29.724481l-291.597781 169.007567a34.099379 34.099379 0 0 1-34.192462 0L48.095506 571.063754A34.3476 34.3476 0 0 1 31.030303 541.339273V203.324139c0-12.255919 6.515805-23.581008 17.096231-29.724481L339.755343 4.592091z" fill="#C1D0FF" p-id="1646"></path><path d="M745.255598 97.085492a29.879619 29.879619 0 0 1 29.848592 0l202.858725 116.974211A29.786536 29.786536 0 0 1 992.88721 239.843674v233.948422a29.786536 29.786536 0 0 1-14.924295 25.814998l-202.858725 116.974211a29.910647 29.910647 0 0 1-29.848592 0l-202.858724-116.974211A29.786536 29.786536 0 0 1 527.472578 473.792096V239.843674a29.786536 29.786536 0 0 1 14.924296-25.814998l202.858724-116.974211zM513.510139 531.224262a27.707684 27.707684 0 0 1 27.924878 0l189.268617 110.086074c8.656712 5.026478 13.962439 14.272715 13.962439 24.294644v220.172149a28.080016 28.080016 0 0 1-13.962439 24.294644l-189.268617 110.086074a27.676657 27.676657 0 0 1-27.893851 0L324.210494 910.040745A28.080016 28.080016 0 0 1 310.279083 885.777129v-220.172149c0-10.021928 5.305727-19.299193 13.931411-24.294644l189.330672-110.086074z" fill="#0F62FE" p-id="1647"></path><path d="M339.724315 4.592091a34.099379 34.099379 0 0 1 34.192462 0l291.597781 169.007567c10.549398 6.143473 17.096231 17.468563 17.096231 29.724481v338.015134c0 12.255919-6.515805 23.581008-17.096231 29.724481l-291.597781 169.007567a34.099379 34.099379 0 0 1-34.192462 0L48.095506 571.063754A34.3476 34.3476 0 0 1 31.030303 541.339273V203.324139c0-12.255919 6.515805-23.581008 17.096231-29.724481L339.755343 4.592091z" fill="#E8E8E8" fill-opacity=".1" p-id="1648"></path><path d="M648.418327 203.324139v338.015134L356.820546 710.34684l-291.597781-169.007567V203.324139L356.820546 34.316572l291.597781 169.007567zM373.885749 4.592091a34.099379 34.099379 0 0 0-34.192462 0L48.095506 173.599658A34.3476 34.3476 0 0 0 31.030303 203.324139v338.015134c0 12.255919 6.515805 23.581008 17.096231 29.724481l291.597781 169.007567c10.549398 6.112446 23.612036 6.112446 34.192462 0l291.597781-169.007567c10.549398-6.143473 17.096231-17.468563 17.096231-29.724481V203.324139c0-12.255919-6.515805-23.581008-17.096231-29.724481L373.885749 4.592091z" fill="#FFFFFF" fill-opacity=".6" p-id="1649"></path><path d="M339.2589 171.831082a17.592673 17.592673 0 0 1 35.123291 0l18.616586 194.450234c0.52747 5.274699 3.16482 10.083984 7.260468 13.186748l150.763313 114.181723c17.251369 13.093665 1.830631 41.204709-17.561645 32.020527l-169.410927-80.268511a16.879037 16.879037 0 0 0-14.489908 0l-169.379899 80.268511c-19.392276 9.184182-34.813015-18.926862-17.561646-32.020527L313.381847 379.468064a18.771724 18.771724 0 0 0 7.260468-13.186748l18.616585-194.450234z" fill="#FFFFFF" p-id="1650"></path></svg>