<?xml version="1.0" standalone="no"?><!DOCTYPE svg PUBLIC "-//W3C//DTD SVG 1.1//EN" "http://www.w3.org/Graphics/SVG/1.1/DTD/svg11.dtd"><svg t="1700908743849" class="icon" viewBox="0 0 1427 1024" version="1.1" xmlns="http://www.w3.org/2000/svg" p-id="1481" xmlns:xlink="http://www.w3.org/1999/xlink" width="66.890625" height="48"><path d="M0 93.090909a93.090909 93.090909 0 0 1 93.090909-93.090909h961.939394a93.090909 93.090909 0 0 1 93.090909 93.090909v115.432727H0V93.090909z m0 184.940606h1148.121212V775.757576a93.090909 93.090909 0 0 1-93.090909 93.090909H93.090909a93.090909 93.090909 0 0 1-93.090909-93.090909V278.031515z m113.043394 312.785455a31.030303 31.030303 0 0 0-31.030303 31.030303v111.709091a31.030303 31.030303 0 0 0 31.030303 31.030303h211.316364a31.030303 31.030303 0 0 0 31.030303-31.030303v-111.709091a31.030303 31.030303 0 0 0-31.030303-31.030303h-211.316364z" fill="#C1D0FF" p-id="1482"></path><path d="M1427.393939 519.757576c0 107.985455-58.026667 202.752-145.314909 256.310303l109.940364 187.578182c15.763394 26.903273-4.158061 60.353939-35.902061 60.353939H873.720242c-30.72 0-50.765576-31.557818-36.988121-58.368l101.779394-198.438788C858.794667 712.424727 806.787879 622.033455 806.787879 519.757576 806.787879 352.659394 945.710545 217.212121 1117.090909 217.212121s310.30303 135.447273 310.30303 302.545455z m-173.676606 87.133091c2.01697-5.585455-1.520485-11.481212-7.385212-13.032728a11.884606 11.884606 0 0 0-13.963636 7.447273 120.025212 120.025212 0 0 1-42.077091 54.923636 124.990061 124.990061 0 0 1-77.079273 23.552 124.617697 124.617697 0 0 1-75.403636-28.237575 119.466667 119.466667 0 0 1-38.477576-57.406061 11.822545 11.822545 0 0 0-13.405091-8.285091c-5.957818 1.148121-9.867636 6.826667-8.22303 12.536243a140.877576 140.877576 0 0 0 45.893818 69.507878 146.959515 146.959515 0 0 0 88.901818 33.326546 147.362909 147.362909 0 0 0 90.918788-27.772121 141.498182 141.498182 0 0 0 50.300121-66.56z" fill="#0F62FE" p-id="1483"></path><path d="M0 93.090909a93.090909 93.090909 0 0 1 93.090909-93.090909h961.939394a93.090909 93.090909 0 0 1 93.090909 93.090909v115.432727H0V93.090909z m0 184.940606h1148.121212V775.757576a93.090909 93.090909 0 0 1-93.090909 93.090909H93.090909a93.090909 93.090909 0 0 1-93.090909-93.090909V278.031515z m113.043394 312.785455a31.030303 31.030303 0 0 0-31.030303 31.030303v111.709091a31.030303 31.030303 0 0 0 31.030303 31.030303h211.316364a31.030303 31.030303 0 0 0 31.030303-31.030303v-111.709091a31.030303 31.030303 0 0 0-31.030303-31.030303h-211.316364z" fill="#E8E8E8" fill-opacity=".1" p-id="1484"></path><path d="M93.090909 31.030303h961.939394a62.060606 62.060606 0 0 1 62.060606 62.060606v84.402424H31.030303V93.090909a62.060606 62.060606 0 0 1 62.060606-62.060606z m1055.030303 62.060606a93.090909 93.090909 0 0 0-93.090909-93.090909H93.090909a93.090909 93.090909 0 0 0-93.090909 93.090909v115.432727h1148.121212V93.090909zM0 278.031515h1148.121212V775.757576a93.090909 93.090909 0 0 1-93.090909 93.090909H93.090909a93.090909 93.090909 0 0 1-93.090909-93.090909V278.031515z m1117.090909 31.030303H31.030303V775.757576a62.060606 62.060606 0 0 0 62.060606 62.060606h961.939394a62.060606 62.060606 0 0 0 62.060606-62.060606V309.061818zM50.982788 621.847273a62.060606 62.060606 0 0 1 62.060606-62.060606h211.316364a62.060606 62.060606 0 0 1 62.060606 62.060606v111.709091a62.060606 62.060606 0 0 1-62.060606 62.060606h-211.316364a62.060606 62.060606 0 0 1-62.060606-62.060606v-111.709091z m31.030303 0v111.709091a31.030303 31.030303 0 0 0 31.030303 31.030303h211.316364a31.030303 31.030303 0 0 0 31.030303-31.030303v-111.709091a31.030303 31.030303 0 0 0-31.030303-31.030303h-211.316364a31.030303 31.030303 0 0 0-31.030303 31.030303z" fill="#FFFFFF" fill-opacity=".6" p-id="1485"></path><path d="M674.909091 372.363636H589.575758l85.333333 201.69697h-42.666667v40.339394h85.333334v40.339394h-85.333334v40.339394h85.333334V775.757576h85.333333v-80.678788h85.333333v-40.339394h-85.333333v-40.339394h85.333333v-40.339394H845.575758L930.909091 372.363636h-85.333333l-85.333334 201.69697-85.333333-201.69697z" fill="#FFFFFF" p-id="1486"></path></svg>