<?xml version="1.0" standalone="no"?><!DOCTYPE svg PUBLIC "-//W3C//DTD SVG 1.1//EN" "http://www.w3.org/Graphics/SVG/1.1/DTD/svg11.dtd"><svg t="1700909274226" class="icon" viewBox="0 0 1385 1024" version="1.1" xmlns="http://www.w3.org/2000/svg" p-id="1807" xmlns:xlink="http://www.w3.org/1999/xlink" width="64.921875" height="48"><path d="M0 399.450353a30.117647 30.117647 0 0 1 37.014588-29.334588l725.232941 170.646588a30.117647 30.117647 0 0 0 11.595295 0.421647l531.57647-83.937882a30.117647 30.117647 0 0 1 34.816 29.756235v276.058353a30.117647 30.117647 0 0 1-18.432 27.76847L778.721882 1019.482353a30.117647 30.117647 0 0 1-21.684706 0.632471L20.058353 760.018824A30.117647 30.117647 0 0 1 0 731.648v-332.197647z" fill="#C1D0FF" p-id="1808"></path><path d="M496.519529 60.506353a30.117647 30.117647 0 0 0-32.075294 19.064471L451.764706 112.64l358.279529 47.525647a30.117647 30.117647 0 0 1 15.902118 7.198118L906.541176 237.929412a30.117647 30.117647 0 0 1 9.426824 29.81647l-126.795294 518.02353 126.795294 39.845647 34.243765 8.011294a30.117647 30.117647 0 0 0 36.141176-22.166588l140.438588-573.83153a30.117647 30.117647 0 0 0-9.426823-29.81647l-80.624941-70.595765a30.117647 30.117647 0 0 0-15.872-7.198118l-524.348236-69.571764z" fill="#0F62FE" p-id="1809"></path><path d="M737.460706 0.271059a30.117647 30.117647 0 0 0-32.075294 19.06447L692.705882 52.404706l358.27953 47.525647a30.117647 30.117647 0 0 1 15.902117 7.198118L1147.482353 177.694118a30.117647 30.117647 0 0 1 9.426823 29.81647l-126.795294 518.02353 126.795294 39.845647 34.273883 8.011294a30.117647 30.117647 0 0 0 36.080941-22.166588l140.468706-573.83153a30.117647 30.117647 0 0 0-9.426824-29.81647l-80.624941-70.595765a30.117647 30.117647 0 0 0-15.872-7.198118L737.490824 0.240941z" fill="#0F62FE" p-id="1810"></path><path d="M238.772706 93.485176a30.117647 30.117647 0 0 0-32.105412 19.064471l-34.635294 90.352941L598.136471 282.352941a19.124706 19.124706 0 1 1-7.017412 37.586824L158.117647 239.194353 11.444706 621.869176a30.117647 30.117647 0 0 0 19.094588 39.514353l627.651765 197.270589 34.273882 7.981176a30.117647 30.117647 0 0 0 36.111059-22.166588l140.438588-573.83153a30.117647 30.117647 0 0 0-9.396706-29.81647l-80.655058-70.595765a30.117647 30.117647 0 0 0-15.872-7.198117l-524.348236-69.571765z" fill="#0F62FE" p-id="1811"></path><path d="M0 399.36a30.117647 30.117647 0 0 1 37.014588-29.304471l725.232941 170.646589c3.794824 0.903529 7.740235 1.054118 11.595295 0.421647l531.57647-83.937883a30.117647 30.117647 0 0 1 34.816 29.756236v276.058353a30.117647 30.117647 0 0 1-18.432 27.76847l-543.081412 228.653177a30.117647 30.117647 0 0 1-21.684706 0.63247L20.058353 759.958588A30.117647 30.117647 0 0 1 0 731.557647V399.36z" fill="#E8E8E8" fill-opacity=".1" p-id="1812"></path><path d="M1310.117647 763.000471l-543.081412 228.653176L30.117647 731.557647V399.36l725.232941 170.646588a60.235294 60.235294 0 0 0 23.190588 0.873412l531.576471-83.937882v276.058353zM37.014588 370.055529A30.117647 30.117647 0 0 0 0 399.36v332.197647a30.117647 30.117647 0 0 0 20.088471 28.400941l736.918588 260.096a30.117647 30.117647 0 0 0 21.714823-0.63247l543.081412-228.653177a30.117647 30.117647 0 0 0 18.432-27.76847v-276.058353a30.117647 30.117647 0 0 0-34.816-29.756236l-531.57647 83.937883a30.057412 30.057412 0 0 1-11.595295-0.421647l-725.232941-170.646589z" fill="#FFFFFF" fill-opacity=".6" p-id="1813"></path><path d="M357.074824 703.819294a30.117647 30.117647 0 0 0 17.257411-57.735529l-117.398588-35.117177a30.117647 30.117647 0 0 0-17.257412 57.73553l117.398589 35.117176z m103.845647-31.834353a30.117647 30.117647 0 1 0-17.257412 57.705412 30.117647 30.117647 0 0 0 17.257412-57.705412z" fill="#FFFFFF" p-id="1814"></path><path d="M1170.642824 639.126588a30.117647 30.117647 0 1 0 13.312 58.729412 30.117647 30.117647 0 0 0-13.312-58.729412z m-74.782118 78.757647a30.117647 30.117647 0 1 0-13.342118-58.729411l-119.506823 27.105882a30.117647 30.117647 0 0 0 13.342117 58.729412l119.506824-27.105883z" fill="#FFFFFF" p-id="1815"></path></svg>