<?xml version="1.0" encoding="UTF-8"?>
<svg id="_图层_1" data-name="图层 1" xmlns="http://www.w3.org/2000/svg" viewBox="0 0 30 30">
  <defs>
    <style>
      .cls-1 {
        fill: #94b9fd;
      }

      .cls-2 {
        fill: #689aff;
      }
    </style>
  </defs>
  <path class="cls-2" d="M9.72,15.49c0-1.78,1.06-3.3,2.58-3.98V5.65C7.46,6.5,3.78,10.71,3.78,15.79s3.68,9.3,8.52,10.14v-6.47c-1.52-.68-2.58-2.2-2.58-3.98Z"/>
  <g>
    <path class="cls-1" d="M24.14,13.05H13.02v4.76h4.72c-.78,1.19-2.12,1.99-3.65,1.99-.64,0-1.24-.14-1.79-.39v6.53c.58,.1,1.18,.17,1.79,.17,5.37,0,9.77-4.1,10.26-9.35v-3.71h-.21Z"/>
    <path class="cls-1" d="M15.55,11.49l4.81-3.84c-1.74-1.35-3.92-2.16-6.29-2.16-.61,0-1.2,.06-1.77,.16v5.95c.54-.24,1.14-.39,1.77-.39,.52,0,1.01,.11,1.48,.28Z"/>
  </g>
</svg>