<?xml version="1.0" encoding="UTF-8"?>
<svg id="_图层_1" data-name="图层 1" xmlns="http://www.w3.org/2000/svg" viewBox="0 0 22 22">
  <defs>
    <style>
      .cls-1 {
        fill: #94b9fd;
      }

      .cls-2 {
        fill: #689aff;
      }
    </style>
  </defs>
  <path class="cls-1" d="M14.89,9.94c.64-.54,1.04-1.29,1.03-2.11-.01-1.68-1.69-3.04-3.75-3.04h-.08V2.51h-1.5v2.28s-.99,0-.99,0l-.02-2.28h-1.49l.02,2.28h-2.71v1.48h1.52l.03,3.09v1.51s.04,3.69,.04,3.69h-1.52v1.49h2.72l.02,2.52h1.49l-.02-2.52h1.01l.02,2.52h1.48v-2.52s.47,0,.47,0c2.23,0,4.02-1.5,4-3.35,0-1.14-.71-2.15-1.77-2.76Zm-5.28-3.19h2.14c.84,0,1.52,.66,1.53,1.46,0,.8-.67,1.46-1.51,1.46h-2.14l-.02-2.92Zm2.59,7.59h-2.53l-.03-3.26h2.53c.99,0,1.8,.73,1.81,1.63s-.79,1.63-1.78,1.63Z"/>
  <path class="cls-2" d="M13.98,12.71c.01,.9-.79,1.63-1.78,1.63h-2.53l-.03-3.26h2.53c.99,0,1.8,.73,1.81,1.63Z"/>
  <path class="cls-2" d="M13.28,8.21c0,.8-.67,1.46-1.51,1.46h-2.14l-.02-2.92h2.14c.84,0,1.52,.66,1.53,1.46Z"/>
</svg>