<?xml version="1.0" encoding="UTF-8"?>
<svg id="_图层_1" data-name="图层 1" xmlns="http://www.w3.org/2000/svg" viewBox="0 0 22 22">
  <defs>
    <style>
      .cls-1 {
        fill: #94b9fd;
      }

      .cls-2 {
        fill: #689aff;
      }
    </style>
  </defs>
  <rect class="cls-1" x="3" y="9.4" width="1.62" height="9.6"/>
  <rect class="cls-1" x="5.12" y="7.28" width="1.52" height="5.75" transform="translate(16.04 4.28) rotate(90)"/>
  <rect class="cls-1" x="5.34" y="15.14" width="1.52" height="6.21" transform="translate(24.34 12.14) rotate(90)"/>
  <path class="cls-2" d="M19,3.89v14.22c0,.5-.43,.89-.97,.89H8.02c-.54,0-.98-.39-.98-.89V3.89c0-.49,.44-.89,.98-.89h10.01c.54,0,.97,.4,.97,.89Z"/>
  <path class="cls-1" d="M15.54,14.01c-.43,.4-1.01,.65-1.75,.77v.87h-1.29v-.85c-.57-.07-1.08-.24-1.55-.52s-.82-.63-1.08-1.05l1.05-.57c.16,.27,.38,.5,.66,.68,.28,.18,.58,.3,.92,.36v-2.51c-.48-.13-.89-.28-1.23-.44s-.62-.38-.85-.67c-.23-.28-.34-.65-.34-1.09,0-.57,.22-1.06,.66-1.47,.44-.4,1.03-.66,1.75-.75v-.96h1.29v.97c1,.15,1.76,.65,2.29,1.48l-1.04,.57c-.32-.46-.73-.77-1.25-.91v2.45c.48,.12,.89,.26,1.23,.41,.34,.16,.62,.38,.83,.66,.22,.28,.33,.64,.33,1.08,0,.6-.21,1.1-.64,1.5Zm-3.87-4.43c.18,.17,.46,.31,.82,.43v-2.14c-.33,.08-.6,.21-.8,.39-.2,.18-.3,.4-.3,.65,0,.27,.09,.49,.27,.66Zm2.12,4.08c.33-.08,.59-.22,.78-.4s.28-.41,.28-.68c0-.25-.09-.46-.26-.62-.17-.16-.44-.3-.8-.43v2.13Z"/>
</svg>