<?xml version="1.0" encoding="UTF-8"?>
<svg id="_图层_1" data-name="图层 1" xmlns="http://www.w3.org/2000/svg" viewBox="0 0 22 22">
  <defs>
    <style>
      .cls-1 {
        fill: #94b9fd;
      }

      .cls-2 {
        fill: #689aff;
      }
    </style>
  </defs>
  <path class="cls-1" d="M7.15,18.14v-.43h-.9c-.96,0-1.74-.73-1.74-1.62v-3.78c0-.89,.78-1.62,1.74-1.62h.9v-1.29h-1.77c-1.32,0-2.38,.98-2.38,2.21v5.18c0,1.22,1.06,2.21,2.38,2.21h2.7c-.51,0-.93-.38-.93-.86Z"/>
  <path class="cls-2" d="M19,3.89v14.22c0,.5-.43,.89-.96,.89H8.12c-.53,0-.97-.39-.97-.89V3.89c0-.49,.44-.89,.97-.89h9.92c.53,0,.96,.4,.96,.89Z"/>
  <ellipse class="cls-1" cx="13.07" cy="9.4" rx="3.29" ry="3.11"/>
  <rect class="cls-1" x="9.69" y="15.67" width="6.59" height=".78"/>
</svg>