<?xml version="1.0" encoding="UTF-8"?>
<svg id="_图层_1" data-name="图层 1" xmlns="http://www.w3.org/2000/svg" viewBox="0 0 22 22">
  <defs>
    <style>
      .cls-1 {
        fill: #94b9fd;
      }

      .cls-2 {
        fill: #689aff;
      }
    </style>
  </defs>
  <circle class="cls-1" cx="10.93" cy="6.45" r="3.8"/>
  <path class="cls-2" d="M6.66,2.61c-1.31,.78-2.19,2.21-2.19,3.85s.88,3.07,2.19,3.85v-1.75c-.51-.55-.82-1.29-.82-2.1s.31-1.55,.82-2.1v-1.75Z"/>
  <path class="cls-2" d="M15.42,2.58v1.71c.54,.55,.88,1.32,.88,2.16s-.34,1.61-.88,2.16v1.72c1.34-.77,2.25-2.22,2.25-3.88s-.9-3.11-2.25-3.87Z"/>
  <path class="cls-1" d="M9.48,11.49h3.52c2.2,0,3.98,1.78,3.98,3.98v3.95H5.5v-3.95c0-2.2,1.78-3.98,3.98-3.98Z"/>
  <path class="cls-2" d="M2.33,15.47v3.95h1.37v-3.95c0-1.08,.52-2.03,1.32-2.64v-1.59c-1.59,.74-2.69,2.35-2.69,4.22Z"/>
  <path class="cls-2" d="M16.98,11.25v1.59c.8,.6,1.32,1.55,1.32,2.64v3.95s1.37,0,1.37,0v-3.95c0-1.87-1.1-3.48-2.69-4.22Z"/>
</svg>