<?xml version="1.0" encoding="UTF-8"?>
<svg id="_图层_1" data-name="图层 1" xmlns="http://www.w3.org/2000/svg" viewBox="0 0 22 22">
  <defs>
    <style>
      .cls-1, .cls-2 {
        fill: #94b9fd;
      }

      .cls-2 {
        stroke: #689aff;
        stroke-miterlimit: 10;
        stroke-width: .77px;
      }

      .cls-3 {
        fill: #689aff;
      }
    </style>
  </defs>
  <path class="cls-1" d="M7.62,4.1L1.82,15.64c-1.07,2.13,.48,4.63,2.86,4.63h11.59c2.38,0,3.93-2.51,2.86-4.63L13.34,4.1c-1.18-2.35-4.54-2.35-5.72,0Z"/>
  <ellipse class="cls-2" cx="10.77" cy="5.08" rx="5.46" ry="2.8"/>
  <path class="cls-3" d="M12.88,14.2h-1.58v-1.14h1.58c.29,0,.53-.27,.53-.59s-.24-.59-.53-.59h-1.28l1.26-1.43c.21-.23,.21-.61,0-.84s-.54-.23-.74,0l-1.35,1.52-1.35-1.52c-.21-.23-.54-.23-.74,0s-.21,.61,0,.84l1.26,1.43h-1.28c-.29,0-.53,.27-.53,.59s.24,.59,.53,.59h1.58v1.14h-1.58c-.29,0-.53,.27-.53,.59s.24,.59,.53,.59h1.58v1.85c0,.33,.24,.59,.53,.59s.53-.27,.53-.59v-1.85h1.58c.29,0,.53-.27,.53-.59s-.24-.59-.53-.59Z"/>
</svg>