<?xml version="1.0" standalone="no"?><!DOCTYPE svg PUBLIC "-//W3C//DTD SVG 1.1//EN" "http://www.w3.org/Graphics/SVG/1.1/DTD/svg11.dtd"><svg t="1700909299791" class="icon" viewBox="0 0 1303 1024" version="1.1" xmlns="http://www.w3.org/2000/svg" p-id="1974" xmlns:xlink="http://www.w3.org/1999/xlink" width="61.078125" height="48"><path d="M0 93.090909a93.090909 93.090909 0 0 1 93.090909-93.090909h1117.090909a93.090909 93.090909 0 0 1 93.090909 93.090909v589.575758a93.090909 93.090909 0 0 1-93.090909 93.090909H93.090909a93.090909 93.090909 0 0 1-93.090909-93.090909V93.090909z" fill="#C1D0FF" p-id="1975"></path><path d="M217.212121 341.333333a93.090909 93.090909 0 0 1 93.090909-93.090909h682.666667a93.090909 93.090909 0 0 1 93.090909 93.090909v426.201212l-234.030545-168.308363c-27.834182-20.014545-68.980364-15.608242-91.942788 9.836606l-156.361697 173.273212a57.561212 57.561212 0 0 0-18.618182-21.969455l-111.429818-80.182303c-27.834182-20.014545-68.980364-15.608242-91.942788 9.836606L217.212121 872.385939V341.333333z m614.027637 280.917334L1086.060606 805.515636V930.909091a93.090909 93.090909 0 0 1-93.090909 93.090909H430.328242l163.622788-181.310061c3.909818-4.344242 7.043879-9.029818 9.402182-13.901575l181.930667-201.603879a35.467636 35.467636 0 0 1 45.955879-4.933818z m-256.465455 192.201697L385.706667 1024H310.30303a93.090909 93.090909 0 0 1-93.090909-93.090909v-12.505212l189.688243-210.261334a35.467636 35.467636 0 0 1 45.986909-4.902787l111.460848 80.151272a27.058424 27.058424 0 0 1 10.426182 31.030303zM915.393939 527.515152a108.606061 108.606061 0 1 0 0-217.212122 108.606061 108.606061 0 0 0 0 217.212122z m0-49.152a59.454061 59.454061 0 1 1 0-118.908122 59.454061 59.454061 0 0 1 0 118.908122z" fill="#0B77FF" p-id="1976"></path><path d="M0 93.090909a93.090909 93.090909 0 0 1 93.090909-93.090909h1117.090909a93.090909 93.090909 0 0 1 93.090909 93.090909v589.575758a93.090909 93.090909 0 0 1-93.090909 93.090909H93.090909a93.090909 93.090909 0 0 1-93.090909-93.090909V93.090909z" fill="#E8E8E8" fill-opacity=".1" p-id="1977"></path><path d="M1210.181818 31.030303a62.060606 62.060606 0 0 1 62.060606 62.060606v589.575758a62.060606 62.060606 0 0 1-62.060606 62.060606H93.090909a62.060606 62.060606 0 0 1-62.060606-62.060606V93.090909a62.060606 62.060606 0 0 1 62.060606-62.060606h1117.090909zM93.090909 0a93.090909 93.090909 0 0 0-93.090909 93.090909v589.575758a93.090909 93.090909 0 0 0 93.090909 93.090909h1117.090909a93.090909 93.090909 0 0 0 93.090909-93.090909V93.090909a93.090909 93.090909 0 0 0-93.090909-93.090909H93.090909z" fill="#FFFFFF" fill-opacity=".6" p-id="1978"></path><path d="M1117.090909 180.999758v103.45503H186.181818V180.999758h930.909091zM186.181818 155.151515c-17.128727 0-31.030303 11.574303-31.030303 25.848243v103.45503c0 14.273939 13.901576 25.848242 31.030303 25.848242h930.909091c17.128727 0 31.030303-11.574303 31.030303-25.848242V180.999758c0-14.273939-13.901576-25.848242-31.030303-25.848243H186.181818z" fill="#FFFFFF" p-id="1979"></path><path d="M1148.121212 589.575758a62.060606 62.060606 0 1 1-124.121212 0 62.060606 62.060606 0 0 1 124.121212 0z" fill="#FFFFFF" p-id="1980"></path></svg>