<?xml version="1.0" standalone="no"?><!DOCTYPE svg PUBLIC "-//W3C//DTD SVG 1.1//EN" "http://www.w3.org/Graphics/SVG/1.1/DTD/svg11.dtd"><svg t="1700908727788" class="icon" viewBox="0 0 1264 1024" version="1.1" xmlns="http://www.w3.org/2000/svg" p-id="1319" xmlns:xlink="http://www.w3.org/1999/xlink" width="59.25" height="48"><path d="M0 333.884235a90.352941 90.352941 0 0 1 90.352941-90.352941h1084.235294a90.352941 90.352941 0 0 1 90.352941 90.352941v271.058824h-256a105.411765 105.411765 0 1 0 0 210.823529H1264.941176v90.352941a90.352941 90.352941 0 0 1-90.352941 90.352942H90.352941a90.352941 90.352941 0 0 1-90.352941-90.352942v-572.235294z m1008.941176 421.647059a45.176471 45.176471 0 1 0 0-90.352941 45.176471 45.176471 0 0 0 0 90.352941z" fill="#C1D0FF" p-id="1320"></path><path d="M90.352941 190.343529a60.235294 60.235294 0 0 1 66.861177-59.843764l963.764706 107.068235A60.235294 60.235294 0 0 1 1174.588235 297.441882v187.030589a60.235294 60.235294 0 0 1-60.235294 60.235294H150.588235a60.235294 60.235294 0 0 1-60.235294-60.235294V190.343529zM140.649412 83.275294A90.352941 90.352941 0 0 1 249.615059 13.251765l886.573176 205.914353L139.264 90.051765l1.385412-6.746353z" fill="#0B77FF" p-id="1321"></path><path d="M0 331.294118a90.352941 90.352941 0 0 1 90.352941-90.352942h1084.235294a90.352941 90.352941 0 0 1 90.352941 90.352942v271.058823h-256a105.411765 105.411765 0 1 0 0 210.82353H1264.941176v90.352941a90.352941 90.352941 0 0 1-90.352941 90.352941H90.352941a90.352941 90.352941 0 0 1-90.352941-90.352941V331.294118z" fill="#E8E8E8" fill-opacity=".1" p-id="1322"></path><path d="M90.352941 271.058824h1084.235294a60.235294 60.235294 0 0 1 60.235294 60.235294v240.941176h-225.882353a135.529412 135.529412 0 1 0 0 271.058824H1234.823529v60.235294a60.235294 60.235294 0 0 1-60.235294 60.235294H90.352941a60.235294 60.235294 0 0 1-60.235294-60.235294V331.294118a60.235294 60.235294 0 0 1 60.235294-60.235294z m1174.588235 60.235294a90.352941 90.352941 0 0 0-90.352941-90.352942H90.352941a90.352941 90.352941 0 0 0-90.352941 90.352942v572.235294a90.352941 90.352941 0 0 0 90.352941 90.352941h1084.235294a90.352941 90.352941 0 0 0 90.352941-90.352941v-90.352941h-256a105.411765 105.411765 0 1 1 0-210.82353H1264.941176v-271.058823z" fill="#FFFFFF" fill-opacity=".6" p-id="1323"></path><path d="M353.882353 424.237176H271.058824l82.823529 195.764706h-41.411765v39.152942h82.82353v39.152941h-82.82353v39.152941h82.82353v78.305882h82.823529v-78.305882h82.823529v-39.152941h-82.823529v-39.152941h82.823529v-39.152942H519.529412l82.823529-195.764706h-82.823529l-82.82353 195.764706-82.823529-195.764706z" fill="#FFFFFF" p-id="1324"></path></svg>