<?xml version="1.0" encoding="UTF-8"?>
<svg id="_图层_1" data-name="图层 1" xmlns="http://www.w3.org/2000/svg" viewBox="0 0 22 22">
  <defs>
    <style>
      .cls-1 {
        fill: #94b9fd;
      }

      .cls-2 {
        fill: #689aff;
      }
    </style>
  </defs>
  <circle class="cls-1" cx="12.45" cy="5.91" r="4.11"/>
  <path class="cls-1" d="M13.43,17.19c.4-2.07,2.05-3.75,4.1-4.22,1.32-.31,2.57-.12,3.64,.4-.72-1.4-2.16-2.36-3.84-2.36h-7.93c-3.29,0-5.96,2.67-5.96,5.96v3.74c0,1.22,.99,2.21,2.21,2.21H15.85c-1.8-1.15-2.89-3.33-2.42-5.72Z"/>
  <path class="cls-2" d="M23.44,19.33v-1.93h-.79c-.08-.28-.18-.54-.32-.78l.6-.6-1.36-1.36-.56,.56c-.29-.18-.61-.31-.94-.4v-.79h-1.93v.79c-.34,.09-.66,.23-.96,.41l-.55-.55-1.36,1.36,.59,.59c-.13,.24-.24,.5-.31,.77h-.79v1.93h.79c.09,.34,.23,.65,.4,.94l-.55,.55,1.36,1.36,.58-.58c.29,.16,.59,.28,.92,.36v.8h1.93v-.88c.22-.07,.43-.16,.64-.27l.59,.59,1.36-1.36-.55-.55c.18-.29,.32-.61,.41-.96h.79Zm-2.22-.96c0,1.17-.95,2.11-2.11,2.11s-2.11-.95-2.11-2.11,.95-2.11,2.11-2.11,2.11,.95,2.11,2.11Z"/>
</svg>