<?xml version="1.0" encoding="UTF-8"?>
<svg id="_图层_1" data-name="图层 1" xmlns="http://www.w3.org/2000/svg" viewBox="0 0 22 22">
  <defs>
    <style>
      .cls-1 {
        fill: #94b9fd;
      }

      .cls-2 {
        fill: #689aff;
      }
    </style>
  </defs>
  <rect class="cls-1" x="2.14" y="3.52" width="17.72" height="15.73" rx="2.31" ry="2.31"/>
  <path class="cls-2" d="M14.44,12.33c.13,.11,.18,.26,.18,.44,0,.2-.06,.34-.18,.47-.13,.11-.28,.17-.45,.17h-2.35v2.58c0,.17-.06,.33-.18,.46-.13,.13-.28,.2-.46,.2-.17,0-.32-.07-.45-.2-.13-.13-.2-.29-.2-.46v-2.58h-2.33c-.18,0-.33-.06-.46-.17-.11-.13-.18-.28-.18-.47,0-.17,.07-.32,.18-.44,.13-.13,.28-.18,.46-.18h2.33v-.63h-2.33c-.18,0-.33-.06-.46-.17-.11-.13-.18-.29-.18-.47,0-.17,.07-.32,.18-.44,.13-.13,.28-.18,.46-.18h2.15l-2.38-3.04c-.13-.13-.2-.29-.2-.45,0-.17,.07-.32,.2-.46,.11-.11,.26-.17,.44-.17,.18,0,.34,.06,.47,.17l2.3,3.29,2.23-3.22c.14-.13,.29-.2,.46-.2,.18,0,.33,.07,.45,.2,.13,.11,.18,.26,.18,.45,0,.17-.06,.33-.18,.46l-2.33,2.97h2.19c.17,0,.32,.06,.45,.18,.13,.11,.18,.26,.18,.44,0,.18-.06,.34-.18,.47-.13,.11-.28,.17-.45,.17h-2.35v.63h2.35c.17,0,.32,.06,.45,.18Z"/>
</svg>