<?xml version="1.0" encoding="UTF-8"?>
<svg id="_图层_1" data-name="图层 1" xmlns="http://www.w3.org/2000/svg" viewBox="0 0 30 30">
  <defs>
    <style>
      .cls-1 {
        fill: #94b9fd;
      }

      .cls-2 {
        fill: #689aff;
      }
    </style>
  </defs>
  <path class="cls-1" d="M9.33,23.73v-.54h-1.06c-1.14,0-2.05-.91-2.05-2.02v-4.73c0-1.12,.92-2.02,2.05-2.02h1.06v-1.62h-2.09c-1.56,0-2.81,1.23-2.81,2.76v6.47c0,1.52,1.25,2.76,2.81,2.76h3.19c-.6,0-1.1-.48-1.1-1.08Z"/>
  <path class="cls-2" d="M23.33,5.92V23.69c0,.62-.51,1.11-1.14,1.11H10.48c-.63,0-1.15-.49-1.15-1.11V5.92c0-.61,.52-1.11,1.15-1.11h11.72c.63,0,1.14,.5,1.14,1.11Z"/>
  <path class="cls-1" d="M18.72,16.25c-.41,.4-.96,.66-1.66,.78v.88h-1.23v-.86c-.54-.07-1.03-.25-1.47-.53s-.78-.64-1.03-1.07l1-.57c.16,.28,.36,.51,.63,.69,.26,.18,.55,.3,.87,.37v-2.55c-.46-.13-.85-.28-1.17-.45s-.59-.39-.8-.68c-.21-.29-.32-.66-.32-1.11,0-.58,.21-1.08,.63-1.49,.42-.41,.98-.67,1.66-.77v-.98h1.23v.99c.95,.16,1.68,.66,2.17,1.5l-.99,.57c-.3-.47-.7-.78-1.19-.93v2.49c.46,.12,.85,.26,1.17,.42,.32,.16,.59,.38,.79,.67,.21,.29,.31,.65,.31,1.1,0,.61-.2,1.12-.61,1.52Zm-3.68-4.5c.17,.17,.43,.32,.78,.44v-2.17c-.32,.08-.57,.21-.76,.4-.19,.19-.28,.41-.28,.66,0,.28,.09,.5,.26,.67Zm2.01,4.14c.32-.09,.57-.22,.74-.41s.27-.42,.27-.69c0-.26-.08-.46-.25-.63-.17-.16-.42-.31-.76-.44v2.16Z"/>
</svg>