<?xml version="1.0" encoding="UTF-8"?>
<svg id="_图层_1" data-name="图层 1" xmlns="http://www.w3.org/2000/svg" viewBox="0 0 22 22">
  <defs>
    <style>
      .cls-1 {
        fill: #94b9fd;
      }

      .cls-2 {
        fill: #689aff;
      }
    </style>
  </defs>
  <path class="cls-1" d="M7.14,18.84v-.47h-.9c-.96,0-1.74-.8-1.74-1.78v-4.16c0-.98,.78-1.78,1.74-1.78h.9v-1.42h-1.77c-1.32,0-2.38,1.08-2.38,2.43v5.69c0,1.34,1.06,2.43,2.38,2.43h2.71c-.51,0-.93-.42-.93-.95Z"/>
  <path class="cls-2" d="M19.01,3.18v15.63c0,.54-.43,.98-.96,.98H8.11c-.53,0-.97-.43-.97-.98V3.18c0-.54,.44-.98,.97-.98h9.94c.53,0,.96,.44,.96,.98Z"/>
  <rect class="cls-1" x="9.74" y="14.74" width="6.67" height="1.52" rx=".75" ry=".75"/>
  <path class="cls-1" d="M13.08,5.74c-1.91,0-3.46,1.61-3.46,3.59s1.55,3.59,3.46,3.59,3.46-1.61,3.46-3.59-1.55-3.59-3.46-3.59Zm0,5.44c-.99,0-1.79-.83-1.79-1.85s.8-1.85,1.79-1.85,1.79,.83,1.79,1.85-.8,1.85-1.79,1.85Z"/>
</svg>