<?xml version="1.0" encoding="UTF-8"?>
<svg id="_图层_1" data-name="图层 1" xmlns="http://www.w3.org/2000/svg" viewBox="0 0 22 22">
  <defs>
    <style>
      .cls-1 {
        fill: #94b9fd;
      }

      .cls-2 {
        fill: #689aff;
      }
    </style>
  </defs>
  <path class="cls-1" d="M7.15,19.03v-.48h-.9c-.96,0-1.74-.82-1.74-1.82v-4.25c0-1.01,.78-1.82,1.74-1.82h.9v-1.45h-1.77c-1.32,0-2.38,1.11-2.38,2.49v5.83c0,1.37,1.06,2.49,2.38,2.49h2.7c-.51,0-.93-.43-.93-.97Z"/>
  <path class="cls-2" d="M19,3v16c0,.56-.43,1-.96,1H8.12c-.53,0-.97-.44-.97-1V3c0-.55,.44-1,.97-1h9.92c.53,0,.96,.45,.96,1Z"/>
  <rect class="cls-1" x="13.51" y="8.34" width="3.05" height=".87"/>
  <rect class="cls-1" x="13.51" y="10.73" width="3.05" height=".87"/>
  <rect class="cls-1" x="11.52" y="10.33" width="4.81" height=".82" transform="translate(24.66 -3.18) rotate(90)"/>
  <rect class="cls-1" x="8.97" y="6.67" width="4.13" height=".82" transform="translate(18.11 -3.95) rotate(90)"/>
  <polygon class="cls-1" points="11.03 4.27 9.87 6.35 12.19 6.35 11.03 4.27"/>
  <rect class="cls-1" x="8.97" y="14.8" width="4.13" height=".82" transform="translate(-4.18 26.24) rotate(-90)"/>
  <polygon class="cls-1" points="11.03 18.01 12.19 15.93 9.87 15.93 11.03 18.01"/>
</svg>