<?xml version="1.0" encoding="UTF-8"?>
<svg id="_图层_1" data-name="图层 1" xmlns="http://www.w3.org/2000/svg" viewBox="0 0 22 22">
  <defs>
    <style>
      .cls-1 {
        fill: #94b9fd;
        stroke-width: .2px;
      }

      .cls-1, .cls-2 {
        stroke: #fff;
        stroke-miterlimit: 10;
      }

      .cls-2 {
        stroke-width: .19px;
      }

      .cls-2, .cls-3 {
        fill: #689aff;
      }
    </style>
  </defs>
  <polygon class="cls-3" points="8.2 4.75 10.9 2 13.61 4.75 8.2 4.75"/>
  <polygon class="cls-3" points="8.2 17.25 10.9 20 13.61 17.25 8.2 17.25"/>
  <path class="cls-1" d="M8.72,16.43c-1.5,.16-3.06-.36-4.21-1.58-2.02-2.16-2.02-5.69,0-7.86,1.44-1.54,3.51-1.97,5.32-1.32-2.42,.53-4.25,2.83-4.25,5.57,0,2.31,1.29,4.3,3.14,5.19Z"/>
  <path class="cls-2" d="M16.22,11.23c0,2.18-1.27,4.06-3.1,4.91-.67,.32-1.42,.5-2.21,.5s-1.52-.17-2.18-.48c-1.85-.84-3.14-2.73-3.14-4.93,0-2.61,1.83-4.79,4.25-5.3h0c.35-.07,.7-.11,1.06-.11,.4,0,.79,.05,1.17,.13,2.37,.55,4.15,2.7,4.15,5.28Z"/>
  <path class="cls-1" d="M17.48,14.85c-1.19,1.28-2.82,1.79-4.36,1.56,1.83-.89,3.1-2.87,3.1-5.16,0-2.71-1.77-4.98-4.15-5.55,1.83-.69,3.94-.27,5.41,1.29,2.02,2.17,2.02,5.69,0,7.86Z"/>
</svg>