<svg width="160" height="120" viewBox="0 0 160 120" fill="none" xmlns="http://www.w3.org/2000/svg">
<g clip-path="url(#clip0_1269_12380)">
<rect width="160" height="120" fill=""/>
<path d="M140.262 84.3624V64.4668L144.594 67.0603V86.9865L140.262 84.3624Z" fill="url(#paint0_linear_1269_12380)" stroke="#1B3992" stroke-width="0.323469" stroke-linejoin="round"/>
<path d="M149.285 84.4098V64.5142L144.594 67.0606V86.9867L149.285 84.4098Z" fill="url(#paint1_linear_1269_12380)" stroke="#1B3992" stroke-width="0.323469" stroke-linejoin="round"/>
<path d="M144.614 67.0615L140.26 64.4746L145.052 61.8701L149.285 64.4657L144.614 67.0615Z" fill="#87E7FF" stroke="#1B3992" stroke-width="0.323469" stroke-linejoin="round"/>
<path d="M122.874 73.6026V53.707L127.207 56.3006V76.2267L122.874 73.6026Z" fill="url(#paint2_linear_1269_12380)" stroke="#1B3992" stroke-width="0.323469" stroke-linejoin="round"/>
<path d="M131.236 73.727L131.236 53.731L127.206 56.3016V76.2277L131.236 73.727Z" fill="url(#paint3_linear_1269_12380)" stroke="#1B3992" stroke-width="0.323469" stroke-linejoin="round"/>
<path d="M127.21 56.3028L122.872 53.7101L127.643 51.1113L131.825 53.7069L127.21 56.3028Z" fill="#87E7FF" stroke="#1B3992" stroke-width="0.342901" stroke-linejoin="round"/>
<path d="M131.237 78.7077V54.0967L135.57 56.6667V81.8194L131.237 78.7077Z" fill="url(#paint4_linear_1269_12380)" stroke="#1B3992" stroke-width="0.323469" stroke-linejoin="round"/>
<path d="M140.261 79.0054V54.0522L135.57 56.6598V81.8196L140.261 79.0054Z" fill="url(#paint5_linear_1269_12380)" stroke="#1B3992" stroke-width="0.323469" stroke-linejoin="round"/>
<path d="M135.571 56.6485L131.232 54.0558L136.003 51.457L140.261 54.045L135.571 56.6485Z" fill="#87E7FF" stroke="#1B3992" stroke-width="0.342901" stroke-linejoin="round"/>
<path d="M40.6192 76.3205C40.3259 76.138 40.29 75.8654 40.5425 75.7379L71.7019 60.0048C72.2151 59.7457 73.0567 59.8412 73.6344 60.2241L97.7815 76.2319C98.4261 76.6592 98.4883 77.2714 97.9167 77.5614L68.3227 92.5716C67.8249 92.8241 67.0132 92.7428 66.4339 92.3824L40.6192 76.3205Z" stroke="#1B3992" stroke-width="0.342901"/>
<path d="M25.7216 87.2265C25.2061 86.9029 25.1445 86.4224 25.5895 86.1969L74.5188 61.4029C75.3756 60.9687 76.7844 61.1307 77.7454 61.7738L115.02 86.7199C116.073 87.4247 116.18 88.4276 115.254 88.9128L69.3671 112.946C68.5391 113.38 67.1678 113.246 66.1957 112.635L25.7216 87.2265Z" stroke="#1B3992" stroke-width="0.342901"/>
<path d="M25.1504 86.8484L25.4923 73.8213C25.4923 74.114 25.9339 74.4476 26.1547 74.5777L65.9439 100.451C67.638 101.47 69.2725 100.876 69.878 100.451L114.888 77.2842C115.821 76.908 116.079 76.4422 116.113 76.1273V75.981C116.118 76.0246 116.118 76.0738 116.113 76.1273V88.5141L70.0649 112.485C68.6786 113.451 67.1323 113.009 66.5316 112.724L25.1504 86.8484Z" fill="#4585FF" stroke="#1B3992" stroke-width="0.342901" stroke-linejoin="round"/>
<g filter="url(#filter0_i_1269_12380)">
<path d="M26.4493 75.3819C25.0981 74.5222 24.9239 73.259 26.0717 72.6447L71.06 48.5663C71.9603 48.0845 73.4683 48.2312 74.5303 48.9041L115.349 74.765C116.497 75.492 116.635 76.5644 115.648 77.0742L69.4721 100.914C68.5657 101.382 67.0716 101.229 66.0205 100.56L26.4493 75.3819Z" fill="#95BAFF"/>
</g>
<path d="M26.5736 75.2998C25.3168 74.5001 25.1547 73.3252 26.2224 72.7538L71.2106 48.6754C72.0397 48.2317 73.4284 48.3668 74.4064 48.9864L115.225 74.8474C116.277 75.5138 116.404 76.4968 115.499 76.9641L69.3234 100.804C68.4886 101.235 67.1127 101.094 66.1448 100.478L26.5736 75.2998Z" stroke="#1B3992" stroke-width="0.342901"/>
<path d="M40.3936 76.073V69.4795C40.3936 69.6648 40.673 69.8759 40.8128 69.9583L66.182 85.5745C67.2543 86.219 68.2888 85.843 68.6721 85.5745L97.4619 70.8497C98.06 70.6086 98.2199 70.3091 98.2379 70.1098L98.2371 70.0249C98.24 70.0504 98.2406 70.0789 98.2379 70.1098L98.3009 77.1621L68.9362 92.2748C67.8147 92.8679 66.8988 92.6847 66.3594 92.2748L40.3936 76.073Z" fill="#4585FF" stroke="#1B3992" stroke-width="0.342901" stroke-linejoin="round"/>
<g filter="url(#filter1_i_1269_12380)">
<path d="M40.5255 69.9572C40.1326 69.7158 40.0797 69.3523 40.4123 69.1799L71.222 53.2085C71.8007 52.9085 72.7587 53.01 73.4244 53.4419L97.8067 69.2607C98.5572 69.7476 98.638 70.455 97.9814 70.7902L68.3296 85.9247C67.7646 86.2131 66.8421 86.1237 66.1789 85.7163L40.5255 69.9572Z" fill="#95BAFF"/>
</g>
<path d="M40.6462 69.8728C40.3515 69.6918 40.3118 69.4192 40.5613 69.2899L71.371 53.3185C71.8774 53.0559 72.7156 53.1448 73.2981 53.5227L97.6804 69.3415C98.3371 69.7675 98.4078 70.3865 97.8332 70.6798L68.1815 85.8143C67.6871 86.0666 66.8798 85.9884 66.2996 85.632L40.6462 69.8728Z" stroke="#1B3992" stroke-width="0.342901"/>
<path d="M82.6831 71.3634C82.6831 73.3153 81.2286 75.1203 78.7929 76.4472C76.3638 77.7706 72.9962 78.5945 69.2671 78.5945C65.5381 78.5945 62.1705 77.7706 59.7414 76.4472C57.3057 75.1203 55.8511 73.3153 55.8511 71.3634C55.8511 69.4115 57.3057 67.6066 59.7414 66.2796C62.1705 64.9562 65.5381 64.1324 69.2671 64.1324C72.9962 64.1324 76.3638 64.9562 78.7929 66.2796C81.2286 67.6066 82.6831 69.4115 82.6831 71.3634Z" fill="#1E5ED9" stroke="#1B3992" stroke-width="0.342901"/>
<g filter="url(#filter2_i_1269_12380)">
<path fill-rule="evenodd" clip-rule="evenodd" d="M75.5089 61.3032L82.682 61.296V67.9513H82.6734C82.5811 71.9957 76.6137 75.2586 69.266 75.2586C61.9182 75.2586 55.9509 71.9957 55.8585 67.9513H55.8574V67.8644C55.8574 67.8616 55.8574 67.8589 55.8574 67.8561C55.8574 67.8533 55.8574 67.8506 55.8574 67.8478V61.323L62.9798 61.3159C64.8547 60.7655 66.9944 60.4536 69.266 60.4536C71.5201 60.4536 73.6443 60.7607 75.5089 61.3032Z" fill="#4585FF"/>
</g>
<path d="M75.5089 61.3032L75.461 61.4678C75.4766 61.4724 75.4928 61.4747 75.5091 61.4747L75.5089 61.3032ZM82.682 61.296H82.8535C82.8535 61.2505 82.8354 61.2068 82.8032 61.1747C82.771 61.1425 82.7273 61.1245 82.6818 61.1245L82.682 61.296ZM82.682 67.9513V68.1228C82.7767 68.1228 82.8535 68.046 82.8535 67.9513H82.682ZM82.6734 67.9513V67.7799C82.5803 67.7799 82.5041 67.8543 82.502 67.9474L82.6734 67.9513ZM55.8585 67.9513L56.0299 67.9474C56.0278 67.8543 55.9517 67.7799 55.8585 67.7799V67.9513ZM55.8574 67.9513H55.686C55.686 68.046 55.7627 68.1228 55.8574 68.1228V67.9513ZM55.8574 67.8644H56.0289L56.0289 67.864L55.8574 67.8644ZM55.8574 67.8478L56.0289 67.8481V67.8478H55.8574ZM55.8574 61.323L55.8573 61.1516C55.7626 61.1517 55.686 61.2284 55.686 61.323H55.8574ZM62.9798 61.3159L62.98 61.4873C62.9962 61.4873 63.0124 61.485 63.0281 61.4804L62.9798 61.3159ZM75.5091 61.4747L82.6822 61.4674L82.6818 61.1245L75.5087 61.1318L75.5091 61.4747ZM82.5106 61.296V67.9513H82.8535V61.296H82.5106ZM82.682 67.7799H82.6734V68.1228H82.682V67.7799ZM82.502 67.9474C82.4579 69.8802 81.0067 71.6627 78.6083 72.9711C76.2161 74.2762 72.9166 75.0871 69.266 75.0871V75.43C72.9631 75.43 76.3211 74.6095 78.7726 73.2721C81.2179 71.938 82.7966 70.0669 82.8448 67.9553L82.502 67.9474ZM69.266 75.0871C65.6153 75.0871 62.3159 74.2762 59.9236 72.9711C57.5253 71.6627 56.0741 69.8802 56.0299 67.9474L55.6871 67.9553C55.7353 70.0669 57.314 71.938 59.7594 73.2721C62.2108 74.6095 65.5689 75.43 69.266 75.43V75.0871ZM55.8585 67.7799H55.8574V68.1228H55.8585V67.7799ZM56.0289 67.9513V67.8644H55.686V67.9513H56.0289ZM56.0289 67.864C56.0289 67.8614 56.0289 67.8587 56.0289 67.8561H55.686C55.686 67.859 55.686 67.8619 55.686 67.8647L56.0289 67.864ZM56.0289 67.8561C56.0289 67.8534 56.0289 67.8508 56.0289 67.8481L55.686 67.8475C55.686 67.8503 55.686 67.8532 55.686 67.8561H56.0289ZM56.0289 67.8478V61.323H55.686V67.8478H56.0289ZM55.8576 61.4945L62.98 61.4873L62.9796 61.1444L55.8573 61.1516L55.8576 61.4945ZM63.0281 61.4804C64.8864 60.9349 67.0097 60.6251 69.266 60.6251V60.2822C66.979 60.2822 64.823 60.5961 62.9315 61.1514L63.0281 61.4804ZM69.266 60.6251C71.5049 60.6251 73.6129 60.9301 75.461 61.4678L75.5568 61.1386C73.6758 60.5913 71.5353 60.2822 69.266 60.2822V60.6251Z" fill="#1B3992"/>
<path d="M114.133 119.29L87.166 103.562L100.813 97.2383L126.435 112.85L114.133 119.29Z" stroke="#1B3992" stroke-width="0.342901" stroke-linejoin="round"/>
<path d="M126.4 112.847V109.606L114.185 116.074V119.224L126.4 112.847Z" fill="#4585FF" stroke="#1B3992" stroke-width="0.342901" stroke-linejoin="round"/>
<path d="M87.3691 103.653V100.626L114.157 116.09V119.251L87.3691 103.653Z" fill="#1E5ED9" stroke="#1B3992" stroke-width="0.342901" stroke-linejoin="round"/>
<g filter="url(#filter3_i_1269_12380)">
<path d="M114.133 116.11L87.3818 100.611L100.813 94.0581L126.46 109.581L114.133 116.11Z" fill="#87E7FF"/>
</g>
<path d="M114.133 116.11L87.3818 100.611L100.813 94.0581L126.46 109.581L114.133 116.11Z" stroke="#1B3992" stroke-width="0.342901" stroke-linejoin="round"/>
<path d="M82.6831 61.3624C82.6831 63.3143 81.2286 65.1193 78.7929 66.4462C76.3638 67.7696 72.9962 68.5935 69.2671 68.5935C65.5381 68.5935 62.1705 67.7696 59.7414 66.4462C57.3057 65.1193 55.8511 63.3143 55.8511 61.3624C55.8511 59.4106 57.3057 57.6056 59.7414 56.2787C62.1705 54.9553 65.5381 54.1314 69.2671 54.1314C72.9962 54.1314 76.3638 54.9553 78.7929 56.2787C81.2286 57.6056 82.6831 59.4106 82.6831 61.3624Z" fill="#06F1C8" stroke="#1B3992" stroke-width="0.342901"/>
<path d="M81.7273 61.294C81.7273 63.0092 80.3788 64.6048 78.1017 65.7818C75.8333 66.9544 72.6877 67.6847 69.2037 67.6847C65.72 67.6847 62.6027 66.9464 60.3626 65.7662C58.1146 64.582 56.7916 62.9785 56.7916 61.2616C56.7916 59.5452 58.1138 57.958 60.3617 56.7898C62.6018 55.6257 65.7194 54.9034 69.2037 54.9034C72.6877 54.9034 75.8333 55.6337 78.1017 56.8062C80.3788 57.9833 81.7273 59.5789 81.7273 61.294Z" fill="#D9D9D9" stroke="#1B3992" stroke-width="0.342901"/>
<path d="M81.5675 61.1834C81.1942 55.4724 71.5527 53.0057 68.6073 53.0915C63.231 53.419 56.3106 58.0679 56.8347 61.6488C57.3559 65.2092 63.078 67.0958 66.5868 67.5424C71.7335 68.1974 76.2792 66.5538 77.9613 65.7399C80.7059 64.1961 81.6486 62.4249 81.5675 61.1834Z" fill="#87E7FF"/>
<path fill-rule="evenodd" clip-rule="evenodd" d="M63.5901 61.5023L69.5444 62.5254C69.8094 62.571 70.1468 62.4204 70.2868 62.1943C70.3334 62.1189 70.3489 62.0465 70.3508 61.9801L70.3246 61.5168L70.0884 57.0641L70.0931 57.0565C70.0681 56.7019 69.797 56.4134 69.3288 56.333C68.8341 56.248 68.252 56.4149 67.8207 56.7328L63.4885 59.6916C63.2846 59.8317 63.1062 60.0096 62.9849 60.2056C62.6445 60.756 62.8459 61.2994 63.4223 61.4735C63.4269 61.4659 63.493 61.4856 63.5901 61.5023Z" fill=""/>
<path fill-rule="evenodd" clip-rule="evenodd" d="M70.7156 58.3719C70.684 57.791 71.3064 57.164 72.0978 56.9747C72.8939 56.7779 73.5594 57.0924 73.5822 57.6718L73.7758 61.4667C73.8073 62.0476 73.1849 62.6746 72.3935 62.8639C71.5974 63.0608 70.9319 62.7462 70.9091 62.1668L70.7156 58.3719Z" fill=""/>
<rect x="0.146185" y="0.261033" width="46.5887" height="34.6137" rx="1.88595" transform="matrix(0.85264 0.522499 0 1 67.3292 0.429478)" fill="#3772E3" stroke="#1B3992" stroke-width="0.342901"/>
<rect x="0.146185" y="0.261033" width="46.0846" height="34.6137" rx="1.88595" transform="matrix(0.85264 0.522499 0 1 65.0762 2.54569)" fill="#95BAFF" stroke="#1B3992" stroke-width="0.342901"/>
<path d="M70.3008 10.6278V9.3125L81.2958 16.1514V17.3087L70.3008 10.6278Z" fill="url(#paint6_linear_1269_12380)"/>
<path d="M70.3008 12.7318V11.4165L81.2958 18.2554V19.4127L70.3008 12.7318Z" fill="url(#paint7_linear_1269_12380)"/>
<path d="M70.3008 14.9945V13.6792L81.2958 20.5181V21.6754L70.3008 14.9945Z" fill="url(#paint8_linear_1269_12380)"/>
<path d="M70.3008 17.31V15.9946L81.2958 22.8335V23.9909L70.3008 17.31Z" fill="url(#paint9_linear_1269_12380)"/>
<path d="M70.3008 19.453V18.1377L81.2958 24.9766V26.1339L70.3008 19.453Z" fill="url(#paint10_linear_1269_12380)"/>
<path d="M70.3008 21.726V20.4106L81.2958 27.2495V28.4069L70.3008 21.726Z" fill="url(#paint11_linear_1269_12380)"/>
<path d="M70.3008 24.0512V22.7358L81.2958 29.5747V30.7321L70.3008 24.0512Z" fill="url(#paint12_linear_1269_12380)"/>
<path d="M70.3008 32.0483V30.7329L81.2958 37.5718V38.7291L70.3008 32.0483Z" fill="url(#paint13_linear_1269_12380)"/>
<path d="M70.3008 34.5756V33.2603L81.2958 40.0991V41.2565L70.3008 34.5756Z" fill="url(#paint14_linear_1269_12380)"/>
<path d="M90.2524 35.3324L88.0117 34.2085V44.9799L90.2524 46.3969V35.3324Z" fill="url(#paint15_linear_1269_12380)"/>
<path d="M93.3413 34.7196L91.1006 33.5957V46.7352L93.3413 48.1521V34.7196Z" fill="url(#paint16_linear_1269_12380)"/>
<path d="M96.4301 38.715L94.1895 37.7705V48.8124L96.4301 50.0032V38.715Z" fill="url(#paint17_linear_1269_12380)"/>
<path d="M99.7778 33.8496L97.5371 32.3467V50.3612L99.7778 51.8121V33.8496Z" fill="url(#paint18_linear_1269_12380)"/>
<path d="M49.1035 22.4036C50.3693 18.9393 53.3805 14.0893 55.2991 22.4036C56.5316 25.6014 59.6761 29.8787 62.3941 21.4047C64.8581 15.6394 70.2265 8.82752 71.989 27.7027C72.0127 34.9751 73.5809 47.1604 79.6641 37.7228C82.341 33.6721 89.2865 28.5269 95.654 40.3523C98.3545 45.1611 106.456 52.1635 117.258 41.7025" stroke="#1B3992" stroke-width="0.539115" stroke-linejoin="round"/>
<circle cx="117.258" cy="41.5536" r="0.468106" fill="#95BAFF"/>
<circle cx="49.1029" cy="22.2679" r="0.468106" fill="#95BAFF"/>
<path d="M67.5734 92.4751V86.1068C66.9441 86.1511 66.3437 85.8842 66.1222 85.7451L56.2696 79.704L40.5615 69.9912V75.9698L65.9482 91.8559C66.6953 92.3896 67.3265 92.5075 67.5734 92.4751Z" fill="#2266E8"/>
<path d="M68.0623 112.889V101.192C67.0817 101.261 66.2114 100.813 65.8662 100.597L50.666 90.7887C50.666 90.7887 35.8297 81.5163 26.4507 75.3997C25.9844 75.0956 25.6361 74.6792 25.6361 74.6792L25.3389 86.7503L65.5302 111.925C66.6941 112.756 67.6776 112.94 68.0623 112.889Z" fill="#2266E8"/>
<ellipse cx="91.6664" cy="100.625" rx="0.949557" ry="0.79252" fill="" stroke="#1B3992" stroke-width="0.269995"/>
<ellipse cx="100.412" cy="96.4449" rx="0.949557" ry="0.79252" fill="" stroke="#1B3992" stroke-width="0.269995"/>
<ellipse cx="112.285" cy="75.6607" rx="0.949557" ry="0.79252" fill="" stroke="#1B3992" stroke-width="0.269995"/>
<ellipse cx="68.0619" cy="98.4087" rx="0.949557" ry="0.79252" fill="" stroke="#1B3992" stroke-width="0.269995"/>
<ellipse cx="28.7357" cy="73.8863" rx="0.949557" ry="0.79252" fill="" stroke="#1B3992" stroke-width="0.269995"/>
<ellipse cx="72.5228" cy="50.6656" rx="0.949557" ry="0.79252" fill="" stroke="#1B3992" stroke-width="0.269995"/>
<ellipse cx="121.922" cy="109.146" rx="0.949557" ry="0.79252" fill="" stroke="#1B3992" stroke-width="0.269995"/>
<ellipse cx="114.184" cy="113.305" rx="0.949557" ry="0.79252" fill="" stroke="#1B3992" stroke-width="0.269995"/>
<path d="M94.7361 14.0653L81.4706 61.8994C80.8037 65.7249 73.4021 67.8772 67.9811 67.6792C62.4489 67.3395 57.0531 64.8519 56.7832 61.2714L46.7157 14.1505L94.7361 14.0653Z" fill="url(#paint19_linear_1269_12380)"/>
<path fill-rule="evenodd" clip-rule="evenodd" d="M24.3302 41.5588L23.8188 58.3218L23.8208 58.3218C23.8201 58.3404 23.8197 58.3591 23.8196 58.3778C23.8034 60.3659 26.5837 62.0003 30.0295 62.0283C33.4753 62.0563 36.1558 60.6186 36.2703 58.4987C36.2708 58.441 36.2689 58.3836 36.2648 58.3265L36.2757 58.3265L36.6725 41.5634L24.3302 41.5588Z" fill="#4585FF"/>
<path d="M23.8188 58.3218L23.6571 58.3168L23.652 58.4834L23.8187 58.4835L23.8188 58.3218ZM24.3302 41.5588L24.3303 41.3971L24.1733 41.397L24.1686 41.5539L24.3302 41.5588ZM23.8208 58.3218L23.9824 58.3274L23.9882 58.1601L23.8208 58.16L23.8208 58.3218ZM23.8196 58.3778L23.6579 58.3765L23.8196 58.3778ZM30.0295 62.0283L30.0282 62.1901L30.0295 62.0283ZM36.2703 58.4987L36.432 58.5074L36.4321 58.5L36.2703 58.4987ZM36.2648 58.3265L36.2649 58.1648L36.0909 58.1647L36.1035 58.3382L36.2648 58.3265ZM36.2757 58.3265L36.2757 58.4882L36.4337 58.4883L36.4374 58.3303L36.2757 58.3265ZM36.6725 41.5634L36.8342 41.5673L36.8381 41.4018L36.6726 41.4017L36.6725 41.5634ZM23.9804 58.3267L24.4919 41.5637L24.1686 41.5539L23.6571 58.3168L23.9804 58.3267ZM23.8208 58.16L23.8188 58.16L23.8187 58.4835L23.8207 58.4835L23.8208 58.16ZM23.9813 58.3791C23.9815 58.3618 23.9818 58.3446 23.9824 58.3274L23.6591 58.3162C23.6585 58.3363 23.658 58.3563 23.6579 58.3765L23.9813 58.3791ZM30.0308 61.8666C28.3311 61.8528 26.8035 61.4425 25.7083 60.7987C24.6088 60.1524 23.9739 59.2909 23.9813 58.3791L23.6579 58.3765C23.6491 59.4529 24.3963 60.4026 25.5444 61.0776C26.6967 61.755 28.2821 62.1759 30.0282 62.1901L30.0308 61.8666ZM36.1088 58.4899C36.0556 59.4761 35.4057 60.3234 34.3205 60.9277C33.2355 61.5318 31.7331 61.8804 30.0308 61.8666L30.0282 62.1901C31.7717 62.2042 33.3325 61.848 34.4778 61.2103C35.623 60.5726 36.3706 59.6412 36.4318 58.5074L36.1088 58.4899ZM36.1035 58.3382C36.1073 58.391 36.109 58.444 36.1086 58.4973L36.4321 58.5C36.4326 58.4379 36.4306 58.3762 36.4261 58.3148L36.1035 58.3382ZM36.2758 58.1648L36.2649 58.1648L36.2647 58.4882L36.2757 58.4882L36.2758 58.1648ZM36.5108 41.5596L36.1141 58.3227L36.4374 58.3303L36.8342 41.5673L36.5108 41.5596ZM24.3302 41.7205L36.6724 41.7252L36.6726 41.4017L24.3303 41.3971L24.3302 41.7205Z" fill="#1B3992"/>
<mask id="mask0_1269_12380" style="mask-type:alpha" maskUnits="userSpaceOnUse" x="23" y="41" width="14" height="21">
<path fill-rule="evenodd" clip-rule="evenodd" d="M24.3292 41.5573L23.8178 58.2163L23.9393 58.2152C23.935 58.2676 23.9327 58.3204 23.9322 58.3734C23.9315 60.2791 26.602 61.8814 30.0478 61.9092C33.4936 61.937 35.9332 60.5227 36.1666 58.545C36.1729 58.3833 36.1633 58.225 36.1384 58.0707L36.5344 41.44L24.3292 41.5573Z" fill="#4585FF"/>
</mask>
<g mask="url(#mask0_1269_12380)">
<rect x="30.0723" y="65.0029" width="26.7136" height="3.15574" transform="rotate(-89.0338 30.0723 65.0029)" fill="#266DF5"/>
<rect x="23.375" y="64.9565" width="26.7136" height="3.15574" transform="rotate(-89.0338 23.375 64.9565)" fill="#95BAFF"/>
<rect x="33.1484" y="64.332" width="26.7136" height="5.04666" transform="rotate(-89.0338 33.1484 64.332)" fill="#1E5FDB"/>
</g>
<ellipse cx="30.5213" cy="41.5007" rx="3.58199" ry="6.155" transform="rotate(-88.447 30.5213 41.5007)" fill="#87E7FF" stroke="#124AB7" stroke-width="0.323469"/>
<path fill-rule="evenodd" clip-rule="evenodd" d="M15.9905 51.1117L15.589 64.2725L15.5906 64.2725C15.5901 64.2872 15.5897 64.3019 15.5896 64.3166C15.5769 65.8775 17.7598 67.1607 20.4651 67.1827C23.1705 67.2047 25.275 66.0759 25.3649 64.4115C25.3653 64.3662 25.3638 64.3211 25.3605 64.2762L25.3691 64.2762L25.6806 51.1153L15.9905 51.1117Z" fill="#4585FF"/>
<path d="M15.589 64.2725L15.4273 64.2676L15.4222 64.4342L15.5889 64.4343L15.589 64.2725ZM15.9905 51.1117L15.9906 50.9499L15.8337 50.9499L15.8289 51.1067L15.9905 51.1117ZM15.5906 64.2725L15.7522 64.2781L15.758 64.1109L15.5906 64.1108L15.5906 64.2725ZM15.5896 64.3166L15.7514 64.3179L15.5896 64.3166ZM20.4651 67.1827L20.4665 67.021L20.4651 67.1827ZM25.3649 64.4115L25.5266 64.4202L25.5266 64.4128L25.3649 64.4115ZM25.3605 64.2762L25.3606 64.1145L25.1866 64.1144L25.1992 64.2879L25.3605 64.2762ZM25.3691 64.2762L25.3691 64.438L25.5271 64.438L25.5308 64.2801L25.3691 64.2762ZM25.6806 51.1153L25.8423 51.1191L25.8463 50.9536L25.6807 50.9536L25.6806 51.1153ZM15.7506 64.2775L16.1522 51.1166L15.8289 51.1067L15.4273 64.2676L15.7506 64.2775ZM15.5906 64.1108L15.589 64.1108L15.5889 64.4343L15.5905 64.4343L15.5906 64.1108ZM15.7514 64.3179C15.7515 64.3046 15.7518 64.2914 15.7522 64.2781L15.4289 64.2669C15.4284 64.283 15.428 64.2991 15.4279 64.3153L15.7514 64.3179ZM20.4665 67.021C19.137 67.0102 17.9438 66.6892 17.0901 66.1873C16.2321 65.683 15.7457 65.0161 15.7514 64.3179L15.4279 64.3153C15.4209 65.178 16.0196 65.9332 16.9262 66.4662C17.837 67.0016 19.088 67.3333 20.4638 67.3444L20.4665 67.021ZM25.2034 64.4028C25.1624 65.1611 24.6627 65.8174 23.8171 66.2882C22.9718 66.7589 21.7985 67.0318 20.4665 67.021L20.4638 67.3444C21.8371 67.3556 23.0688 67.0751 23.9745 66.5708C24.88 66.0666 25.4775 65.3262 25.5264 64.4202L25.2034 64.4028ZM25.1992 64.2879C25.2022 64.3285 25.2035 64.3692 25.2032 64.4102L25.5266 64.4128C25.527 64.3631 25.5254 64.3137 25.5218 64.2645L25.1992 64.2879ZM25.3692 64.1145L25.3606 64.1145L25.3605 64.438L25.3691 64.438L25.3692 64.1145ZM25.519 51.1115L25.2074 64.2724L25.5308 64.2801L25.8423 51.1191L25.519 51.1115ZM15.9905 51.2734L25.6806 51.277L25.6807 50.9536L15.9906 50.9499L15.9905 51.2734Z" fill="#1B3992"/>
<mask id="mask1_1269_12380" style="mask-type:alpha" maskUnits="userSpaceOnUse" x="15" y="51" width="11" height="17">
<path fill-rule="evenodd" clip-rule="evenodd" d="M15.9905 51.1104L15.589 64.1897L15.6843 64.1888C15.681 64.2298 15.6792 64.271 15.6788 64.3124C15.6783 65.8087 17.7749 67.0666 20.4802 67.0885C23.1856 67.1103 25.1009 65.9999 25.2842 64.4472C25.2892 64.3202 25.2816 64.196 25.2621 64.0749L25.573 51.0183L15.9905 51.1104Z" fill="#4585FF"/>
</mask>
<g mask="url(#mask1_1269_12380)">
<rect x="20.499" y="69.5171" width="20.9732" height="2.47762" transform="rotate(-89.0338 20.499 69.5171)" fill="#266DF5"/>
<rect x="15.2412" y="69.4805" width="20.9732" height="2.47762" transform="rotate(-89.0338 15.2412 69.4805)" fill="#95BAFF"/>
<rect x="22.915" y="68.9907" width="20.9732" height="3.96221" transform="rotate(-89.0338 22.915 68.9907)" fill="#1E5FDB"/>
</g>
<ellipse cx="20.8521" cy="51.0644" rx="2.81227" ry="4.83238" transform="rotate(-88.447 20.8521 51.0644)" fill="#87E7FF" stroke="#124AB7" stroke-width="0.323469"/>
</g>
<defs>
<filter id="filter0_i_1269_12380" x="25.3115" y="48.2832" width="90.9961" height="52.9009" filterUnits="userSpaceOnUse" color-interpolation-filters="sRGB">
<feFlood flood-opacity="0" result="BackgroundImageFix"/>
<feBlend mode="normal" in="SourceGraphic" in2="BackgroundImageFix" result="shape"/>
<feColorMatrix in="SourceAlpha" type="matrix" values="0 0 0 0 0 0 0 0 0 0 0 0 0 0 0 0 0 0 127 0" result="hardAlpha"/>
<feOffset dx="-2.15646"/>
<feComposite in2="hardAlpha" operator="arithmetic" k2="-1" k3="1"/>
<feColorMatrix type="matrix" values="0 0 0 0 0.8725 0 0 0 0 0.917005 0 0 0 0 1 0 0 0 1 0"/>
<feBlend mode="normal" in2="shape" result="effect1_innerShadow_1269_12380"/>
</filter>
<filter id="filter1_i_1269_12380" x="40.1934" y="53.0366" width="58.2324" height="33.0566" filterUnits="userSpaceOnUse" color-interpolation-filters="sRGB">
<feFlood flood-opacity="0" result="BackgroundImageFix"/>
<feBlend mode="normal" in="SourceGraphic" in2="BackgroundImageFix" result="shape"/>
<feColorMatrix in="SourceAlpha" type="matrix" values="0 0 0 0 0 0 0 0 0 0 0 0 0 0 0 0 0 0 127 0" result="hardAlpha"/>
<feOffset dx="-2.15646"/>
<feComposite in2="hardAlpha" operator="arithmetic" k2="-1" k3="1"/>
<feColorMatrix type="matrix" values="0 0 0 0 0.8725 0 0 0 0 0.917005 0 0 0 0 1 0 0 0 1 0"/>
<feBlend mode="normal" in2="shape" result="effect1_innerShadow_1269_12380"/>
</filter>
<filter id="filter2_i_1269_12380" x="55.6855" y="60.2822" width="27.168" height="15.1479" filterUnits="userSpaceOnUse" color-interpolation-filters="sRGB">
<feFlood flood-opacity="0" result="BackgroundImageFix"/>
<feBlend mode="normal" in="SourceGraphic" in2="BackgroundImageFix" result="shape"/>
<feColorMatrix in="SourceAlpha" type="matrix" values="0 0 0 0 0 0 0 0 0 0 0 0 0 0 0 0 0 0 127 0" result="hardAlpha"/>
<feOffset dx="-1.61734"/>
<feComposite in2="hardAlpha" operator="arithmetic" k2="-1" k3="1"/>
<feColorMatrix type="matrix" values="0 0 0 0 0.6975 0 0 0 0 0.80309 0 0 0 0 1 0 0 0 0.56 0"/>
<feBlend mode="normal" in2="shape" result="effect1_innerShadow_1269_12380"/>
</filter>
<filter id="filter3_i_1269_12380" x="87.21" y="93.8867" width="39.4219" height="22.3945" filterUnits="userSpaceOnUse" color-interpolation-filters="sRGB">
<feFlood flood-opacity="0" result="BackgroundImageFix"/>
<feBlend mode="normal" in="SourceGraphic" in2="BackgroundImageFix" result="shape"/>
<feColorMatrix in="SourceAlpha" type="matrix" values="0 0 0 0 0 0 0 0 0 0 0 0 0 0 0 0 0 0 127 0" result="hardAlpha"/>
<feOffset dx="-2.15646"/>
<feComposite in2="hardAlpha" operator="arithmetic" k2="-1" k3="1"/>
<feColorMatrix type="matrix" values="0 0 0 0 0.826719 0 0 0 0 0.965344 0 0 0 0 1 0 0 0 1 0"/>
<feBlend mode="normal" in2="shape" result="effect1_innerShadow_1269_12380"/>
</filter>
<linearGradient id="paint0_linear_1269_12380" x1="147.571" y1="59.8661" x2="158.03" y2="68.8111" gradientUnits="userSpaceOnUse">
<stop stop-color="#06F1C8"/>
<stop offset="0.548189" stop-color="#06F1C8" stop-opacity="0.37"/>
<stop offset="0.98552" stop-color="#1EFFD8" stop-opacity="0"/>
</linearGradient>
<linearGradient id="paint1_linear_1269_12380" x1="143.707" y1="61.0692" x2="133.611" y2="68.2999" gradientUnits="userSpaceOnUse">
<stop stop-color="#06F1C8"/>
<stop offset="0.556242" stop-color="#06F1C8" stop-opacity="0.37"/>
<stop offset="0.98552" stop-color="#1EFFD8" stop-opacity="0"/>
</linearGradient>
<linearGradient id="paint2_linear_1269_12380" x1="128.026" y1="50.2549" x2="137.852" y2="56.741" gradientUnits="userSpaceOnUse">
<stop stop-color="#06F1C8"/>
<stop offset="0.556242" stop-color="#06F1C8" stop-opacity="0.37"/>
<stop offset="0.98552" stop-color="#1EFFD8" stop-opacity="0"/>
</linearGradient>
<linearGradient id="paint3_linear_1269_12380" x1="126.444" y1="50.2823" x2="116.919" y2="56.1369" gradientUnits="userSpaceOnUse">
<stop stop-color="#06F1C8"/>
<stop offset="0.556242" stop-color="#06F1C8" stop-opacity="0.37"/>
<stop offset="0.98552" stop-color="#1EFFD8" stop-opacity="0"/>
</linearGradient>
<linearGradient id="paint4_linear_1269_12380" x1="136.389" y1="49.8469" x2="147.346" y2="55.7221" gradientUnits="userSpaceOnUse">
<stop stop-color="#06F1C8"/>
<stop offset="0.556242" stop-color="#06F1C8" stop-opacity="0.37"/>
<stop offset="0.98552" stop-color="#1EFFD8" stop-opacity="0"/>
</linearGradient>
<linearGradient id="paint5_linear_1269_12380" x1="134.683" y1="49.7956" x2="123.249" y2="56.4227" gradientUnits="userSpaceOnUse">
<stop stop-color="#06F1C8"/>
<stop offset="0.556242" stop-color="#06F1C8" stop-opacity="0.37"/>
<stop offset="0.98552" stop-color="#1EFFD8" stop-opacity="0"/>
</linearGradient>
<linearGradient id="paint6_linear_1269_12380" x1="82.1694" y1="17.3087" x2="70.3008" y2="10.201" gradientUnits="userSpaceOnUse">
<stop stop-color="white"/>
<stop offset="1" stop-color="#C3D8FF"/>
</linearGradient>
<linearGradient id="paint7_linear_1269_12380" x1="82.1694" y1="19.4127" x2="70.3008" y2="12.305" gradientUnits="userSpaceOnUse">
<stop stop-color="white"/>
<stop offset="1" stop-color="#C3D8FF"/>
</linearGradient>
<linearGradient id="paint8_linear_1269_12380" x1="82.1694" y1="21.6754" x2="70.3008" y2="14.5677" gradientUnits="userSpaceOnUse">
<stop stop-color="white"/>
<stop offset="1" stop-color="#C3D8FF"/>
</linearGradient>
<linearGradient id="paint9_linear_1269_12380" x1="82.1694" y1="23.9908" x2="70.3008" y2="16.8832" gradientUnits="userSpaceOnUse">
<stop stop-color="white"/>
<stop offset="1" stop-color="#C3D8FF"/>
</linearGradient>
<linearGradient id="paint10_linear_1269_12380" x1="82.1694" y1="26.1339" x2="70.3008" y2="19.0262" gradientUnits="userSpaceOnUse">
<stop stop-color="white"/>
<stop offset="1" stop-color="#C3D8FF"/>
</linearGradient>
<linearGradient id="paint11_linear_1269_12380" x1="82.1694" y1="28.4068" x2="70.3008" y2="21.2992" gradientUnits="userSpaceOnUse">
<stop stop-color="white"/>
<stop offset="1" stop-color="#C3D8FF"/>
</linearGradient>
<linearGradient id="paint12_linear_1269_12380" x1="82.1694" y1="30.732" x2="70.3008" y2="23.6244" gradientUnits="userSpaceOnUse">
<stop stop-color="white"/>
<stop offset="1" stop-color="#C3D8FF"/>
</linearGradient>
<linearGradient id="paint13_linear_1269_12380" x1="82.1694" y1="38.7291" x2="70.3008" y2="31.6214" gradientUnits="userSpaceOnUse">
<stop stop-color="white"/>
<stop offset="1" stop-color="#C3D8FF"/>
</linearGradient>
<linearGradient id="paint14_linear_1269_12380" x1="82.1694" y1="41.2564" x2="70.3008" y2="34.1488" gradientUnits="userSpaceOnUse">
<stop stop-color="white"/>
<stop offset="1" stop-color="#C3D8FF"/>
</linearGradient>
<linearGradient id="paint15_linear_1269_12380" x1="89.1857" y1="46.0037" x2="90.5794" y2="32.0167" gradientUnits="userSpaceOnUse">
<stop stop-color="#87E7FF"/>
<stop offset="1" stop-color="white"/>
</linearGradient>
<linearGradient id="paint16_linear_1269_12380" x1="92.2746" y1="47.6826" x2="94.2541" y2="31.0477" gradientUnits="userSpaceOnUse">
<stop stop-color="#87E7FF"/>
<stop offset="1" stop-color="white"/>
</linearGradient>
<linearGradient id="paint17_linear_1269_12380" x1="95.3635" y1="49.6086" x2="96.7672" y2="35.5717" gradientUnits="userSpaceOnUse">
<stop stop-color="#87E7FF"/>
<stop offset="1" stop-color="white"/>
</linearGradient>
<linearGradient id="paint18_linear_1269_12380" x1="98.7111" y1="51.1841" x2="102.212" y2="29.1816" gradientUnits="userSpaceOnUse">
<stop stop-color="#87E7FF"/>
<stop offset="1" stop-color="white"/>
</linearGradient>
<linearGradient id="paint19_linear_1269_12380" x1="55.7834" y1="93.446" x2="72.9122" y2="19.1387" gradientUnits="userSpaceOnUse">
<stop stop-color="#B2F0FF"/>
<stop offset="1" stop-color="#C1F3FF" stop-opacity="0"/>
</linearGradient>
<clipPath id="clip0_1269_12380">
<rect width="160" height="120" fill=""/>
</clipPath>
</defs>
</svg>
