<?xml version="1.0" encoding="UTF-8" standalone="no"?>
<!DOCTYPE svg PUBLIC "-//W3C//DTD SVG 1.1//EN" "http://www.w3.org/Graphics/SVG/1.1/DTD/svg11.dtd">
<svg xmlns="http://www.w3.org/2000/svg" version="1.1" viewBox="0.00 0.00 381.00 218.00">
<g stroke-width="2.00" fill="none" stroke-linecap="butt">
<path stroke="#465266" stroke-opacity="0.769" vector-effect="non-scaling-stroke" d="
  M 346.62 218.00
  L 347.34 217.46"
/>
<path stroke="#7d9cd6" stroke-opacity="0.769" vector-effect="non-scaling-stroke" d="
  M 347.34 217.46
  L 379.09 217.54
  A 1.31 1.31 0.0 0 0 380.41 216.23
  L 380.42 1.28
  A 0.39 0.39 0.0 0 0 380.03 0.89
  L 1.54 0.92
  Q 1.01 0.92 1.01 1.46
  L 1.01 217.01
  A 0.43 0.42 90.0 0 0 1.43 217.44
  L 325.72 217.46"
/>
<path stroke="#465266" stroke-opacity="0.769" vector-effect="non-scaling-stroke" d="
  M 325.72 217.46
  L 326.50 218.00"
/>
<path stroke="#6a80a7" vector-effect="non-scaling-stroke" d="
  M 347.34 217.46
  L 346.46 201.55
  Q 346.43 201.05 346.04 200.74
  Q 325.94 185.05 309.13 165.88
  C 303.11 159.01 295.47 149.03 294.21 139.39"
/>
<path stroke="#bdc6e4" vector-effect="non-scaling-stroke" d="
  M 294.21 139.39
  Q 296.71 140.71 299.98 140.96
  C 321.02 142.60 310.48 111.26 307.26 101.50
  Q 307.13 101.12 306.75 101.17"
/>
<path stroke="#5994eb" vector-effect="non-scaling-stroke" d="
  M 306.75 101.17
  Q 307.32 101.06 307.80 100.79"
/>
<path stroke="#4a5d7f" vector-effect="non-scaling-stroke" d="
  M 307.80 100.79
  C 312.56 101.93 325.26 105.06 327.54 98.01
  C 330.10 90.06 324.59 86.56 318.23 83.76
  A 1.99 1.99 0.0 0 1 317.10 81.44
  C 317.37 80.41 317.84 79.69 317.59 78.50
  C 316.30 72.25 314.27 65.29 308.19 61.74
  C 304.68 59.69 299.51 57.43 297.36 53.84
  C 294.55 49.15 291.51 44.70 285.53 44.17
  Q 276.93 43.43 271.63 49.84
  Q 271.34 50.20 271.57 50.42"
/>
<path stroke="#bdc6e4" vector-effect="non-scaling-stroke" d="
  M 271.57 50.42
  L 270.81 51.05
  Q 270.45 51.35 270.28 51.79
  C 265.69 64.01 273.22 76.49 287.43 72.72"
/>
<path stroke="#4a5d7f" vector-effect="non-scaling-stroke" d="
  M 287.43 72.72
  Q 288.00 73.97 287.62 75.96
  Q 287.49 76.66 285.46 76.71"
/>
<path stroke="#5994eb" vector-effect="non-scaling-stroke" d="
  M 285.46 76.71
  L 277.20 79.26
  Q 276.74 79.41 276.30 79.21
  C 268.84 75.83 261.05 75.31 253.00 74.70"
/>
<path stroke="#bdc6e4" vector-effect="non-scaling-stroke" d="
  M 253.00 74.70
  Q 245.83 73.62 229.25 72.49
  Q 215.13 71.54 198.09 66.54
  Q 194.51 65.49 186.35 62.10
  Q 175.68 57.66 164.51 55.77
  C 162.39 55.41 157.68 55.98 159.66 59.56
  Q 159.91 60.01 160.42 59.98
  L 165.34 59.63
  A 0.39 0.39 0.0 0 1 165.75 60.12
  L 164.10 66.11
  Q 163.98 66.56 164.12 67.00
  Q 165.48 71.34 169.74 72.45
  Q 170.18 72.56 170.48 72.22
  L 171.17 71.44
  Q 171.56 71.01 172.04 71.34
  C 177.38 74.98 182.44 78.87 188.60 80.97
  Q 198.04 84.18 207.72 86.57
  Q 211.20 87.43 225.38 89.85
  Q 234.96 91.49 244.45 94.14"
/>
<path stroke="#4a5d7f" vector-effect="non-scaling-stroke" d="
  M 244.45 94.14
  L 248.57 95.34"
/>
<path stroke="#5994eb" vector-effect="non-scaling-stroke" d="
  M 248.57 95.34
  L 260.61 96.55"
/>
<path stroke="#bdc6e4" vector-effect="non-scaling-stroke" d="
  M 260.61 96.55
  Q 261.15 97.12 260.98 98.18
  A 0.66 0.65 -86.6 0 1 260.38 98.72
  L 259.21 98.77
  A 0.47 0.47 0.0 0 0 258.81 99.46
  L 262.16 105.64"
/>
<path stroke="#5994eb" vector-effect="non-scaling-stroke" d="
  M 262.16 105.64
  L 257.73 116.77
  A 0.95 0.95 0.0 0 0 258.04 117.89
  L 268.28 125.52"
/>
<path stroke="#6a80a7" vector-effect="non-scaling-stroke" d="
  M 268.28 125.52
  L 245.28 156.12"
/>
<path stroke="#cadcfe" vector-effect="non-scaling-stroke" d="
  M 245.28 156.12
  Q 244.82 132.49 244.97 110.09
  C 245.01 104.66 242.73 102.50 237.16 102.50
  Q 198.41 102.49 159.66 102.50
  C 154.88 102.50 152.75 104.68 152.75 109.60
  Q 152.75 132.73 152.75 155.86
  C 152.74 160.65 155.42 162.28 160.05 162.28
  Q 200.29 162.21 240.89 162.28"
/>
<path stroke="#6a80a7" vector-effect="non-scaling-stroke" d="
  M 240.89 162.28
  L 219.97 190.33
  A 0.57 0.57 0.0 0 0 220.10 191.14
  L 246.40 209.87
  A 0.64 0.64 0.0 0 0 247.28 209.73
  L 278.44 167.42
  A 0.35 0.35 0.0 0 1 279.00 167.41
  C 290.25 182.04 302.17 196.67 315.42 209.58
  Q 320.15 214.18 325.72 217.46"
/>
<path stroke="#bfd4fc" vector-effect="non-scaling-stroke" d="
  M 79.58 19.15
  A 0.37 0.36 -42.6 0 0 79.55 19.80
  Q 80.18 20.15 80.78 19.76
  A 0.33 0.33 0.0 0 0 80.77 19.20
  Q 80.21 18.86 79.58 19.15"
/>
<path stroke="#bfd4fc" vector-effect="non-scaling-stroke" d="
  M 85.7369 20.7433
  A 1.04 0.68 43.3 0 0 85.4464 19.5351
  A 1.04 0.68 43.3 0 0 84.2231 19.3167
  A 1.04 0.68 43.3 0 0 84.5136 20.5249
  A 1.04 0.68 43.3 0 0 85.7369 20.7433"
/>
<path stroke="#bfd4fc" vector-effect="non-scaling-stroke" d="
  M 89.53 21.89
  Q 90.17 22.07 90.72 21.79
  A 0.31 0.31 0.0 0 0 90.77 21.27
  Q 90.11 20.78 89.43 21.20
  A 0.38 0.38 0.0 0 0 89.53 21.89"
/>
<path stroke="#72a5fb" vector-effect="non-scaling-stroke" d="
  M 70.33 22.97
  Q 70.31 24.14 71.39 24.56
  Q 85.08 29.83 82.91 44.66
  Q 82.87 44.93 83.14 44.96
  L 85.41 45.19
  Q 85.72 45.22 85.80 44.92
  C 88.65 34.10 82.15 23.89 71.52 21.35
  Q 70.36 21.07 70.34 22.27
  L 70.33 22.97"
/>
<path stroke="#bfd4fc" vector-effect="non-scaling-stroke" d="
  M 96.11 23.88
  A 0.22 0.21 28.2 0 0 96.22 23.85
  Q 96.80 23.45 96.32 23.20
  Q 95.78 22.92 95.38 23.14
  A 0.40 0.39 -59.6 0 0 95.57 23.88
  L 96.11 23.88"
/>
<path stroke="#adc6ef" vector-effect="non-scaling-stroke" d="
  M 61.37 43.91
  Q 61.82 44.26 62.26 44.35
  Q 62.65 44.43 63.17 44.13
  Q 67.35 41.67 71.15 38.82
  A 2.58 2.57 50.0 0 0 71.48 35.00
  Q 70.20 33.63 68.48 33.53
  A 0.63 0.63 0.0 0 1 67.89 32.87
  L 67.95 31.69
  A 0.63 0.62 3.3 0 0 67.36 31.04
  L 66.26 30.99
  A 0.47 0.47 0.0 0 0 65.76 31.49
  L 65.86 33.12
  Q 65.88 33.43 65.57 33.44
  L 65.20 33.45
  A 0.44 0.44 0.0 0 1 64.75 33.01
  L 64.75 31.49
  Q 64.75 31.04 64.29 31.03
  L 62.70 30.99"
/>
<path stroke="#72a5fb" vector-effect="non-scaling-stroke" d="
  M 62.70 30.99
  Q 62.49 30.95 62.39 30.86
  A 0.13 0.13 0.0 0 1 62.48 30.63
  Q 62.85 30.65 63.02 30.44
  Q 63.12 30.30 63.12 30.04
  Q 63.12 27.94 63.12 26.28
  A 1.36 1.36 0.0 0 0 61.23 25.02
  C 51.01 29.36 47.94 41.35 54.28 50.31
  A 2.00 1.99 57.1 0 0 56.91 50.88
  L 60.92 48.52
  A 0.55 0.55 0.0 0 0 60.97 47.60
  L 59.72 46.65
  A 0.74 0.73 33.3 0 1 59.52 45.70
  Q 60.02 44.84 61.37 43.91"
/>
<path stroke="#8bb2ed" vector-effect="non-scaling-stroke" d="
  M 62.70 30.99
  L 62.69 33.02
  Q 62.69 33.47 62.24 33.47
  L 60.27 33.46
  Q 59.74 33.46 59.73 33.98
  L 59.72 35.00
  Q 59.71 35.54 60.25 35.54
  L 60.99 35.54
  Q 61.47 35.54 61.46 36.02
  L 61.37 43.91"
/>
<path stroke="#cadcfe" vector-effect="non-scaling-stroke" d="
  M 105.4762 30.7561
  A 0.91 0.73 49.9 0 0 105.4484 29.5898
  A 0.91 0.73 49.9 0 0 104.3038 29.3639
  A 0.91 0.73 49.9 0 0 104.3316 30.5302
  A 0.91 0.73 49.9 0 0 105.4762 30.7561"
/>
<path stroke="#adc6ef" vector-effect="non-scaling-stroke" d="
  M 44.30 31.47
  L 43.46 32.20
  Q 42.76 32.80 43.67 32.96
  Q 44.30 33.07 44.74 32.66
  Q 44.92 32.49 44.97 32.19
  Q 45.06 31.76 44.98 31.60
  Q 44.72 31.10 44.30 31.47"
/>
<path stroke="#bfd4fc" vector-effect="non-scaling-stroke" d="
  M 108.19 33.91
  Q 108.68 35.33 109.95 34.44
  A 0.67 0.67 0.0 0 0 109.78 33.26
  Q 108.93 32.97 108.42 33.28
  A 0.54 0.53 -25.8 0 0 108.19 33.91"
/>
<path stroke="#bfd4fc" vector-effect="non-scaling-stroke" d="
  M 113.6390 38.5797
  A 0.88 0.68 39.5 0 0 113.3925 37.4953
  A 0.88 0.68 39.5 0 0 112.2810 37.4603
  A 0.88 0.68 39.5 0 0 112.5275 38.5447
  A 0.88 0.68 39.5 0 0 113.6390 38.5797"
/>
<path stroke="#95cedf" vector-effect="non-scaling-stroke" d="
  M 189.67 46.64
  L 187.84 44.26
  A 1.82 1.81 49.5 0 0 185.15 44.04
  L 184.92 44.25
  A 1.89 1.89 0.0 0 0 184.87 46.96
  L 189.31 51.40
  A 1.70 1.70 0.0 0 0 191.78 51.33
  L 198.57 43.68
  A 2.06 2.06 0.0 0 0 198.35 40.74
  L 197.94 40.40
  A 1.57 1.57 0.0 0 0 195.72 40.60
  L 190.75 46.66
  A 0.69 0.69 0.0 0 1 189.67 46.64"
/>
<path stroke="#bfd4fc" vector-effect="non-scaling-stroke" d="
  M 116.6407 42.7745
  A 0.93 0.73 45.6 0 0 116.5116 41.5992
  A 0.93 0.73 45.6 0 0 115.3393 41.4455
  A 0.93 0.73 45.6 0 0 115.4684 42.6208
  A 0.93 0.73 45.6 0 0 116.6407 42.7745"
/>
<path stroke="#bfd4fc" vector-effect="non-scaling-stroke" d="
  M 34.31 45.59
  Q 33.83 46.00 34.11 46.60
  A 0.45 0.45 0.0 0 0 34.95 46.52
  Q 35.04 46.13 34.92 45.76
  A 0.38 0.38 0.0 0 0 34.31 45.59"
/>
<path stroke="#bfd4fc" vector-effect="non-scaling-stroke" d="
  M 118.5284 47.6197
  A 0.66 0.43 88.4 0 0 118.9398 46.9480
  A 0.66 0.43 88.4 0 0 118.4916 46.3003
  A 0.66 0.43 88.4 0 0 118.0802 46.9720
  A 0.66 0.43 88.4 0 0 118.5284 47.6197"
/>
<path stroke="#adc6ef" vector-effect="non-scaling-stroke" d="
  M 61.20 97.37
  L 63.06 103.21
  Q 63.22 103.70 63.70 103.55
  L 69.26 101.85"
/>
<path stroke="#95cedf" vector-effect="non-scaling-stroke" d="
  M 69.26 101.85
  Q 69.57 101.91 69.70 102.02
  Q 69.74 102.05 69.85 102.40
  Q 74.58 116.50 79.11 130.59
  A 0.82 0.81 -18.2 0 0 80.15 131.11
  L 114.76 119.06
  A 0.50 0.49 -18.6 0 0 115.07 118.44
  L 105.60 88.66"
/>
<path stroke="#adc6ef" vector-effect="non-scaling-stroke" d="
  M 105.60 88.66
  L 110.44 86.61
  Q 110.93 86.40 110.73 85.90
  L 108.59 80.65"
/>
<path stroke="#bfd4fc" vector-effect="non-scaling-stroke" d="
  M 108.59 80.65
  Q 103.16 65.59 97.72 51.14
  C 95.86 46.19 90.03 45.85 85.85 47.41
  C 80.05 49.57 74.08 51.22 68.19 53.08
  C 67.92 53.16 67.66 53.11 67.37 53.12
  Q 66.93 53.12 66.60 53.43
  Q 65.41 54.54 63.74 54.18
  A 0.74 0.73 -66.3 0 0 62.99 54.48
  Q 62.48 55.21 61.56 55.12
  Q 61.10 55.08 60.67 55.24
  C 57.79 56.35 53.82 57.42 51.87 59.60
  Q 48.85 63.00 50.56 67.75
  Q 55.70 82.05 61.20 97.37"
/>
<path stroke="#d8e1ee" vector-effect="non-scaling-stroke" d="
  M 108.59 80.65
  Q 105.53 78.92 103.75 79.23
  Q 101.14 79.68 95.55 81.67
  C 94.78 81.94 93.98 81.81 93.23 82.15
  Q 91.87 82.76 91.79 82.79
  Q 81.61 85.93 71.53 89.35
  C 69.34 90.10 66.46 90.99 64.63 92.94
  Q 62.88 94.83 61.20 97.37"
/>
<path stroke="#aedbd1" vector-effect="non-scaling-stroke" d="
  M 105.60 88.66
  L 103.75 82.84
  Q 103.59 82.35 103.07 82.32
  Q 102.14 82.27 101.06 82.88"
/>
<path stroke="#73c9af" vector-effect="non-scaling-stroke" d="
  M 101.06 82.88
  L 75.21 91.88"
/>
<path stroke="#aedbd1" vector-effect="non-scaling-stroke" d="
  M 75.21 91.88
  Q 73.41 91.84 71.84 93.05"
/>
<path stroke="#73c9af" vector-effect="non-scaling-stroke" d="
  M 71.84 93.05
  Q 69.90 93.04 69.07 93.97"
/>
<path stroke="#aedbd1" vector-effect="non-scaling-stroke" d="
  M 69.07 93.97
  L 67.80 94.27
  Q 67.21 94.41 67.41 94.98
  Q 67.96 96.58 69.58 100.73
  Q 69.95 101.67 69.26 101.85"
/>
<path stroke="#5bd19f" vector-effect="non-scaling-stroke" d="
  M 71.84 93.05
  L 80.92 118.35
  Q 81.10 118.84 81.62 118.78
  Q 86.86 118.22 89.40 122.71
  A 0.67 0.66 -25.2 0 0 90.22 123.00
  L 103.26 117.88
  Q 103.80 117.66 103.78 117.08
  Q 103.60 112.08 107.42 108.85
  A 0.69 0.69 0.0 0 0 107.63 108.09
  L 101.53 91.29
  Q 101.28 90.59 101.34 91.34
  C 102.75 108.62 77.73 111.09 75.67 94.02
  Q 75.62 93.61 75.80 93.24
  L 76.07 92.69
  Q 76.39 92.04 75.67 91.94
  L 75.21 91.88"
/>
<path stroke="#5bd19f" vector-effect="non-scaling-stroke" d="
  M 69.07 93.97
  L 81.64 128.49
  A 0.86 0.86 0.0 0 0 82.74 129.01
  L 113.02 118.04
  A 0.35 0.35 0.0 0 0 113.23 117.59
  L 101.06 82.88"
/>
<path stroke="#cadcfe" vector-effect="non-scaling-stroke" d="
  M 32.4453 51.9584
  A 0.95 0.53 93.3 0 0 33.0291 51.0405
  A 0.95 0.53 93.3 0 0 32.5547 50.0616
  A 0.95 0.53 93.3 0 0 31.9709 50.9795
  A 0.95 0.53 93.3 0 0 32.4453 51.9584"
/>
<path stroke="#bfd4fc" vector-effect="non-scaling-stroke" d="
  M 121.6177 52.7316
  A 0.94 0.70 45.6 0 0 121.4601 51.5702
  A 0.94 0.70 45.6 0 0 120.3023 51.3884
  A 0.94 0.70 45.6 0 0 120.4599 52.5498
  A 0.94 0.70 45.6 0 0 121.6177 52.7316"
/>
<path stroke="#bfd4fc" vector-effect="non-scaling-stroke" d="
  M 30.29 55.59
  Q 29.84 56.00 30.10 56.58
  A 0.45 0.44 41.9 0 0 30.93 56.54
  Q 31.09 56.06 30.83 55.66
  A 0.36 0.36 0.0 0 0 30.29 55.59"
/>
<path stroke="#bfd4fc" vector-effect="non-scaling-stroke" d="
  M 29.5135 62.9400
  A 0.93 0.53 90.4 0 0 30.0500 62.0137
  A 0.93 0.53 90.4 0 0 29.5265 61.0800
  A 0.93 0.53 90.4 0 0 28.9900 62.0063
  A 0.93 0.53 90.4 0 0 29.5135 62.9400"
/>
<path stroke="#bfd4fc" vector-effect="non-scaling-stroke" d="
  M 124.34 62.57
  Q 123.84 62.98 124.12 63.58
  A 0.43 0.43 0.0 0 0 124.92 63.53
  Q 125.06 63.08 124.86 62.68
  A 0.34 0.34 0.0 0 0 124.34 62.57"
/>
<path stroke="#95cedf" vector-effect="non-scaling-stroke" d="
  M 135.08 94.62
  C 133.53 84.88 135.04 75.38 141.05 67.78
  C 141.84 66.78 143.12 65.96 144.05 64.84
  Q 144.30 64.54 143.93 64.43
  L 143.36 64.26
  Q 143.18 64.20 143.04 64.33
  C 132.76 73.64 132.30 87.66 135.16 100.17
  Q 135.23 100.51 135.57 100.45
  L 135.83 100.40
  Q 135.92 100.39 135.91 100.30
  Q 135.53 97.46 135.08 94.62"
/>
<path stroke="#bfd4fc" vector-effect="non-scaling-stroke" d="
  M 28.13 72.42
  Q 27.87 72.99 28.39 73.45
  Q 28.82 73.83 28.93 73.27
  Q 29.01 72.88 28.92 72.50
  A 0.42 0.42 0.0 0 0 28.13 72.42"
/>
<path stroke="#bfd4fc" vector-effect="non-scaling-stroke" d="
  M 125.25 73.35
  Q 124.74 73.97 125.17 74.69
  A 0.39 0.38 -45.7 0 0 125.84 74.68
  Q 126.15 74.12 125.91 73.46
  A 0.38 0.38 0.0 0 0 125.25 73.35"
/>
<path stroke="#cadcfe" vector-effect="non-scaling-stroke" d="
  M 125.30 79.31
  Q 124.77 79.94 125.16 80.67
  A 0.41 0.40 -52.3 0 0 125.91 80.57
  Q 126.03 80.05 125.95 79.50
  A 0.37 0.37 0.0 0 0 125.30 79.31"
/>
<path stroke="#cadcfe" vector-effect="non-scaling-stroke" d="
  M 124.4628 85.9693
  A 0.97 0.54 92.2 0 0 125.0396 85.0207
  A 0.97 0.54 92.2 0 0 124.5372 84.0307
  A 0.97 0.54 92.2 0 0 123.9604 84.9793
  A 0.97 0.54 92.2 0 0 124.4628 85.9693"
/>
<path stroke="#adc6ef" vector-effect="non-scaling-stroke" d="
  M 31.68 88.50
  A 0.22 0.22 0.0 0 0 31.32 88.50
  Q 30.87 89.14 31.36 89.65
  A 0.31 0.31 0.0 0 0 31.89 89.49
  Q 31.97 88.93 31.68 88.50"
/>
<path stroke="#cadcfe" vector-effect="non-scaling-stroke" d="
  M 123.26 90.13
  Q 122.78 90.66 122.98 91.15
  Q 123.58 92.62 124.03 91.10
  Q 124.08 90.96 123.93 90.31
  A 0.39 0.39 0.0 0 0 123.26 90.13"
/>
<path stroke="#adc6ef" vector-effect="non-scaling-stroke" d="
  M 33.74 94.44
  Q 33.56 94.09 33.32 94.40
  Q 32.83 95.02 33.40 95.63
  A 0.28 0.28 0.0 0 0 33.88 95.49
  Q 33.97 94.89 33.74 94.44"
/>
<path stroke="#bfd4fc" vector-effect="non-scaling-stroke" d="
  M 121.4697 96.9683
  A 0.74 0.52 93.9 0 0 122.0388 96.2654
  A 0.74 0.52 93.9 0 0 121.5703 95.4917
  A 0.74 0.52 93.9 0 0 121.0012 96.1946
  A 0.74 0.52 93.9 0 0 121.4697 96.9683"
/>
<path stroke="#cadcfe" vector-effect="non-scaling-stroke" d="
  M 116.1487 106.8978
  A 1.23 0.64 133.8 0 0 117.4619 106.4530
  A 1.23 0.64 133.8 0 0 117.8513 105.1222
  A 1.23 0.64 133.8 0 0 116.5381 105.5670
  A 1.23 0.64 133.8 0 0 116.1487 106.8978"
/>
<path stroke="#adc6ef" vector-effect="non-scaling-stroke" d="
  M 49.7536 117.7074
  A 1.00 0.79 41.1 0 0 49.5193 116.4547
  A 1.00 0.79 41.1 0 0 48.2464 116.3926
  A 1.00 0.79 41.1 0 0 48.4807 117.6453
  A 1.00 0.79 41.1 0 0 49.7536 117.7074"
/>
<path stroke="#bfd4fc" vector-effect="non-scaling-stroke" d="
  M 59.5143 123.9142
  A 1.10 0.82 53.5 0 0 59.5192 122.5422
  A 1.10 0.82 53.5 0 0 58.2057 122.1458
  A 1.10 0.82 53.5 0 0 58.2008 123.5178
  A 1.10 0.82 53.5 0 0 59.5143 123.9142"
/>
<path stroke="#bfd4fc" vector-effect="non-scaling-stroke" d="
  M 64.7889 125.4587
  A 0.79 0.49 -3.0 0 0 63.9744 125.0107
  A 0.79 0.49 -3.0 0 0 63.2111 125.5413
  A 0.79 0.49 -3.0 0 0 64.0256 125.9893
  A 0.79 0.49 -3.0 0 0 64.7889 125.4587"
/>
<path stroke="#bfd4fc" vector-effect="non-scaling-stroke" d="
  M 69.8429 127.8905
  A 1.24 0.68 45.9 0 0 69.4683 126.5268
  A 1.24 0.68 45.9 0 0 68.1171 126.1095
  A 1.24 0.68 45.9 0 0 68.4917 127.4732
  A 1.24 0.68 45.9 0 0 69.8429 127.8905"
/>
<path stroke="#0f386d" vector-effect="non-scaling-stroke" d="
  M 307.80 100.79
  Q 302.53 90.82 295.95 81.78
  C 293.82 78.87 288.73 78.35 285.46 76.71"
/>
<path stroke="#736966" vector-effect="non-scaling-stroke" d="
  M 287.43 72.72
  L 286.49 68.37
  A 1.87 1.86 -16.5 0 1 287.66 66.22
  Q 290.18 65.29 291.06 62.79
  Q 291.22 62.33 290.98 61.91
  C 289.25 58.84 284.47 59.72 281.49 59.77
  Q 280.96 59.78 280.56 59.44
  Q 278.65 57.81 277.78 55.45
  A 1.08 1.05 0.2 0 0 277.13 54.81
  C 274.19 53.74 272.95 53.37 271.57 50.42"
/>
<path stroke="#d8e1ee" vector-effect="non-scaling-stroke" d="
  M 84.08 70.96
  L 81.11 61.79
  A 1.55 1.54 67.0 0 0 78.92 60.90
  Q 77.30 61.76 75.36 62.02
  A 1.73 1.73 0.0 0 0 73.93 64.25
  L 76.78 73.28
  Q 77.21 74.63 75.80 74.65
  Q 73.17 74.70 72.66 77.00
  A 1.28 1.28 0.0 0 0 73.32 78.40
  L 81.61 82.69
  A 2.89 2.88 -62.6 0 0 85.51 81.45
  L 89.95 72.85
  A 1.58 1.58 0.0 0 0 89.27 70.71
  L 88.80 70.46
  Q 88.34 70.23 87.85 70.37
  L 84.72 71.29
  Q 84.23 71.44 84.08 70.96"
/>
<path stroke="#82a1d2" vector-effect="non-scaling-stroke" d="
  M 253.00 74.70
  Q 252.06 76.19 251.92 77.18"
/>
<path stroke="#736966" vector-effect="non-scaling-stroke" d="
  M 251.92 77.18
  Q 247.61 85.15 244.45 94.14"
/>
<path stroke="#82a1d2" vector-effect="non-scaling-stroke" d="
  M 306.75 101.17
  Q 298.72 106.11 289.36 103.75
  A 0.31 0.31 0.0 0 0 288.99 104.16
  C 290.17 107.55 291.27 112.11 293.03 115.01
  Q 293.48 115.75 292.81 116.60
  Q 292.63 116.83 292.42 116.62
  L 265.16 88.62
  A 0.99 0.99 0.0 0 0 263.53 88.95
  Q 262.74 90.98 261.37 92.64
  A 1.14 1.11 61.5 0 0 261.12 93.52
  Q 261.30 94.82 260.61 96.55"
/>
<path stroke="#0f386d" vector-effect="non-scaling-stroke" d="
  M 248.57 95.34
  L 251.92 77.18"
/>
<path stroke="#5bd19f" vector-effect="non-scaling-stroke" d="
  M 80.75 95.56
  L 79.77 96.00
  A 0.88 0.87 76.0 0 0 79.26 96.86
  Q 79.29 97.36 79.69 97.71
  C 80.15 98.13 80.70 98.02 81.28 97.95
  Q 81.80 97.89 82.14 98.29
  C 82.89 99.16 83.64 100.09 84.82 100.31
  C 89.47 101.22 89.87 96.80 91.23 93.77
  A 0.85 0.84 -57.3 0 1 92.55 93.48
  L 92.93 93.81
  A 1.79 1.79 0.0 0 1 93.33 96.00
  Q 92.58 97.42 93.85 98.17
  A 1.42 1.42 0.0 0 0 95.99 96.77
  Q 95.71 94.60 97.84 94.92
  A 0.40 0.40 0.0 0 0 98.29 94.44
  L 97.94 92.76
  Q 97.81 92.12 97.23 92.42
  Q 95.84 93.15 95.12 91.85
  Q 94.87 91.41 94.46 91.13
  C 89.82 87.92 88.15 92.92 86.94 96.55
  A 1.13 1.13 0.0 0 1 85.51 97.27
  L 85.16 97.15
  Q 83.62 96.63 84.07 95.06
  L 84.75 92.66
  Q 84.89 92.18 84.42 92.04
  L 82.68 91.51
  Q 82.20 91.36 82.07 91.85
  L 81.24 94.99
  Q 81.13 95.39 80.75 95.56"
/>
<path stroke="#938d8e" vector-effect="non-scaling-stroke" d="
  M 294.21 139.39
  Q 290.99 135.87 285.60 133.04
  Q 285.34 132.90 285.12 132.70
  Q 283.93 131.58 284.75 132.25"
/>
<path stroke="#82a1d2" vector-effect="non-scaling-stroke" d="
  M 284.75 132.25
  L 262.16 105.64"
/>
<path stroke="#a0a3a8" vector-effect="non-scaling-stroke" d="
  M 245.28 156.12
  L 240.89 162.28"
/>
<path stroke="#ee80a8" vector-effect="non-scaling-stroke" d="
  M 163.85 112.49
  A 2.18 2.18 0.0 0 0 161.67 110.31
  A 2.18 2.18 0.0 0 0 159.49 112.49
  A 2.18 2.18 0.0 0 0 161.67 114.67
  A 2.18 2.18 0.0 0 0 163.85 112.49"
/>
<path stroke="#f3e9e5" vector-effect="non-scaling-stroke" d="
  M 170.56 112.48
  A 2.20 2.20 0.0 0 0 168.36 110.28
  A 2.20 2.20 0.0 0 0 166.16 112.48
  A 2.20 2.20 0.0 0 0 168.36 114.68
  A 2.20 2.20 0.0 0 0 170.56 112.48"
/>
<path stroke="#cbf1e0" vector-effect="non-scaling-stroke" d="
  M 177.90 112.47
  A 2.20 2.20 0.0 0 0 175.70 110.27
  A 2.20 2.20 0.0 0 0 173.50 112.47
  A 2.20 2.20 0.0 0 0 175.70 114.67
  A 2.20 2.20 0.0 0 0 177.90 112.47"
/>
<path stroke="#cadcfe" vector-effect="non-scaling-stroke" d="
  M 236.07 118.95
  A 0.92 0.92 0.0 0 0 235.15 118.03
  L 161.23 118.03
  A 0.92 0.92 0.0 0 0 160.31 118.95
  L 160.31 119.03
  A 0.92 0.92 0.0 0 0 161.23 119.95
  L 235.15 119.95
  A 0.92 0.92 0.0 0 0 236.07 119.03
  L 236.07 118.95"
/>
<path stroke="#2f5b95" vector-effect="non-scaling-stroke" d="
  M 284.75 132.25
  Q 275.75 130.77 268.28 125.52"
/>
</g>
<path fill="#52678d" fill-opacity="0.537" d="
  M 0.00 0.00
  L 381.00 0.00
  L 381.00 218.00
  L 346.62 218.00
  L 347.34 217.46
  L 379.09 217.54
  A 1.31 1.31 0.0 0 0 380.41 216.23
  L 380.42 1.28
  A 0.39 0.39 0.0 0 0 380.03 0.89
  L 1.54 0.92
  Q 1.01 0.92 1.01 1.46
  L 1.01 217.01
  A 0.43 0.42 90.0 0 0 1.43 217.44
  L 325.72 217.46
  L 326.50 218.00
  L 0.00 218.00
  L 0.00 0.00
  Z"
/>
<path fill="#94b9fd" d="
  M 347.34 217.46
  L 346.46 201.55
  Q 346.43 201.05 346.04 200.74
  Q 325.94 185.05 309.13 165.88
  C 303.11 159.01 295.47 149.03 294.21 139.39
  Q 296.71 140.71 299.98 140.96
  C 321.02 142.60 310.48 111.26 307.26 101.50
  Q 307.13 101.12 306.75 101.17
  Q 307.32 101.06 307.80 100.79
  C 312.56 101.93 325.26 105.06 327.54 98.01
  C 330.10 90.06 324.59 86.56 318.23 83.76
  A 1.99 1.99 0.0 0 1 317.10 81.44
  C 317.37 80.41 317.84 79.69 317.59 78.50
  C 316.30 72.25 314.27 65.29 308.19 61.74
  C 304.68 59.69 299.51 57.43 297.36 53.84
  C 294.55 49.15 291.51 44.70 285.53 44.17
  Q 276.93 43.43 271.63 49.84
  Q 271.34 50.20 271.57 50.42
  L 270.81 51.05
  Q 270.45 51.35 270.28 51.79
  C 265.69 64.01 273.22 76.49 287.43 72.72
  Q 288.00 73.97 287.62 75.96
  Q 287.49 76.66 285.46 76.71
  L 277.20 79.26
  Q 276.74 79.41 276.30 79.21
  C 268.84 75.83 261.05 75.31 253.00 74.70
  Q 245.83 73.62 229.25 72.49
  Q 215.13 71.54 198.09 66.54
  Q 194.51 65.49 186.35 62.10
  Q 175.68 57.66 164.51 55.77
  C 162.39 55.41 157.68 55.98 159.66 59.56
  Q 159.91 60.01 160.42 59.98
  L 165.34 59.63
  A 0.39 0.39 0.0 0 1 165.75 60.12
  L 164.10 66.11
  Q 163.98 66.56 164.12 67.00
  Q 165.48 71.34 169.74 72.45
  Q 170.18 72.56 170.48 72.22
  L 171.17 71.44
  Q 171.56 71.01 172.04 71.34
  C 177.38 74.98 182.44 78.87 188.60 80.97
  Q 198.04 84.18 207.72 86.57
  Q 211.20 87.43 225.38 89.85
  Q 234.96 91.49 244.45 94.14
  L 248.57 95.34
  L 260.61 96.55
  Q 261.15 97.12 260.98 98.18
  A 0.66 0.65 -86.6 0 1 260.38 98.72
  L 259.21 98.77
  A 0.47 0.47 0.0 0 0 258.81 99.46
  L 262.16 105.64
  L 257.73 116.77
  A 0.95 0.95 0.0 0 0 258.04 117.89
  L 268.28 125.52
  L 245.28 156.12
  Q 244.82 132.49 244.97 110.09
  C 245.01 104.66 242.73 102.50 237.16 102.50
  Q 198.41 102.49 159.66 102.50
  C 154.88 102.50 152.75 104.68 152.75 109.60
  Q 152.75 132.73 152.75 155.86
  C 152.74 160.65 155.42 162.28 160.05 162.28
  Q 200.29 162.21 240.89 162.28
  L 219.97 190.33
  A 0.57 0.57 0.0 0 0 220.10 191.14
  L 246.40 209.87
  A 0.64 0.64 0.0 0 0 247.28 209.73
  L 278.44 167.42
  A 0.35 0.35 0.0 0 1 279.00 167.41
  C 290.25 182.04 302.17 196.67 315.42 209.58
  Q 320.15 214.18 325.72 217.46
  L 1.43 217.44
  A 0.43 0.42 90.0 0 1 1.01 217.01
  L 1.01 1.46
  Q 1.01 0.92 1.54 0.92
  L 380.03 0.89
  A 0.39 0.39 0.0 0 1 380.42 1.28
  L 380.41 216.23
  A 1.31 1.31 0.0 0 1 379.09 217.54
  L 347.34 217.46
  Z
  M 79.58 19.15
  A 0.37 0.36 -42.6 0 0 79.55 19.80
  Q 80.18 20.15 80.78 19.76
  A 0.33 0.33 0.0 0 0 80.77 19.20
  Q 80.21 18.86 79.58 19.15
  Z
  M 85.7369 20.7433
  A 1.04 0.68 43.3 0 0 85.4464 19.5351
  A 1.04 0.68 43.3 0 0 84.2231 19.3167
  A 1.04 0.68 43.3 0 0 84.5136 20.5249
  A 1.04 0.68 43.3 0 0 85.7369 20.7433
  Z
  M 89.53 21.89
  Q 90.17 22.07 90.72 21.79
  A 0.31 0.31 0.0 0 0 90.77 21.27
  Q 90.11 20.78 89.43 21.20
  A 0.38 0.38 0.0 0 0 89.53 21.89
  Z
  M 70.33 22.97
  Q 70.31 24.14 71.39 24.56
  Q 85.08 29.83 82.91 44.66
  Q 82.87 44.93 83.14 44.96
  L 85.41 45.19
  Q 85.72 45.22 85.80 44.92
  C 88.65 34.10 82.15 23.89 71.52 21.35
  Q 70.36 21.07 70.34 22.27
  L 70.33 22.97
  Z
  M 96.11 23.88
  A 0.22 0.21 28.2 0 0 96.22 23.85
  Q 96.80 23.45 96.32 23.20
  Q 95.78 22.92 95.38 23.14
  A 0.40 0.39 -59.6 0 0 95.57 23.88
  L 96.11 23.88
  Z
  M 61.37 43.91
  Q 61.82 44.26 62.26 44.35
  Q 62.65 44.43 63.17 44.13
  Q 67.35 41.67 71.15 38.82
  A 2.58 2.57 50.0 0 0 71.48 35.00
  Q 70.20 33.63 68.48 33.53
  A 0.63 0.63 0.0 0 1 67.89 32.87
  L 67.95 31.69
  A 0.63 0.62 3.3 0 0 67.36 31.04
  L 66.26 30.99
  A 0.47 0.47 0.0 0 0 65.76 31.49
  L 65.86 33.12
  Q 65.88 33.43 65.57 33.44
  L 65.20 33.45
  A 0.44 0.44 0.0 0 1 64.75 33.01
  L 64.75 31.49
  Q 64.75 31.04 64.29 31.03
  L 62.70 30.99
  Q 62.49 30.95 62.39 30.86
  A 0.13 0.13 0.0 0 1 62.48 30.63
  Q 62.85 30.65 63.02 30.44
  Q 63.12 30.30 63.12 30.04
  Q 63.12 27.94 63.12 26.28
  A 1.36 1.36 0.0 0 0 61.23 25.02
  C 51.01 29.36 47.94 41.35 54.28 50.31
  A 2.00 1.99 57.1 0 0 56.91 50.88
  L 60.92 48.52
  A 0.55 0.55 0.0 0 0 60.97 47.60
  L 59.72 46.65
  A 0.74 0.73 33.3 0 1 59.52 45.70
  Q 60.02 44.84 61.37 43.91
  Z
  M 105.4762 30.7561
  A 0.91 0.73 49.9 0 0 105.4484 29.5898
  A 0.91 0.73 49.9 0 0 104.3038 29.3639
  A 0.91 0.73 49.9 0 0 104.3316 30.5302
  A 0.91 0.73 49.9 0 0 105.4762 30.7561
  Z
  M 44.30 31.47
  L 43.46 32.20
  Q 42.76 32.80 43.67 32.96
  Q 44.30 33.07 44.74 32.66
  Q 44.92 32.49 44.97 32.19
  Q 45.06 31.76 44.98 31.60
  Q 44.72 31.10 44.30 31.47
  Z
  M 108.19 33.91
  Q 108.68 35.33 109.95 34.44
  A 0.67 0.67 0.0 0 0 109.78 33.26
  Q 108.93 32.97 108.42 33.28
  A 0.54 0.53 -25.8 0 0 108.19 33.91
  Z
  M 113.6390 38.5797
  A 0.88 0.68 39.5 0 0 113.3925 37.4953
  A 0.88 0.68 39.5 0 0 112.2810 37.4603
  A 0.88 0.68 39.5 0 0 112.5275 38.5447
  A 0.88 0.68 39.5 0 0 113.6390 38.5797
  Z
  M 189.67 46.64
  L 187.84 44.26
  A 1.82 1.81 49.5 0 0 185.15 44.04
  L 184.92 44.25
  A 1.89 1.89 0.0 0 0 184.87 46.96
  L 189.31 51.40
  A 1.70 1.70 0.0 0 0 191.78 51.33
  L 198.57 43.68
  A 2.06 2.06 0.0 0 0 198.35 40.74
  L 197.94 40.40
  A 1.57 1.57 0.0 0 0 195.72 40.60
  L 190.75 46.66
  A 0.69 0.69 0.0 0 1 189.67 46.64
  Z
  M 116.6407 42.7745
  A 0.93 0.73 45.6 0 0 116.5116 41.5992
  A 0.93 0.73 45.6 0 0 115.3393 41.4455
  A 0.93 0.73 45.6 0 0 115.4684 42.6208
  A 0.93 0.73 45.6 0 0 116.6407 42.7745
  Z
  M 34.31 45.59
  Q 33.83 46.00 34.11 46.60
  A 0.45 0.45 0.0 0 0 34.95 46.52
  Q 35.04 46.13 34.92 45.76
  A 0.38 0.38 0.0 0 0 34.31 45.59
  Z
  M 118.5284 47.6197
  A 0.66 0.43 88.4 0 0 118.9398 46.9480
  A 0.66 0.43 88.4 0 0 118.4916 46.3003
  A 0.66 0.43 88.4 0 0 118.0802 46.9720
  A 0.66 0.43 88.4 0 0 118.5284 47.6197
  Z
  M 61.20 97.37
  L 63.06 103.21
  Q 63.22 103.70 63.70 103.55
  L 69.26 101.85
  Q 69.57 101.91 69.70 102.02
  Q 69.74 102.05 69.85 102.40
  Q 74.58 116.50 79.11 130.59
  A 0.82 0.81 -18.2 0 0 80.15 131.11
  L 114.76 119.06
  A 0.50 0.49 -18.6 0 0 115.07 118.44
  L 105.60 88.66
  L 110.44 86.61
  Q 110.93 86.40 110.73 85.90
  L 108.59 80.65
  Q 103.16 65.59 97.72 51.14
  C 95.86 46.19 90.03 45.85 85.85 47.41
  C 80.05 49.57 74.08 51.22 68.19 53.08
  C 67.92 53.16 67.66 53.11 67.37 53.12
  Q 66.93 53.12 66.60 53.43
  Q 65.41 54.54 63.74 54.18
  A 0.74 0.73 -66.3 0 0 62.99 54.48
  Q 62.48 55.21 61.56 55.12
  Q 61.10 55.08 60.67 55.24
  C 57.79 56.35 53.82 57.42 51.87 59.60
  Q 48.85 63.00 50.56 67.75
  Q 55.70 82.05 61.20 97.37
  Z
  M 32.4453 51.9584
  A 0.95 0.53 93.3 0 0 33.0291 51.0405
  A 0.95 0.53 93.3 0 0 32.5547 50.0616
  A 0.95 0.53 93.3 0 0 31.9709 50.9795
  A 0.95 0.53 93.3 0 0 32.4453 51.9584
  Z
  M 121.6177 52.7316
  A 0.94 0.70 45.6 0 0 121.4601 51.5702
  A 0.94 0.70 45.6 0 0 120.3023 51.3884
  A 0.94 0.70 45.6 0 0 120.4599 52.5498
  A 0.94 0.70 45.6 0 0 121.6177 52.7316
  Z
  M 30.29 55.59
  Q 29.84 56.00 30.10 56.58
  A 0.45 0.44 41.9 0 0 30.93 56.54
  Q 31.09 56.06 30.83 55.66
  A 0.36 0.36 0.0 0 0 30.29 55.59
  Z
  M 29.5135 62.9400
  A 0.93 0.53 90.4 0 0 30.0500 62.0137
  A 0.93 0.53 90.4 0 0 29.5265 61.0800
  A 0.93 0.53 90.4 0 0 28.9900 62.0063
  A 0.93 0.53 90.4 0 0 29.5135 62.9400
  Z
  M 124.34 62.57
  Q 123.84 62.98 124.12 63.58
  A 0.43 0.43 0.0 0 0 124.92 63.53
  Q 125.06 63.08 124.86 62.68
  A 0.34 0.34 0.0 0 0 124.34 62.57
  Z
  M 135.08 94.62
  C 133.53 84.88 135.04 75.38 141.05 67.78
  C 141.84 66.78 143.12 65.96 144.05 64.84
  Q 144.30 64.54 143.93 64.43
  L 143.36 64.26
  Q 143.18 64.20 143.04 64.33
  C 132.76 73.64 132.30 87.66 135.16 100.17
  Q 135.23 100.51 135.57 100.45
  L 135.83 100.40
  Q 135.92 100.39 135.91 100.30
  Q 135.53 97.46 135.08 94.62
  Z
  M 28.13 72.42
  Q 27.87 72.99 28.39 73.45
  Q 28.82 73.83 28.93 73.27
  Q 29.01 72.88 28.92 72.50
  A 0.42 0.42 0.0 0 0 28.13 72.42
  Z
  M 125.25 73.35
  Q 124.74 73.97 125.17 74.69
  A 0.39 0.38 -45.7 0 0 125.84 74.68
  Q 126.15 74.12 125.91 73.46
  A 0.38 0.38 0.0 0 0 125.25 73.35
  Z
  M 125.30 79.31
  Q 124.77 79.94 125.16 80.67
  A 0.41 0.40 -52.3 0 0 125.91 80.57
  Q 126.03 80.05 125.95 79.50
  A 0.37 0.37 0.0 0 0 125.30 79.31
  Z
  M 124.4628 85.9693
  A 0.97 0.54 92.2 0 0 125.0396 85.0207
  A 0.97 0.54 92.2 0 0 124.5372 84.0307
  A 0.97 0.54 92.2 0 0 123.9604 84.9793
  A 0.97 0.54 92.2 0 0 124.4628 85.9693
  Z
  M 31.68 88.50
  A 0.22 0.22 0.0 0 0 31.32 88.50
  Q 30.87 89.14 31.36 89.65
  A 0.31 0.31 0.0 0 0 31.89 89.49
  Q 31.97 88.93 31.68 88.50
  Z
  M 123.26 90.13
  Q 122.78 90.66 122.98 91.15
  Q 123.58 92.62 124.03 91.10
  Q 124.08 90.96 123.93 90.31
  A 0.39 0.39 0.0 0 0 123.26 90.13
  Z
  M 33.74 94.44
  Q 33.56 94.09 33.32 94.40
  Q 32.83 95.02 33.40 95.63
  A 0.28 0.28 0.0 0 0 33.88 95.49
  Q 33.97 94.89 33.74 94.44
  Z
  M 121.4697 96.9683
  A 0.74 0.52 93.9 0 0 122.0388 96.2654
  A 0.74 0.52 93.9 0 0 121.5703 95.4917
  A 0.74 0.52 93.9 0 0 121.0012 96.1946
  A 0.74 0.52 93.9 0 0 121.4697 96.9683
  Z
  M 116.1487 106.8978
  A 1.23 0.64 133.8 0 0 117.4619 106.4530
  A 1.23 0.64 133.8 0 0 117.8513 105.1222
  A 1.23 0.64 133.8 0 0 116.5381 105.5670
  A 1.23 0.64 133.8 0 0 116.1487 106.8978
  Z
  M 49.7536 117.7074
  A 1.00 0.79 41.1 0 0 49.5193 116.4547
  A 1.00 0.79 41.1 0 0 48.2464 116.3926
  A 1.00 0.79 41.1 0 0 48.4807 117.6453
  A 1.00 0.79 41.1 0 0 49.7536 117.7074
  Z
  M 59.5143 123.9142
  A 1.10 0.82 53.5 0 0 59.5192 122.5422
  A 1.10 0.82 53.5 0 0 58.2057 122.1458
  A 1.10 0.82 53.5 0 0 58.2008 123.5178
  A 1.10 0.82 53.5 0 0 59.5143 123.9142
  Z
  M 64.7889 125.4587
  A 0.79 0.49 -3.0 0 0 63.9744 125.0107
  A 0.79 0.49 -3.0 0 0 63.2111 125.5413
  A 0.79 0.49 -3.0 0 0 64.0256 125.9893
  A 0.79 0.49 -3.0 0 0 64.7889 125.4587
  Z
  M 69.8429 127.8905
  A 1.24 0.68 45.9 0 0 69.4683 126.5268
  A 1.24 0.68 45.9 0 0 68.1171 126.1095
  A 1.24 0.68 45.9 0 0 68.4917 127.4732
  A 1.24 0.68 45.9 0 0 69.8429 127.8905
  Z"
/>
<path fill="#eaeefa" d="
  M 79.58 19.15
  Q 80.21 18.86 80.77 19.20
  A 0.33 0.33 0.0 0 1 80.78 19.76
  Q 80.18 20.15 79.55 19.80
  A 0.37 0.36 -42.6 0 1 79.58 19.15
  Z"
/>
<ellipse fill="#eaeefa" cx="0.00" cy="0.00" transform="translate(84.98,20.03) rotate(43.3)" rx="1.04" ry="0.68"/>
<path fill="#eaeefa" d="
  M 89.53 21.89
  A 0.38 0.38 0.0 0 1 89.43 21.20
  Q 90.11 20.78 90.77 21.27
  A 0.31 0.31 0.0 0 1 90.72 21.79
  Q 90.17 22.07 89.53 21.89
  Z"
/>
<path fill="#4f90f8" d="
  M 70.33 22.97
  L 70.34 22.27
  Q 70.36 21.07 71.52 21.35
  C 82.15 23.89 88.65 34.10 85.80 44.92
  Q 85.72 45.22 85.41 45.19
  L 83.14 44.96
  Q 82.87 44.93 82.91 44.66
  Q 85.08 29.83 71.39 24.56
  Q 70.31 24.14 70.33 22.97
  Z"
/>
<path fill="#eaeefa" d="
  M 96.11 23.88
  L 95.57 23.88
  A 0.40 0.39 -59.6 0 1 95.38 23.14
  Q 95.78 22.92 96.32 23.20
  Q 96.80 23.45 96.22 23.85
  A 0.22 0.21 28.2 0 1 96.11 23.88
  Z"
/>
<path fill="#4f90f8" d="
  M 62.70 30.99
  L 62.69 33.02
  Q 62.69 33.47 62.24 33.47
  L 60.27 33.46
  Q 59.74 33.46 59.73 33.98
  L 59.72 35.00
  Q 59.71 35.54 60.25 35.54
  L 60.99 35.54
  Q 61.47 35.54 61.46 36.02
  L 61.37 43.91
  Q 60.02 44.84 59.52 45.70
  A 0.74 0.73 33.3 0 0 59.72 46.65
  L 60.97 47.60
  A 0.55 0.55 0.0 0 1 60.92 48.52
  L 56.91 50.88
  A 2.00 1.99 57.1 0 1 54.28 50.31
  C 47.94 41.35 51.01 29.36 61.23 25.02
  A 1.36 1.36 0.0 0 1 63.12 26.28
  Q 63.12 27.94 63.12 30.04
  Q 63.12 30.30 63.02 30.44
  Q 62.85 30.65 62.48 30.63
  A 0.13 0.13 0.0 0 0 62.39 30.86
  Q 62.49 30.95 62.70 30.99
  Z"
/>
<ellipse fill="#ffffff" cx="0.00" cy="0.00" transform="translate(104.89,30.06) rotate(49.9)" rx="0.91" ry="0.73"/>
<path fill="#c6d3e1" d="
  M 62.70 30.99
  L 64.29 31.03
  Q 64.75 31.04 64.75 31.49
  L 64.75 33.01
  A 0.44 0.44 0.0 0 0 65.20 33.45
  L 65.57 33.44
  Q 65.88 33.43 65.86 33.12
  L 65.76 31.49
  A 0.47 0.47 0.0 0 1 66.26 30.99
  L 67.36 31.04
  A 0.63 0.62 3.3 0 1 67.95 31.69
  L 67.89 32.87
  A 0.63 0.63 0.0 0 0 68.48 33.53
  Q 70.20 33.63 71.48 35.00
  A 2.58 2.57 50.0 0 1 71.15 38.82
  Q 67.35 41.67 63.17 44.13
  Q 62.65 44.43 62.26 44.35
  Q 61.82 44.26 61.37 43.91
  L 61.46 36.02
  Q 61.47 35.54 60.99 35.54
  L 60.25 35.54
  Q 59.71 35.54 59.72 35.00
  L 59.73 33.98
  Q 59.74 33.46 60.27 33.46
  L 62.24 33.47
  Q 62.69 33.47 62.69 33.02
  L 62.70 30.99
  Z"
/>
<path fill="#c6d3e1" d="
  M 44.30 31.47
  Q 44.72 31.10 44.98 31.60
  Q 45.06 31.76 44.97 32.19
  Q 44.92 32.49 44.74 32.66
  Q 44.30 33.07 43.67 32.96
  Q 42.76 32.80 43.46 32.20
  L 44.30 31.47
  Z"
/>
<path fill="#eaeefa" d="
  M 108.19 33.91
  A 0.54 0.53 -25.8 0 1 108.42 33.28
  Q 108.93 32.97 109.78 33.26
  A 0.67 0.67 0.0 0 1 109.95 34.44
  Q 108.68 35.33 108.19 33.91
  Z"
/>
<ellipse fill="#eaeefa" cx="0.00" cy="0.00" transform="translate(112.96,38.02) rotate(39.5)" rx="0.88" ry="0.68"/>
<path fill="#96e3c1" d="
  M 189.67 46.64
  A 0.69 0.69 0.0 0 0 190.75 46.66
  L 195.72 40.60
  A 1.57 1.57 0.0 0 1 197.94 40.40
  L 198.35 40.74
  A 2.06 2.06 0.0 0 1 198.57 43.68
  L 191.78 51.33
  A 1.70 1.70 0.0 0 1 189.31 51.40
  L 184.87 46.96
  A 1.89 1.89 0.0 0 1 184.92 44.25
  L 185.15 44.04
  A 1.82 1.81 49.5 0 1 187.84 44.26
  L 189.67 46.64
  Z"
/>
<ellipse fill="#eaeefa" cx="0.00" cy="0.00" transform="translate(115.99,42.11) rotate(45.6)" rx="0.93" ry="0.73"/>
<path fill="#000000" d="
  M 307.80 100.79
  Q 302.53 90.82 295.95 81.78
  C 293.82 78.87 288.73 78.35 285.46 76.71
  Q 287.49 76.66 287.62 75.96
  Q 288.00 73.97 287.43 72.72
  L 286.49 68.37
  A 1.87 1.86 -16.5 0 1 287.66 66.22
  Q 290.18 65.29 291.06 62.79
  Q 291.22 62.33 290.98 61.91
  C 289.25 58.84 284.47 59.72 281.49 59.77
  Q 280.96 59.78 280.56 59.44
  Q 278.65 57.81 277.78 55.45
  A 1.08 1.05 0.2 0 0 277.13 54.81
  C 274.19 53.74 272.95 53.37 271.57 50.42
  Q 271.34 50.20 271.63 49.84
  Q 276.93 43.43 285.53 44.17
  C 291.51 44.70 294.55 49.15 297.36 53.84
  C 299.51 57.43 304.68 59.69 308.19 61.74
  C 314.27 65.29 316.30 72.25 317.59 78.50
  C 317.84 79.69 317.37 80.41 317.10 81.44
  A 1.99 1.99 0.0 0 0 318.23 83.76
  C 324.59 86.56 330.10 90.06 327.54 98.01
  C 325.26 105.06 312.56 101.93 307.80 100.79
  Z"
/>
<path fill="#eaeefa" d="
  M 34.31 45.59
  A 0.38 0.38 0.0 0 1 34.92 45.76
  Q 35.04 46.13 34.95 46.52
  A 0.45 0.45 0.0 0 1 34.11 46.60
  Q 33.83 46.00 34.31 45.59
  Z"
/>
<ellipse fill="#eaeefa" cx="0.00" cy="0.00" transform="translate(118.51,46.96) rotate(88.4)" rx="0.66" ry="0.43"/>
<path fill="#eaeefa" d="
  M 108.59 80.65
  Q 105.53 78.92 103.75 79.23
  Q 101.14 79.68 95.55 81.67
  C 94.78 81.94 93.98 81.81 93.23 82.15
  Q 91.87 82.76 91.79 82.79
  Q 81.61 85.93 71.53 89.35
  C 69.34 90.10 66.46 90.99 64.63 92.94
  Q 62.88 94.83 61.20 97.37
  Q 55.70 82.05 50.56 67.75
  Q 48.85 63.00 51.87 59.60
  C 53.82 57.42 57.79 56.35 60.67 55.24
  Q 61.10 55.08 61.56 55.12
  Q 62.48 55.21 62.99 54.48
  A 0.74 0.73 -66.3 0 1 63.74 54.18
  Q 65.41 54.54 66.60 53.43
  Q 66.93 53.12 67.37 53.12
  C 67.66 53.11 67.92 53.16 68.19 53.08
  C 74.08 51.22 80.05 49.57 85.85 47.41
  C 90.03 45.85 95.86 46.19 97.72 51.14
  Q 103.16 65.59 108.59 80.65
  Z
  M 84.08 70.96
  L 81.11 61.79
  A 1.55 1.54 67.0 0 0 78.92 60.90
  Q 77.30 61.76 75.36 62.02
  A 1.73 1.73 0.0 0 0 73.93 64.25
  L 76.78 73.28
  Q 77.21 74.63 75.80 74.65
  Q 73.17 74.70 72.66 77.00
  A 1.28 1.28 0.0 0 0 73.32 78.40
  L 81.61 82.69
  A 2.89 2.88 -62.6 0 0 85.51 81.45
  L 89.95 72.85
  A 1.58 1.58 0.0 0 0 89.27 70.71
  L 88.80 70.46
  Q 88.34 70.23 87.85 70.37
  L 84.72 71.29
  Q 84.23 71.44 84.08 70.96
  Z"
/>
<ellipse fill="#ffffff" cx="0.00" cy="0.00" transform="translate(32.50,51.01) rotate(93.3)" rx="0.95" ry="0.53"/>
<path fill="#e6d2cb" d="
  M 271.57 50.42
  C 272.95 53.37 274.19 53.74 277.13 54.81
  A 1.08 1.05 0.2 0 1 277.78 55.45
  Q 278.65 57.81 280.56 59.44
  Q 280.96 59.78 281.49 59.77
  C 284.47 59.72 289.25 58.84 290.98 61.91
  Q 291.22 62.33 291.06 62.79
  Q 290.18 65.29 287.66 66.22
  A 1.87 1.86 -16.5 0 0 286.49 68.37
  L 287.43 72.72
  C 273.22 76.49 265.69 64.01 270.28 51.79
  Q 270.45 51.35 270.81 51.05
  L 271.57 50.42
  Z"
/>
<ellipse fill="#eaeefa" cx="0.00" cy="0.00" transform="translate(120.96,52.06) rotate(45.6)" rx="0.94" ry="0.70"/>
<path fill="#eaeefa" d="
  M 30.29 55.59
  A 0.36 0.36 0.0 0 1 30.83 55.66
  Q 31.09 56.06 30.93 56.54
  A 0.45 0.44 41.9 0 1 30.10 56.58
  Q 29.84 56.00 30.29 55.59
  Z"
/>
<path fill="#e6d2cb" d="
  M 253.00 74.70
  Q 252.06 76.19 251.92 77.18
  Q 247.61 85.15 244.45 94.14
  Q 234.96 91.49 225.38 89.85
  Q 211.20 87.43 207.72 86.57
  Q 198.04 84.18 188.60 80.97
  C 182.44 78.87 177.38 74.98 172.04 71.34
  Q 171.56 71.01 171.17 71.44
  L 170.48 72.22
  Q 170.18 72.56 169.74 72.45
  Q 165.48 71.34 164.12 67.00
  Q 163.98 66.56 164.10 66.11
  L 165.75 60.12
  A 0.39 0.39 0.0 0 0 165.34 59.63
  L 160.42 59.98
  Q 159.91 60.01 159.66 59.56
  C 157.68 55.98 162.39 55.41 164.51 55.77
  Q 175.68 57.66 186.35 62.10
  Q 194.51 65.49 198.09 66.54
  Q 215.13 71.54 229.25 72.49
  Q 245.83 73.62 253.00 74.70
  Z"
/>
<ellipse fill="#eaeefa" cx="0.00" cy="0.00" transform="translate(29.52,62.01) rotate(90.4)" rx="0.93" ry="0.53"/>
<path fill="#c6d3e1" d="
  M 84.72 71.29
  L 87.85 70.37
  Q 88.34 70.23 88.80 70.46
  L 89.27 70.71
  A 1.58 1.58 0.0 0 1 89.95 72.85
  L 85.51 81.45
  A 2.89 2.88 -62.6 0 1 81.61 82.69
  L 73.32 78.40
  A 1.28 1.28 0.0 0 1 72.66 77.00
  Q 73.17 74.70 75.80 74.65
  Q 77.21 74.63 76.78 73.28
  L 73.93 64.25
  A 1.73 1.73 0.0 0 1 75.36 62.02
  Q 77.30 61.76 78.92 60.90
  A 1.55 1.54 67.0 0 1 81.11 61.79
  L 84.08 70.96
  Q 84.23 71.44 84.72 71.29
  Z"
/>
<path fill="#eaeefa" d="
  M 124.34 62.57
  A 0.34 0.34 0.0 0 1 124.86 62.68
  Q 125.06 63.08 124.92 63.53
  A 0.43 0.43 0.0 0 1 124.12 63.58
  Q 123.84 62.98 124.34 62.57
  Z"
/>
<path fill="#96e3c1" d="
  M 135.08 94.62
  Q 135.53 97.46 135.91 100.30
  Q 135.92 100.39 135.83 100.40
  L 135.57 100.45
  Q 135.23 100.51 135.16 100.17
  C 132.30 87.66 132.76 73.64 143.04 64.33
  Q 143.18 64.20 143.36 64.26
  L 143.93 64.43
  Q 144.30 64.54 144.05 64.84
  C 143.12 65.96 141.84 66.78 141.05 67.78
  C 135.04 75.38 133.53 84.88 135.08 94.62
  Z"
/>
<path fill="#eaeefa" d="
  M 28.13 72.42
  A 0.42 0.42 0.0 0 1 28.92 72.50
  Q 29.01 72.88 28.93 73.27
  Q 28.82 73.83 28.39 73.45
  Q 27.87 72.99 28.13 72.42
  Z"
/>
<path fill="#eaeefa" d="
  M 125.25 73.35
  A 0.38 0.38 0.0 0 1 125.91 73.46
  Q 126.15 74.12 125.84 74.68
  A 0.39 0.38 -45.7 0 1 125.17 74.69
  Q 124.74 73.97 125.25 73.35
  Z"
/>
<path fill="#1d6fd9" d="
  M 253.00 74.70
  C 261.05 75.31 268.84 75.83 276.30 79.21
  Q 276.74 79.41 277.20 79.26
  L 285.46 76.71
  C 288.73 78.35 293.82 78.87 295.95 81.78
  Q 302.53 90.82 307.80 100.79
  Q 307.32 101.06 306.75 101.17
  Q 298.72 106.11 289.36 103.75
  A 0.31 0.31 0.0 0 0 288.99 104.16
  C 290.17 107.55 291.27 112.11 293.03 115.01
  Q 293.48 115.75 292.81 116.60
  Q 292.63 116.83 292.42 116.62
  L 265.16 88.62
  A 0.99 0.99 0.0 0 0 263.53 88.95
  Q 262.74 90.98 261.37 92.64
  A 1.14 1.11 61.5 0 0 261.12 93.52
  Q 261.30 94.82 260.61 96.55
  L 248.57 95.34
  L 251.92 77.18
  Q 252.06 76.19 253.00 74.70
  Z"
/>
<path fill="#000000" d="
  M 251.92 77.18
  L 248.57 95.34
  L 244.45 94.14
  Q 247.61 85.15 251.92 77.18
  Z"
/>
<path fill="#c6d3e1" d="
  M 108.59 80.65
  L 110.73 85.90
  Q 110.93 86.40 110.44 86.61
  L 105.60 88.66
  L 103.75 82.84
  Q 103.59 82.35 103.07 82.32
  Q 102.14 82.27 101.06 82.88
  L 75.21 91.88
  Q 73.41 91.84 71.84 93.05
  Q 69.90 93.04 69.07 93.97
  L 67.80 94.27
  Q 67.21 94.41 67.41 94.98
  Q 67.96 96.58 69.58 100.73
  Q 69.95 101.67 69.26 101.85
  L 63.70 103.55
  Q 63.22 103.70 63.06 103.21
  L 61.20 97.37
  Q 62.88 94.83 64.63 92.94
  C 66.46 90.99 69.34 90.10 71.53 89.35
  Q 81.61 85.93 91.79 82.79
  Q 91.87 82.76 93.23 82.15
  C 93.98 81.81 94.78 81.94 95.55 81.67
  Q 101.14 79.68 103.75 79.23
  Q 105.53 78.92 108.59 80.65
  Z"
/>
<path fill="#ffffff" d="
  M 125.30 79.31
  A 0.37 0.37 0.0 0 1 125.95 79.50
  Q 126.03 80.05 125.91 80.57
  A 0.41 0.40 -52.3 0 1 125.16 80.67
  Q 124.77 79.94 125.30 79.31
  Z"
/>
<path fill="#96e3c1" d="
  M 105.60 88.66
  L 115.07 118.44
  A 0.50 0.49 -18.6 0 1 114.76 119.06
  L 80.15 131.11
  A 0.82 0.81 -18.2 0 1 79.11 130.59
  Q 74.58 116.50 69.85 102.40
  Q 69.74 102.05 69.70 102.02
  Q 69.57 101.91 69.26 101.85
  Q 69.95 101.67 69.58 100.73
  Q 67.96 96.58 67.41 94.98
  Q 67.21 94.41 67.80 94.27
  L 69.07 93.97
  L 81.64 128.49
  A 0.86 0.86 0.0 0 0 82.74 129.01
  L 113.02 118.04
  A 0.35 0.35 0.0 0 0 113.23 117.59
  L 101.06 82.88
  Q 102.14 82.27 103.07 82.32
  Q 103.59 82.35 103.75 82.84
  L 105.60 88.66
  Z"
/>
<path fill="#1fbf7c" d="
  M 101.06 82.88
  L 113.23 117.59
  A 0.35 0.35 0.0 0 1 113.02 118.04
  L 82.74 129.01
  A 0.86 0.86 0.0 0 1 81.64 128.49
  L 69.07 93.97
  Q 69.90 93.04 71.84 93.05
  L 80.92 118.35
  Q 81.10 118.84 81.62 118.78
  Q 86.86 118.22 89.40 122.71
  A 0.67 0.66 -25.2 0 0 90.22 123.00
  L 103.26 117.88
  Q 103.80 117.66 103.78 117.08
  Q 103.60 112.08 107.42 108.85
  A 0.69 0.69 0.0 0 0 107.63 108.09
  L 101.53 91.29
  Q 101.28 90.59 101.34 91.34
  C 102.75 108.62 77.73 111.09 75.67 94.02
  Q 75.62 93.61 75.80 93.24
  L 76.07 92.69
  Q 76.39 92.04 75.67 91.94
  L 75.21 91.88
  L 101.06 82.88
  Z
  M 80.75 95.56
  L 79.77 96.00
  A 0.88 0.87 76.0 0 0 79.26 96.86
  Q 79.29 97.36 79.69 97.71
  C 80.15 98.13 80.70 98.02 81.28 97.95
  Q 81.80 97.89 82.14 98.29
  C 82.89 99.16 83.64 100.09 84.82 100.31
  C 89.47 101.22 89.87 96.80 91.23 93.77
  A 0.85 0.84 -57.3 0 1 92.55 93.48
  L 92.93 93.81
  A 1.79 1.79 0.0 0 1 93.33 96.00
  Q 92.58 97.42 93.85 98.17
  A 1.42 1.42 0.0 0 0 95.99 96.77
  Q 95.71 94.60 97.84 94.92
  A 0.40 0.40 0.0 0 0 98.29 94.44
  L 97.94 92.76
  Q 97.81 92.12 97.23 92.42
  Q 95.84 93.15 95.12 91.85
  Q 94.87 91.41 94.46 91.13
  C 89.82 87.92 88.15 92.92 86.94 96.55
  A 1.13 1.13 0.0 0 1 85.51 97.27
  L 85.16 97.15
  Q 83.62 96.63 84.07 95.06
  L 84.75 92.66
  Q 84.89 92.18 84.42 92.04
  L 82.68 91.51
  Q 82.20 91.36 82.07 91.85
  L 81.24 94.99
  Q 81.13 95.39 80.75 95.56
  Z"
/>
<ellipse fill="#ffffff" cx="0.00" cy="0.00" transform="translate(124.50,85.00) rotate(92.2)" rx="0.97" ry="0.54"/>
<path fill="#c6d3e1" d="
  M 31.68 88.50
  Q 31.97 88.93 31.89 89.49
  A 0.31 0.31 0.0 0 1 31.36 89.65
  Q 30.87 89.14 31.32 88.50
  A 0.22 0.22 0.0 0 1 31.68 88.50
  Z"
/>
<path fill="#e6d2cb" d="
  M 306.75 101.17
  Q 307.13 101.12 307.26 101.50
  C 310.48 111.26 321.02 142.60 299.98 140.96
  Q 296.71 140.71 294.21 139.39
  Q 290.99 135.87 285.60 133.04
  Q 285.34 132.90 285.12 132.70
  Q 283.93 131.58 284.75 132.25
  L 262.16 105.64
  L 258.81 99.46
  A 0.47 0.47 0.0 0 1 259.21 98.77
  L 260.38 98.72
  A 0.66 0.65 -86.6 0 0 260.98 98.18
  Q 261.15 97.12 260.61 96.55
  Q 261.30 94.82 261.12 93.52
  A 1.14 1.11 61.5 0 1 261.37 92.64
  Q 262.74 90.98 263.53 88.95
  A 0.99 0.99 0.0 0 1 265.16 88.62
  L 292.42 116.62
  Q 292.63 116.83 292.81 116.60
  Q 293.48 115.75 293.03 115.01
  C 291.27 112.11 290.17 107.55 288.99 104.16
  A 0.31 0.31 0.0 0 1 289.36 103.75
  Q 298.72 106.11 306.75 101.17
  Z"
/>
<path fill="#ffffff" d="
  M 123.26 90.13
  A 0.39 0.39 0.0 0 1 123.93 90.31
  Q 124.08 90.96 124.03 91.10
  Q 123.58 92.62 122.98 91.15
  Q 122.78 90.66 123.26 90.13
  Z"
/>
<path fill="#96e3c1" d="
  M 81.24 94.99
  L 82.07 91.85
  Q 82.20 91.36 82.68 91.51
  L 84.42 92.04
  Q 84.89 92.18 84.75 92.66
  L 84.07 95.06
  Q 83.62 96.63 85.16 97.15
  L 85.51 97.27
  A 1.13 1.13 0.0 0 0 86.94 96.55
  C 88.15 92.92 89.82 87.92 94.46 91.13
  Q 94.87 91.41 95.12 91.85
  Q 95.84 93.15 97.23 92.42
  Q 97.81 92.12 97.94 92.76
  L 98.29 94.44
  A 0.40 0.40 0.0 0 1 97.84 94.92
  Q 95.71 94.60 95.99 96.77
  A 1.42 1.42 0.0 0 1 93.85 98.17
  Q 92.58 97.42 93.33 96.00
  A 1.79 1.79 0.0 0 0 92.93 93.81
  L 92.55 93.48
  A 0.85 0.84 -57.3 0 0 91.23 93.77
  C 89.87 96.80 89.47 101.22 84.82 100.31
  C 83.64 100.09 82.89 99.16 82.14 98.29
  Q 81.80 97.89 81.28 97.95
  C 80.70 98.02 80.15 98.13 79.69 97.71
  Q 79.29 97.36 79.26 96.86
  A 0.88 0.87 76.0 0 1 79.77 96.00
  L 80.75 95.56
  Q 81.13 95.39 81.24 94.99
  Z"
/>
<path fill="#96e3c1" d="
  M 71.84 93.05
  Q 73.41 91.84 75.21 91.88
  L 75.67 91.94
  Q 76.39 92.04 76.07 92.69
  L 75.80 93.24
  Q 75.62 93.61 75.67 94.02
  C 77.73 111.09 102.75 108.62 101.34 91.34
  Q 101.28 90.59 101.53 91.29
  L 107.63 108.09
  A 0.69 0.69 0.0 0 1 107.42 108.85
  Q 103.60 112.08 103.78 117.08
  Q 103.80 117.66 103.26 117.88
  L 90.22 123.00
  A 0.67 0.66 -25.2 0 1 89.40 122.71
  Q 86.86 118.22 81.62 118.78
  Q 81.10 118.84 80.92 118.35
  L 71.84 93.05
  Z"
/>
<path fill="#c6d3e1" d="
  M 33.74 94.44
  Q 33.97 94.89 33.88 95.49
  A 0.28 0.28 0.0 0 1 33.40 95.63
  Q 32.83 95.02 33.32 94.40
  Q 33.56 94.09 33.74 94.44
  Z"
/>
<ellipse fill="#eaeefa" cx="0.00" cy="0.00" transform="translate(121.52,96.23) rotate(93.9)" rx="0.74" ry="0.52"/>
<path fill="#ffffff" d="
  M 245.28 156.12
  L 240.89 162.28
  Q 200.29 162.21 160.05 162.28
  C 155.42 162.28 152.74 160.65 152.75 155.86
  Q 152.75 132.73 152.75 109.60
  C 152.75 104.68 154.88 102.50 159.66 102.50
  Q 198.41 102.49 237.16 102.50
  C 242.73 102.50 245.01 104.66 244.97 110.09
  Q 244.82 132.49 245.28 156.12
  Z
  M 163.85 112.49
  A 2.18 2.18 0.0 0 0 161.67 110.31
  A 2.18 2.18 0.0 0 0 159.49 112.49
  A 2.18 2.18 0.0 0 0 161.67 114.67
  A 2.18 2.18 0.0 0 0 163.85 112.49
  Z
  M 170.56 112.48
  A 2.20 2.20 0.0 0 0 168.36 110.28
  A 2.20 2.20 0.0 0 0 166.16 112.48
  A 2.20 2.20 0.0 0 0 168.36 114.68
  A 2.20 2.20 0.0 0 0 170.56 112.48
  Z
  M 177.90 112.47
  A 2.20 2.20 0.0 0 0 175.70 110.27
  A 2.20 2.20 0.0 0 0 173.50 112.47
  A 2.20 2.20 0.0 0 0 175.70 114.67
  A 2.20 2.20 0.0 0 0 177.90 112.47
  Z
  M 236.07 118.95
  A 0.92 0.92 0.0 0 0 235.15 118.03
  L 161.23 118.03
  A 0.92 0.92 0.0 0 0 160.31 118.95
  L 160.31 119.03
  A 0.92 0.92 0.0 0 0 161.23 119.95
  L 235.15 119.95
  A 0.92 0.92 0.0 0 0 236.07 119.03
  L 236.07 118.95
  Z"
/>
<ellipse fill="#ffffff" cx="0.00" cy="0.00" transform="translate(117.00,106.01) rotate(133.8)" rx="1.23" ry="0.64"/>
<path fill="#1d6fd9" d="
  M 262.16 105.64
  L 284.75 132.25
  Q 275.75 130.77 268.28 125.52
  L 258.04 117.89
  A 0.95 0.95 0.0 0 1 257.73 116.77
  L 262.16 105.64
  Z"
/>
<circle fill="#dd0051" cx="161.67" cy="112.49" r="2.18"/>
<circle fill="#e6d2cb" cx="168.36" cy="112.48" r="2.20"/>
<circle fill="#96e3c1" cx="175.70" cy="112.47" r="2.20"/>
<ellipse fill="#c6d3e1" cx="0.00" cy="0.00" transform="translate(49.00,117.05) rotate(41.1)" rx="1.00" ry="0.79"/>
<rect fill="#94b9fd" x="160.31" y="118.03" width="75.76" height="1.92" rx="0.92"/>
<ellipse fill="#eaeefa" cx="0.00" cy="0.00" transform="translate(58.86,123.03) rotate(53.5)" rx="1.10" ry="0.82"/>
<ellipse fill="#eaeefa" cx="0.00" cy="0.00" transform="translate(64.00,125.50) rotate(-3.0)" rx="0.79" ry="0.49"/>
<path fill="#404751" d="
  M 268.28 125.52
  Q 275.75 130.77 284.75 132.25
  Q 283.93 131.58 285.12 132.70
  Q 285.34 132.90 285.60 133.04
  Q 290.99 135.87 294.21 139.39
  C 295.47 149.03 303.11 159.01 309.13 165.88
  Q 325.94 185.05 346.04 200.74
  Q 346.43 201.05 346.46 201.55
  L 347.34 217.46
  L 346.62 218.00
  L 326.50 218.00
  L 325.72 217.46
  Q 320.15 214.18 315.42 209.58
  C 302.17 196.67 290.25 182.04 279.00 167.41
  A 0.35 0.35 0.0 0 0 278.44 167.42
  L 247.28 209.73
  A 0.64 0.64 0.0 0 1 246.40 209.87
  L 220.10 191.14
  A 0.57 0.57 0.0 0 1 219.97 190.33
  L 240.89 162.28
  L 245.28 156.12
  L 268.28 125.52
  Z"
/>
<ellipse fill="#eaeefa" cx="0.00" cy="0.00" transform="translate(68.98,127.00) rotate(45.9)" rx="1.24" ry="0.68"/>
</svg>
